<?xml version="1.0" encoding="utf-8"?>
<!-- Generator: Adobe Illustrator 26.2.1, SVG Export Plug-In . SVG Version: 6.00 Build 0)  -->
<svg version="1.1" id="Layer_1" xmlns="http://www.w3.org/2000/svg" xmlns:xlink="http://www.w3.org/1999/xlink" x="0px" y="0px"
	 viewBox="0 0 20.5 22.5" style="enable-background:new 0 0 20.5 22.5;" xml:space="preserve">
<style type="text/css">
	.st0{fill:#A71F23;}
</style>
<path d="M19.5,19c-0.1-1.2-1.1-2-2.2-2h-2.8v-0.5h1.8c0.7,0,1.2-0.6,1.2-1.2v-1c0-0.7-0.6-1.2-1.2-1.2h-1.8v-1.5H14V13h-1.8
	c-0.7,0-1.2,0.6-1.2,1.2v1c0,0.7,0.6,1.2,1.2,1.2H14V18c-1,0.1-1.9,0.9-2,2H9.5v-0.8c0-0.7-0.6-1.2-1.2-1.2H6.5v-6.5H6V15H3.2
	C2,15,1,16,1,17.2V19c-0.6,0.1-1,0.6-1,1.2c0,0.7,0.6,1.2,1.2,1.2c0.6,0,1.1-0.4,1.2-1H3v0.8c0,0.7,0.6,1.2,1.2,1.2h4
	c0.7,0,1.2-0.6,1.2-1.2v-0.8H12c0.1,0.7,0.5,1.3,1.1,1.7c0.1,0.1,0.3,0,0.3-0.1c0.1-0.1,0-0.3-0.1-0.3c0,0,0,0,0,0
	c-0.8-0.5-1.1-1.6-0.6-2.4c0.5-0.8,1.6-1.1,2.4-0.6c0.8,0.5,1.1,1.6,0.7,2.4c-0.3,0.6-0.9,0.9-1.5,0.9c-0.1,0-0.2,0.1-0.2,0.2
	s0.1,0.2,0.2,0.2c1.1,0,2.1-0.9,2.2-2H18c0.1,0.6,0.6,1,1.2,1c0.7,0,1.2-0.6,1.2-1.2C20.5,19.7,20.1,19.1,19.5,19z M1.2,21
	c-0.4,0-0.8-0.3-0.8-0.8c0-0.4,0.3-0.8,0.8-0.8S2,19.8,2,20.2C2,20.7,1.7,21,1.2,21z M3,19.2V20H2.5c-0.1-0.5-0.5-0.8-1-1v-1.8
	c0-1,0.8-1.8,1.8-1.8H6V18H4.2C3.6,18,3,18.6,3,19.2z M9,21.2C9,21.7,8.7,22,8.2,22h-4c-0.4,0-0.8-0.3-0.8-0.8v-2
	c0-0.4,0.3-0.8,0.8-0.8h4c0.4,0,0.8,0.3,0.8,0.8V21.2z M12.2,16c-0.4,0-0.8-0.3-0.8-0.8v-1c0-0.4,0.3-0.8,0.8-0.8h4
	c0.4,0,0.8,0.3,0.8,0.8v1c0,0.4-0.3,0.8-0.8,0.8H12.2z M18,20h-1.6c-0.1-1-0.9-1.9-2-2v-0.5h2.8c0.9,0,1.6,0.7,1.7,1.5
	C18.5,19.2,18.2,19.5,18,20z M19.2,21c-0.4,0-0.8-0.3-0.8-0.8c0-0.4,0.3-0.8,0.8-0.8s0.8,0.3,0.8,0.8C20,20.7,19.7,21,19.2,21z
	 M8.2,6.5h4c0.9,0,1.6,0.6,1.7,1.5h0.5c-0.1-1.1-1.1-2-2.2-2h-1.8V4.5h1.8c0.7,0,1.2-0.6,1.2-1.2v-1c0-0.7-0.6-1.2-1.2-1.2h-1.6
	c-0.2,0-0.4-0.1-0.5-0.2L9.7,0.4C9.5,0.1,9.2,0,8.8,0H8.2C7.6,0,7,0.6,7,1.2v1c0,0.1,0.1,0.2,0.2,0.2s0.2-0.1,0.2-0.2v-1
	c0-0.4,0.3-0.8,0.8-0.8h0.6c0.2,0,0.4,0.1,0.5,0.2l0.4,0.4c0.2,0.2,0.5,0.4,0.9,0.4h1.6c0.4,0,0.8,0.3,0.8,0.8v1
	C13,3.7,12.7,4,12.2,4h-4C7.8,4,7.5,3.7,7.5,3.2C7.5,3.1,7.4,3,7.2,3S7,3.1,7,3.2c0,0.7,0.6,1.2,1.2,1.2H10V6H8.2C7.1,6,6.2,6.9,6,8
	h0.5C6.7,7.1,7.4,6.5,8.2,6.5z"/>
<path class="st0" d="M16.2,8h-4C11.6,8,11,8.6,11,9.2v1c0,0.7,0.6,1.2,1.2,1.2h4c0.7,0,1.2-0.6,1.2-1.2v-1C17.5,8.6,16.9,8,16.2,8z
	 M17,10.2c0,0.4-0.3,0.8-0.8,0.8h-4c-0.4,0-0.8-0.3-0.8-0.8v-1c0-0.4,0.3-0.8,0.8-0.8h4c0.4,0,0.8,0.3,0.8,0.8V10.2z"/>
<path class="st0" d="M9.5,10.2c0,0.7-0.6,1.2-1.2,1.2h-4c-0.7,0-1.2-0.6-1.2-1.2v-1C3,8.6,3.6,8,4.2,8h4c0.7,0,1.2,0.6,1.2,1.2
	c0,0.1-0.1,0.2-0.2,0.2S9,9.4,9,9.2c0-0.4-0.3-0.8-0.8-0.8h-4c-0.4,0-0.8,0.3-0.8,0.8v1c0,0.4,0.3,0.8,0.8,0.8h4
	C8.7,11,9,10.7,9,10.2C9,10.1,9.1,10,9.2,10S9.5,10.1,9.5,10.2z"/>
</svg>
