<svg id="Layer_1" data-name="Layer 1" xmlns="http://www.w3.org/2000/svg" viewBox="0 0 98 100"><defs><style>.cls-1{fill:#a71f23;}</style></defs><circle cx="49.49" cy="6.6" r="2.13"/><path class="cls-1" d="M18.27,34.85l6.12-7.46a1.48,1.48,0,1,0-2.28-1.88l-7,8.5a1.47,1.47,0,0,0,.1,2l7.59,7.59a1.46,1.46,0,0,0,1,.44,1.45,1.45,0,0,0,1-.44,1.46,1.46,0,0,0,0-2.08Z"/><path class="cls-1" d="M44.09,33,36.5,25.41a1.47,1.47,0,0,0-2.09,2.08l6.65,6.65L34.94,41.6a1.48,1.48,0,0,0,.2,2.08,1.49,1.49,0,0,0,2.08-.21l7-8.49A1.47,1.47,0,0,0,44.09,33Z"/><path d="M88.57,0H9.43C4.49,0,0,4,0,9V64.57A9.8,9.8,0,0,0,9.43,74H40.71c.16,2,.31,8.27-.32,10.37-1.17,1.73-13.49,5.36-24.17,7.85A1.43,1.43,0,0,0,15,93.54v5A1.64,1.64,0,0,0,16.65,100h64.7A1.63,1.63,0,0,0,83,98.53v-5a1.56,1.56,0,0,0-1.22-1.44c-10.74-2.48-23.09-6-24.21-7.62C56.9,82.28,56.92,76,57,74H88.57A9.8,9.8,0,0,0,98,64.57V9C98,4,93.51,0,88.57,0ZM80,94.7V97H18V94.7c11-2.64,24.1-6.12,25.1-9.36.86-2.83.7-9.34.56-11.34H54.1c-.11,2-.19,8.51.68,11.34C55.77,88.58,69,92.06,80,94.7ZM95,65c0,3.33-3.69,6-7,6H9a6,6,0,0,1-6-6V9A6,6,0,0,1,9,3H88c3.33,0,7,2.7,7,6Z"/><path d="M88.53,12H9.47A1.47,1.47,0,0,0,8,13.47V57.53A1.47,1.47,0,0,0,9.47,59H88.53A1.47,1.47,0,0,0,90,57.53V13.47A1.47,1.47,0,0,0,88.53,12ZM11,15H48V56H11ZM87,56H51V15H87Z"/><path d="M54.5,36h29A1.5,1.5,0,0,0,85,34.5v-16A1.5,1.5,0,0,0,83.5,17h-29A1.5,1.5,0,0,0,53,18.5v16A1.5,1.5,0,0,0,54.5,36ZM56,20H82V33H56Z"/><path d="M83,39H55a1.5,1.5,0,0,0,0,3H83a1.5,1.5,0,0,0,0-3Z"/><path d="M83,45H55a1.5,1.5,0,0,0,0,3H83a1.5,1.5,0,0,0,0-3Z"/><path d="M83,51H55a1.5,1.5,0,0,0,0,3H83a1.5,1.5,0,0,0,0-3Z"/></svg>