<svg id="Layer_1" data-name="Layer 1" xmlns="http://www.w3.org/2000/svg" viewBox="0 0 62.31 70.99"><defs><style>.cls-1{fill:#a71f23;}</style></defs><path d="M39.42,56.7H22.88a2.51,2.51,0,0,0-2.5,2.5v9.29a2.51,2.51,0,0,0,2.5,2.5H39.42a2.51,2.51,0,0,0,2.5-2.5v-9.3A2.51,2.51,0,0,0,39.42,56.7Zm1.39,11.78a1.38,1.38,0,0,1-1.39,1.38H22.88a1.39,1.39,0,0,1-1.39-1.38V59.19a1.4,1.4,0,0,1,1.39-1.38H39.42a1.39,1.39,0,0,1,1.39,1.38Z"/><path d="M60.12,58.88H46.32a2.18,2.18,0,0,0-2.18,2.17V68.8A2.19,2.19,0,0,0,46.32,71h13.8a2.2,2.2,0,0,0,2.19-2.18V61.05A2.2,2.2,0,0,0,60.12,58.88Zm1.07,9.93a1.06,1.06,0,0,1-1.07,1H46.32a1.08,1.08,0,0,1-1.07-1.06V61.05A1.08,1.08,0,0,1,46.32,60H60.13a1.07,1.07,0,0,1,1.06,1.06Z"/><path d="M16,58.88H2.18A2.18,2.18,0,0,0,0,61.05V68.8A2.19,2.19,0,0,0,2.18,71H16a2.19,2.19,0,0,0,2.18-2.18V61.05A2.18,2.18,0,0,0,16,58.88Zm1.07,9.93a1.06,1.06,0,0,1-1.07,1H2.17A1.07,1.07,0,0,1,1.11,68.8V61a1.07,1.07,0,0,1,1.06-1H16a1.07,1.07,0,0,1,1.06,1.06Z"/><path d="M13.14,47.47a5.67,5.67,0,0,0-4.06-1.69,5.74,5.74,0,1,0,5.74,5.75A5.62,5.62,0,0,0,13.14,47.47ZM9.08,56.15a4.63,4.63,0,1,1,4.63-4.63A4.62,4.62,0,0,1,9.08,56.15Z"/><path d="M53.22,45.78a5.74,5.74,0,0,0,0,11.48h0a5.74,5.74,0,0,0,0-11.48Zm0,10.36a4.62,4.62,0,0,1,0-9.24,4.62,4.62,0,1,1,0,9.24Z"/><path class="cls-1" d="M36,43a6.78,6.78,0,1,0-4.81,11.57h0A6.78,6.78,0,0,0,36,43Zm-.79,8.79a5.66,5.66,0,1,1-4-9.66h0a5.66,5.66,0,0,1,4,9.66Z"/><path d="M49.37,22.29H41.92V18.2a2.5,2.5,0,0,0-2.5-2.5H22.88a2.51,2.51,0,0,0-2.5,2.5v4.09H12.93a4.42,4.42,0,0,0-4.41,4.4V40.54a.55.55,0,0,0,.56.57.57.57,0,0,0,.56-.59V26.69a3.3,3.3,0,0,1,3.29-3.29h7.45v4.09a2.5,2.5,0,0,0,2.5,2.5h7.71v6.24a.55.55,0,0,0,.56.55.55.55,0,0,0,.55-.55V30h7.71a2.5,2.5,0,0,0,2.5-2.5V23.4h7.46a3.3,3.3,0,0,1,3.3,3.29V40.54a.5.5,0,0,0,.15.4.56.56,0,0,0,.39.17h0a.57.57,0,0,0,.56-.59V26.69A4.42,4.42,0,0,0,49.37,22.29Zm-8.56,5.2a1.4,1.4,0,0,1-1.39,1.38H22.88a1.4,1.4,0,0,1-1.39-1.38v-9.3a1.4,1.4,0,0,1,1.39-1.38H39.42a1.4,1.4,0,0,1,1.39,1.39Z"/><path d="M31.14,0a6.77,6.77,0,1,0,6.78,6.77A6.77,6.77,0,0,0,31.14,0Zm0,12.43a5.66,5.66,0,1,1,4-9.65,5.57,5.57,0,0,1,1.65,4A5.66,5.66,0,0,1,31.14,12.43Z"/></svg>