<svg id="Layer_1" data-name="Layer 1" xmlns="http://www.w3.org/2000/svg" viewBox="0 0 83.26 51.99"><defs><style>.cls-1{fill:#a71f23;}</style></defs><path class="cls-1" d="M52.05,25.48a.5.5,0,0,1-.5.5H24.05a.5.5,0,0,1,0-1h27.5A.5.5,0,0,1,52.05,25.48Z"/><path class="cls-1" d="M13.71,33a.5.5,0,0,0,0,1h12.5a.5.5,0,0,0,0-1Z"/><path class="cls-1" d="M39.71,29.49a.5.5,0,0,0-.5-.5H13.71a.5.5,0,0,0,0,1h25.5a.5.5,0,0,0,.5-.5h0Z"/><path class="cls-1" d="M45.8,34h5.75a.5.5,0,0,0,0-1H45.8a.5.5,0,0,0,0,1Z"/><path d="M72.55,0H8.45A3.5,3.5,0,0,0,5,3.5V46.63H0v.5A4.86,4.86,0,0,0,4.85,52h66.3a.5.5,0,0,0,.5-.5h0a.51.51,0,0,0-.5-.49H4.85A3.85,3.85,0,0,1,1,47.63H32.88a2.75,2.75,0,0,0,2.7,2.25h7.25a2.75,2.75,0,0,0,2.7-2.25H59.66a.5.5,0,0,0,0-1H6V3.5A2.5,2.5,0,0,1,8.45,1h64.1a2.5,2.5,0,0,1,2.5,2.5v20a.5.5,0,0,0,1,0V3.5A3.5,3.5,0,0,0,72.55,0Zm-28,47.63a1.75,1.75,0,0,1-1.68,1.25H35.59a1.75,1.75,0,0,1-1.68-1.25Z"/><path d="M72.5,24a.5.5,0,0,0,.5-.5V3.31H8v41H59.66a.5.5,0,0,0,0-1H9v-39H72V23.48a.5.5,0,0,0,.49.51Z"/><path class="cls-1" d="M70.59,42a.39.39,0,0,0,.23-.07.41.41,0,0,0,.13-.19l2.48-7.26a.33.33,0,0,0,0-.14.39.39,0,0,0-.11-.27.4.4,0,0,0-.64.19L70.2,41.51a.33.33,0,0,0,0,.14.39.39,0,0,0,.11.27A.35.35,0,0,0,70.59,42Z"/><path class="cls-1" d="M69.18,36.68a.31.31,0,0,0,.07-.21.38.38,0,0,0-.37-.37h-.15L65,37.78a.55.55,0,0,0-.25.2.5.5,0,0,0-.09.29v.07a.5.5,0,0,0,.09.29.55.55,0,0,0,.25.2l3.74,1.68h.15a.38.38,0,0,0,.37-.37h0a.31.31,0,0,0-.07-.21.49.49,0,0,0-.18-.14l-3.37-1.5L69,36.79a.37.37,0,0,0,.18-.08Z"/><path d="M67.6,27.91a.49.49,0,0,0-.66-.24h0A11.45,11.45,0,0,0,61.5,33.1a.51.51,0,0,0,.28.65.5.5,0,0,0,.62-.22,10.47,10.47,0,0,1,5-5A.5.5,0,0,0,67.6,27.91Z"/><path class="cls-1" d="M49.05,29.48a.5.5,0,0,0-.5-.5h-5.5a.5.5,0,0,0,0,1h5.5A.5.5,0,0,0,49.05,29.48Z"/><path class="cls-1" d="M51.55,17H30.05a.5.5,0,0,0,0,1h21.5a.5.5,0,0,0,0-1Z"/><path class="cls-1" d="M48.55,14a.5.5,0,0,0,0-1h-5.5a.5.5,0,0,0,0,1Z"/><path class="cls-1" d="M74.48,40a.31.31,0,0,0-.07.21.38.38,0,0,0,.37.37h.15l3.74-1.68a.55.55,0,0,0,.25-.2A.5.5,0,0,0,79,38.4v-.07a.5.5,0,0,0-.09-.29.55.55,0,0,0-.25-.2l-3.74-1.68h-.15a.38.38,0,0,0-.37.37h0a.31.31,0,0,0,.07.21.38.38,0,0,0,.18.15L78,38.4l-3.37,1.5A.38.38,0,0,0,74.48,40Z"/><path class="cls-1" d="M51.55,21h-1.5a.5.5,0,0,0,0,1h1.5a.5.5,0,0,0,0-1Z"/><path d="M71.83,26.58a.5.5,0,0,0,0,1A10.43,10.43,0,1,1,61.4,38v0a.5.5,0,0,0-1,0A11.43,11.43,0,1,0,71.84,26.57h0Z"/><path class="cls-1" d="M30.05,34H40.8a.5.5,0,0,0,0-1H30.05a.5.5,0,0,0,0,1Z"/><path class="cls-1" d="M13.71,14h25.5a.5.5,0,0,0,0-1H13.71a.5.5,0,0,0,0,1Z"/><path class="cls-1" d="M13.71,18h12.5a.5.5,0,0,0,0-1H13.71a.5.5,0,0,0,0,1Z"/><path class="cls-1" d="M13.71,22h32.5a.5.5,0,0,0,0-1H13.71a.5.5,0,0,0,0,1Z"/><path class="cls-1" d="M13.71,26h6.5a.5.5,0,0,0,0-1h-6.5a.5.5,0,0,0,0,1Z"/></svg>