<svg id="Layer_1" data-name="Layer 1" xmlns="http://www.w3.org/2000/svg" viewBox="0 0 73.83 93"><defs><style>.cls-1{fill:#a71f23;}</style></defs><path d="M56.1,21A24.51,24.51,0,1,0,21.66,55.41a10.33,10.33,0,0,1,4,8.34v3.46a4.88,4.88,0,0,0,4.88,4.88H43.28a4.88,4.88,0,0,0,4.88-4.88V63.75a10.33,10.33,0,0,1,4-8.34A24.51,24.51,0,0,0,56.1,21ZM46,63.75v3.46a2.7,2.7,0,0,1-2.7,2.7H30.56a2.7,2.7,0,0,1-2.7-2.7V63.75c0-.13,0-.25,0-.37H46C46,63.5,46,63.62,46,63.75Zm4.84-10a12.41,12.41,0,0,0-4.6,7.5H27.62a12.41,12.41,0,0,0-4.6-7.5,22.36,22.36,0,1,1,27.8,0Z"/><path d="M42,81.19H31.88a1.52,1.52,0,0,1,0-3H43.74a1.09,1.09,0,1,0,0-2.18H31.88a3.69,3.69,0,0,0-3.69,3.69,3.64,3.64,0,0,0,1.07,2.61,3.7,3.7,0,0,0,0,5.22,3.65,3.65,0,0,0,2.28,1.06v0A4.42,4.42,0,0,0,36,93h1.92a4.42,4.42,0,0,0,4.41-4.41v0A3.69,3.69,0,0,0,42,81.19Zm-1.85,7.4a2.23,2.23,0,0,1-2.23,2.23H36a2.23,2.23,0,0,1-2.23-2.23h6.38ZM42,86.4H31.88a1.52,1.52,0,0,1,0-3H42a1.52,1.52,0,0,1,0,3Z"/><path class="cls-1" d="M35.83,7V1.09a1.09,1.09,0,1,1,2.18,0V7a1.09,1.09,0,1,1-2.18,0Z"/><path class="cls-1" d="M63,10.81a1.1,1.1,0,0,1,0,1.54l-4.29,4.29a1.09,1.09,0,0,1-1.6-1.48l.06-.06,4.29-4.29A1.1,1.1,0,0,1,63,10.81Z"/><path class="cls-1" d="M17.23,56.6a1.08,1.08,0,0,1,0,1.54h0L12.35,63a1.09,1.09,0,0,1-1.53-1.54l4.87-4.88a1.08,1.08,0,0,1,1.54,0Z"/><path class="cls-1" d="M73.83,36.92A1.1,1.1,0,0,1,72.74,38H66.26a1.09,1.09,0,0,1,0-2.18h6.48a1.09,1.09,0,0,1,1.09,1.09Z"/><path class="cls-1" d="M8.66,36.92A1.09,1.09,0,0,1,7.57,38H1.09a1.09,1.09,0,0,1,0-2.18H7.57a1.08,1.08,0,0,1,1.09,1.09Z"/><path class="cls-1" d="M63,61.48A1.09,1.09,0,1,1,61.47,63h0L56.6,58.14a1.09,1.09,0,0,1,1.54-1.54Z"/><path class="cls-1" d="M10.82,12.35a1.08,1.08,0,0,1,0-1.54,1.1,1.1,0,0,1,1.54,0l4.29,4.29a1.09,1.09,0,1,1-1.55,1.54Z"/></svg>