<svg id="Layer_1" data-name="Layer 1" xmlns="http://www.w3.org/2000/svg" viewBox="0 0 6394.88 5463.54"><defs><style>.cls-1{fill:#a71f23;}.cls-2,.cls-3,.cls-4{isolation:isolate;}.cls-3,.cls-4{font-size:0.66px;font-family:HelveticaNeueCyr-Bold, HelveticaNeueCyr;font-weight:700;}.cls-4{letter-spacing:-0.02em;}</style></defs><path d="M3935.59,1955a32.76,32.76,0,1,1,46.33-46.34l131.23,131.23c30.48,30.47-15.86,76.81-46.33,46.33Z"/><path d="M3489.63,813.92c-30.47,30.47-76.81-15.86-46.34-46.34L4210.88,0l2184,2184-2184,2184-770.82-770.82c-30.48-30.47,15.86-76.81,46.33-46.33l724.49,724.48L6302.18,2184,4210.88,92.67Z"/><path d="M3067.29,3550.71c30.48-30.47,76.81,15.86,46.34,46.34L2342.73,4368l-2184-2184L2342.72,0l765.07,765.07c30.48,30.48-15.86,76.81-46.33,46.34L2342.72,92.67,251.42,2184l2091.3,2091.3,724.57-724.57Z"/><path class="cls-1" d="M2316.08,2116.81c0-43.1,65.53-43.1,65.53,0v134.33c0,43.11-65.53,43.11-65.53,0Z"/><path class="cls-1" d="M2688.48,1896.65c0-43.1,65.54-43.1,65.54,0v574.66c0,43.1-65.54,43.1-65.54,0Z"/><path class="cls-1" d="M3060.89,1482.22c0-43.1,65.53-43.1,65.53,0V2885.73c0,43.1-65.53,43.1-65.53,0Z"/><path class="cls-1" d="M3433.29,1064.56c0-43.1,65.54-43.1,65.54,0V3303.4c0,43.1-65.54,43.1-65.54,0Z"/><path class="cls-1" d="M3805.7,698.7c0-43.1,65.53-43.1,65.53,0V3669.26c0,43.1-65.53,43.1-65.53,0Z"/><path d="M6040.13,2146.75c0-43.1,65.54-43.1,65.54,0v74.45c0,43.1-65.54,43.1-65.54,0Z"/><path d="M5667.73,1806c0-43.11,65.54-43.11,65.54,0v756c0,43.1-65.54,43.1-65.54,0Z"/><path d="M5295.32,1451.81c0-43.11,65.54-43.11,65.54,0V2916.15c0,43.1-65.54,43.1-65.54,0Z"/><path d="M4922.92,1067.79c0-43.1,65.53-43.1,65.53,0V3300.16c0,43.1-65.53,43.1-65.53,0Z"/><path d="M4550.51,701.93c0-43.1,65.54-43.1,65.54,0V3666c0,43.1-65.54,43.1-65.54,0Z"/><path d="M4178.11,315.83c0-43.11,65.53-43.11,65.53,0v3736.3c0,43.1-65.53,43.1-65.53,0V315.82Z"/><path d="M4069.27,2279.25c30.48-30.48,76.81,15.86,46.34,46.33l-130.88,130.88c-30.48,30.47-76.81-15.86-46.34-46.34Z"/><path d="M3695.64,2652.88c30.48-30.48,76.81,15.86,46.34,46.33l-131.59,131.58c-30.47,30.48-76.81-15.86-46.33-46.33Z"/><path d="M3319.9,3028.62c30.47-30.48,76.81,15.86,46.33,46.34L2342.72,4098.46,428.24,2184,2342.73,269.51,3367.65,1294.42c30.48,30.47-15.86,76.81-46.33,46.33L2342.73,362.16,520.91,2184,2342.73,4005.79Z"/><path d="M3561.26,1580.69c-30.48-30.47,15.86-76.81,46.33-46.33l128.77,128.76c30.47,30.48-15.86,76.81-46.34,46.34Z"/><g class="cls-2"><text class="cls-3" transform="translate(0 5462.74)">C</text><text class="cls-4" transform="translate(0.49 5462.74)">r</text><text class="cls-3" transform="translate(0.73 5462.74)">eated by Oleksandr Panasovskyi</text></g><g class="cls-2"><text class="cls-3" transform="translate(0 5463.4)">f</text><text class="cls-4" transform="translate(0.22 5463.4)">r</text><text class="cls-3" transform="translate(0.46 5463.4)">om the Noun P</text><text class="cls-4" transform="translate(5.1 5463.4)">r</text><text class="cls-3" transform="translate(5.34 5463.4)">oject</text></g></svg>