<svg id="Layer_1" data-name="Layer 1" xmlns="http://www.w3.org/2000/svg" viewBox="0 0 63.5 51.7"><defs><style>.cls-1{fill:#a71f23;}</style></defs><path d="M7.22,51.7H56.28a7.29,7.29,0,0,0,7.22-6.63.52.52,0,0,0-.13-.38.51.51,0,0,0-.37-.16H62V4.3A4.31,4.31,0,0,0,57.72,0H5.78a4.32,4.32,0,0,0-4.3,4.3V44.53H.5a.52.52,0,0,0-.37.16.52.52,0,0,0-.13.38A7.29,7.29,0,0,0,7.22,51.7ZM2.48,4.3A3.3,3.3,0,0,1,5.78,1H57.72A3.3,3.3,0,0,1,61,4.3V44.53H2.48ZM37.64,45.53,36.82,47a.62.62,0,0,1-.55.32h-9a.62.62,0,0,1-.55-.32l-.82-1.44Zm-12.93,0,1.1,1.93a1.61,1.61,0,0,0,1.42.83h9a1.6,1.6,0,0,0,1.42-.83l1.1-1.93H62.43a6.29,6.29,0,0,1-6.15,5.17H7.22a6.29,6.29,0,0,1-6.15-5.17Z"/><path d="M14.57,40.15H6.86V20.77a.5.5,0,0,0-.5-.5.5.5,0,0,0-.5.5V40.65a.5.5,0,0,0,.5.5h8.21a.5.5,0,0,0,.5-.5A.51.51,0,0,0,14.57,40.15Z"/><path d="M57.64,40.65V33a.5.5,0,0,0-.5-.5.5.5,0,0,0-.5.5v7.17H22.25a.52.52,0,0,0-.5.5.5.5,0,0,0,.5.5H57.14a.5.5,0,0,0,.5-.5Z"/><path d="M6.36,15a.5.5,0,0,0,.5-.5V11.22H56.64V27.36a.5.5,0,0,0,.5.5.5.5,0,0,0,.5-.5V4.87a.5.5,0,0,0-.5-.5H41.88a.5.5,0,0,0,0,1H56.64v4.85H6.86V5.37H35.53a.5.5,0,0,0,0-1H6.36a.5.5,0,0,0-.5.5v9.67A.5.5,0,0,0,6.36,15Z"/><path d="M10.19,48.62a.51.51,0,1,0,0-1,.53.53,0,0,0-.51.51A.51.51,0,0,0,10.19,48.62Z"/><path d="M13,48.62a.46.46,0,1,0-.12-.87.54.54,0,0,0-.36.36A.52.52,0,0,0,13,48.62Z"/><path d="M15.9,48.62a.52.52,0,0,0,.52-.51.53.53,0,0,0-.52-.51.53.53,0,0,0-.51.51A.51.51,0,0,0,15.9,48.62Z"/><path d="M13.54,7.34a.47.47,0,0,0-.47.47v0a.53.53,0,0,0,.53.5.5.5,0,0,0,0-1Z"/><path d="M16.51,7.34a.49.49,0,0,0-.47.49h0a.53.53,0,0,0,.53.5.5.5,0,0,0,0-1Z"/><path d="M19.48,7.34a.49.49,0,0,0-.47.49h0a.53.53,0,0,0,.53.5.5.5,0,0,0,0-1Z"/><path class="cls-1" d="M10.46,14.15a.5.5,0,0,0-.5.5V36.72a.5.5,0,0,0,.5.5H22a.5.5,0,0,0,.5-.5V14.65a.5.5,0,0,0-.5-.5Zm11,22.07H11V15.15H21.49V36.22Z"/><path class="cls-1" d="M13.5,19.34H19a.5.5,0,0,0,0-1H13.5a.5.5,0,0,0,0,1Z"/><path class="cls-1" d="M13.5,23.81H19a.5.5,0,0,0,0-1H13.5a.5.5,0,0,0,0,1Z"/><path class="cls-1" d="M13.5,28.28H19a.5.5,0,0,0,0-1H13.5a.5.5,0,0,0,0,1Z"/><path class="cls-1" d="M13.5,32.75H19a.5.5,0,0,0,0-1H13.5a.5.5,0,0,0,0,1Z"/><path class="cls-1" d="M49.25,28.57a.24.24,0,0,1,.18-.18L51.58,28a1.25,1.25,0,0,0,1-1.22V24.63a1.25,1.25,0,0,0-1-1.22L49.43,23a.27.27,0,0,1-.18-.18A8.76,8.76,0,0,0,48.49,21a.28.28,0,0,1,0-.25l1.21-1.83a1.23,1.23,0,0,0-.15-1.56l-1.5-1.5a1.25,1.25,0,0,0-1.56-.16l-1.83,1.22a.28.28,0,0,1-.25,0,9.26,9.26,0,0,0-1.84-.76.27.27,0,0,1-.18-.19L42,13.8a1.25,1.25,0,0,0-1.22-1H38.64a1.25,1.25,0,0,0-1.22,1L37,15.94a.25.25,0,0,1-.18.19,9.51,9.51,0,0,0-1.84.76.28.28,0,0,1-.25,0l-1.82-1.2a1.24,1.24,0,0,0-1.56.15l-1.5,1.5a1.24,1.24,0,0,0-.15,1.56l1.21,1.83a.23.23,0,0,1,0,.25,10.09,10.09,0,0,0-.76,1.83A.24.24,0,0,1,30,23l-2.15.43a1.25,1.25,0,0,0-1,1.22v2.11a1.25,1.25,0,0,0,1,1.22l2.15.43a.26.26,0,0,1,.18.17,10.19,10.19,0,0,0,.76,1.84.23.23,0,0,1,0,.25L29.73,32.5a1.25,1.25,0,0,0,.11,1.5l1.5,1.5a1.24,1.24,0,0,0,1.56.15l1.83-1.21a.23.23,0,0,1,.25,0,10.19,10.19,0,0,0,1.84.76.28.28,0,0,1,.17.18l.43,2.15a1.25,1.25,0,0,0,1.22,1h2.11a1.25,1.25,0,0,0,1.22-1l.43-2.15a.24.24,0,0,1,.17-.18,10.19,10.19,0,0,0,1.84-.76.23.23,0,0,1,.25,0L46.5,35.7a1.25,1.25,0,0,0,1.56-.16l1.5-1.5a1.23,1.23,0,0,0,.15-1.56L48.5,30.65a.28.28,0,0,1,0-.25A8.59,8.59,0,0,0,49.25,28.57Zm-1.59,2.64L48.88,33a.24.24,0,0,1,0,.3l-1.5,1.5a.24.24,0,0,1-.3,0l-1.84-1.22a1.21,1.21,0,0,0-1.27,0,9.1,9.1,0,0,1-1.65.68,1.26,1.26,0,0,0-.87.94L41,37.38a.25.25,0,0,1-.24.19H38.64a.26.26,0,0,1-.24-.19L38,35.22a1.26,1.26,0,0,0-.87-.94,9.1,9.1,0,0,1-1.65-.68,1.15,1.15,0,0,0-.6-.16,1.22,1.22,0,0,0-.67.2l-1.83,1.22a.24.24,0,0,1-.3,0l-1.5-1.5a.24.24,0,0,1,0-.3l1.22-1.83a1.21,1.21,0,0,0,0-1.27,9.19,9.19,0,0,1-.68-1.66,1.25,1.25,0,0,0-.94-.86L28,27a.26.26,0,0,1-.19-.24V24.63a.26.26,0,0,1,.19-.24L30.16,24a1.26,1.26,0,0,0,.94-.87,9.1,9.1,0,0,1,.68-1.65,1.23,1.23,0,0,0,0-1.28l-1.22-1.82a.24.24,0,0,1,0-.3l1.5-1.5a.24.24,0,0,1,.3,0l1.82,1.21a1.25,1.25,0,0,0,1.28.05,7.65,7.65,0,0,1,1.65-.68,1.27,1.27,0,0,0,.87-.95L38.4,14a.26.26,0,0,1,.24-.19h2.11A.26.26,0,0,1,41,14l.43,2.15a1.24,1.24,0,0,0,.88,1,8.11,8.11,0,0,1,1.64.68,1.25,1.25,0,0,0,1.28-.05l1.83-1.21a.24.24,0,0,1,.3,0l1.5,1.5a.24.24,0,0,1,0,.3l-1.22,1.82a1.25,1.25,0,0,0,0,1.29,8,8,0,0,1,.67,1.63,1.27,1.27,0,0,0,1,.88l2.15.43a.26.26,0,0,1,.19.24v2.11a.26.26,0,0,1-.19.24l-2.15.43a1.24,1.24,0,0,0-1,.87,8.07,8.07,0,0,1-.67,1.64A1.26,1.26,0,0,0,47.66,31.21Z"/><path class="cls-1" d="M39.69,19.73a6,6,0,1,0,6,6A6,6,0,0,0,39.69,19.73Zm0,10.91a5,5,0,1,1,5-5v.05A5,5,0,0,1,39.69,30.64Z"/><path d="M32.4,7.84a.5.5,0,0,0,.5.5H50.58a.51.51,0,0,0,.5-.5.5.5,0,0,0-.5-.5H32.9A.5.5,0,0,0,32.4,7.84Z"/></svg>