<svg id="Layer_1" data-name="Layer 1" xmlns="http://www.w3.org/2000/svg" viewBox="0 0 76 76"><defs><style>.cls-1{fill:none;stroke:#000;stroke-linecap:round;stroke-linejoin:round;}.cls-2{fill:#a71f23;}</style></defs><path class="cls-1" d="M27.52,70a2.76,2.76,0,1,1-2.76-2.76h0A2.76,2.76,0,0,1,27.52,70Z"/><rect class="cls-1" x="33.59" y="0.5" width="6.62" height="2.2"/><rect class="cls-1" x="0.5" y="13.74" width="2.2" height="6.62"/><rect class="cls-1" x="0.5" y="23.66" width="2.2" height="6.62"/><path class="cls-1" d="M17,60.06a1.1,1.1,0,0,1-1.1,1.1H10.42a1.1,1.1,0,0,1-1.1-1.1V54.54a1.11,1.11,0,0,1,1.1-1.1h5.52a1.1,1.1,0,0,1,1.1,1.1Z"/><path class="cls-1" d="M28.63,60.06a1.11,1.11,0,0,1-1.11,1.1H22a1.11,1.11,0,0,1-1.11-1.1V54.54A1.11,1.11,0,0,1,22,53.44h5.51a1.11,1.11,0,0,1,1.11,1.1Z"/><path class="cls-1" d="M36.9,53.44H33.59a1.1,1.1,0,0,0-1.1,1.1v5.52a1.1,1.1,0,0,0,1.1,1.1H39.1a1.11,1.11,0,0,0,1.11-1.1V55A5,5,0,0,1,36.9,53.44Z"/><path class="cls-1" d="M40.5,55a5,5,0,0,1-5-5V37.48l-5-5,5-5V20a5,5,0,0,1,5-5h6.32V9.32h0a6.61,6.61,0,0,0-6.61-6.61H9.32A6.61,6.61,0,0,0,2.71,9.32h0V68.88a6.61,6.61,0,0,0,6.6,6.62h30.9a6.61,6.61,0,0,0,6.61-6.61h0V55Z"/><path class="cls-1" d="M40.5,55a5,5,0,0,1-5-5V37.48l-5-5,5-5V20a5,5,0,0,1,5-5h3V11.53H6V64.47H43.5V55Z"/><path class="cls-1" d="M70.5,15h-30a5,5,0,0,0-5,5v7.5l-5,5,5,5V50a5,5,0,0,0,5,5h30a5,5,0,0,0,5-5V20A5,5,0,0,0,70.5,15Z"/><path class="cls-2" d="M44.87,46.11a.5.5,0,0,1-.5-.5,23.14,23.14,0,0,1,6.81-16.44.53.53,0,0,1,.55-.11,17.83,17.83,0,0,1,9.69,9.7.48.48,0,0,1-.11.54A23.1,23.1,0,0,1,44.87,46.11Zm6.78-16a22.1,22.1,0,0,0-6.27,15,22.11,22.11,0,0,0,15-6.28,16.77,16.77,0,0,0-8.73-8.71Z"/><path class="cls-2" d="M59.92,37.35h-.07a.47.47,0,0,1-.36-.25A16.93,16.93,0,0,0,53.38,31a.51.51,0,0,1-.17-.7l.07-.09L55.51,28a4.95,4.95,0,0,1,7,7v0l-2.19,2.19A.52.52,0,0,1,59.92,37.35Zm-5.48-6.88A17.74,17.74,0,0,1,60,36.05l1.77-1.77.08-.07a3.95,3.95,0,0,0-5.64-5.52Z"/><path class="cls-2" d="M55.08,29.62a.5.5,0,0,1-.35-.14,2.73,2.73,0,0,1,0-3.85h0a5.8,5.8,0,0,0,1.69-4.09.5.5,0,0,1,1,0h0a6.7,6.7,0,0,1-2,4.78h0a1.73,1.73,0,0,0,0,2.44.5.5,0,0,1,0,.71h0A.53.53,0,0,1,55.08,29.62Z"/><path class="cls-2" d="M39.25,40.49a.5.5,0,0,1,0-1,5.72,5.72,0,0,0,4.09-1.69,2.7,2.7,0,0,1,3.15-.49.49.49,0,0,1,.28.44.46.46,0,0,1-.06.23.5.5,0,0,1-.67.22,1.7,1.7,0,0,0-2,.3A6.69,6.69,0,0,1,39.25,40.49Z"/><path class="cls-2" d="M50.49,51.73a.5.5,0,0,1-.5-.5,6.73,6.73,0,0,1,2-4.79,1.73,1.73,0,0,0,.31-2,.51.51,0,0,1,.21-.68.52.52,0,0,1,.68.22,2.7,2.7,0,0,1-.49,3.15,5.73,5.73,0,0,0-1.7,4.1.5.5,0,0,1-.5.5Z"/><path class="cls-2" d="M39.87,34.83a.5.5,0,1,1,0-1,7.87,7.87,0,0,0,5.57-2.31A3.44,3.44,0,0,1,50,31.23h0a.49.49,0,0,1,.13.69.5.5,0,0,1-.69.14l0,0a2.46,2.46,0,0,0-3.24.19h0A8.86,8.86,0,0,1,39.87,34.83Z"/><path class="cls-2" d="M56.16,51.12a.5.5,0,0,1-.5-.5,8.8,8.8,0,0,1,2.6-6.28h0A2.37,2.37,0,0,0,59,42.68a2.41,2.41,0,0,0-.51-1.57.51.51,0,0,1,0-.71.49.49,0,0,1,.7.05l0,0A3.39,3.39,0,0,1,60,42.66h0a3.45,3.45,0,0,1-1,2.39h0a7.89,7.89,0,0,0-2.29,5.56.49.49,0,0,1-.49.51Z"/><path class="cls-2" d="M62.93,36.55A2.73,2.73,0,0,1,61,35.76h0a.5.5,0,0,1,.71-.71,1.73,1.73,0,0,0,2.42,0h0a6.74,6.74,0,0,1,4.79-2,.5.5,0,0,1,0,1h0a5.74,5.74,0,0,0-4.08,1.7A2.7,2.7,0,0,1,62.93,36.55Z"/><path class="cls-2" d="M61.38,28.23h-.19a.5.5,0,0,1-.31-.46.61.61,0,0,1,0-.19l3.73-9a.5.5,0,0,1,1,.2.61.61,0,0,1,0,.19l-3.72,9A.51.51,0,0,1,61.38,28.23Z"/><path class="cls-2" d="M62.76,29.6a.5.5,0,0,1-.47-.31.61.61,0,0,1,0-.19.51.51,0,0,1,.3-.46l9-3.72a.48.48,0,0,1,.64.26h0a.61.61,0,0,1,0,.19.49.49,0,0,1-.31.46l-9,3.72A.47.47,0,0,1,62.76,29.6Z"/><path class="cls-2" d="M44.87,46.11a.52.52,0,0,1-.35-.14.49.49,0,0,1-.15-.36.47.47,0,0,1,.15-.35l9.42-9.42a.5.5,0,0,1,.71,0h0a.5.5,0,0,1,0,.7L45.23,46A.52.52,0,0,1,44.87,46.11Z"/></svg>