<?xml version="1.0" encoding="utf-8"?>
<!-- Generator: Adobe Illustrator 26.2.1, SVG Export Plug-In . SVG Version: 6.00 Build 0)  -->
<svg version="1.1" id="Layer_1" xmlns="http://www.w3.org/2000/svg" xmlns:xlink="http://www.w3.org/1999/xlink" x="0px" y="0px"
	 viewBox="0 0 62 69.6" style="enable-background:new 0 0 62 69.6;" xml:space="preserve">
<style type="text/css">
	.st0{fill:#A71F23;}
</style>
<path d="M26.7,21.5H8.6c-0.5,0-1,0.4-1,0.9c0,0.5,0.4,1,0.9,1h18.2c0.5,0,1-0.5,0.9-1C27.6,21.9,27.2,21.5,26.7,21.5z M21.3,27.2
	H8.6c-0.5,0-1,0.4-1,0.9c0,0.5,0.4,1,0.9,1h12.8c0.5,0,0.9-0.5,0.9-1C22.2,27.7,21.8,27.2,21.3,27.2z M19.7,38.8H8.6
	c-0.5,0-1,0.4-1,0.9c0,0.5,0.4,1,0.9,1h11.1c0.5,0,1-0.4,1-0.9C20.6,39.2,20.2,38.8,19.7,38.8z M19.7,33H8.6c-0.5,0-1,0.4-1,0.9
	c0,0.5,0.4,1,0.9,1h11.1c0.5,0,1-0.4,1-0.9C20.6,33.5,20.2,33,19.7,33z M8.6,17.6h10.6c0.5,0,1-0.4,1-1c0-0.5-0.4-1-1-1H8.6
	c-0.5,0-1,0.4-1,1C7.6,17.2,8,17.6,8.6,17.6z M61.3,62.3l-5.6-9.2c-0.3-0.5-0.9-0.6-1.3-0.3l-0.6,0.4l-2.4-4
	c1.5-1.3,2.7-2.9,3.6-4.6c4.3-8.2,1.2-18.3-7-22.6V1c0-0.5-0.4-1-1-1H5.7c-0.5,0-1,0.4-1,1v2.9H1c-0.5,0-1,0.4-1,1v47
	c0,0.5,0.4,1,1,1h34.8c1.5,0.4,3,0.6,4.5,0.6c2,0,3.9-0.4,5.8-1l2.4,4l-0.6,0.4c-0.5,0.3-0.6,0.9-0.3,1.3l5.6,9.2
	c1.4,2.3,4.3,3,6.6,1.6v0C61.9,67.5,62.7,64.6,61.3,62.3z M6.6,1.9h39.4v19.1c-0.9-0.3-1.9-0.6-2.8-0.8v-6.4c0,0,0,0,0-0.1
	c0-0.1,0-0.2,0-0.2c0,0,0-0.1,0-0.1c0-0.1-0.1-0.2-0.2-0.3l-8.4-9C34.6,4.1,34.5,4,34.4,4c0,0-0.1,0-0.1,0c-0.1,0-0.2,0-0.3,0
	c0,0,0,0,0,0H6.6V1.9z M40.1,12.9h-5.2V7.3l2.8,3L40.1,12.9z M1.9,50.9V5.8H33v8.1c0,0.5,0.4,1,1,1h7.4V20
	c-6.2-0.5-12.2,2.6-15.4,7.9c-4.9,7.9-2.4,18.2,5.4,23H1.9z M40.1,51.6c-5,0-9.9-2.6-12.7-7.2c-4.2-7-2-16.1,5-20.4
	c7-4.2,16.1-2,20.4,5c4.2,7,2,16.1-5,20.4c-0.1,0-0.1,0.1-0.2,0.1C45.3,50.9,42.7,51.6,40.1,51.6z M47.8,51.6
	c0.4-0.2,0.7-0.4,1.1-0.6c0.3-0.2,0.7-0.5,1-0.7l2.3,3.8L50,55.4L47.8,51.6z M58.7,67.3c-1.4,0.8-3.2,0.4-4-1l-5.1-8.4l5-3l5.1,8.4
	l0,0C60.5,64.7,60,66.5,58.7,67.3z M8.5,23.4h18.2c0.5,0,1-0.5,0.9-1c0-0.5-0.4-0.9-0.9-0.9H8.6c-0.5,0-1,0.4-1,0.9
	C7.6,22.9,8,23.4,8.5,23.4z M21.3,27.2H8.6c-0.5,0-1,0.4-1,0.9c0,0.5,0.4,1,0.9,1h12.8c0.5,0,0.9-0.5,0.9-1
	C22.2,27.7,21.8,27.2,21.3,27.2z M19.7,38.8H8.6c-0.5,0-1,0.4-1,0.9c0,0.5,0.4,1,0.9,1h11.1c0.5,0,1-0.4,1-0.9
	C20.6,39.2,20.2,38.8,19.7,38.8z M19.7,33H8.6c-0.5,0-1,0.4-1,0.9c0,0.5,0.4,1,0.9,1h11.1c0.5,0,1-0.4,1-0.9
	C20.6,33.5,20.2,33,19.7,33z M8.6,17.6h10.6c0.5,0,1-0.4,1-1c0-0.5-0.4-1-1-1H8.6c-0.5,0-1,0.4-1,1C7.6,17.2,8,17.6,8.6,17.6z
	 M19.7,38.8H8.6c-0.5,0-1,0.4-1,0.9c0,0.5,0.4,1,0.9,1h11.1c0.5,0,1-0.4,1-0.9C20.6,39.2,20.2,38.8,19.7,38.8z M19.7,33H8.6
	c-0.5,0-1,0.4-1,0.9c0,0.5,0.4,1,0.9,1h11.1c0.5,0,1-0.4,1-0.9C20.6,33.5,20.2,33,19.7,33z M21.3,27.2H8.6c-0.5,0-1,0.4-1,0.9
	c0,0.5,0.4,1,0.9,1h12.8c0.5,0,0.9-0.5,0.9-1C22.2,27.7,21.8,27.2,21.3,27.2z M26.7,21.5H8.6c-0.5,0-1,0.4-1,0.9c0,0.5,0.4,1,0.9,1
	h18.2c0.5,0,1-0.5,0.9-1C27.6,21.9,27.2,21.5,26.7,21.5z M19.2,15.7H8.6c-0.5,0-1,0.4-1,1c0,0.5,0.4,1,1,1h10.6c0.5,0,1-0.4,1-1
	C20.1,16.1,19.7,15.7,19.2,15.7z"/>
<path class="st0" d="M50.3,30.5c-3.4-5.6-10.7-7.4-16.3-4c-5.6,3.4-7.4,10.7-4,16.3c3.4,5.6,10.7,7.4,16.4,4c0,0,0.1,0,0.1-0.1
	c3.7-2.2,5.7-6.1,5.7-10.1C52.1,34.6,51.5,32.5,50.3,30.5z M47,44l-3.5,2.1c-3.8,1.3-7.9,0.3-10.7-2.6c-3.8-4-3.5-10.4,0.5-14.1
	c4-3.8,10.4-3.5,14.1,0.5C51.2,33.9,51,40.3,47,44z"/>
</svg>
