<svg id="Layer_1" data-name="Layer 1" xmlns="http://www.w3.org/2000/svg" viewBox="0 0 61 64.1"><defs><style>.cls-1{fill:#a71f23;}</style></defs><path d="M46,0H13.7a1.08,1.08,0,0,0-.7.3L.3,13a1.14,1.14,0,0,0-.3.8V63.1a.94.94,0,0,0,1,1H46a.94.94,0,0,0,1-1V1.1A1,1,0,0,0,46,0ZM12.7,3.4v9.3H3.4ZM45,62H2V14.8H13.8a.94.94,0,0,0,1-1V2H45Z"/><path d="M19.7,12.4H38.8a1,1,0,0,0,0-2H19.7a.94.94,0,0,0-1,1A1,1,0,0,0,19.7,12.4Z"/><path d="M8.1,23.8h4.8a.94.94,0,0,0,1-1V18a.94.94,0,0,0-1-1H8.1a.94.94,0,0,0-1,1v4.8A.94.94,0,0,0,8.1,23.8Zm1-4.8h2.8v2.8H9.1Z"/><path d="M38.9,21.4a1,1,0,0,0,0-2H26.1a1,1,0,0,0,0,2Z"/><path d="M12.9,42.2H8.1a.94.94,0,0,0-1,1V48a.94.94,0,0,0,1,1h4.8a.94.94,0,0,0,1-1V43.2A1,1,0,0,0,12.9,42.2Zm-1,4.8H9.1V44.2h2.8Z"/><path d="M32.5,44.6H19.7a1,1,0,1,0,0,2H32.5a1,1,0,0,0,0-2Z"/><path d="M12.9,51.2H8.1a.94.94,0,0,0-1,1V57a.94.94,0,0,0,1,1h4.8a.94.94,0,0,0,1-1V52.2A1,1,0,0,0,12.9,51.2Zm-1,4.8H9.1V53.2h2.8Z"/><path d="M32.5,53.6H19.7a1,1,0,1,0,0,2H32.5a1,1,0,0,0,0-2Z"/><path d="M12.9,33.1H8.1a.94.94,0,0,0-1,1v4.8a.94.94,0,0,0,1,1h4.8a.94.94,0,0,0,1-1V34.1A1.08,1.08,0,0,0,12.9,33.1Zm-1,4.8H9.1V35.1h2.8Z"/><path d="M38.9,35.5H19.7a1,1,0,0,0,0,2H38.8a.94.94,0,0,0,1-1A.92.92,0,0,0,38.9,35.5Z"/><path d="M39.1,26.5H7.4a1,1,0,1,0,0,2H39.1a.94.94,0,0,0,1-1A1,1,0,0,0,39.1,26.5Z"/><path class="cls-1" d="M60,15.7H57.5V12.9a1,1,0,0,0-.8-1V9.7a.94.94,0,0,0-1-1H51.5a.94.94,0,0,0-1,1v2.2a1,1,0,0,0-.8,1V47.4a.6.6,0,0,0,.1.4l2.9,6.9a1,1,0,0,0,.9.6.87.87,0,0,0,.9-.6l2.9-6.9a.6.6,0,0,0,.1-.4V17.7H59v9.6a1,1,0,0,0,2,0V16.7A1,1,0,0,0,60,15.7Zm-8.3-1.8h3.8v1.8H51.7Zm.8-3.2h2.2v1.2H52.5Zm3,36.5-1.9,4.5-1.9-4.5V17.7h3.8Z"/></svg>