<svg id="Layer_1" data-name="Layer 1" xmlns="http://www.w3.org/2000/svg" viewBox="0 0 435 435"><defs><style>.cls-1{fill:#a71f23;}</style></defs><rect class="cls-1" x="-5.89" y="99.84" width="446.71" height="3" transform="translate(-18.63 58.66) rotate(-14.74)"/><rect class="cls-1" x="216" y="-122.1" width="3" height="446.72" transform="matrix(0.25, -0.97, 0.97, 0.25, 64.2, 285.81)"/><rect class="cls-1" x="1.5" y="42.9" width="432" height="3"/><rect class="cls-1" x="1.5" y="156.6" width="432" height="3"/><path d="M413.9,435H21.1A21.17,21.17,0,0,1,0,413.9V21.1A21.17,21.17,0,0,1,21.1,0H413.9A21.17,21.17,0,0,1,435,21.1V413.9A21.17,21.17,0,0,1,413.9,435ZM21.1,3A18.1,18.1,0,0,0,3,21.1V413.9A18.1,18.1,0,0,0,21.1,432H413.9A18.1,18.1,0,0,0,432,413.9h0V21.1A18.1,18.1,0,0,0,413.9,3H21.1Z"/><path d="M326.3,340.8H256.5c-11,0-19-7.3-19-17.4s7.9-17.4,18.9-17.4h92.9c11,0,19,7.3,19,17.3s-7.9,17.4-18.9,17.4C341.8,340.8,334,340.8,326.3,340.8ZM256.5,309c-9.4,0-15.9,5.9-15.9,14.4s6.6,14.4,16,14.4h58.2c11.4,0,23.2,0,34.7-.1,9.4,0,15.9-5.9,15.9-14.4s-6.6-14.3-16-14.3Z"/><polygon points="341.1 332.7 338.9 330.5 346.1 323.4 338.9 316.4 341.1 314.2 350.3 323.4 341.1 332.7"/><path d="M118.6,401H48.9c-11,0-19-7.3-19-17.4s7.9-17.4,18.9-17.4h92.9c11,0,19,7.3,19,17.3s-7.9,17.4-18.9,17.4C134.1,401,126.3,401,118.6,401ZM48.8,369.2c-9.4,0-15.9,5.9-15.9,14.4s6.6,14.4,16,14.4H107c11.4,0,23.2,0,34.8-.1,9.4,0,15.9-5.9,15.9-14.4s-6.6-14.3-16-14.3Z"/><path d="M146.8,224.7H48.9c-11,0-19-7.3-19-17.4s7.9-17.4,18.9-17.4H198.2c11,0,19,7.3,19,17.3s-7.9,17.4-18.9,17.4C190.6,224.7,168.7,224.7,146.8,224.7Zm-98-31.8c-9.4,0-15.9,5.9-15.9,14.4s6.6,14.4,16,14.4h60.3c26.8,0,76.6.1,89.1-.1,9.4,0,15.9-5.9,15.9-14.4s-6.6-14.3-16-14.3Z"/><path d="M95.4,282.8H48.9c-11,0-19-7.3-19-17.4S37.8,248,48.8,248H198.2c11,0,19,7.3,19,17.3s-7.9,17.4-18.9,17.4C188.4,282.8,151.8,282.8,95.4,282.8ZM48.8,251c-9.4,0-15.9,5.9-15.9,14.4s6.6,14.4,16,14.4H95.4c56.4,0,93,0,102.9-.1,9.4,0,15.9-5.9,15.9-14.4s-6.6-14.3-16-14.3Z"/><path d="M146.8,341.9H48.9c-11,0-19-7.3-19-17.4s7.9-17.4,18.9-17.4H198.2c11,0,19,7.3,19,17.3s-7.9,17.4-18.9,17.4C190.6,341.9,168.7,341.9,146.8,341.9Zm-98-31.8c-9.4,0-15.9,5.9-15.9,14.4s6.6,14.4,16,14.4h60.3c26.8,0,76.6.1,89.1-.1,9.4,0,15.9-5.9,15.9-14.4s-6.6-14.3-16-14.3Z"/><polygon points="133.4 392.9 131.2 390.7 138.4 383.6 131.2 376.6 133.4 374.4 142.6 383.6 133.4 392.9"/><rect x="231.61" y="322.99" width="143.1" height="3" transform="translate(-113.34 170.45) rotate(-26.65)"/></svg>