<?xml version="1.0" encoding="utf-8"?>
<!-- Generator: Adobe Illustrator 26.2.1, SVG Export Plug-In . SVG Version: 6.00 Build 0)  -->
<svg version="1.1" id="Layer_1" xmlns="http://www.w3.org/2000/svg" xmlns:xlink="http://www.w3.org/1999/xlink" x="0px" y="0px"
	 viewBox="0 0 1920 921.9" style="enable-background:new 0 0 1920 921.9;" xml:space="preserve">
<style type="text/css">
	.st0{opacity:5.000000e-02;clip-path:url(#SVGID_00000022560759616035142510000003505657565002181796_);}
	.st1{fill:none;stroke:#000000;stroke-width:0.5;stroke-miterlimit:10;}
</style>
<g>
	<defs>
		<rect id="SVGID_1_" width="1920" height="921.9"/>
	</defs>
	<clipPath id="SVGID_00000157305999898536908040000006319367067942625453_">
		<use xlink:href="#SVGID_1_"  style="overflow:visible;"/>
	</clipPath>
	<g style="opacity:5.000000e-02;clip-path:url(#SVGID_00000157305999898536908040000006319367067942625453_);">
		<g>
			<polygon class="st1" points="1186.4,54.3 1121.2,58.3 1169.3,-0.4 1234.9,-5.6 			"/>
			<polygon class="st1" points="1254.5,50.2 1186.4,54.3 1234.9,-5.6 1303.4,-11 			"/>
			<polygon class="st1" points="1325.7,45.9 1254.5,50.2 1303.4,-11 1375.1,-16.7 			"/>
			<polygon class="st1" points="1400.3,41.4 1325.7,45.9 1375.1,-16.7 1450.1,-22.6 			"/>
			<polygon class="st1" points="1478.5,36.6 1400.3,41.4 1450.1,-22.6 1528.7,-28.9 			"/>
			<polygon class="st1" points="1560.6,31.6 1478.5,36.6 1528.7,-28.9 1611.2,-35.4 			"/>
			<polygon class="st1" points="1646.9,26.4 1560.6,31.6 1611.2,-35.4 1697.8,-42.3 			"/>
			<polygon class="st1" points="1737.7,20.9 1646.9,26.4 1697.8,-42.3 1788.9,-49.5 			"/>
			<polygon class="st1" points="1833.4,15.1 1737.7,20.9 1788.9,-49.5 1884.8,-57.1 			"/>
			<polygon class="st1" points="1934.3,9 1833.4,15.1 1884.8,-57.1 1986,-65.1 			"/>
			<polygon class="st1" points="2040.9,2.5 1934.3,9 1986,-65.1 2092.8,-73.6 			"/>
			<polygon class="st1" points="2153.8,-4.4 2040.9,2.5 2092.8,-73.6 2205.7,-82.5 			"/>
			<polygon class="st1" points="2273.4,-11.6 2153.8,-4.4 2205.7,-82.5 2325.4,-92 			"/>
			<polygon class="st1" points="2400.4,-19.3 2273.4,-11.6 2325.4,-92 2452.4,-102.1 			"/>
			<polygon class="st1" points="2535.6,-27.5 2400.4,-19.3 2452.4,-102.1 2587.3,-112.8 			"/>
			<polygon class="st1" points="2679.7,-36.3 2535.6,-27.5 2587.3,-112.8 2731.1,-124.2 			"/>
			<polygon class="st1" points="1136.9,115.4 1072.3,118.1 1121.2,58.3 1186.4,54.3 			"/>
			<polygon class="st1" points="1204.6,112.6 1136.9,115.4 1186.4,54.3 1254.5,50.2 			"/>
			<polygon class="st1" points="1275.4,109.7 1204.6,112.6 1254.5,50.2 1325.7,45.9 			"/>
			<polygon class="st1" points="1349.5,106.7 1275.4,109.7 1325.7,45.9 1400.3,41.4 			"/>
			<polygon class="st1" points="1427.3,103.5 1349.5,106.7 1400.3,41.4 1478.5,36.6 			"/>
			<polygon class="st1" points="1509,100.1 1427.3,103.5 1478.5,36.6 1560.6,31.6 			"/>
			<polygon class="st1" points="1594.9,96.6 1509,100.1 1560.6,31.6 1646.9,26.4 			"/>
			<polygon class="st1" points="1685.4,92.9 1594.9,96.6 1646.9,26.4 1737.7,20.9 			"/>
			<polygon class="st1" points="1780.7,88.9 1685.4,92.9 1737.7,20.9 1833.4,15.1 			"/>
			<polygon class="st1" points="1881.4,84.8 1780.7,88.9 1833.4,15.1 1934.3,9 			"/>
			<polygon class="st1" points="1987.8,80.4 1881.4,84.8 1934.3,9 2040.9,2.5 			"/>
			<polygon class="st1" points="2100.5,75.8 1987.8,80.4 2040.9,2.5 2153.8,-4.4 			"/>
			<polygon class="st1" points="2220.1,70.9 2100.5,75.8 2153.8,-4.4 2273.4,-11.6 			"/>
			<polygon class="st1" points="2347.1,65.7 2220.1,70.9 2273.4,-11.6 2400.4,-19.3 			"/>
			<polygon class="st1" points="2482.4,60.1 2347.1,65.7 2400.4,-19.3 2535.6,-27.5 			"/>
			<polygon class="st1" points="2626.8,54.2 2482.4,60.1 2535.6,-27.5 2679.7,-36.3 			"/>
			<polygon class="st1" points="1086.6,177.6 1022.4,179 1072.3,118.1 1136.9,115.4 			"/>
			<polygon class="st1" points="1153.7,176.3 1086.6,177.6 1136.9,115.4 1204.6,112.6 			"/>
			<polygon class="st1" points="1224,174.8 1153.7,176.3 1204.6,112.6 1275.4,109.7 			"/>
			<polygon class="st1" points="1297.7,173.3 1224,174.8 1275.4,109.7 1349.5,106.7 			"/>
			<polygon class="st1" points="1375,171.7 1297.7,173.3 1349.5,106.7 1427.3,103.5 			"/>
			<polygon class="st1" points="1456.3,170.1 1375,171.7 1427.3,103.5 1509,100.1 			"/>
			<polygon class="st1" points="1541.8,168.3 1456.3,170.1 1509,100.1 1594.9,96.6 			"/>
			<polygon class="st1" points="1631.8,166.5 1541.8,168.3 1594.9,96.6 1685.4,92.9 			"/>
			<polygon class="st1" points="1726.8,164.5 1631.8,166.5 1685.4,92.9 1780.7,88.9 			"/>
			<polygon class="st1" points="1827.2,162.5 1726.8,164.5 1780.7,88.9 1881.4,84.8 			"/>
			<polygon class="st1" points="1933.3,160.3 1827.2,162.5 1881.4,84.8 1987.8,80.4 			"/>
			<polygon class="st1" points="2045.9,158 1933.3,160.3 1987.8,80.4 2100.5,75.8 			"/>
			<polygon class="st1" points="2165.3,155.5 2045.9,158 2100.5,75.8 2220.1,70.9 			"/>
			<polygon class="st1" points="2292.4,152.9 2165.3,155.5 2220.1,70.9 2347.1,65.7 			"/>
			<polygon class="st1" points="2427.8,150.2 2292.4,152.9 2347.1,65.7 2482.4,60.1 			"/>
			<polygon class="st1" points="2572.4,147.2 2427.8,150.2 2482.4,60.1 2626.8,54.2 			"/>
			<polygon class="st1" points="1035.2,241.1 971.6,241 1022.4,179 1086.6,177.6 			"/>
			<polygon class="st1" points="1101.8,241.2 1035.2,241.1 1086.6,177.6 1153.7,176.3 			"/>
			<polygon class="st1" points="1171.6,241.3 1101.8,241.2 1153.7,176.3 1224,174.8 			"/>
			<polygon class="st1" points="1244.8,241.4 1171.6,241.3 1224,174.8 1297.7,173.3 			"/>
			<polygon class="st1" points="1321.6,241.5 1244.8,241.4 1297.7,173.3 1375,171.7 			"/>
			<polygon class="st1" points="1402.4,241.6 1321.6,241.5 1375,171.7 1456.3,170.1 			"/>
			<polygon class="st1" points="1487.4,241.7 1402.4,241.6 1456.3,170.1 1541.8,168.3 			"/>
			<polygon class="st1" points="1577.1,241.8 1487.4,241.7 1541.8,168.3 1631.8,166.5 			"/>
			<polygon class="st1" points="1671.7,241.9 1577.1,241.8 1631.8,166.5 1726.8,164.5 			"/>
			<polygon class="st1" points="1771.7,242 1671.7,241.9 1726.8,164.5 1827.2,162.5 			"/>
			<polygon class="st1" points="1877.5,242.2 1771.7,242 1827.2,162.5 1933.3,160.3 			"/>
			<polygon class="st1" points="1989.8,242.3 1877.5,242.2 1933.3,160.3 2045.9,158 			"/>
			<polygon class="st1" points="2109.1,242.5 1989.8,242.3 2045.9,158 2165.3,155.5 			"/>
			<polygon class="st1" points="2236.1,242.6 2109.1,242.5 2165.3,155.5 2292.4,152.9 			"/>
			<polygon class="st1" points="2371.6,242.8 2236.1,242.6 2292.4,152.9 2427.8,150.2 			"/>
			<polygon class="st1" points="2516.3,243 2371.6,242.8 2427.8,150.2 2572.4,147.2 			"/>
			<polygon class="st1" points="982.9,305.8 919.8,304.2 971.6,241 1035.2,241.1 			"/>
			<polygon class="st1" points="1048.9,307.4 982.9,305.8 1035.2,241.1 1101.8,241.2 			"/>
			<polygon class="st1" points="1118.1,309.1 1048.9,307.4 1101.8,241.2 1171.6,241.3 			"/>
			<polygon class="st1" points="1190.8,310.8 1118.1,309.1 1171.6,241.3 1244.8,241.4 			"/>
			<polygon class="st1" points="1267.1,312.7 1190.8,310.8 1244.8,241.4 1321.6,241.5 			"/>
			<polygon class="st1" points="1347.3,314.6 1267.1,312.7 1321.6,241.5 1402.4,241.6 			"/>
			<polygon class="st1" points="1431.9,316.7 1347.3,314.6 1402.4,241.6 1487.4,241.7 			"/>
			<polygon class="st1" points="1521,318.9 1431.9,316.7 1487.4,241.7 1577.1,241.8 			"/>
			<polygon class="st1" points="1615.2,321.1 1521,318.9 1577.1,241.8 1671.7,241.9 			"/>
			<polygon class="st1" points="1714.8,323.6 1615.2,321.1 1671.7,241.9 1771.7,242 			"/>
			<polygon class="st1" points="1820.3,326.1 1714.8,323.6 1771.7,242 1877.5,242.2 			"/>
			<polygon class="st1" points="1932.3,328.9 1820.3,326.1 1877.5,242.2 1989.8,242.3 			"/>
			<polygon class="st1" points="2051.4,331.8 1932.3,328.9 1989.8,242.3 2109.1,242.5 			"/>
			<polygon class="st1" points="2178.3,334.8 2051.4,331.8 2109.1,242.5 2236.1,242.6 			"/>
			<polygon class="st1" points="2313.7,338.1 2178.3,334.8 2236.1,242.6 2371.6,242.8 			"/>
			<polygon class="st1" points="2458.6,341.7 2313.7,338.1 2371.6,242.8 2516.3,243 			"/>
			<polygon class="st1" points="929.5,371.7 867,368.7 919.8,304.2 982.9,305.8 			"/>
			<polygon class="st1" points="994.9,374.9 929.5,371.7 982.9,305.8 1048.9,307.4 			"/>
			<polygon class="st1" points="1063.6,378.3 994.9,374.9 1048.9,307.4 1118.1,309.1 			"/>
			<polygon class="st1" points="1135.6,381.8 1063.6,378.3 1118.1,309.1 1190.8,310.8 			"/>
			<polygon class="st1" points="1211.3,385.5 1135.6,381.8 1190.8,310.8 1267.1,312.7 			"/>
			<polygon class="st1" points="1291,389.3 1211.3,385.5 1267.1,312.7 1347.3,314.6 			"/>
			<polygon class="st1" points="1375,393.4 1291,389.3 1347.3,314.6 1431.9,316.7 			"/>
			<polygon class="st1" points="1463.6,397.7 1375,393.4 1431.9,316.7 1521,318.9 			"/>
			<polygon class="st1" points="1557.3,402.3 1463.6,397.7 1521,318.9 1615.2,321.1 			"/>
			<polygon class="st1" points="1656.5,407.1 1557.3,402.3 1615.2,321.1 1714.8,323.6 			"/>
			<polygon class="st1" points="1761.6,412.3 1656.5,407.1 1714.8,323.6 1820.3,326.1 			"/>
			<polygon class="st1" points="1873.3,417.7 1761.6,412.3 1820.3,326.1 1932.3,328.9 			"/>
			<polygon class="st1" points="1992.1,423.5 1873.3,417.7 1932.3,328.9 2051.4,331.8 			"/>
			<polygon class="st1" points="2118.8,429.6 1992.1,423.5 2051.4,331.8 2178.3,334.8 			"/>
			<polygon class="st1" points="2254.2,436.2 2118.8,429.6 2178.3,334.8 2313.7,338.1 			"/>
			<polygon class="st1" points="2399.2,443.3 2254.2,436.2 2313.7,338.1 2458.6,341.7 			"/>
			<polygon class="st1" points="875,439 813.2,434.4 867,368.7 929.5,371.7 			"/>
			<polygon class="st1" points="939.8,443.9 875,439 929.5,371.7 994.9,374.9 			"/>
			<polygon class="st1" points="1007.8,448.9 939.8,443.9 994.9,374.9 1063.6,378.3 			"/>
			<polygon class="st1" points="1079.3,454.2 1007.8,448.9 1063.6,378.3 1135.6,381.8 			"/>
			<polygon class="st1" points="1154.4,459.8 1079.3,454.2 1135.6,381.8 1211.3,385.5 			"/>
			<polygon class="st1" points="1233.5,465.7 1154.4,459.8 1211.3,385.5 1291,389.3 			"/>
			<polygon class="st1" points="1316.8,472 1233.5,465.7 1291,389.3 1375,393.4 			"/>
			<polygon class="st1" points="1404.9,478.5 1316.8,472 1375,393.4 1463.6,397.7 			"/>
			<polygon class="st1" points="1498,485.5 1404.9,478.5 1463.6,397.7 1557.3,402.3 			"/>
			<polygon class="st1" points="1596.7,492.8 1498,485.5 1557.3,402.3 1656.5,407.1 			"/>
			<polygon class="st1" points="1701.4,500.6 1596.7,492.8 1656.5,407.1 1761.6,412.3 			"/>
			<polygon class="st1" points="1812.6,508.9 1701.4,500.6 1761.6,412.3 1873.3,417.7 			"/>
			<polygon class="st1" points="1931.1,517.7 1812.6,508.9 1873.3,417.7 1992.1,423.5 			"/>
			<polygon class="st1" points="2057.6,527.2 1931.1,517.7 1992.1,423.5 2118.8,429.6 			"/>
			<polygon class="st1" points="2192.9,537.3 2057.6,527.2 2118.8,429.6 2254.2,436.2 			"/>
			<polygon class="st1" points="2337.9,548.1 2192.9,537.3 2254.2,436.2 2399.2,443.3 			"/>
			<polygon class="st1" points="819.5,507.7 758.3,501.4 813.2,434.4 875,439 			"/>
			<polygon class="st1" points="883.6,514.2 819.5,507.7 875,439 939.8,443.9 			"/>
			<polygon class="st1" points="950.9,521.1 883.6,514.2 939.8,443.9 1007.8,448.9 			"/>
			<polygon class="st1" points="1021.7,528.3 950.9,521.1 1007.8,448.9 1079.3,454.2 			"/>
			<polygon class="st1" points="1096.1,535.9 1021.7,528.3 1079.3,454.2 1154.4,459.8 			"/>
			<polygon class="st1" points="1174.6,543.9 1096.1,535.9 1154.4,459.8 1233.5,465.7 			"/>
			<polygon class="st1" points="1257.3,552.3 1174.6,543.9 1233.5,465.7 1316.8,472 			"/>
			<polygon class="st1" points="1344.7,561.3 1257.3,552.3 1316.8,472 1404.9,478.5 			"/>
			<polygon class="st1" points="1437.3,570.7 1344.7,561.3 1404.9,478.5 1498,485.5 			"/>
			<polygon class="st1" points="1535.4,580.7 1437.3,570.7 1498,485.5 1596.7,492.8 			"/>
			<polygon class="st1" points="1639.5,591.3 1535.4,580.7 1596.7,492.8 1701.4,500.6 			"/>
			<polygon class="st1" points="1750.3,602.6 1639.5,591.3 1701.4,500.6 1812.6,508.9 			"/>
			<polygon class="st1" points="1868.5,614.7 1750.3,602.6 1812.6,508.9 1931.1,517.7 			"/>
			<polygon class="st1" points="1994.6,627.5 1868.5,614.7 1931.1,517.7 2057.6,527.2 			"/>
			<polygon class="st1" points="2129.7,641.3 1994.6,627.5 2057.6,527.2 2192.9,537.3 			"/>
			<polygon class="st1" points="2274.7,656.1 2129.7,641.3 2192.9,537.3 2337.9,548.1 			"/>
			<polygon class="st1" points="762.8,577.7 702.3,569.8 758.3,501.4 819.5,507.7 			"/>
			<polygon class="st1" points="826.2,586 762.8,577.7 819.5,507.7 883.6,514.2 			"/>
			<polygon class="st1" points="892.8,594.8 826.2,586 883.6,514.2 950.9,521.1 			"/>
			<polygon class="st1" points="962.8,604 892.8,594.8 950.9,521.1 1021.7,528.3 			"/>
			<polygon class="st1" points="1036.6,613.6 962.8,604 1021.7,528.3 1096.1,535.9 			"/>
			<polygon class="st1" points="1114.3,623.8 1036.6,613.6 1096.1,535.9 1174.6,543.9 			"/>
			<polygon class="st1" points="1196.3,634.6 1114.3,623.8 1174.6,543.9 1257.3,552.3 			"/>
			<polygon class="st1" points="1283.1,646 1196.3,634.6 1257.3,552.3 1344.7,561.3 			"/>
			<polygon class="st1" points="1375,658.1 1283.1,646 1344.7,561.3 1437.3,570.7 			"/>
			<polygon class="st1" points="1472.5,670.9 1375,658.1 1437.3,570.7 1535.4,580.7 			"/>
			<polygon class="st1" points="1576,684.4 1472.5,670.9 1535.4,580.7 1639.5,591.3 			"/>
			<polygon class="st1" points="1686.3,698.9 1576,684.4 1639.5,591.3 1750.3,602.6 			"/>
			<polygon class="st1" points="1804,714.4 1686.3,698.9 1750.3,602.6 1868.5,614.7 			"/>
			<polygon class="st1" points="1929.8,730.9 1804,714.4 1868.5,614.7 1994.6,627.5 			"/>
			<polygon class="st1" points="2064.7,748.6 1929.8,730.9 1994.6,627.5 2129.7,641.3 			"/>
			<polygon class="st1" points="2209.5,767.6 2064.7,748.6 2129.7,641.3 2274.7,656.1 			"/>
			<polygon class="st1" points="704.9,649.2 645.2,639.5 702.3,569.8 762.8,577.7 			"/>
			<polygon class="st1" points="767.6,659.4 704.9,649.2 762.8,577.7 826.2,586 			"/>
			<polygon class="st1" points="833.4,670.1 767.6,659.4 826.2,586 892.8,594.8 			"/>
			<polygon class="st1" points="902.7,681.3 833.4,670.1 892.8,594.8 962.8,604 			"/>
			<polygon class="st1" points="975.7,693.2 902.7,681.3 962.8,604 1036.6,613.6 			"/>
			<polygon class="st1" points="1052.6,705.7 975.7,693.2 1036.6,613.6 1114.3,623.8 			"/>
			<polygon class="st1" points="1133.9,718.9 1052.6,705.7 1114.3,623.8 1196.3,634.6 			"/>
			<polygon class="st1" points="1219.9,732.9 1133.9,718.9 1196.3,634.6 1283.1,646 			"/>
			<polygon class="st1" points="1311.1,747.7 1219.9,732.9 1283.1,646 1375,658.1 			"/>
			<polygon class="st1" points="1407.9,763.4 1311.1,747.7 1375,658.1 1472.5,670.9 			"/>
			<polygon class="st1" points="1510.8,780.1 1407.9,763.4 1472.5,670.9 1576,684.4 			"/>
			<polygon class="st1" points="1620.5,797.9 1510.8,780.1 1576,684.4 1686.3,698.9 			"/>
			<polygon class="st1" points="1737.7,817 1620.5,797.9 1686.3,698.9 1804,714.4 			"/>
			<polygon class="st1" points="1863,837.3 1737.7,817 1804,714.4 1929.8,730.9 			"/>
			<polygon class="st1" points="1997.5,859.2 1863,837.3 1929.8,730.9 2064.7,748.6 			"/>
			<polygon class="st1" points="2142.2,882.7 1997.5,859.2 2064.7,748.6 2209.5,767.6 			"/>
			<polygon class="st1" points="645.9,722.2 586.9,710.6 645.2,639.5 704.9,649.2 			"/>
			<polygon class="st1" points="707.7,734.3 645.9,722.2 704.9,649.2 767.6,659.4 			"/>
			<polygon class="st1" points="772.7,747 707.7,734.3 767.6,659.4 833.4,670.1 			"/>
			<polygon class="st1" points="841.2,760.4 772.7,747 833.4,670.1 902.7,681.3 			"/>
			<polygon class="st1" points="913.3,774.5 841.2,760.4 902.7,681.3 975.7,693.2 			"/>
			<polygon class="st1" points="989.5,789.5 913.3,774.5 975.7,693.2 1052.6,705.7 			"/>
			<polygon class="st1" points="1070,805.2 989.5,789.5 1052.6,705.7 1133.9,718.9 			"/>
			<polygon class="st1" points="1155.2,821.9 1070,805.2 1133.9,718.9 1219.9,732.9 			"/>
			<polygon class="st1" points="1245.6,839.6 1155.2,821.9 1219.9,732.9 1311.1,747.7 			"/>
			<polygon class="st1" points="1341.6,858.4 1245.6,839.6 1311.1,747.7 1407.9,763.4 			"/>
			<polygon class="st1" points="1443.8,878.4 1341.6,858.4 1407.9,763.4 1510.8,780.1 			"/>
			<polygon class="st1" points="1552.9,899.7 1443.8,878.4 1510.8,780.1 1620.5,797.9 			"/>
			<polygon class="st1" points="1669.4,922.6 1552.9,899.7 1620.5,797.9 1737.7,817 			"/>
			<polygon class="st1" points="1794.2,947 1669.4,922.6 1737.7,817 1863,837.3 			"/>
			<polygon class="st1" points="1928.3,973.3 1794.2,947 1863,837.3 1997.5,859.2 			"/>
			<polygon class="st1" points="2072.7,1001.5 1928.3,973.3 1997.5,859.2 2142.2,882.7 			"/>
			<polygon class="st1" points="585.6,796.7 527.5,783.2 586.9,710.6 645.9,722.2 			"/>
			<polygon class="st1" points="646.6,810.8 585.6,796.7 645.9,722.2 707.7,734.3 			"/>
			<polygon class="st1" points="710.7,825.7 646.6,810.8 707.7,734.3 772.7,747 			"/>
			<polygon class="st1" points="778.3,841.3 710.7,825.7 772.7,747 841.2,760.4 			"/>
			<polygon class="st1" points="849.6,857.8 778.3,841.3 841.2,760.4 913.3,774.5 			"/>
			<polygon class="st1" points="924.8,875.2 849.6,857.8 913.3,774.5 989.5,789.5 			"/>
			<polygon class="st1" points="1004.5,893.7 924.8,875.2 989.5,789.5 1070,805.2 			"/>
			<polygon class="st1" points="1088.8,913.2 1004.5,893.7 1070,805.2 1155.2,821.9 			"/>
			<polygon class="st1" points="1178.3,933.9 1088.8,913.2 1155.2,821.9 1245.6,839.6 			"/>
			<polygon class="st1" points="1273.5,956 1178.3,933.9 1245.6,839.6 1341.6,858.4 			"/>
			<polygon class="st1" points="1375,979.4 1273.5,956 1341.6,858.4 1443.8,878.4 			"/>
			<polygon class="st1" points="1483.2,1004.5 1375,979.4 1443.8,878.4 1552.9,899.7 			"/>
			<polygon class="st1" points="1599.1,1031.3 1483.2,1004.5 1552.9,899.7 1669.4,922.6 			"/>
			<polygon class="st1" points="1723.3,1060.1 1599.1,1031.3 1669.4,922.6 1794.2,947 			"/>
			<polygon class="st1" points="1856.9,1091 1723.3,1060.1 1794.2,947 1928.3,973.3 			"/>
			<polygon class="st1" points="2000.9,1124.3 1856.9,1091 1928.3,973.3 2072.7,1001.5 			"/>
		</g>
		<g>
			<polygon points="1163.8,6.3 1161.9,0.2 1174.8,-7.1 1176.7,-1 			"/>
			<polygon points="1229.3,1.3 1227.1,-5 1240.4,-12.4 1242.6,-6.2 			"/>
			<polygon points="1297.8,-4 1295.3,-10.4 1309,-18 1311.5,-11.7 			"/>
			<polygon points="1369.4,-9.5 1366.6,-16 1380.7,-23.9 1383.5,-17.4 			"/>
			<polygon points="1444.4,-15.3 1441.2,-21.9 1455.8,-30 1459,-23.4 			"/>
			<polygon points="1522.9,-21.4 1519.4,-28.1 1534.4,-36.4 1538,-29.6 			"/>
			<polygon points="1605.4,-27.7 1601.4,-34.6 1616.9,-43.1 1620.9,-36.2 			"/>
			<polygon points="1692,-34.4 1687.6,-41.5 1703.6,-50.1 1708.1,-43.1 			"/>
			<polygon points="1783,-41.5 1778.1,-48.6 1794.7,-57.5 1799.7,-50.4 			"/>
			<polygon points="1878.9,-48.9 1873.5,-56.2 1890.7,-65.3 1896.2,-58 			"/>
			<polygon points="1980.1,-56.7 1974,-64.2 1991.9,-73.6 1998,-66.1 			"/>
			<polygon points="2086.8,-64.9 2080.1,-72.6 2098.7,-82.3 2105.5,-74.6 			"/>
			<polygon points="2199.8,-73.6 2192.4,-81.5 2211.7,-91.4 2219.2,-83.6 			"/>
			<polygon points="2319.5,-82.8 2311.2,-90.9 2331.3,-101.2 2339.7,-93.2 			"/>
			<polygon points="2446.4,-92.6 2437.3,-100.9 2458.3,-111.5 2467.5,-103.3 			"/>
			<polygon points="2581.4,-103.1 2571.3,-111.5 2593.2,-122.5 2603.5,-114.1 			"/>
			<polygon points="2725.2,-114.2 2714,-122.8 2737,-134.2 2748.3,-125.5 			"/>
			<polygon points="1115.6,65.1 1113.9,58.7 1126.8,51.5 1128.6,57.8 			"/>
			<polygon points="1180.7,61.3 1178.7,54.8 1192,47.4 1194.1,53.9 			"/>
			<polygon points="1248.7,57.4 1246.4,50.7 1260.2,43.1 1262.5,49.7 			"/>
			<polygon points="1319.9,53.2 1317.3,46.4 1331.4,38.6 1334.1,45.4 			"/>
			<polygon points="1394.5,48.8 1391.5,41.9 1406.1,33.9 1409.2,40.8 			"/>
			<polygon points="1472.7,44.3 1469.3,37.2 1484.4,29 1487.8,36 			"/>
			<polygon points="1554.7,39.5 1550.9,32.2 1566.5,23.8 1570.4,31 			"/>
			<polygon points="1641,34.4 1636.7,27 1652.8,18.4 1657.2,25.8 			"/>
			<polygon points="1731.7,29.1 1727,21.5 1743.7,12.7 1748.5,20.2 			"/>
			<polygon points="1827.3,23.5 1822,15.8 1839.4,6.7 1844.7,14.4 			"/>
			<polygon points="1928.2,17.6 1922.3,9.7 1940.3,0.3 1946.3,8.2 			"/>
			<polygon points="2034.8,11.4 2028.3,3.3 2047,-6.4 2053.6,1.7 			"/>
			<polygon points="2147.7,4.8 2140.4,-3.5 2159.8,-13.5 2167.2,-5.2 			"/>
			<polygon points="2267.3,-2.2 2259.2,-10.8 2279.5,-21 2287.7,-12.5 			"/>
			<polygon points="2394.4,-9.6 2385.4,-18.4 2406.5,-29 2415.6,-20.2 			"/>
			<polygon points="2529.5,-17.5 2519.6,-26.6 2541.7,-37.5 2551.8,-28.5 			"/>
			<polygon points="2673.7,-26 2662.6,-35.2 2685.7,-46.5 2696.9,-37.3 			"/>
			<polygon points="1066.5,125 1065,118.4 1078,111.1 1079.6,117.8 			"/>
			<polygon points="1131.2,122.5 1129.3,115.7 1142.7,108.3 1144.6,115.1 			"/>
			<polygon points="1198.7,119.9 1196.6,112.9 1210.4,105.3 1212.6,112.3 			"/>
			<polygon points="1269.5,117.2 1267,110.1 1281.2,102.3 1283.7,109.4 			"/>
			<polygon points="1343.6,114.3 1340.8,107 1355.4,99.1 1358.3,106.3 			"/>
			<polygon points="1421.3,111.3 1418.1,103.8 1433.3,95.7 1436.6,103.1 			"/>
			<polygon points="1503,108.1 1499.4,100.5 1515,92.1 1518.7,99.7 			"/>
			<polygon points="1588.8,104.8 1584.8,97 1601,88.4 1605.1,96.2 			"/>
			<polygon points="1679.2,101.3 1674.7,93.3 1691.5,84.5 1696.1,92.4 			"/>
			<polygon points="1774.5,97.6 1769.4,89.4 1786.8,80.3 1792,88.5 			"/>
			<polygon points="1875.2,93.7 1869.4,85.3 1887.5,75.9 1893.3,84.3 			"/>
			<polygon points="1981.6,89.6 1975.2,80.9 1994,71.3 2000.5,79.9 			"/>
			<polygon points="2094.3,85.2 2087.1,76.3 2106.7,66.4 2113.9,75.2 			"/>
			<polygon points="2213.8,80.5 2205.9,71.5 2226.3,61.2 2234.3,70.3 			"/>
			<polygon points="2340.9,75.6 2332.1,66.3 2353.4,55.7 2362.3,65 			"/>
			<polygon points="2476.2,70.4 2466.4,60.8 2488.7,49.9 2498.6,59.4 			"/>
			<polygon points="2620.6,64.8 2609.6,54.9 2633,43.6 2644.1,53.4 			"/>
			<polygon points="1016.6,186.1 1015.2,179.1 1028.2,171.9 1029.7,178.8 			"/>
			<polygon points="1080.7,184.9 1079,177.8 1092.4,170.4 1094.2,177.5 			"/>
			<polygon points="1147.8,183.7 1145.8,176.4 1159.6,168.8 1161.7,176.1 			"/>
			<polygon points="1218,182.4 1215.7,175 1230,167.2 1232.3,174.7 			"/>
			<polygon points="1291.6,181.1 1289,173.5 1303.7,165.5 1306.4,173.1 			"/>
			<polygon points="1368.9,179.7 1365.9,171.9 1381.1,163.8 1384.2,171.5 			"/>
			<polygon points="1450.1,178.2 1446.7,170.3 1462.4,161.9 1465.9,169.9 			"/>
			<polygon points="1535.6,176.7 1531.7,168.5 1548,159.9 1551.9,168.1 			"/>
			<polygon points="1625.6,175.1 1621.2,166.7 1638.1,157.9 1642.5,166.3 			"/>
			<polygon points="1720.5,173.4 1715.6,164.8 1733.1,155.7 1738.1,164.3 			"/>
			<polygon points="1820.8,171.6 1815.3,162.7 1833.5,153.4 1839.1,162.2 			"/>
			<polygon points="1927,169.7 1920.8,160.6 1939.7,151 1946,160 			"/>
			<polygon points="2039.5,167.6 2032.5,158.3 2052.2,148.4 2059.3,157.7 			"/>
			<polygon points="2158.9,165.5 2151.1,155.8 2171.7,145.7 2179.6,155.3 			"/>
			<polygon points="2286,163.2 2277.3,153.3 2298.8,142.7 2307.6,152.6 			"/>
			<polygon points="2421.4,160.7 2411.7,150.5 2434.2,139.6 2444,149.8 			"/>
			<polygon points="2566,158.1 2555.2,147.6 2578.7,136.3 2589.7,146.9 			"/>
			<polygon points="965.6,248.2 964.4,241 977.5,233.8 978.8,241 			"/>
			<polygon points="1029.2,248.5 1027.7,241.1 1041.2,233.7 1042.8,241.1 			"/>
			<polygon points="1095.8,248.7 1094,241.2 1107.9,233.6 1109.7,241.2 			"/>
			<polygon points="1165.5,249 1163.4,241.2 1177.7,233.5 1179.9,241.3 			"/>
			<polygon points="1238.6,249.3 1236.2,241.3 1251,233.4 1253.5,241.4 			"/>
			<polygon points="1315.4,249.6 1312.6,241.4 1327.9,233.3 1330.8,241.5 			"/>
			<polygon points="1396.1,249.9 1392.9,241.5 1408.7,233.2 1412,241.6 			"/>
			<polygon points="1481.1,250.2 1477.4,241.7 1493.8,233.1 1497.5,241.7 			"/>
			<polygon points="1570.7,250.6 1566.5,241.8 1583.4,233 1587.7,241.8 			"/>
			<polygon points="1665.2,251 1660.5,241.9 1678.1,232.9 1682.9,241.9 			"/>
			<polygon points="1765.2,251.4 1759.8,242 1778.1,232.7 1783.6,242.1 			"/>
			<polygon points="1871,251.8 1865,242.2 1884,232.6 1890.2,242.2 			"/>
			<polygon points="1983.2,252.2 1976.5,242.3 1996.4,232.5 2003.2,242.3 			"/>
			<polygon points="2102.5,252.7 2095,242.5 2115.7,232.3 2123.4,242.5 			"/>
			<polygon points="2229.5,253.2 2221,242.6 2242.7,232.2 2251.3,242.7 			"/>
			<polygon points="2365,253.7 2355.5,242.8 2378.1,232 2387.8,242.8 			"/>
			<polygon points="2509.8,254.2 2499.1,243 2522.9,231.8 2533.7,243 			"/>
			<polygon points="913.7,311.6 912.7,304.1 925.8,296.9 926.9,304.4 			"/>
			<polygon points="976.8,313.3 975.4,305.6 989,298.2 990.3,306 			"/>
			<polygon points="1042.7,315.1 1041.1,307.2 1055.1,299.7 1056.7,307.6 			"/>
			<polygon points="1111.9,317 1110,308.9 1124.4,301.2 1126.4,309.3 			"/>
			<polygon points="1184.5,318.9 1182.2,310.6 1197.1,302.7 1199.4,311 			"/>
			<polygon points="1260.7,321 1258.1,312.5 1273.4,304.4 1276.1,312.9 			"/>
			<polygon points="1340.9,323.2 1337.9,314.4 1353.8,306.1 1356.9,314.9 			"/>
			<polygon points="1425.4,325.5 1421.9,316.4 1438.3,307.9 1441.9,316.9 			"/>
			<polygon points="1514.5,327.9 1510.5,318.6 1527.6,309.9 1531.6,319.1 			"/>
			<polygon points="1608.6,330.4 1604,320.9 1621.8,311.9 1626.4,321.4 			"/>
			<polygon points="1708.1,333.1 1703,323.3 1721.4,314 1726.6,323.9 			"/>
			<polygon points="1813.6,336 1807.8,325.8 1827,316.3 1832.9,326.4 			"/>
			<polygon points="1925.6,339 1919,328.5 1939,318.7 1945.7,329.2 			"/>
			<polygon points="2044.6,342.2 2037.3,331.4 2058.1,321.3 2065.6,332.1 			"/>
			<polygon points="2171.5,345.6 2163.2,334.5 2185,324.1 2193.5,335.2 			"/>
			<polygon points="2306.9,349.3 2297.6,337.7 2320.5,327 2330,338.5 			"/>
			<polygon points="2451.9,353.2 2441.4,341.2 2465.4,330.1 2476,342.1 			"/>
			<polygon points="860.8,376.2 860,368.4 873.1,361.2 874.1,369 			"/>
			<polygon points="923.2,379.4 922.1,371.4 935.7,364.1 936.9,372.1 			"/>
			<polygon points="988.6,382.8 987.2,374.6 1001.2,367.1 1002.7,375.3 			"/>
			<polygon points="1057.2,386.4 1055.5,377.9 1069.9,370.2 1071.7,378.7 			"/>
			<polygon points="1129.2,390.1 1127.1,381.4 1142,373.5 1144.2,382.2 			"/>
			<polygon points="1204.8,394 1202.4,385 1217.8,377 1220.3,385.9 			"/>
			<polygon points="1284.4,398.1 1281.6,388.9 1297.6,380.6 1300.5,389.8 			"/>
			<polygon points="1368.4,402.4 1365.1,392.9 1381.6,384.5 1385,393.9 			"/>
			<polygon points="1456.9,407 1453.2,397.2 1470.3,388.5 1474.2,398.3 			"/>
			<polygon points="1550.5,411.8 1546.2,401.8 1564.1,392.8 1568.5,402.8 			"/>
			<polygon points="1649.6,416.9 1644.7,406.6 1663.3,397.4 1668.3,407.7 			"/>
			<polygon points="1754.7,422.3 1749.1,411.6 1768.4,402.2 1774.1,412.9 			"/>
			<polygon points="1866.3,428.1 1860,417 1880.2,407.3 1886.6,418.3 			"/>
			<polygon points="1985.1,434.2 1978,422.8 1999,412.8 2006.3,424.2 			"/>
			<polygon points="2111.8,440.8 2103.7,428.9 2125.7,418.6 2134,430.4 			"/>
			<polygon points="2247.2,447.7 2238.1,435.4 2261.2,424.8 2270.4,437 			"/>
			<polygon points="2392.2,455.2 2381.9,442.5 2406.2,431.4 2416.6,444.1 			"/>
			<polygon points="806.9,442.1 806.2,433.9 819.4,426.8 820.2,434.9 			"/>
			<polygon points="868.7,446.9 867.7,438.5 881.4,431.2 882.4,439.6 			"/>
			<polygon points="933.4,451.9 932.2,443.3 946.3,435.8 947.5,444.4 			"/>
			<polygon points="1001.3,457.2 999.8,448.3 1014.3,440.7 1015.9,449.5 			"/>
			<polygon points="1072.7,462.7 1070.8,453.6 1085.8,445.8 1087.7,454.9 			"/>
			<polygon points="1147.7,468.5 1145.5,459.2 1161,451.2 1163.3,460.5 			"/>
			<polygon points="1226.7,474.7 1224.1,465 1240.2,456.8 1242.9,466.4 			"/>
			<polygon points="1310,481.1 1307,471.2 1323.6,462.8 1326.8,472.7 			"/>
			<polygon points="1398,488 1394.5,477.7 1411.8,469.1 1415.4,479.3 			"/>
			<polygon points="1491.1,495.2 1487,484.6 1505,475.8 1509.1,486.3 			"/>
			<polygon points="1589.7,502.9 1585,491.9 1603.7,482.8 1608.5,493.7 			"/>
			<polygon points="1694.3,511 1688.9,499.7 1708.4,490.3 1713.9,501.5 			"/>
			<polygon points="1805.5,519.6 1799.4,507.9 1819.7,498.2 1825.9,509.9 			"/>
			<polygon points="1924,528.8 1917.1,516.7 1938.3,506.7 1945.3,518.8 			"/>
			<polygon points="2050.4,538.6 2042.6,526 2064.8,515.8 2072.8,528.3 			"/>
			<polygon points="2185.7,549.1 2176.8,536.1 2200.1,525.4 2209.1,538.5 			"/>
			<polygon points="2330.7,560.4 2320.6,546.8 2345.1,535.8 2355.3,549.4 			"/>
			<polygon points="751.9,509.3 751.4,500.7 764.7,493.6 765.2,502.1 			"/>
			<polygon points="813,515.7 812.3,506.9 825.9,499.7 826.7,508.4 			"/>
			<polygon points="877,522.4 876,513.4 890.2,506 891.2,515 			"/>
			<polygon points="944.3,529.5 943,520.3 957.6,512.7 958.9,521.9 			"/>
			<polygon points="1014.9,537 1013.3,527.4 1028.4,519.7 1030.1,529.2 			"/>
			<polygon points="1089.3,544.8 1087.3,535 1102.9,527 1105,536.8 			"/>
			<polygon points="1167.7,553 1165.3,542.9 1181.4,534.8 1183.9,544.8 			"/>
			<polygon points="1250.3,561.7 1247.5,551.3 1264.3,543 1267.2,553.3 			"/>
			<polygon points="1337.7,570.9 1334.4,560.2 1351.8,551.6 1355.2,562.3 			"/>
			<polygon points="1430.2,580.7 1426.3,569.6 1444.4,560.7 1448.3,571.8 			"/>
			<polygon points="1528.2,591 1523.7,579.5 1542.5,570.4 1547.1,581.9 			"/>
			<polygon points="1632.3,601.9 1627.2,590.1 1646.7,580.7 1652,592.6 			"/>
			<polygon points="1743,613.6 1737.2,601.3 1757.6,591.7 1763.6,604 			"/>
			<polygon points="1861.1,626 1854.4,613.2 1875.8,603.3 1882.6,616.1 			"/>
			<polygon points="1987.3,639.3 1979.6,626 2002,615.8 2009.8,629.1 			"/>
			<polygon points="2122.3,653.5 2113.6,639.7 2137.1,629.1 2146,643 			"/>
			<polygon points="2267.3,668.8 2257.4,654.3 2282.1,643.5 2292.2,657.9 			"/>
			<polygon points="695.8,577.8 695.5,568.9 708.8,561.8 709.2,570.7 			"/>
			<polygon points="756.2,585.9 755.6,576.8 769.4,569.6 769.9,578.7 			"/>
			<polygon points="819.5,594.4 818.7,585.1 832.9,577.7 833.7,587 			"/>
			<polygon points="886,603.4 884.9,593.7 899.6,586.2 900.7,595.8 			"/>
			<polygon points="956,612.8 954.6,602.9 969.7,595.1 971.2,605.1 			"/>
			<polygon points="1029.6,622.7 1027.9,612.5 1043.5,604.6 1045.3,614.8 			"/>
			<polygon points="1107.2,633.2 1105.1,622.6 1121.3,614.5 1123.5,625.1 			"/>
			<polygon points="1189.2,644.2 1186.6,633.3 1203.5,625 1206.1,635.9 			"/>
			<polygon points="1275.9,655.9 1272.8,644.7 1290.3,636.1 1293.5,647.4 			"/>
			<polygon points="1367.7,668.3 1364.1,656.6 1382.3,647.9 1386,659.5 			"/>
			<polygon points="1465.1,681.4 1460.9,669.3 1479.8,660.3 1484.1,672.4 			"/>
			<polygon points="1568.6,695.4 1563.7,682.8 1583.5,673.6 1588.4,686.1 			"/>
			<polygon points="1678.8,710.2 1673.2,697.2 1693.8,687.7 1699.5,700.7 			"/>
			<polygon points="1796.4,726.1 1790,712.5 1811.5,702.7 1818.1,716.2 			"/>
			<polygon points="1922.2,743 1914.8,728.9 1937.4,718.8 1944.9,732.9 			"/>
			<polygon points="2057,761.2 2048.6,746.5 2072.3,736 2080.9,750.7 			"/>
			<polygon points="2201.9,780.7 2192.2,765.3 2217.2,754.5 2227,769.9 			"/>
			<polygon points="638.5,647.6 638.5,638.4 651.9,631.4 652,640.6 			"/>
			<polygon points="698.2,657.6 697.9,648.1 711.7,640.9 712,650.4 			"/>
			<polygon points="760.7,668 760.2,658.2 774.4,650.8 775,660.6 			"/>
			<polygon points="826.5,678.9 825.7,668.8 840.4,661.3 841.2,671.3 			"/>
			<polygon points="895.7,690.4 894.5,680 909.7,672.3 910.9,682.7 			"/>
			<polygon points="968.5,702.5 967,691.8 982.8,683.9 984.3,694.6 			"/>
			<polygon points="1045.4,715.3 1043.5,704.2 1059.8,696.1 1061.8,707.2 			"/>
			<polygon points="1126.6,728.8 1124.3,717.3 1141.2,709 1143.6,720.5 			"/>
			<polygon points="1212.6,743 1209.8,731.2 1227.3,722.7 1230.2,734.5 			"/>
			<polygon points="1303.6,758.2 1300.3,745.9 1318.6,737.2 1322,749.4 			"/>
			<polygon points="1400.3,774.2 1396.4,761.5 1415.4,752.6 1419.5,765.3 			"/>
			<polygon points="1503.2,791.3 1498.6,778.1 1518.5,768.9 1523.1,782.1 			"/>
			<polygon points="1612.8,809.5 1607.5,795.8 1628.2,786.3 1633.7,800.1 			"/>
			<polygon points="1729.9,829 1723.7,814.7 1745.4,805 1751.7,819.2 			"/>
			<polygon points="1855.2,849.8 1848.1,834.9 1870.9,824.9 1878.1,839.8 			"/>
			<polygon points="1989.7,872.2 1981.5,856.6 2005.4,846.2 2013.7,861.8 			"/>
			<polygon points="2134.3,896.2 2125,879.9 2150.1,869.2 2159.6,885.5 			"/>
			<polygon points="580.1,719 580.3,709.3 593.7,702.4 593.6,711.9 			"/>
			<polygon points="639,730.7 638.9,720.8 652.7,713.7 652.9,723.5 			"/>
			<polygon points="700.7,743 700.4,732.9 714.7,725.6 715.1,735.7 			"/>
			<polygon points="765.7,756 765.1,745.5 779.8,738 780.5,748.5 			"/>
			<polygon points="834,769.7 833.1,758.8 848.4,751.2 849.3,762 			"/>
			<polygon points="906,784.1 904.8,772.9 920.6,765 921.9,776.2 			"/>
			<polygon points="982.1,799.3 980.5,787.7 996.9,779.7 998.5,791.2 			"/>
			<polygon points="1062.5,815.3 1060.4,803.3 1077.4,795.1 1079.6,807.1 			"/>
			<polygon points="1147.6,832.3 1145.1,819.9 1162.8,811.5 1165.4,823.9 			"/>
			<polygon points="1237.9,850.4 1234.9,837.5 1253.2,828.9 1256.4,841.7 			"/>
			<polygon points="1333.8,869.5 1330.2,856.2 1349.4,847.3 1353.1,860.6 			"/>
			<polygon points="1436,889.9 1431.7,876 1451.7,866.9 1456.1,880.8 			"/>
			<polygon points="1544.9,911.7 1539.9,897.2 1560.8,887.8 1565.9,902.3 			"/>
			<polygon points="1661.4,935 1655.5,919.8 1677.4,910.2 1683.4,925.3 			"/>
			<polygon points="1786.2,959.9 1779.4,944.1 1802.3,934.2 1809.2,949.9 			"/>
			<polygon points="1920.2,986.7 1912.3,970.1 1936.4,959.9 1944.4,976.4 			"/>
			<polygon points="2064.5,1015.5 2055.5,998.1 2080.8,987.6 2090.1,1004.9 			"/>
			<polygon points="520.5,791.7 521,781.7 534.4,774.8 534.1,784.8 			"/>
			<polygon points="578.5,805.4 578.7,795.1 592.6,788 592.4,798.3 			"/>
			<polygon points="639.4,819.8 639.4,809.1 653.7,801.9 653.8,812.5 			"/>
			<polygon points="703.5,834.9 703.1,823.9 718,816.5 718.3,827.4 			"/>
			<polygon points="770.9,850.8 770.3,839.5 785.6,831.9 786.3,843.2 			"/>
			<polygon points="842.1,867.5 841.1,855.9 857,848.1 858,859.8 			"/>
			<polygon points="917.3,885.3 915.9,873.2 932.4,865.2 933.8,877.3 			"/>
			<polygon points="996.8,904 995,891.5 1012.1,883.3 1013.9,895.9 			"/>
			<polygon points="1081,923.9 1078.8,910.9 1096.6,902.5 1098.9,915.5 			"/>
			<polygon points="1170.5,945 1167.7,931.5 1186.2,922.9 1189,936.4 			"/>
			<polygon points="1265.6,967.4 1262.2,953.3 1281.5,944.6 1284.9,958.6 			"/>
			<polygon points="1366.9,991.3 1362.9,976.6 1383,967.6 1387.1,982.2 			"/>
			<polygon points="1475.1,1016.8 1470.3,1001.5 1491.4,992.2 1496.2,1007.5 			"/>
			<polygon points="1590.8,1044.1 1585.3,1028.1 1607.3,1018.6 1613,1034.5 			"/>
			<polygon points="1715,1073.4 1708.5,1056.6 1731.6,1046.8 1738.2,1063.5 			"/>
			<polygon points="1848.5,1104.8 1840.9,1087.3 1865.2,1077.2 1872.9,1094.7 			"/>
			<polygon points="1992.4,1138.8 1983.7,1120.4 2009.3,1109.9 2018.2,1128.4 			"/>
		</g>
	</g>
</g>
</svg>
