<svg id="Layer_1" data-name="Layer 1" xmlns="http://www.w3.org/2000/svg" viewBox="0 0 229.89 557.92"><defs><style>.cls-1,.cls-11{fill:#fffdfd;}.cls-2{fill:#f9b384;}.cls-3{fill:#e28b6d;}.cls-4{fill:#005481;}.cls-5{fill:#102048;}.cls-6{fill:#1f3c88;}.cls-7{fill:none;}.cls-8{fill:#708cd5;}.cls-9{fill:#f6f5f5;}.cls-10{fill:#d3dfff;}.cls-11{opacity:0.3;}.cls-12{fill:#ff9750;}</style></defs><path class="cls-1" d="M198.09,129.64c2.9-6.52,1.67-14.6-11.52-27.2l-1.07,16.75Z"/><path class="cls-2" d="M228.65,94.62c-.6.25-26,18.3-27.17,18.75-.6.23-10.62-6.25-12.48-9.2-.34-.55,3.52-30.87,6.89-29.42,4.33,1.86,2.12,10.29,2,13,.8-.06.43-.09,1.24-.14a.86.86,0,0,1,.16,0l11.31-19.09a2,2,0,0,1,.81-.78,1.72,1.72,0,0,1,2.43,1.55c.26,3.69-3.43,11.62-4.89,14.71,4-3.4,10-9.52,14.17-12.76,1.94-1.5,3.85.82,2.42,3.11S216.86,85,213.73,88.12c3.4-1.55,13.34-8.26,13.87-7.8a1.79,1.79,0,0,1,1.23,3.06c-4.11,4.16-7.31,7.43-12.12,10.65a37.54,37.54,0,0,0,10.86-3C229.82,90.07,230.89,93.65,228.65,94.62Z"/><polygon class="cls-2" points="190.8 96.7 181.48 109.43 186.9 138.57 211.36 105.04 190.8 96.7"/><path class="cls-3" d="M201.45,99l-1.09-.46c2-4.75-1.74-9.31-1.78-9.36l.91-.75C199.66,88.59,203.74,93.56,201.45,99Z"/><path class="cls-3" d="M215.15,97c-2-5.1-4.8-8.38-8.56-10l.47-1.08c4,1.75,7.1,5.34,9.19,10.68Z"/><path class="cls-4" d="M77.32,80.75c6.79-1.06,17.55-.5,28.11,1.24a46.59,46.59,0,0,1,31.95,21.76l18.28,29.52,30.91-30.83a55.63,55.63,0,0,0,11.52,27.2L163.7,165.82a15.77,15.77,0,0,1-20.68.4l-24-17.76-26.8-8.4Z"/><path class="cls-3" d="M58.29,510.85l15.12-23.32L54.19,471.28,40.05,492.86A87.55,87.55,0,0,0,58.29,510.85Z"/><path class="cls-5" d="M58.29,510.85a87.55,87.55,0,0,1-18.24-18l-16.41,25,44.8,40c2.9-12.68-5.56-33.36-12.64-43.23Z"/><path class="cls-6" d="M120.82,557.74c-8.57-10-28.94-16.79-40.37-19.29L80.22,533A87.33,87.33,0,0,1,59,530.33l1.49,27.41Z"/><path class="cls-2" d="M80.22,533,79,504.15l-21.44,1.07L59,530.33A87.33,87.33,0,0,0,80.22,533Z"/><polygon class="cls-7" points="82.59 375.34 82.55 374.48 79.96 381.45 82.59 375.34"/><path class="cls-6" d="M136.39,315.72l-14.67-99.55-53.6,2.68,11.09,92.52v.12l12.31,28a13.43,13.43,0,0,1,.3,10l-12.61,34v-.28L37,480.92l35.37,27.34,54.94-125.21A122.91,122.91,0,0,0,136.39,315.72Z"/><path class="cls-8" d="M35.43,215.09l-5.92,37.33A224.8,224.8,0,0,0,28.14,313l23,206.86H88.67L85.09,273l40.74-28.23L121.18,213Z"/><path class="cls-4" d="M24.71,229.38s-6.43-4.63-1.61-12.67a5.27,5.27,0,0,0,.43-1c1.16-3.32,1.31-11,.95-20.21-.88-21.72-4.59-51.71-4.59-51.71L29,103.09,47.93,85l46.45-.37,23.22,31.09,6.09,71.47a80.07,80.07,0,0,0,6.77,23.93C140.93,233.37,33.63,237.91,24.71,229.38Z"/><rect class="cls-1" x="112.34" y="105.41" width="1.61" height="36.13" transform="matrix(1, -0.05, 0.05, 1, -5.97, 5.74)"/><polygon class="cls-9" points="133.12 192.96 79.33 200.53 79.79 125.77 133.59 118.2 133.12 192.96"/><polygon class="cls-8" points="89.71 140.71 89.39 138.34 126.06 133.14 126.38 135.51 89.71 140.71"/><polygon class="cls-8" points="89.67 150.89 89.35 148.52 126.02 143.31 126.33 145.68 89.67 150.89"/><polygon class="cls-8" points="89.91 161.66 89.59 159.29 126.26 154.08 126.58 156.45 89.91 161.66"/><polygon class="cls-10" points="89.85 173.33 89.54 170.96 126.2 165.75 126.52 168.12 89.85 173.33"/><polygon class="cls-10" points="89.81 184.1 89.49 181.73 126.15 176.52 126.47 178.89 89.81 184.1"/><path class="cls-1" d="M63,195.26a28.16,28.16,0,0,0,6.34-31.59L54.19,180.78Z"/><path class="cls-11" d="M31.27,178.83c2-1.25,6.5-.1,7.64-2.76,4.49-10.56-.51-33.38-5.9-45.3Z"/><path class="cls-11" d="M63,195.27S55.56,212,23.53,215.74c1.16-3.32,1.31-11,.95-20.21Z"/><polygon class="cls-2" points="78.82 160.79 53.95 170.36 54.91 192.34 84.78 179.74 78.82 160.79"/><path class="cls-2" d="M107,166.06c-.89.19-1.79.28-2.69.41a3.28,3.28,0,0,1-2.07,5.14l-.6.09a2.72,2.72,0,0,1-.49,2.59,33.25,33.25,0,0,1-5.85,3.91c-23.49,11.19-27.47-1.64-26.34-6.08.88-3.42,4.54-7.37,7.53-10.5,9.53-8,15.51-11.43,25.13-13,3.87-.64,3.44,3.08.24,5a22.14,22.14,0,0,1-4.76,2.22.85.85,0,0,1-.22.2A67,67,0,0,0,89.64,162c3.07-.08,19.57-2,21.26.5C111.49,163.36,109.22,165.59,107,166.06Z"/><rect class="cls-3" x="90.81" y="166.46" width="13.53" height="1.19" transform="translate(-14.03 9.02) rotate(-4.94)"/><rect class="cls-3" x="90.77" y="171.9" width="10.92" height="1.19" transform="translate(-24.22 15.95) rotate(-8.42)"/><path class="cls-4" d="M61.51,78.61a82.54,82.54,0,0,0-34.4,10.76,51.54,51.54,0,0,0-25.8,43.51C.93,148.12.41,168.7,0,185a20.56,20.56,0,0,0,25.2,20.55L63,195.26c-1.24-9.83,1.69-20.59,7-31.89l-39.13,6.17,1-38.41L68.3,124Z"/><path class="cls-1" d="M20.73,173.59l-.63-1.48c11.77-5,32.81-7.71,49.81-9.53l.17,1.59C53.19,166,32.31,168.7,20.73,173.59Z"/><path class="cls-1" d="M72.39,103.78A22.06,22.06,0,0,1,58.5,98.91l1-1.25A20.56,20.56,0,0,0,74.92,102,17.65,17.65,0,0,0,87.13,95.3l1.29,1a19.3,19.3,0,0,1-13.31,7.34A22.44,22.44,0,0,1,72.39,103.78Z"/><path class="cls-2" d="M84,57.69V77a15.29,15.29,0,0,1-14.6,15.22c-8.05,0-14.57-6.81-14.57-15.22V57.69Z"/><path class="cls-5" d="M84,64.54V78a12.84,12.84,0,0,1-.19,2.26A23.56,23.56,0,0,1,61.16,66Z"/><path class="cls-2" d="M96.08,57.19c-.47,5-2.4,10.12-7.4,13.81-7.16,5.31-22.89,6.62-37.86-17.82l-.38-34,23.75-3.92,19.62,8.25-.65,16.62A38.41,38.41,0,0,1,95,45.83,35.1,35.1,0,0,1,96.08,57.19Z"/><path class="cls-5" d="M55,49.32c-1.61-9.57,2.29-17.26,9.19-20.93,10.09,3.49,25.18,4.89,32.7-2.09,8-6,6-26.85-12-26.29-6.6.92-9.23,4.45-9.91,9.29C45-8.67,23.33,34.34,48.14,48Z"/><path class="cls-2" d="M59,53.06c.25,4.9-3.56,7.71-7.48,7.9s-9.1-4.9-9.36-9.8,3.1-7.25,7-7.45S58.71,48.16,59,53.06Z"/><path class="cls-3" d="M53.54,51.87c-.52-.7-1-1.41-1.61-2a6.43,6.43,0,0,0-1.79-1.49,2.4,2.4,0,0,0-1.93-.12,8.54,8.54,0,0,0-2.08,1.3l-.49-.39a4.93,4.93,0,0,1,2-2.18,3.56,3.56,0,0,1,1.62-.44,3.5,3.5,0,0,1,1.64.41A5.88,5.88,0,0,1,53,49a8.14,8.14,0,0,1,1.09,2.62Z"/><path class="cls-5" d="M86.73,42.46c.1,1.39.84,2.47,1.65,2.41s1.38-1.24,1.27-2.63-.84-2.47-1.65-2.41S86.62,41.07,86.73,42.46Z"/><path class="cls-5" d="M71.17,43.88c.11,1.39.84,2.47,1.65,2.41s1.38-1.24,1.28-2.63-.85-2.47-1.65-2.41S71.07,42.49,71.17,43.88Z"/><path class="cls-5" d="M80.64,44.28A20.28,20.28,0,0,0,83.07,47a25.63,25.63,0,0,1,2.59,2.85,4.85,4.85,0,0,1,.89,2,2.63,2.63,0,0,1-.11,1.24,2.92,2.92,0,0,1-.62,1,9.75,9.75,0,0,1-3.19,2.29l-.27-.47a16.34,16.34,0,0,0,2.52-2.61,1.41,1.41,0,0,0,.32-1.24,3.84,3.84,0,0,0-.68-1.4c-.68-.95-1.55-1.87-2.35-2.86a11.3,11.3,0,0,1-2-3.31Z"/><path class="cls-5" d="M87,61.56a6.32,6.32,0,0,1-2.78,1.15,8.4,8.4,0,0,1-3,0,9.1,9.1,0,0,1-2.81-1.1,11.5,11.5,0,0,1-1.21-.86,14.73,14.73,0,0,1-1.05-1l.35-.43c.44.2.84.44,1.24.65l.62.3a5.65,5.65,0,0,0,.62.28l.62.26c.2.09.42.14.63.22a11.38,11.38,0,0,0,1.27.35,10.89,10.89,0,0,0,5.27-.21Z"/><path class="cls-5" d="M90.57,38.1a11.08,11.08,0,0,0-1.88-.51A6.75,6.75,0,0,0,87,37.52a6,6,0,0,0-1.62.4,6.32,6.32,0,0,0-1.58.94L83,38.47a3.44,3.44,0,0,1,1.33-2.15,4.56,4.56,0,0,1,2.43-.93,4.71,4.71,0,0,1,4.35,2.07Z"/><path class="cls-5" d="M77.45,39.66A12.37,12.37,0,0,0,75,39a9,9,0,0,0-2.38,0,17,17,0,0,0-2.39.46,19.76,19.76,0,0,0-2.39.81l-.6-.58a5.65,5.65,0,0,1,2.29-2,7.78,7.78,0,0,1,2.89-.84,6.77,6.77,0,0,1,3,.38A5.82,5.82,0,0,1,78,39Z"/><path class="cls-12" d="M61.58,54.44a5.87,5.87,0,1,0,5.81-5.84A5.81,5.81,0,0,0,61.58,54.44Z"/><path class="cls-12" d="M96.08,57.19a5.75,5.75,0,0,1-1-11.36A35.1,35.1,0,0,1,96.08,57.19Z"/></svg>