<svg id="Layer_1" data-name="Layer 1" xmlns="http://www.w3.org/2000/svg" viewBox="0 0 338.86 557.39"><defs><style>.cls-1{fill:#f9b384;}.cls-2{fill:#e28b6d;}.cls-3,.cls-7{fill:#102048;}.cls-4{fill:#1f3c88;}.cls-5{fill:#005481;}.cls-6{fill:#ff9750;}.cls-7{opacity:0.6;}.cls-8{fill:#fff;}</style></defs><path class="cls-1" d="M304.79,248.6l6.25,9.06c15-.94,28.35,10.06,27.8,14.49H299.13L286.46,251Z"/><path class="cls-2" d="M39.35,96.4,27.06,68.15,0,63.46s.33,7.17,19.69,9.66l3.87,5.1Z"/><path class="cls-2" d="M30.42,92.56l-9-23.66L.2,77.45S3.41,82,17.59,79.59l3.94,2.83Z"/><path class="cls-2" d="M35.15,93.83,21.38,72.6l-19,12.87s4.1,3.76,17.44-1.59l4.45,1.92Z"/><path class="cls-1" d="M39.35,96.4S29.76,82,25.37,79.09s-9.91-5-11.68-9-4.84-.2-4.86,1.35C8.78,75.1,9.9,80.3,16.11,84.1c0,0,5.27,16.65,14.25,17.88Z"/><polygon class="cls-1" points="39.35 96.4 47.92 103.32 51.55 117.97 40.18 123.99 24.27 95.91 39.35 96.4"/><path class="cls-3" d="M95.34,557.39c21.61-3.73,32.95-11.77,44.56-19.68v19.68h3.62l5.16-34.92c-11.46,8.27-26.3,16.29-38.56,18.47Z"/><path class="cls-1" d="M131.09,397.81l-3.63,123.83-17.34,19.3c12.26-2.18,27.1-10.2,38.56-18.47l21-142.28Z"/><path class="cls-1" d="M207.94,362.3l-25.24,21,64.07,131.91-3,24.06a141.21,141.21,0,0,0,23.53-32.83C253.27,457.68,238.75,407.09,207.94,362.3Z"/><path class="cls-3" d="M243.75,539.28l-2.26,17.92c18-12.57,20.61-21.13,23.36-32.73l8.38,17.82,3.28-1.54q-4.35-17.21-9.23-34.3A141.21,141.21,0,0,1,243.75,539.28Z"/><path class="cls-4" d="M228.59,382c-35.67,14.27-69.43,8.32-97.5,15.85-11.87-29.8-19.53-67.11-5.84-142.39a125.13,125.13,0,0,1,4.35-16.93l11.57-35.13.28-.87,40.07-12.54,21.59,14.61.36,1.12.45,1.32a279.42,279.42,0,0,0,16.19,38.6C243.28,291.48,244.31,338.5,228.59,382Z"/><path class="cls-5" d="M310.89,250.14l-24.37,13.48L220.2,160a113,113,0,0,1-16.3,43.32c-.26.43-.52.84-.79,1.24-23.54,6.42-41.42,6.91-61.66-2.07l-.84-1.41c-8.27-14.08-14.39-31.58-19.36-50.92L98,164.68a23.14,23.14,0,0,1-28.31-3L27.21,120.86,44,99.87l47.15,32.91,29.49-21.53A77.14,77.14,0,0,1,148.79,98.4l16-3.7,16.58-1.54,20.6,7.16a70.36,70.36,0,0,1,37,30.12Z"/><path class="cls-3" d="M210.62,17.65c-.43,9.13-8.67,14.56-17.27,14.14s-11.64-7.67-14.06-16.47C176.56,5.43,184.53.14,193.14,0A17,17,0,0,1,210.62,17.65Z"/><path class="cls-1" d="M188.26,68.12l-1.43,24.59a16.93,16.93,0,0,1-17.65,16,11.57,11.57,0,0,1-11-11.58c0-.19,0-.4,0-.59l0-.3L159,78.82,169.37,75Z"/><path class="cls-3" d="M181.88,76.55s-7.19,14.53-23.66,19.69L159,78.82,169.37,75Z"/><path class="cls-1" d="M193.18,44.74l-4,23.68s-13.59,20.2-33,18.42c-8-.72-11.72-5.79-13.33-11.48a37.29,37.29,0,0,1-.9-12.75,45.05,45.05,0,0,1,.67-4.82L140,45.55l6.65-12.62,25.8-8.53Z"/><path class="cls-4" d="M194,56.54c1.9-4.45,4.37-7.63,4.45-19.12-.57-16.34-14.74-28.93-34.06-24.68a24.66,24.66,0,0,0-3.49,1.06c-27.54,10.58-27.54,30.91-19.51,38.71,4.59-13.29,16.1-16.48,29.12-16.6,4.23,13.17,13.9,20.68,20.66,20.16Z"/><path class="cls-1" d="M197.21,62.11c-1.06,4.42-4.44,8.37-7.35,8s-4.77-4.19-4.18-8.47,3.43-7.4,6.33-7S198.46,56.86,197.21,62.11Z"/><path class="cls-2" d="M189.36,63.06,188.3,63c0-.15.37-3.68,2.48-4.89a3.65,3.65,0,0,1,3.45.09l-.46,1a2.59,2.59,0,0,0-2.46-.13C190,59.77,189.44,62.19,189.36,63.06Z"/><ellipse class="cls-3" cx="150.85" cy="56.92" rx="1.6" ry="2.56"/><ellipse class="cls-3" cx="168.15" cy="55.92" rx="1.6" ry="2.81"/><path class="cls-3" d="M159.8,55.7a12.63,12.63,0,0,1-2,3.81c-.79,1.16-1.67,2.24-2.33,3.36a4.33,4.33,0,0,0-.65,1.65,1.66,1.66,0,0,0,.46,1.4,17.79,17.79,0,0,0,3,2.67l-.23.49a10.78,10.78,0,0,1-3.65-2.31,3.15,3.15,0,0,1-.74-1.06,2.88,2.88,0,0,1-.2-1.32,5.22,5.22,0,0,1,.81-2.23,28.08,28.08,0,0,1,2.58-3.38,22.21,22.21,0,0,0,2.4-3.28Z"/><path class="cls-3" d="M153.88,73.44a11.21,11.21,0,0,0,3,0,11.79,11.79,0,0,0,2.8-.73A13.28,13.28,0,0,0,161,72.1c.21-.13.44-.22.64-.36l.62-.4a5.16,5.16,0,0,0,.61-.43l.61-.45c.4-.31.78-.65,1.21-.95l.42.36c-.28.45-.6.89-.93,1.32A14,14,0,0,1,163,72.34a10.35,10.35,0,0,1-2.81,1.72,9.34,9.34,0,0,1-3.26.62,7.08,7.08,0,0,1-3.22-.72Z"/><path class="cls-3" d="M146,52.73a5.88,5.88,0,0,1,2-2.11,7.11,7.11,0,0,1,2.8-1,6.63,6.63,0,0,1,3,.22,5.71,5.71,0,0,1,2.5,1.5l-.43.72a21.43,21.43,0,0,0-2.44-.38,12.68,12.68,0,0,0-2.31.05,10.5,10.5,0,0,0-2.26.55,13.56,13.56,0,0,0-2.23,1.05Z"/><path class="cls-3" d="M162.86,51.44c.11-.23.24-.47.38-.7s.36-.4.55-.61.44-.31.66-.47.47-.24.71-.36a7.75,7.75,0,0,1,3-.5,9.52,9.52,0,0,1,2.91.51l.69.28.66.34a4.07,4.07,0,0,1,1.21,1l-.56.62a17.78,17.78,0,0,0-2.45-.45c-.84-.1-1.69-.18-2.51-.21a12.82,12.82,0,0,0-2.42.13,4.69,4.69,0,0,0-2.16.86Z"/><circle class="cls-6" cx="175.5" cy="65.59" r="6.42"/><path class="cls-6" d="M149.43,68.94A6.43,6.43,0,0,1,143,75.36h-.15a37.29,37.29,0,0,1-.9-12.75,5.19,5.19,0,0,1,1-.09A6.41,6.41,0,0,1,149.43,68.94Z"/><path class="cls-7" d="M203.47,205.67c-9.11,18.25-48.91,19.48-62.3-2.32l.28-.87c20.24,9,38.12,8.49,61.66,2.07Z"/><path class="cls-8" d="M125.88,168.71c-4.07-8.76-6.54-21.1-7.56-37.73l1.6-.1c1,16.43,3.43,28.58,7.42,37.15Z"/><path class="cls-8" d="M217.24,176.41l-1.56-.39c.24-.94.48-1.86.72-2.79,2.28-8.81,4.65-17.93,3.18-37.25l1.61-.12c1.48,19.59-.92,28.83-3.24,37.78C217.71,174.56,217.48,175.48,217.24,176.41Z"/></svg>