<svg id="visual" viewBox="0 0 1920 200" width="1920" height="200" xmlns="http://www.w3.org/2000/svg" xmlns:xlink="http://www.w3.org/1999/xlink" version="1.1"><g stroke-width="1" stroke-linejoin="bevel"><path d="M925 125L968 200L1079 111Z" fill="#00101c" stroke="#00101c"></path><path d="M968 200L1108 200L1079 111Z" fill="#063856" stroke="#063856"></path><path d="M1079 111L991 0L925 125Z" fill="#062438" stroke="#062438"></path><path d="M1270 138L1145 0L1079 111Z" fill="#00101c" stroke="#00101c"></path><path d="M1079 111L1145 0L991 0Z" fill="#061d2e" stroke="#061d2e"></path><path d="M777 105L804 200L925 125Z" fill="#053f61" stroke="#053f61"></path><path d="M925 125L804 200L968 200Z" fill="#063856" stroke="#063856"></path><path d="M991 0L827 0L925 125Z" fill="#034d77" stroke="#034d77"></path><path d="M827 0L777 105L925 125Z" fill="#06314c" stroke="#06314c"></path><path d="M1108 200L1270 138L1079 111Z" fill="#061d2e" stroke="#061d2e"></path><path d="M1270 138L1250 0L1145 0Z" fill="#051725" stroke="#051725"></path><path d="M1108 200L1297 200L1270 138Z" fill="#051725" stroke="#051725"></path><path d="M1270 138L1427 0L1250 0Z" fill="#034d77" stroke="#034d77"></path><path d="M680 0L671 110L777 105Z" fill="#00101c" stroke="#00101c"></path><path d="M777 105L671 110L804 200Z" fill="#04466c" stroke="#04466c"></path><path d="M827 0L680 0L777 105Z" fill="#062a42" stroke="#062a42"></path><path d="M671 110L610 200L804 200Z" fill="#04466c" stroke="#04466c"></path><path d="M517 200L610 200L490 89Z" fill="#06314c" stroke="#06314c"></path><path d="M1297 200L1437 109L1270 138Z" fill="#034d77" stroke="#034d77"></path><path d="M1437 109L1427 0L1270 138Z" fill="#04466c" stroke="#04466c"></path><path d="M1297 200L1442 200L1437 109Z" fill="#00101c" stroke="#00101c"></path><path d="M490 89L610 200L671 110Z" fill="#062a42" stroke="#062a42"></path><path d="M680 0L490 89L671 110Z" fill="#061d2e" stroke="#061d2e"></path><path d="M680 0L465 0L490 89Z" fill="#062a42" stroke="#062a42"></path><path d="M490 89L287 200L517 200Z" fill="#061d2e" stroke="#061d2e"></path><path d="M1442 200L1575 93L1437 109Z" fill="#025482" stroke="#025482"></path><path d="M1437 109L1575 93L1427 0Z" fill="#00101c" stroke="#00101c"></path><path d="M1575 93L1601 0L1427 0Z" fill="#025482" stroke="#025482"></path><path d="M1442 200L1628 200L1575 93Z" fill="#06314c" stroke="#06314c"></path><path d="M1575 93L1751 104L1601 0Z" fill="#062a42" stroke="#062a42"></path><path d="M465 0L313 87L490 89Z" fill="#00101c" stroke="#00101c"></path><path d="M313 87L287 200L490 89Z" fill="#04466c" stroke="#04466c"></path><path d="M465 0L295 0L313 87Z" fill="#062a42" stroke="#062a42"></path><path d="M313 87L181 64L287 200Z" fill="#061d2e" stroke="#061d2e"></path><path d="M1628 200L1751 104L1575 93Z" fill="#034d77" stroke="#034d77"></path><path d="M1628 200L1750 200L1751 104Z" fill="#00101c" stroke="#00101c"></path><path d="M1920 136L1789 0L1751 104Z" fill="#04466c" stroke="#04466c"></path><path d="M1751 104L1789 0L1601 0Z" fill="#063856" stroke="#063856"></path><path d="M295 0L181 64L313 87Z" fill="#063856" stroke="#063856"></path><path d="M181 64L166 200L287 200Z" fill="#00101c" stroke="#00101c"></path><path d="M295 0L129 0L181 64Z" fill="#063856" stroke="#063856"></path><path d="M181 64L0 67L166 200Z" fill="#061d2e" stroke="#061d2e"></path><path d="M1750 200L1920 136L1751 104Z" fill="#063856" stroke="#063856"></path><path d="M1750 200L1920 200L1920 136Z" fill="#062a42" stroke="#062a42"></path><path d="M1920 136L1920 0L1789 0Z" fill="#061d2e" stroke="#061d2e"></path><path d="M129 0L0 67L181 64Z" fill="#062438" stroke="#062438"></path><path d="M0 67L0 200L166 200Z" fill="#025482" stroke="#025482"></path><path d="M129 0L0 0L0 67Z" fill="#063856" stroke="#063856"></path></g></svg>