<svg id="Layer_1" data-name="Layer 1" xmlns="http://www.w3.org/2000/svg" xmlns:xlink="http://www.w3.org/1999/xlink" viewBox="0 0 1870.07 545.12"><defs><style>.cls-1{opacity:0.2;}.cls-2{fill:url(#Безымянный_градиент_125);}.cls-3{fill:url(#Безымянный_градиент_125-2);}.cls-4{fill:url(#Безымянный_градиент_125-3);}.cls-5{fill:url(#Безымянный_градиент_125-4);}.cls-6{fill:url(#Безымянный_градиент_125-5);}.cls-7{fill:url(#Безымянный_градиент_125-6);}.cls-8{fill:url(#Безымянный_градиент_125-7);}.cls-9{fill:url(#Безымянный_градиент_125-8);}</style><linearGradient id="Безымянный_градиент_125" x1="3922.39" y1="1108.25" x2="5172.54" y2="1108.25" gradientTransform="translate(-1435.29 -3737.18) rotate(45)" gradientUnits="userSpaceOnUse"><stop offset="0" stop-color="#16141f" stop-opacity="0"/><stop offset="0.49" stop-color="#7a99cc"/><stop offset="1" stop-color="#16141f" stop-opacity="0"/></linearGradient><linearGradient id="Безымянный_градиент_125-2" x1="3912.09" y1="1122.81" x2="5162.25" y2="1122.81" xlink:href="#Безымянный_градиент_125"/><linearGradient id="Безымянный_градиент_125-3" x1="3901.8" y1="1137.42" x2="5151.95" y2="1137.42" xlink:href="#Безымянный_градиент_125"/><linearGradient id="Безымянный_градиент_125-4" x1="3891.5" y1="1151.93" x2="5141.66" y2="1151.93" xlink:href="#Безымянный_градиент_125"/><linearGradient id="Безымянный_градиент_125-5" x1="3881.21" y1="1166.48" x2="5131.36" y2="1166.48" xlink:href="#Безымянный_градиент_125"/><linearGradient id="Безымянный_градиент_125-6" x1="3870.91" y1="1181.1" x2="5121.07" y2="1181.1" xlink:href="#Безымянный_градиент_125"/><linearGradient id="Безымянный_градиент_125-7" x1="3860.62" y1="1195.6" x2="5110.77" y2="1195.6" xlink:href="#Безымянный_градиент_125"/><linearGradient id="Безымянный_градиент_125-8" x1="3850.32" y1="1210.23" x2="5100.47" y2="1210.23" xlink:href="#Безымянный_градиент_125"/></defs><g class="cls-1"><path class="cls-2" d="M1790.28,79.79A270.63,270.63,0,0,0,1597.61,0c-150.25,0-272.51,122.27-272.52,272.52,0,93.3-75.92,169.21-169.22,169.22s-169.2-75.89-169.19-169.19C986.7,122.3,864.47.07,714.22.09A272.56,272.56,0,0,0,441.7,272.61c0,93.3-75.93,169.21-169.22,169.22s-169.2-75.89-169.19-169.19h-1.36A170.71,170.71,0,0,0,272.47,443.19c94,0,170.58-76.53,170.59-170.58A271.19,271.19,0,0,1,714.22,1.45c149.5,0,271.12,121.6,271.1,271.1A170.71,170.71,0,0,0,1155.87,443.1c94.05,0,170.57-76.53,170.58-170.58,0-149.5,121.66-271.15,271.16-271.16a271.07,271.07,0,0,1,271.11,271.11h1.35A270.61,270.61,0,0,0,1790.28,79.79Z"/><path class="cls-3" d="M1597.61,14.56c-142.22,0-257.94,115.74-258,258a183.77,183.77,0,1,1-367.53,0c0-142.23-115.68-257.92-257.9-257.91a258,258,0,0,0-258,258c0,101.33-82.46,183.77-183.79,183.78S88.72,374,88.73,272.64H87.37a185.29,185.29,0,0,0,185.1,185.11c102.08,0,185.14-83.06,185.15-185.14A256.63,256.63,0,0,1,714.21,16c141.48,0,256.57,115.07,256.55,256.55a185.13,185.13,0,0,0,370.25,0c0-141.47,115.12-256.58,256.6-256.6a256.49,256.49,0,0,1,256.54,256.55h1.36a257.86,257.86,0,0,0-257.9-257.91Z"/><path class="cls-4" d="M1597.61,29.12c-134.2,0-243.38,109.2-243.4,243.4a198.33,198.33,0,1,1-396.65,0c0-134.2-109.15-243.36-243.35-243.35s-243.38,109.2-243.39,243.4c0,109.35-89,198.33-198.35,198.34S74.16,382,74.17,272.65H72.81A199.85,199.85,0,0,0,272.47,472.31c110.11,0,199.7-89.6,199.71-199.7,0-133.45,108.59-242,242-242s242,108.54,242,242a199.69,199.69,0,0,0,399.37,0c0-133.45,108.59-242,242-242s242,108.54,242,242H1841C1841,138.27,1731.8,29.11,1597.61,29.12Z"/><path class="cls-5" d="M1597.6,43.68c-126.16,0-228.81,102.67-228.83,228.84a212.93,212.93,0,0,1-212.91,212.91C1038.48,485.44,943,389.94,943,272.56c0-126.17-102.62-228.8-228.79-228.79A228.87,228.87,0,0,0,485.38,272.6,212.93,212.93,0,0,1,272.47,485.51C155.08,485.53,59.59,390,59.6,272.65H58.25a214.25,214.25,0,0,0,428.49,0A227.51,227.51,0,0,1,714.21,45.13c125.42,0,227.44,102,227.43,227.43a214.25,214.25,0,0,0,428.49,0c0-125.42,102.06-227.46,227.47-227.48A227.4,227.4,0,0,1,1825,272.47h1.36A228.77,228.77,0,0,0,1597.6,43.68Z"/><path class="cls-6" d="M1597.6,58.25a214.28,214.28,0,0,0-214.26,214.26,227.45,227.45,0,1,1-454.9.05c0-118.14-96.09-214.24-214.23-214.23A214.31,214.31,0,0,0,499.94,272.6a227.45,227.45,0,0,1-454.9,0H43.68a228.81,228.81,0,0,0,457.62,0c0-117.38,95.52-212.9,212.91-212.91s212.88,95.48,212.87,212.87a228.81,228.81,0,0,0,457.61-.05c0-117.38,95.53-212.89,212.91-212.91s212.88,95.49,212.87,212.87h1.36A214.19,214.19,0,0,0,1597.6,58.25Z"/><path class="cls-7" d="M1597.6,72.81c-110.1,0-199.69,89.6-199.7,199.7,0,133.45-108.59,242-242,242s-242-108.54-242-242c0-110.11-89.55-199.68-199.66-199.66A199.73,199.73,0,0,0,514.5,272.6c0,133.45-108.59,242-242,242a242,242,0,0,1-242-242H29.12A243.33,243.33,0,0,0,272.47,516c134.19,0,243.38-109.2,243.39-243.4A198.4,198.4,0,0,1,714.21,74.25c109.36,0,198.32,88.95,198.31,198.31a243.59,243.59,0,0,0,243.34,243.35c134.2,0,243.38-109.2,243.4-243.4,0-109.35,89-198.33,198.34-198.34a198.28,198.28,0,0,1,198.31,198.3h1.36A199.63,199.63,0,0,0,1597.6,72.81Z"/><path class="cls-8" d="M1597.6,87.37a185.15,185.15,0,0,0-185.14,185.14,256.65,256.65,0,0,1-256.6,256.6c-141.48,0-256.56-115.07-256.55-256.55,0-102.07-83-185.11-185.1-185.1A185.15,185.15,0,0,0,529.07,272.6a256.58,256.58,0,0,1-513.15,0H14.56a257.93,257.93,0,0,0,515.86,0A183.8,183.8,0,0,1,714.21,88.82C815.54,88.81,898,171.23,898,272.56a257.94,257.94,0,0,0,515.87-.05,183.77,183.77,0,1,1,367.53,0h1.36A185.08,185.08,0,0,0,1597.6,87.37Z"/><path class="cls-9" d="M1597.6,101.93c-94,0-170.57,76.53-170.58,170.58a271.19,271.19,0,0,1-271.16,271.16c-149.51,0-271.12-121.6-271.11-271.11,0-94-76.5-170.55-170.54-170.54S543.64,178.55,543.63,272.6A271.17,271.17,0,0,1,80.75,464.37,269.32,269.32,0,0,1,1.36,272.65H0A272.46,272.46,0,0,0,465.15,465.29,270.76,270.76,0,0,0,545,272.6c0-93.3,75.92-169.21,169.22-169.22S883.4,179.26,883.39,272.56a272.5,272.5,0,0,0,545-.05c0-93.3,75.92-169.21,169.22-169.22a169.17,169.17,0,0,1,169.19,169.19h1.35A170.51,170.51,0,0,0,1597.6,101.93Z"/></g></svg>