<svg id="Layer_1" data-name="Layer 1" xmlns="http://www.w3.org/2000/svg" xmlns:xlink="http://www.w3.org/1999/xlink" viewBox="0 0 451.85 643.77"><defs><style>.cls-1,.cls-2{opacity:0.2;}.cls-1{fill:url(#Безымянный_градиент_419);}.cls-3{fill:url(#Безымянный_градиент_539);}.cls-4{fill:url(#Безымянный_градиент_539-2);}.cls-5{fill:url(#Безымянный_градиент_539-3);}.cls-6{fill:url(#Безымянный_градиент_539-4);}.cls-7{fill:url(#Безымянный_градиент_539-5);}.cls-8{fill:url(#Безымянный_градиент_539-6);}.cls-9{fill:url(#Безымянный_градиент_539-7);}</style><linearGradient id="Безымянный_градиент_419" x1="6011.14" y1="-10896.55" x2="6195.04" y2="-11080.46" gradientTransform="translate(6424.91 -10666.62) rotate(180)" gradientUnits="userSpaceOnUse"><stop offset="0" stop-color="#ebf1ff"/><stop offset="1" stop-color="#d5def2"/></linearGradient><linearGradient id="Безымянный_градиент_539" x1="6103.09" y1="-10988.51" x2="6424.91" y2="-10988.51" gradientTransform="translate(6424.91 -10666.62) rotate(180)" gradientUnits="userSpaceOnUse"><stop offset="0" stop-color="#d8e0f2"/><stop offset="1" stop-color="#738cbf"/></linearGradient><linearGradient id="Безымянный_градиент_539-2" x1="6103.09" y1="-10988.51" x2="6407.07" y2="-10988.51" xlink:href="#Безымянный_градиент_539"/><linearGradient id="Безымянный_градиент_539-3" x1="6103.09" y1="-10988.51" x2="6389.23" y2="-10988.51" xlink:href="#Безымянный_градиент_539"/><linearGradient id="Безымянный_градиент_539-4" x1="6103.09" y1="-10988.51" x2="6371.38" y2="-10988.51" xlink:href="#Безымянный_градиент_539"/><linearGradient id="Безымянный_градиент_539-5" x1="6103.09" y1="-10988.51" x2="6353.54" y2="-10988.51" xlink:href="#Безымянный_градиент_539"/><linearGradient id="Безымянный_градиент_539-6" x1="6103.09" y1="-10988.51" x2="6335.7" y2="-10988.51" xlink:href="#Безымянный_градиент_539"/><linearGradient id="Безымянный_градиент_539-7" x1="6103.09" y1="-10988.51" x2="6317.85" y2="-10988.51" xlink:href="#Безымянный_градиент_539"/></defs><ellipse class="cls-1" cx="321.82" cy="321.89" rx="130.03" ry="130.06"/><g class="cls-2"><path class="cls-3" d="M321.82,0V1.3C145.09,1.3,1.3,145.11,1.3,321.89S145.09,642.47,321.82,642.47v1.3A321.9,321.9,0,0,1,94.26,94.28,319.66,319.66,0,0,1,321.82,0Z"/><path class="cls-4" d="M321.82,17.85v1.3C154.92,19.15,19.14,155,19.14,321.89S154.92,624.63,321.82,624.63v1.3a304,304,0,0,1-214.94-519A301.93,301.93,0,0,1,321.82,17.85Z"/><path class="cls-5" d="M321.82,35.69V37C164.76,37,37,164.8,37,321.89S164.76,606.78,321.82,606.78v1.3A286.21,286.21,0,0,1,119.49,119.52,284.23,284.23,0,0,1,321.82,35.69Z"/><path class="cls-6" d="M321.82,53.54v1.3c-147.22,0-267,119.8-267,267s119.77,267,267,267v1.3c-147.94,0-268.29-120.38-268.29-268.34S173.88,53.54,321.82,53.54Z"/><path class="cls-7" d="M321.82,71.39v1.3c-137.38,0-249.15,111.79-249.15,249.2s111.77,249.2,249.15,249.2v1.3c-138.1,0-250.45-112.38-250.45-250.5S183.72,71.39,321.82,71.39Z"/><path class="cls-8" d="M321.82,89.23v1.3c-127.54,0-231.3,103.79-231.3,231.36s103.76,231.35,231.3,231.35v1.3c-128.26,0-232.61-104.37-232.61-232.65S193.56,89.23,321.82,89.23Z"/><path class="cls-9" d="M321.82,107.08v1.3c-117.7,0-213.46,95.78-213.46,213.51s95.76,213.5,213.46,213.5v1.31c-118.42,0-214.76-96.37-214.76-214.81S203.4,107.08,321.82,107.08Z"/></g></svg>