<?xml version="1.0" encoding="utf-8"?>
<!-- Generator: Adobe Illustrator 26.2.1, SVG Export Plug-In . SVG Version: 6.00 Build 0)  -->
<svg version="1.1" id="Layer_1" xmlns="http://www.w3.org/2000/svg" xmlns:xlink="http://www.w3.org/1999/xlink" x="0px" y="0px"
	 viewBox="0 0 420.9 1067.8" style="enable-background:new 0 0 420.9 1067.8;" xml:space="preserve">
<style type="text/css">
	.st0{clip-path:url(#SVGID_00000078034203267459851420000016342494735547574416_);}
	.st1{opacity:0.15;}
	.st2{fill:#C2CAD6;}
</style>
<g>
	<defs>
		<rect id="SVGID_1_" x="-1499.1" width="1920" height="1067.8"/>
	</defs>
	<clipPath id="SVGID_00000094605274227629799950000010551131523886586552_">
		<use xlink:href="#SVGID_1_"  style="overflow:visible;"/>
	</clipPath>
	<g style="clip-path:url(#SVGID_00000094605274227629799950000010551131523886586552_);">
		<g class="st1">
			<path class="st2" d="M446.7,886.8c-42.9,9.5-96.9,0.7-163.5-26.5C125.5,796,61.1,682,34.8,597.7C-11,450.9,25,298.7,80.9,213.1
				l3.2,2.1l-3.2-2.1C130.5,137.2,245.3,58.2,390,52.8c129.5-4.8,179.5,93.4,235.9,232.7c36.2,89.4,17.4,121.2-6.5,161.5
				c-13.6,23-29.1,49.1-36.1,91.3c-3.3,20-5.1,45.9-6.9,73.3c-6.3,94.5-14.2,212-89.2,258.9C474.7,878.2,461,883.7,446.7,886.8z
				 M316.3,70C209.7,93.7,127,156.5,87.3,217.3l0,0C32.3,301.5-3,451.1,42,595.5c25.8,82.7,89.1,194.6,244,257.8
				c86,35.1,152.3,38.7,197.1,10.7c71.8-44.8,79.5-160.2,85.7-252.9c1.8-27.6,3.6-53.7,7-74.1c7.2-43.6,23.1-70.3,37.1-93.9
				c22.8-38.5,40.8-68.9,6-154.7C563.6,152,514.9,55.8,390.3,60.4C365.4,61.4,340.6,64.6,316.3,70z"/>
			<path class="st2" d="M450.9,852.4c-40.1,8.9-90.6,0.7-152.9-24.8C150.6,767.5,90.4,660.9,65.8,582.1
				C23,444.9,56.6,302.6,108.9,222.6c46.3-71,153.7-144.8,289-149.9c121.2-4.5,167.9,87.3,220.6,217.5
				c33.9,83.6,16.2,113.4-6.1,151.1c-12.7,21.5-27.1,45.9-33.7,85.2c-3.1,18.7-4.7,42.9-6.4,68.5c-5.9,88.3-13.2,198.2-83.5,242.1
				C477.1,844.3,464.3,849.5,450.9,852.4z M112,224.6l3.2,2.1C63.9,305.3,30.9,445,73,579.9c24.1,77.2,83.2,181.7,227.8,240.7
				c80.2,32.8,142.1,36.1,183.9,10c66.9-41.8,74.1-149.5,79.9-236.1c1.7-25.8,3.4-50.2,6.5-69.2c6.8-40.7,21.6-65.8,34.7-87.8
				c21.2-35.9,38-64.2,5.6-144.4C559.8,165.8,514.3,76,398.1,80.3c-132.6,5-237.6,77.1-282.9,146.4L112,224.6z"/>
			<path class="st2" d="M455,817.9c-37.4,8.3-84.3,0.7-142.3-23c-137.1-56-193.2-155.1-216-228.4c-39.8-127.7-8.6-260,40.1-334.5
				l0,0c43.1-66,143-134.7,268.9-139.4C518.5,88.4,561.9,173.8,611,295c31.5,77.9,15.1,105.6-5.7,140.7
				c-11.8,20-25.2,42.6-31.3,79.1c-2.9,17.3-4.4,39.8-6,63.7c-5.5,82.2-12.3,184.4-77.7,225.2C479.4,810.4,467.5,815.2,455,817.9z
				 M139.9,234.1l3.2,2.1c-47.7,73-78.3,202.8-39.2,328.1C126.3,636,181.2,733,315.5,787.9c56,22.9,102.4,30.3,138.4,22.3
				c11.4-2.5,22.3-6.9,32.3-13c62.1-38.8,68.8-138.9,74.2-219.3c1.6-24,3.1-46.7,6.1-64.4c6.3-37.9,20.1-61.2,32.2-81.7
				c19.7-33.3,35.3-59.6,5.2-134c-47.9-118.3-90.1-201.7-198-197.6c-123.2,4.6-220.7,71.6-262.8,136L139.9,234.1z"/>
			<path class="st2" d="M459.1,783.5c-34.6,7.7-78.1,0.6-131.7-21.3c-126.8-51.8-178.7-143.5-199.8-211.3
				c-36.8-118.1-7.9-240.5,37.1-309.4l0,0c39.9-61.1,132.3-124.7,248.7-129c104.5-3.9,144.7,75.1,190.1,187.2
				c29.2,72.1,14,97.8-5.3,130.3c-10.9,18.4-23.3,39.3-28.9,73c-2.7,16-4.1,36.8-5.5,58.8c-5.1,76-11.4,170.6-72,208.4
				C481.8,776.5,470.7,781,459.1,783.5z M354.4,127.7c-85.4,19-151.6,69.3-183.4,118c-44,67.4-72.3,187.3-36.2,303
				c20.7,66.3,71.4,155.9,195.5,206.5c68.8,28.1,121.8,31,157.5,8.7c57.3-35.8,63.5-128.2,68.4-202.5c1.5-22.2,2.9-43.2,5.6-59.5
				c5.8-35.1,18.6-56.7,29.9-75.7c18.2-30.7,32.6-55,4.8-123.6c-44.2-109.2-83.2-186.2-182.8-182.5
				C393.8,120.8,373.9,123.4,354.4,127.7z"/>
			<path class="st2" d="M463.3,749c-31.8,7.1-71.8,0.6-121.1-19.6c-116.6-47.5-164.2-131.8-183.7-194.2
				c-33.8-108.5-7.3-221,34.1-284.4l0,0c36.7-56.1,121.6-114.6,228.6-118.6c96.1-3.6,133.1,69.1,174.8,172.1
				c26.9,66.3,12.9,90-4.9,119.9c-10,16.9-21.4,36-26.5,66.9c-2.4,14.7-3.7,33.8-5.1,54c-4.7,69.8-10.5,156.8-66.2,191.6
				C484.1,742.6,473.9,746.7,463.3,749z M195.8,253l3.2,2.1c-40.4,61.8-66.3,171.8-33.2,277.9c19,60.8,65.4,143,179.3,189.4
				c63.1,25.7,111.6,28.4,144.3,8c52.5-32.8,58.1-117.5,62.7-185.7c1.4-20.4,2.6-39.6,5.1-54.7c5.4-32.3,17.1-52.1,27.4-69.6
				c17.3-29.2,29.8-50.3,4.4-113.2C548.4,207.2,512.7,136.6,421.5,140c-104.3,3.9-186.9,60.6-222.5,115.1L195.8,253z"/>
			<path class="st2" d="M467.4,714.6c-29.1,6.5-65.6,0.5-110.5-17.8c-106.3-43.4-149.7-120.2-167.5-177.1
				c-30.9-99-6.6-201.5,31.1-259.3C254,209.1,331.4,155.8,429,152.2c87.8-3.3,121.5,63,159.6,157c24.5,60.6,11.8,82.2-4.4,109.5
				c-9.1,15.4-19.4,32.8-24.1,60.9c-2.2,13.4-3.4,30.7-4.6,49.1c-4.3,63.7-9.6,143-60.5,174.8C486.5,708.7,477.2,712.5,467.4,714.6z
				 M379.8,166.2c-71.2,15.8-126.4,57.8-152.9,98.4l0,0c-36.8,56.3-60.3,156.3-30.2,252.9c17.2,55.3,59.5,130.1,163.1,172.3
				c57.3,23.4,101.4,25.8,131.2,7.3c47.6-29.8,52.8-106.9,56.9-168.8c1.2-18.6,2.4-36.1,4.7-49.9c4.9-29.5,15.6-47.5,25-63.5
				c15.7-26.5,27.1-45.7,3.9-102.8c-36.9-91.1-69.4-155.3-152.2-152.2C412.7,160.4,396.1,162.5,379.8,166.2L379.8,166.2z"/>
			<path class="st2" d="M471.6,680.1c-26.3,5.8-59.3,0.5-100-16.1c-96-39.2-135.3-108.6-151.3-160c-27.9-89.4-6-182,28.1-234.2l0,0
				c30.2-46.3,100.2-94.5,188.4-97.8c79.4-3,109.9,56.9,144.3,141.8c22.2,54.8,10,75.4-4,99.1c-8.2,13.8-17.5,29.5-21.7,54.8
				c-2,12-3.1,27.7-4.2,44.3c-3.8,57.5-8.6,129.2-54.8,158C488.8,674.8,480.4,678.2,471.6,680.1z M254.8,274
				c-33.1,50.7-54.4,140.8-27.2,227.8c15.5,49.8,53.6,117.1,146.9,155.2c51.6,21,91.3,23.3,118,6.6c42.8-26.7,47.5-96.2,51.2-152
				c1.1-16.8,2.2-32.6,4.2-45c4.4-26.6,14.1-43,22.6-57.4c14.1-23.9,24.3-41.1,3.5-92.4c-33.2-82-62.5-139.9-137-137.1
				C351.6,182.9,283.9,229.4,254.8,274L254.8,274z"/>
			<path class="st2" d="M475.7,645.7c-23.5,5.2-53,0.4-89.3-14.4c-85.8-35-120.8-97-135.1-142.9c-24.9-79.8-5.3-162.5,25.1-209.1
				l0,0c27-41.3,89.5-84.4,168.3-87.3c71.1-2.6,98.3,50.8,129,126.7c19.9,49,9,67.4-3.6,88.7c-7.3,12.3-15.5,26.2-19.3,48.7
				c-1.8,10.7-2.7,24.7-3.7,39.4c-3.4,51.4-7.7,115.4-49,141.1C491.2,640.9,483.6,644,475.7,645.7z M279.5,281.3l3.2,2.1
				c-29.5,45.1-48.4,125.3-24.2,202.7c13.8,44.3,47.7,104.2,130.7,138.1c45.9,18.7,81.1,20.7,104.8,5.9
				c38-23.7,42.1-85.5,45.4-135.2c1-15,2-29.1,3.8-40.2c4-23.8,12.6-38.4,20.2-51.3c12.5-21.1,21.6-36.4,3.1-82
				c-30.5-75.3-55.4-124.4-121.7-122c-76,2.8-136.2,44.2-162.2,83.9L279.5,281.3z"/>
			<path class="st2" d="M479.8,611.2c-20.8,4.6-46.7,0.4-78.7-12.7c-75.5-30.8-106.3-85.4-118.9-125.8
				c-21.9-70.2-4.7-143.1,22.1-184.1c23.8-36.4,78.8-74.3,148.2-76.9c62.7-2.3,86.7,44.8,113.8,111.6c17.5,43.3,7.9,59.5-3.2,78.3
				c-6.4,10.8-13.6,23-16.9,42.6c-1.6,9.4-2.4,21.6-3.2,34.6c-3,45.2-6.8,101.5-43.2,124.3C493.5,607,486.8,609.7,479.8,611.2z
				 M417.9,223.9c-50,11.1-88.7,40.5-107.3,69l0,0c-25.8,39.5-42.4,109.8-21.2,177.6c12.1,38.8,41.8,91.3,114.6,121
				c40.1,16.4,71,18.1,91.6,5.2c33.2-20.7,36.8-74.9,39.7-118.4c0.9-13.1,1.7-25.6,3.3-35.3c3.5-21,11.1-33.9,17.8-45.2
				c10.9-18.5,18.8-31.8,2.7-71.6c-26.7-65.9-48.5-109-106.4-106.8C441,219.8,429.3,221.3,417.9,223.9z"/>
			<path class="st2" d="M484,576.8c-18,4-40.5,0.4-68.1-10.9c-65.2-26.6-91.9-73.8-102.8-108.7c-18.9-60.7-4-123.6,19.1-159l0,0
				c20.6-31.5,68.1-64.2,128-66.5c54.4-2,75.1,38.7,98.5,96.4c15.2,37.5,6.9,51.6-2.8,68c-5.5,9.2-11.7,19.7-14.5,36.5
				c-1.3,8.1-2,18.6-2.8,29.7c-2.6,39.1-5.9,87.7-37.5,107.5C495.9,573.1,490.1,575.4,484,576.8z M430.7,243.1
				c-42.9,9.5-76.1,34.8-92.1,59.2l0,0c-22.2,33.9-36.4,94.3-18.2,152.6c10.4,33.3,35.9,78.4,98.4,103.9c34.4,14,60.8,15.6,78.4,4.5
				c28.3-17.7,31.4-64.2,34-101.5c0.8-11.3,1.5-22,2.9-30.5c3-18.2,9.6-29.3,15.4-39.1c9.3-15.8,16.1-27.2,2.3-61.2
				c-22.9-56.6-41.6-93.5-91.2-91.7C450.5,239.6,440.5,240.9,430.7,243.1L430.7,243.1z"/>
			<path class="st2" d="M488.1,542.3c-15.2,3.4-34.2,0.3-57.5-9.2c-54.9-22.4-77.4-62.2-86.6-91.6c-15.9-51.1-3.4-104.1,16.1-133.9
				l0,0c17.3-26.5,57.4-54.2,107.9-56.1c46-1.7,63.5,32.6,83.3,81.3c12.9,31.8,5.8,43.7-2.4,57.5c-4.6,7.7-9.7,16.4-12.1,30.4
				c-1.1,6.7-1.7,15.5-2.3,24.9c-2.2,32.9-4.9,73.9-31.8,90.7C498.2,539.2,493.3,541.2,488.1,542.3z M366.5,311.8
				c-18.5,28.4-30.4,78.8-15.2,127.5c8.7,27.8,30,65.5,82.2,86.8c28.7,11.7,50.6,13,65.3,3.9c23.5-14.7,26.1-53.5,28.2-84.7
				c0.6-9.5,1.2-18.5,2.4-25.6c2.6-15.4,8.1-24.8,13-33c7.8-13.1,13.4-22.5,1.9-50.8c-19.1-47.2-34.8-78.1-75.9-76.6
				C420.5,260.9,382.7,286.9,366.5,311.8L366.5,311.8z"/>
		</g>
	</g>
</g>
</svg>
