<svg id="Layer_1" data-name="Layer 1" xmlns="http://www.w3.org/2000/svg" xmlns:xlink="http://www.w3.org/1999/xlink" viewBox="0 0 1674.88 642.35"><defs><style>.cls-1{fill:none;}.cls-2{opacity:0.43;}.cls-3{clip-path:url(#clip-path);}.cls-4{fill:#fff;}</style><clipPath id="clip-path"><rect class="cls-1" width="1674.88" height="642.35"/></clipPath></defs><g class="cls-2"><g class="cls-3"><polygon class="cls-4" points="652.22 246.02 652.21 246.02 652.21 246.03 652.22 246.02"/><polygon class="cls-4" points="665.52 222.97 665.17 223.17 665.52 223.38 665.52 222.97"/><polygon class="cls-4" points="652.57 200.32 652.03 200.02 652.03 200.63 652.57 200.32"/><polygon class="cls-4" points="665.71 176.95 664.8 177.47 665.71 178 665.71 176.95"/><polygon class="cls-4" points="625.89 200.22 625.71 200.32 625.89 200.43 625.89 200.22"/><polygon class="cls-4" points="652.82 154.62 651.91 154.1 651.91 155.15 652.82 154.62"/><polygon class="cls-4" points="665.84 131.03 664.55 131.77 665.84 132.52 665.84 131.03"/><polygon class="cls-4" points="612.82 177.47 612.54 177.31 612.54 177.63 612.82 177.47"/><polygon class="cls-4" points="626.01 154.31 625.47 154.62 626.01 154.93 626.01 154.31"/><polygon class="cls-4" points="652.94 108.92 651.85 108.29 651.85 109.55 652.94 108.92"/><polygon class="cls-4" points="665.88 85.26 664.46 86.07 665.88 86.89 665.88 85.26"/><polygon class="cls-4" points="586.25 177.47 586.25 177.47 586.25 177.48 586.25 177.47"/><polygon class="cls-4" points="612.87 131.77 612.52 131.57 612.52 131.97 612.87 131.77"/><polygon class="cls-4" points="626.01 108.61 625.47 108.92 626.01 109.23 626.01 108.61"/><polygon class="cls-4" points="652.94 63.22 651.85 62.59 651.85 63.85 652.94 63.22"/><polygon class="cls-4" points="665.84 39.63 664.55 40.38 665.84 41.11 665.84 39.63"/><polygon class="cls-4" points="573.06 154.62 573.06 154.62 573.06 154.63 573.06 154.62"/><polygon class="cls-4" points="586.25 131.77 586.25 131.77 586.25 131.78 586.25 131.77"/><polygon class="cls-4" points="612.75 86.07 612.58 85.97 612.58 86.17 612.75 86.07"/><polygon class="cls-4" points="625.95 63.02 625.6 63.22 625.95 63.43 625.95 63.02"/><polygon class="cls-4" points="652.69 17.52 651.98 17.11 651.98 17.94 652.69 17.52"/><polygon class="cls-4" points="625.87 17.45 625.75 17.52 625.87 17.59 625.87 17.45"/><polygon class="cls-4" points="953.32 451.61 953.21 451.67 953.32 451.74 953.32 451.61"/><polygon class="cls-4" points="980.07 451.67 979.47 451.33 979.47 452.02 980.07 451.67"/><polygon class="cls-4" points="940.73 428.82 939.78 428.28 939.78 429.37 940.73 428.82"/><polygon class="cls-4" points="993.63 427.5 991.33 428.82 993.63 430.15 993.63 427.5"/><polygon class="cls-4" points="1019.42 474.52 1019.16 474.38 1019.16 474.67 1019.42 474.52"/><polygon class="cls-4" points="954.2 404.39 951.46 405.97 954.2 407.55 954.2 404.39"/><polygon class="cls-4" points="982.06 405.97 978.47 403.9 978.47 408.05 982.06 405.97"/><polygon class="cls-4" points="1021.27 428.82 1018.24 427.07 1018.24 430.58 1021.27 428.82"/><polygon class="cls-4" points="1033.11 450.53 1031.11 451.67 1033.11 452.82 1033.11 450.53"/><polygon class="cls-4" points="913.8 428.66 913.51 428.82 913.8 428.99 913.8 428.66"/><polygon class="cls-4" points="914.64 381.51 911.85 383.13 914.64 384.74 914.64 381.51"/><polygon class="cls-4" points="942.79 383.13 938.74 380.79 938.74 385.46 942.79 383.13"/><polygon class="cls-4" points="994.94 379.53 988.72 383.13 994.94 386.71 994.94 379.53"/><polygon class="cls-4" points="1024.12 383.13 1016.81 378.9 1016.81 387.35 1024.12 383.13"/><polygon class="cls-4" points="1034.29 402.76 1028.73 405.97 1034.29 409.18 1034.29 402.76"/><polygon class="cls-4" points="1061.04 451.67 1057.72 449.76 1057.72 453.59 1061.04 451.67"/><polygon class="cls-4" points="1072.84 473.1 1070.38 474.52 1072.84 475.95 1072.84 473.1"/><polygon class="cls-4" points="1059.08 497.38 1058.7 497.15 1058.7 497.6 1059.08 497.38"/><polygon class="cls-4" points="901.08 405.97 900.24 405.49 900.24 406.46 901.08 405.97"/><polygon class="cls-4" points="902.91 360.27 899.32 358.2 899.32 362.35 902.91 360.27"/><polygon class="cls-4" points="955.53 356.37 948.78 360.27 955.53 364.18 955.53 356.37"/><polygon class="cls-4" points="985.11 360.27 976.95 355.56 976.95 364.99 985.11 360.27"/><polygon class="cls-4" points="1035.96 354.18 1025.4 360.27 1035.96 366.37 1035.96 354.18"/><polygon class="cls-4" points="1063.36 405.97 1056.56 402.05 1056.56 409.9 1063.36 405.97"/><polygon class="cls-4" points="1073.88 425.6 1068.29 428.82 1073.88 432.05 1073.88 425.6"/><polygon class="cls-4" points="1101.17 474.52 1097.02 472.13 1097.02 476.92 1101.17 474.52"/><polygon class="cls-4" points="874.14 405.96 874.12 405.97 874.14 405.98 874.14 405.96"/><polygon class="cls-4" points="915.69 333.99 909.74 337.43 915.69 340.86 915.69 333.99"/><polygon class="cls-4" points="945.36 337.43 937.46 332.87 937.46 341.98 945.36 337.43"/><polygon class="cls-4" points="996.53 331.07 985.53 337.43 996.53 343.77 996.53 331.07"/><polygon class="cls-4" points="1027.34 337.43 1015.2 330.41 1015.2 344.44 1027.34 337.43"/><polygon class="cls-4" points="1066.75 360.27 1054.86 353.41 1054.86 367.14 1066.75 360.27"/><polygon class="cls-4" points="1075.37 377.33 1065.33 383.13 1075.37 388.92 1075.37 377.33"/><polygon class="cls-4" points="1103.37 428.82 1095.92 424.52 1095.92 433.13 1103.37 428.82"/><polygon class="cls-4" points="1113.93 447.64 1106.93 451.67 1113.93 455.71 1113.93 447.64"/><polygon class="cls-4" points="1112.82 495.25 1109.14 497.38 1112.82 499.5 1112.82 495.25"/><polygon class="cls-4" points="1099.21 520.23 1098 519.53 1098 520.92 1099.21 520.23"/><polygon class="cls-4" points="861.3 383.13 860.76 382.81 860.76 383.44 861.3 383.13"/><polygon class="cls-4" points="874.85 359.02 872.68 360.27 874.85 361.52 874.85 359.02"/><polygon class="cls-4" points="875.7 311.87 871.01 314.58 875.7 317.28 875.7 311.87"/><polygon class="cls-4" points="904.76 314.58 898.39 310.9 898.39 318.25 904.76 314.58"/><polygon class="cls-4" points="956.77 308.54 946.32 314.58 956.77 320.61 956.77 308.54"/><polygon class="cls-4" points="987.75 314.58 975.63 307.57 975.63 321.57 987.75 314.58"/><polygon class="cls-4" points="1037.31 306.14 1022.71 314.58 1037.31 323 1037.31 306.14"/><polygon class="cls-4" points="1069.23 314.58 1053.62 305.56 1053.62 323.59 1069.23 314.58"/><polygon class="cls-4" points="1076.85 329.05 1062.36 337.43 1076.85 345.79 1076.85 329.05"/><polygon class="cls-4" points="1106.24 383.13 1094.48 376.33 1094.48 389.91 1106.24 383.13"/><polygon class="cls-4" points="1115.13 399.86 1104.53 405.97 1115.13 412.09 1115.13 399.86"/><polygon class="cls-4" points="1144.5 451.67 1134.72 446.03 1134.72 457.32 1144.5 451.67"/><polygon class="cls-4" points="1154.36 469 1144.79 474.52 1154.36 480.05 1154.36 469"/><polygon class="cls-4" points="1142.21 497.38 1135.87 493.71 1135.87 501.04 1142.21 497.38"/><polygon class="cls-4" points="1111.9 542.55 1110.99 543.08 1111.9 543.6 1111.9 542.55"/><polygon class="cls-4" points="862.78 337.43 860.02 335.83 860.02 339.02 862.78 337.43"/><polygon class="cls-4" points="864.26 291.72 859.28 288.85 859.28 294.6 864.26 291.72"/><polygon class="cls-4" points="916.67 286.58 907.77 291.72 916.67 296.86 916.67 286.58"/><polygon class="cls-4" points="947.4 291.72 936.44 285.39 936.44 298.05 947.4 291.72"/><polygon class="cls-4" points="997.63 283.47 983.33 291.72 997.63 299.98 997.63 283.47"/><polygon class="cls-4" points="1029.58 291.72 1014.08 282.77 1014.08 300.67 1029.58 291.72"/><polygon class="cls-4" points="1077.7 281.87 1060.64 291.72 1077.7 301.57 1077.7 281.87"/><polygon class="cls-4" points="1108.9 337.43 1093.15 328.33 1093.15 346.51 1108.9 337.43"/><polygon class="cls-4" points="1116.57 351.66 1101.65 360.27 1116.57 368.88 1116.57 351.66"/><polygon class="cls-4" points="1146.79 405.97 1133.58 398.35 1133.58 413.6 1146.79 405.97"/><polygon class="cls-4" points="1155.45 421.42 1142.63 428.82 1155.45 436.22 1155.45 421.42"/><polygon class="cls-4" points="1186.26 474.52 1173.21 466.99 1173.21 482.06 1186.26 474.52"/><polygon class="cls-4" points="1153.17 516.77 1147.18 520.23 1153.17 523.68 1153.17 516.77"/><polygon class="cls-4" points="1140 543.08 1136.97 541.33 1136.97 544.82 1140 543.08"/><polygon class="cls-4" points="835.01 336.64 833.65 337.43 835.01 338.21 835.01 336.64"/><polygon class="cls-4" points="876.44 264.88 869.51 268.87 876.44 272.87 876.44 264.88"/><polygon class="cls-4" points="906.41 268.87 897.57 263.77 897.57 273.98 906.41 268.87"/><polygon class="cls-4" points="957.61 261.38 944.63 268.87 957.61 276.37 957.61 261.38"/><polygon class="cls-4" points="989.43 268.87 974.79 260.42 974.79 277.33 989.43 268.87"/><polygon class="cls-4" points="1038.04 259.18 1021.24 268.87 1038.04 278.57 1038.04 259.18"/><polygon class="cls-4" points="1070.41 268.87 1053.03 258.84 1053.03 278.91 1070.41 268.87"/><polygon class="cls-4" points="1110.36 291.72 1092.43 281.37 1092.43 302.07 1110.36 291.72"/><polygon class="cls-4" points="1117.46 304.41 1099.86 314.58 1117.46 324.74 1117.46 304.41"/><polygon class="cls-4" points="1149.19 360.27 1132.38 350.56 1132.38 369.99 1149.19 360.27"/><polygon class="cls-4" points="1156.65 373.65 1140.23 383.13 1156.65 392.6 1156.65 373.65"/><polygon class="cls-4" points="1188.34 428.82 1172.17 419.49 1172.17 438.16 1188.34 428.82"/><polygon class="cls-4" points="1196.28 442.09 1179.69 451.67 1196.28 461.26 1196.28 442.09"/><polygon class="cls-4" points="1195.15 489.76 1181.96 497.38 1195.15 504.99 1195.15 489.76"/><polygon class="cls-4" points="1183.67 520.23 1174.5 514.93 1174.5 525.52 1183.67 520.23"/><polygon class="cls-4" points="1152.06 564.39 1149.4 565.93 1152.06 567.46 1152.06 564.39"/><polygon class="cls-4" points="1138.34 588.78 1137.8 588.47 1137.8 589.08 1138.34 588.78"/><polygon class="cls-4" points="822.48 314.58 820.8 313.6 820.8 315.55 822.48 314.58"/><polygon class="cls-4" points="835.7 289.74 832.26 291.72 835.7 293.71 835.7 289.74"/><polygon class="cls-4" points="836.31 242.98 831.04 246.02 836.31 249.06 836.31 242.98"/><polygon class="cls-4" points="865.63 246.02 858.59 241.96 858.59 250.09 865.63 246.02"/><polygon class="cls-4" points="917.33 239.75 906.47 246.02 917.33 252.29 917.33 239.75"/><polygon class="cls-4" points="948.7 246.02 935.78 238.57 935.78 253.48 948.7 246.02"/><polygon class="cls-4" points="998.12 236.91 982.34 246.02 998.12 255.14 998.12 236.91"/><polygon class="cls-4" points="1030.47 246.02 1013.64 236.3 1013.64 255.75 1030.47 246.02"/><polygon class="cls-4" points="1077.98 235.7 1060.1 246.02 1077.98 256.35 1077.98 235.7"/><polygon class="cls-4" points="1110.53 246.02 1092.34 235.52 1092.34 256.52 1110.53 246.02"/><polygon class="cls-4" points="1117.77 258.18 1099.25 268.87 1117.77 279.56 1117.77 258.18"/><polygon class="cls-4" points="1150.42 314.58 1131.76 303.81 1131.76 325.34 1150.42 314.58"/><polygon class="cls-4" points="1157.41 326.62 1138.7 337.43 1157.41 348.22 1157.41 326.62"/><polygon class="cls-4" points="1190.38 383.13 1171.15 372.02 1171.15 394.23 1190.38 383.13"/><polygon class="cls-4" points="1197.27 394.69 1177.72 405.97 1197.27 417.26 1197.27 394.69"/><polygon class="cls-4" points="1230.48 451.67 1210.46 440.12 1210.46 463.23 1230.48 451.67"/><polygon class="cls-4" points="1237.1 462.81 1216.8 474.52 1237.1 486.25 1237.1 462.81"/><polygon class="cls-4" points="1228.28 497.38 1211.56 487.72 1211.56 507.02 1228.28 497.38"/><polygon class="cls-4" points="1193.68 538 1184.9 543.08 1193.68 548.14 1193.68 538"/><polygon class="cls-4" points="1181.06 565.93 1175.81 562.89 1175.81 568.96 1181.06 565.93"/><polygon class="cls-4" points="1151.29 611.42 1150.94 611.63 1151.29 611.83 1151.29 611.42"/><polygon class="cls-4" points="795.19 314.2 794.55 314.58 795.19 314.94 795.19 314.2"/><polygon class="cls-4" points="823.72 268.87 820.18 266.83 820.18 270.92 823.72 268.87"/><polygon class="cls-4" points="824.93 223.17 819.58 220.08 819.58 226.26 824.93 223.17"/><polygon class="cls-4" points="877.09 218.05 868.22 223.17 877.09 228.29 877.09 218.05"/><polygon class="cls-4" points="907.59 223.17 896.98 217.04 896.98 229.3 907.59 223.17"/><polygon class="cls-4" points="958.04 214.94 943.77 223.17 958.04 231.41 958.04 214.94"/><polygon class="cls-4" points="990.15 223.17 974.43 214.1 974.43 232.25 990.15 223.17"/><polygon class="cls-4" points="1038.22 213.16 1020.88 223.17 1038.22 233.18 1038.22 213.16"/><polygon class="cls-4" points="1070.59 223.17 1052.95 212.99 1052.95 233.36 1070.59 223.17"/><polygon class="cls-4" points="1117.59 212.79 1099.62 223.17 1117.59 233.55 1117.59 212.79"/><polygon class="cls-4" points="1150.59 268.87 1131.67 257.95 1131.67 279.79 1150.59 268.87"/><polygon class="cls-4" points="1157.63 280.54 1138.26 291.72 1157.63 302.91 1157.63 280.54"/><polygon class="cls-4" points="1191.19 337.43 1170.74 325.62 1170.74 349.24 1191.19 337.43"/><polygon class="cls-4" points="1197.84 348 1176.57 360.27 1197.84 372.55 1197.84 348"/><polygon class="cls-4" points="1232.11 405.97 1209.65 393.01 1209.65 418.94 1232.11 405.97"/><polygon class="cls-4" points="1237.94 415.64 1215.1 428.82 1237.94 442.01 1237.94 415.64"/><polygon class="cls-4" points="1272.42 474.52 1248.86 460.92 1248.86 488.13 1272.42 474.52"/><polygon class="cls-4" points="1235.7 510.91 1219.57 520.23 1235.7 529.54 1235.7 510.91"/><polygon class="cls-4" points="1225.14 543.08 1213.13 536.14 1213.13 550.01 1225.14 543.08"/><polygon class="cls-4" points="1192.3 586.08 1187.64 588.78 1192.3 591.47 1192.3 586.08"/><polygon class="cls-4" points="1178.93 611.63 1176.87 610.43 1176.87 612.81 1178.93 611.63"/><polygon class="cls-4" points="782.5 291.72 781.42 291.1 781.42 292.34 782.5 291.72"/><polygon class="cls-4" points="795.76 267.52 793.41 268.87 795.76 270.23 795.76 267.52"/><polygon class="cls-4" points="836.93 196.21 829.8 200.32 836.93 204.44 836.93 196.21"/><polygon class="cls-4" points="866.87 200.32 857.98 195.19 857.98 205.46 866.87 200.32"/><polygon class="cls-4" points="917.8 193.24 905.53 200.32 917.8 207.41 917.8 193.24"/><polygon class="cls-4" points="949.42 200.32 935.43 192.25 935.43 208.4 949.42 200.32"/><polygon class="cls-4" points="998.2 191.07 982.18 200.32 998.2 209.58 998.2 191.07"/><polygon class="cls-4" points="1030.39 200.32 1013.68 190.67 1013.68 209.97 1030.39 200.32"/><polygon class="cls-4" points="1077.62 190.62 1060.82 200.32 1077.62 210.02 1077.62 190.62"/><polygon class="cls-4" points="1109.52 200.32 1092.85 190.7 1092.85 209.95 1109.52 200.32"/><polygon class="cls-4" points="1149.81 223.17 1132.07 212.93 1132.07 233.42 1149.81 223.17"/><polygon class="cls-4" points="1157.36 235.3 1138.79 246.02 1157.36 256.75 1157.36 235.3"/><polygon class="cls-4" points="1190.99 291.72 1170.84 280.09 1170.84 303.36 1190.99 291.72"/><polygon class="cls-4" points="1197.77 302.42 1176.72 314.58 1197.77 326.73 1197.77 302.42"/><polygon class="cls-4" points="1232.82 360.27 1209.29 346.69 1209.29 373.86 1232.82 360.27"/><polygon class="cls-4" points="1238.5 368.98 1213.99 383.13 1238.5 397.27 1238.5 368.98"/><polygon class="cls-4" points="1273.74 428.82 1248.2 414.07 1248.2 443.58 1273.74 428.82"/><polygon class="cls-4" points="1278.66 436.5 1252.39 451.67 1278.66 466.85 1278.66 436.5"/><polygon class="cls-4" points="1277.72 483.85 1254.28 497.38 1277.72 510.9 1277.72 483.85"/><polygon class="cls-4" points="1269.68 520.23 1250.23 509 1250.23 531.46 1269.68 520.23"/><polygon class="cls-4" points="1233.98 559.6 1223.03 565.93 1233.98 572.25 1233.98 559.6"/><polygon class="cls-4" points="1221.88 588.78 1214.77 584.67 1214.77 592.88 1221.88 588.78"/><polygon class="cls-4" points="1191.37 633.4 1189.51 634.48 1191.37 635.55 1191.37 633.4"/><polygon class="cls-4" points="755.51 291.52 755.16 291.72 755.51 291.93 755.51 291.52"/><polygon class="cls-4" points="783.54 246.02 780.91 244.51 780.91 247.54 783.54 246.02"/><polygon class="cls-4" points="796.32 220.84 792.29 223.17 796.32 225.5 796.32 220.84"/><polygon class="cls-4" points="796.83 174.25 791.26 177.47 796.83 180.7 796.83 174.25"/><polygon class="cls-4" points="826.03 177.47 819.03 173.43 819.03 181.51 826.03 177.47"/><polygon class="cls-4" points="877.51 171.61 867.36 177.47 877.51 183.34 877.51 171.61"/><polygon class="cls-4" points="908.24 177.47 896.65 170.78 896.65 184.17 908.24 177.47"/><polygon class="cls-4" points="958.02 169.27 943.81 177.47 958.02 185.68 958.02 169.27"/><polygon class="cls-4" points="989.65 177.47 974.68 168.83 974.68 186.12 989.65 177.47"/><polygon class="cls-4" points="1037.61 168.52 1022.1 177.47 1037.61 186.43 1037.61 168.52"/><polygon class="cls-4" points="1069.04 177.47 1053.72 168.63 1053.72 186.32 1069.04 177.47"/><polygon class="cls-4" points="1116.52 168.94 1101.74 177.47 1116.52 186.01 1116.52 168.94"/><polygon class="cls-4" points="1147.48 177.47 1133.23 169.25 1133.23 185.7 1147.48 177.47"/><polygon class="cls-4" points="1156.52 191.06 1140.48 200.32 1156.52 209.59 1156.52 191.06"/><polygon class="cls-4" points="1190.1 246.02 1171.29 235.16 1171.29 256.89 1190.1 246.02"/><polygon class="cls-4" points="1197.34 257.45 1177.57 268.87 1197.34 280.29 1197.34 257.45"/><polygon class="cls-4" points="1232 314.58 1209.7 301.7 1209.7 327.45 1232 314.58"/><polygon class="cls-4" points="1238.27 323.66 1214.43 337.43 1238.27 351.19 1238.27 323.66"/><polygon class="cls-4" points="1274.46 383.13 1247.84 367.75 1247.84 398.5 1274.46 383.13"/><polygon class="cls-4" points="1279.13 390 1251.46 405.97 1279.13 421.95 1279.13 390"/><polygon class="cls-4" points="1315.29 451.67 1286.79 435.23 1286.79 468.12 1315.29 451.67"/><polygon class="cls-4" points="1319.06 457.95 1290.34 474.52 1319.06 491.11 1319.06 457.95"/><polygon class="cls-4" points="1313.87 497.38 1287.5 482.15 1287.5 512.6 1313.87 497.38"/><polygon class="cls-4" points="1276.1 532.35 1257.52 543.08 1276.1 553.8 1276.1 532.35"/><polygon class="cls-4" points="1266.05 565.93 1252.05 557.84 1252.05 574.01 1266.05 565.93"/><polygon class="cls-4" points="1232.43 607.99 1226.13 611.63 1232.43 615.27 1232.43 607.99"/><polygon class="cls-4" points="1219.57 634.48 1215.92 632.37 1215.92 636.58 1219.57 634.48"/><polygon class="cls-4" points="742.69 268.87 741.97 268.46 741.97 269.29 742.69 268.87"/><polygon class="cls-4" points="755.95 245.07 754.3 246.02 755.95 246.98 755.95 245.07"/><polygon class="cls-4" points="784.69 200.32 780.33 197.81 780.33 202.84 784.69 200.32"/><polygon class="cls-4" points="785.42 154.62 779.96 151.47 779.96 157.77 785.42 154.62"/><polygon class="cls-4" points="837.23 149.99 829.21 154.62 837.23 159.25 837.23 149.99"/><polygon class="cls-4" points="867.2 154.62 857.8 149.2 857.8 160.05 867.2 154.62"/><polygon class="cls-4" points="917.62 147.85 905.88 154.62 917.62 161.4 917.62 147.85"/><polygon class="cls-4" points="948.56 154.62 935.86 147.3 935.86 161.95 948.56 154.62"/><polygon class="cls-4" points="997.34 146.87 983.91 154.62 997.34 162.38 997.34 146.87"/><polygon class="cls-4" points="1028.37 154.62 1014.69 146.72 1014.69 162.53 1028.37 154.62"/><polygon class="cls-4" points="1076.35 147.12 1063.35 154.62 1076.35 162.13 1076.35 147.12"/><polygon class="cls-4" points="1106.93 154.62 1094.14 147.24 1094.14 162.01 1106.93 154.62"/><polygon class="cls-4" points="1155.08 147.85 1143.35 154.62 1155.08 161.4 1155.08 147.85"/><polygon class="cls-4" points="1188 200.32 1172.34 191.29 1172.34 209.36 1188 200.32"/><polygon class="cls-4" points="1196.62 213.01 1179.02 223.17 1196.62 233.34 1196.62 213.01"/><polygon class="cls-4" points="1230.59 268.87 1210.41 257.22 1210.41 280.52 1230.59 268.87"/><polygon class="cls-4" points="1237.54 279.23 1215.9 291.72 1237.54 304.22 1237.54 279.23"/><polygon class="cls-4" points="1273.49 337.43 1248.33 322.89 1248.33 351.96 1273.49 337.43"/><polygon class="cls-4" points="1278.88 344.74 1251.96 360.27 1278.88 375.81 1278.88 344.74"/><polygon class="cls-4" points="1315.9 405.97 1286.48 388.99 1286.48 422.96 1315.9 405.97"/><polygon class="cls-4" points="1319.39 411.66 1289.66 428.82 1319.39 445.99 1319.39 411.66"/><polygon class="cls-4" points="1355.88 474.52 1325.86 457.19 1325.86 491.86 1355.88 474.52"/><polygon class="cls-4" points="1317.9 505.64 1292.64 520.23 1317.9 534.81 1317.9 505.64"/><polygon class="cls-4" points="1310.61 543.08 1289.13 530.67 1289.13 555.48 1310.61 543.08"/><polygon class="cls-4" points="1274.12 581.47 1261.47 588.78 1274.12 596.08 1274.12 581.47"/><polygon class="cls-4" points="1262.57 611.63 1253.79 606.56 1253.79 616.69 1262.57 611.63"/><polygon class="cls-4" points="715.94 268.67 715.59 268.87 715.94 269.08 715.94 268.67"/><polygon class="cls-4" points="743.52 223.17 741.55 222.03 741.55 224.32 743.52 223.17"/><polygon class="cls-4" points="756.45 198.5 753.29 200.32 756.45 202.15 756.45 198.5"/><polygon class="cls-4" points="797.04 128.2 790.85 131.77 797.04 135.35 797.04 128.2"/><polygon class="cls-4" points="826.17 131.77 818.96 127.61 818.96 135.94 826.17 131.77"/><polygon class="cls-4" points="877.26 126.34 867.87 131.77 877.26 137.2 877.26 126.34"/><polygon class="cls-4" points="907.33 131.77 897.11 125.87 897.11 137.67 907.33 131.77"/><polygon class="cls-4" points="957.12 125.13 945.62 131.77 957.12 138.41 957.12 125.13"/><polygon class="cls-4" points="987.47 131.77 975.77 125.02 975.77 138.52 987.47 131.77"/><polygon class="cls-4" points="1036.28 125.12 1024.76 131.77 1036.28 138.42 1036.28 125.12"/><polygon class="cls-4" points="1066.24 131.77 1055.12 125.36 1055.12 138.19 1066.24 131.77"/><polygon class="cls-4" points="1115.05 125.79 1104.69 131.77 1115.05 137.75 1115.05 125.79"/><polygon class="cls-4" points="1144.49 131.77 1134.72 126.13 1134.72 137.42 1144.49 131.77"/><polygon class="cls-4" points="1185.22 154.62 1173.73 147.99 1173.73 161.26 1185.22 154.62"/><polygon class="cls-4" points="1195.26 169.66 1181.73 177.47 1195.26 185.29 1195.26 169.66"/><polygon class="cls-4" points="1228.8 223.17 1211.3 213.07 1211.3 233.28 1228.8 223.17"/><polygon class="cls-4" points="1236.69 235 1217.6 246.02 1236.69 257.05 1236.69 235"/><polygon class="cls-4" points="1271.54 291.72 1249.3 278.88 1249.3 304.56 1271.54 291.72"/><polygon class="cls-4" points="1277.93 300.66 1253.84 314.58 1277.93 328.48 1277.93 300.66"/><polygon class="cls-4" points="1314.84 360.27 1287.01 344.21 1287.01 376.34 1314.84 360.27"/><polygon class="cls-4" points="1319.29 366.14 1289.87 383.13 1319.29 400.11 1319.29 366.14"/><polygon class="cls-4" points="1356.29 428.82 1325.66 411.14 1325.66 446.5 1356.29 428.82"/><polygon class="cls-4" points="1359.34 433.86 1328.49 451.67 1359.34 469.49 1359.34 433.86"/><polygon class="cls-4" points="1358.76 480.57 1329.66 497.38 1358.76 514.17 1358.76 480.57"/><polygon class="cls-4" points="1353.69 520.23 1326.95 504.79 1326.95 535.66 1353.69 520.23"/><polygon class="cls-4" points="1315.97 554.68 1296.5 565.93 1315.97 577.17 1315.97 554.68"/><polygon class="cls-4" points="1306.49 588.78 1291.19 579.95 1291.19 597.6 1306.49 588.78"/><polygon class="cls-4" points="1272.58 629.84 1264.55 634.48 1272.58 639.11 1272.58 629.84"/><polygon class="cls-4" points="703.06 246.02 702.41 245.65 702.41 246.4 703.06 246.02"/><polygon class="cls-4" points="716.25 222.43 714.96 223.17 716.25 223.91 716.25 222.43"/><polygon class="cls-4" points="744.36 177.47 741.13 175.61 741.13 179.34 744.36 177.47"/><polygon class="cls-4" points="756.82 152.17 752.56 154.62 756.82 157.08 756.82 152.17"/><polygon class="cls-4" points="756.92 106.28 752.35 108.92 756.92 111.57 756.92 106.28"/><polygon class="cls-4" points="785.42 108.92 779.96 105.77 779.96 112.07 785.42 108.92"/><polygon class="cls-4" points="836.96 104.76 829.75 108.92 836.96 113.09 836.96 104.76"/><polygon class="cls-4" points="866.3 108.92 858.26 104.28 858.26 113.57 866.3 108.92"/><polygon class="cls-4" points="916.79 103.58 907.54 108.92 916.79 114.27 916.79 103.58"/><polygon class="cls-4" points="946.48 108.92 936.9 103.39 936.9 114.46 946.48 108.92"/><polygon class="cls-4" points="996.08 103.35 986.42 108.92 996.08 114.5 996.08 103.35"/><polygon class="cls-4" points="1025.56 108.92 1016.09 103.45 1016.09 114.39 1025.56 108.92"/><polygon class="cls-4" points="1074.97 103.82 1066.12 108.92 1074.97 114.03 1074.97 103.82"/><polygon class="cls-4" points="1104.02 108.92 1095.59 104.06 1095.59 113.79 1104.02 108.92"/><polygon class="cls-4" points="1153.74 104.48 1146.04 108.92 1153.74 113.37 1153.74 104.48"/><polygon class="cls-4" points="1182.7 108.92 1174.98 104.47 1174.98 113.38 1182.7 108.92"/><polygon class="cls-4" points="1193.93 126.28 1184.4 131.77 1193.93 137.27 1193.93 126.28"/><polygon class="cls-4" points="1226.03 177.47 1212.69 169.77 1212.69 185.18 1226.03 177.47"/><polygon class="cls-4" points="1235.44 191.47 1220.1 200.32 1235.44 209.18 1235.44 191.47"/><polygon class="cls-4" points="1269.56 246.02 1250.29 234.89 1250.29 257.15 1269.56 246.02"/><polygon class="cls-4" points="1276.82 256.9 1256.08 268.87 1276.82 280.85 1276.82 256.9"/><polygon class="cls-4" points="1312.59 314.58 1288.14 300.46 1288.14 328.69 1312.59 314.58"/><polygon class="cls-4" points="1318.27 322.21 1291.92 337.43 1318.27 352.63 1318.27 322.21"/><polygon class="cls-4" points="1355.69 383.13 1325.96 365.95 1325.96 400.29 1355.69 383.13"/><polygon class="cls-4" points="1359.29 388.25 1328.59 405.97 1359.29 423.7 1359.29 388.25"/><polygon class="cls-4" points="1396.02 451.67 1365.16 433.86 1365.16 469.49 1396.02 451.67"/><polygon class="cls-4" points="1398.72 457.06 1368.47 474.52 1398.72 491.99 1398.72 457.06"/><polygon class="cls-4" points="1395.02 497.38 1365.66 480.43 1365.66 514.32 1395.02 497.38"/><polygon class="cls-4" points="1357.22 528.95 1332.75 543.08 1357.22 557.2 1357.22 528.95"/><polygon class="cls-4" points="1349.77 565.93 1328.91 553.89 1328.91 577.97 1349.77 565.93"/><polygon class="cls-4" points="1313.91 603.95 1300.62 611.63 1313.91 619.3 1313.91 603.95"/><polygon class="cls-4" points="1303.03 634.48 1292.92 628.64 1292.92 640.31 1303.03 634.48"/><polygon class="cls-4" points="663.05 268.87 663.05 268.87 663.05 268.88 663.05 268.87"/><polygon class="cls-4" points="676.36 245.82 676.01 246.02 676.36 246.23 676.36 245.82"/><polygon class="cls-4" points="703.69 200.32 702.1 199.4 702.1 201.24 703.69 200.32"/><polygon class="cls-4" points="716.61 176.1 714.24 177.47 716.61 178.85 716.61 176.1"/><polygon class="cls-4" points="744.85 131.77 740.88 129.48 740.88 134.06 744.85 131.77"/><polygon class="cls-4" points="744.91 86.07 740.85 83.73 740.85 88.41 744.91 86.07"/><polygon class="cls-4" points="796.79 82.92 791.34 86.07 796.79 89.22 796.79 82.92"/><polygon class="cls-4" points="825.39 86.07 819.35 82.58 819.35 89.57 825.39 86.07"/><polygon class="cls-4" points="876.55 81.88 869.28 86.07 876.55 90.27 876.55 81.88"/><polygon class="cls-4" points="905.63 86.07 897.96 81.65 897.96 90.5 905.63 86.07"/><polygon class="cls-4" points="955.99 81.39 947.87 86.07 955.99 90.76 955.99 81.39"/><polygon class="cls-4" points="984.98 86.07 977.01 81.47 977.01 90.67 984.98 86.07"/><polygon class="cls-4" points="1035 81.64 1027.32 86.07 1035 90.5 1035 81.64"/><polygon class="cls-4" points="1063.71 86.07 1056.39 81.84 1056.39 90.3 1063.71 86.07"/><polygon class="cls-4" points="1113.82 82.23 1107.16 86.07 1113.82 89.92 1113.82 82.23"/><polygon class="cls-4" points="1142.14 86.07 1135.9 82.47 1135.9 89.68 1142.14 86.07"/><polygon class="cls-4" points="1192.89 82.37 1186.47 86.07 1192.89 89.78 1192.89 82.37"/><polygon class="cls-4" points="1223.46 131.77 1213.97 126.3 1213.97 137.25 1223.46 131.77"/><polygon class="cls-4" points="1234.13 148.05 1222.73 154.62 1234.13 161.2 1234.13 148.05"/><polygon class="cls-4" points="1266.83 200.32 1251.65 191.56 1251.65 209.09 1266.83 200.32"/><polygon class="cls-4" points="1275.68 213.17 1258.36 223.17 1275.68 233.17 1275.68 213.17"/><polygon class="cls-4" points="1309.93 268.87 1289.47 257.06 1289.47 280.69 1309.93 268.87"/><polygon class="cls-4" points="1316.81 279.03 1294.82 291.72 1316.81 304.42 1316.81 279.03"/><polygon class="cls-4" points="1353.26 337.43 1327.17 322.36 1327.17 352.49 1353.26 337.43"/><polygon class="cls-4" points="1358.39 344.12 1330.4 360.27 1358.39 376.44 1358.39 344.12"/><polygon class="cls-4" points="1395.76 405.97 1365.29 388.38 1365.29 423.57 1395.76 405.97"/><polygon class="cls-4" points="1398.82 411.19 1368.28 428.82 1398.82 446.46 1398.82 411.19"/><polygon class="cls-4" points="1434.66 474.52 1405.2 457.52 1405.2 491.53 1434.66 474.52"/><polygon class="cls-4" points="1397.65 504.62 1370.62 520.23 1397.65 535.83 1397.65 504.62"/><polygon class="cls-4" points="1391.82 543.08 1367.26 528.89 1367.26 557.25 1391.82 543.08"/><polygon class="cls-4" points="1354.9 578.66 1337.38 588.78 1354.9 598.89 1354.9 578.66"/><polygon class="cls-4" points="1345.45 611.63 1331.08 603.33 1331.08 619.92 1345.45 611.63"/><polygon class="cls-4" points="663.48 223.17 662.84 222.8 662.84 223.55 663.48 223.17"/><polygon class="cls-4" points="676.61 199.69 675.51 200.32 676.61 200.96 676.61 199.69"/><polygon class="cls-4" points="704.26 154.62 701.81 153.21 701.81 156.04 704.26 154.62"/><polygon class="cls-4" points="716.84 130.01 713.79 131.77 716.84 133.54 716.84 130.01"/><polygon class="cls-4" points="756.79 60.81 752.62 63.22 756.79 65.63 756.79 60.81"/><polygon class="cls-4" points="784.88 63.22 780.24 60.54 780.24 65.9 784.88 63.22"/><polygon class="cls-4" points="836.36 60.08 830.93 63.22 836.36 66.36 836.36 60.08"/><polygon class="cls-4" points="864.84 63.22 858.99 59.85 858.99 66.6 864.84 63.22"/><polygon class="cls-4" points="915.83 59.55 909.47 63.22 915.83 66.89 915.83 59.55"/><polygon class="cls-4" points="944.37 63.22 937.95 59.52 937.95 66.93 944.37 63.22"/><polygon class="cls-4" points="994.97 59.57 988.64 63.22 994.97 66.88 994.97 59.57"/><polygon class="cls-4" points="1023.33 63.22 1017.21 59.69 1017.21 66.76 1023.33 63.22"/><polygon class="cls-4" points="1073.92 59.93 1068.21 63.22 1073.92 66.52 1073.92 59.93"/><polygon class="cls-4" points="1101.94 63.22 1096.64 60.16 1096.64 66.29 1101.94 63.22"/><polygon class="cls-4" points="1152.81 60.38 1147.89 63.22 1152.81 66.06 1152.81 60.38"/><polygon class="cls-4" points="1180.89 63.22 1175.89 60.34 1175.89 66.11 1180.89 63.22"/><polygon class="cls-4" points="1221.61 86.07 1214.9 82.2 1214.9 89.95 1221.61 86.07"/><polygon class="cls-4" points="1232.99 104.31 1225.01 108.92 1232.99 113.53 1232.99 104.31"/><polygon class="cls-4" points="1264.26 154.62 1252.94 148.08 1252.94 161.16 1264.26 154.62"/><polygon class="cls-4" points="1274.23 169.99 1261.26 177.47 1274.23 184.96 1274.23 169.99"/><polygon class="cls-4" points="1307.44 223.17 1290.72 213.52 1290.72 232.83 1307.44 223.17"/><polygon class="cls-4" points="1315.56 235.49 1297.32 246.02 1315.56 256.55 1315.56 235.49"/><polygon class="cls-4" points="1350.07 291.72 1328.77 279.43 1328.77 304.02 1350.07 291.72"/><polygon class="cls-4" points="1356.86 301.06 1333.46 314.58 1356.86 328.08 1356.86 301.06"/><polygon class="cls-4" points="1393.73 360.27 1366.31 344.44 1366.31 376.11 1393.73 360.27"/><polygon class="cls-4" points="1398.29 366.41 1369.34 383.13 1398.29 399.84 1398.29 366.41"/><polygon class="cls-4" points="1434.76 428.82 1405.15 411.73 1405.15 445.92 1434.76 428.82"/><polygon class="cls-4" points="1438.03 434.67 1408.58 451.67 1438.03 468.68 1438.03 434.67"/><polygon class="cls-4" points="1437.39 481.47 1409.85 497.38 1437.39 513.28 1437.39 481.47"/><polygon class="cls-4" points="1432.5 520.23 1406.29 505.09 1406.29 535.36 1432.5 520.23"/><polygon class="cls-4" points="1395.68 553.72 1374.55 565.93 1395.68 578.13 1395.68 553.72"/><polygon class="cls-4" points="1387.27 588.78 1369.53 578.53 1369.53 599.01 1387.27 588.78"/><polygon class="cls-4" points="1352.99 627.66 1341.19 634.48 1352.99 641.29 1352.99 627.66"/><polygon class="cls-4" points="663.91 177.47 662.62 176.73 662.62 178.22 663.91 177.47"/><polygon class="cls-4" points="676.85 153.58 675.04 154.62 676.85 155.67 676.85 153.58"/><polygon class="cls-4" points="704.53 108.92 701.68 107.28 701.68 110.57 704.53 108.92"/><polygon class="cls-4" points="716.9 84.2 713.65 86.07 716.9 87.95 716.9 84.2"/><polygon class="cls-4" points="716.77 38.73 713.92 40.38 716.77 42.02 716.77 38.73"/><polygon class="cls-4" points="744.51 40.38 741.06 38.38 741.06 42.37 744.51 40.38"/><polygon class="cls-4" points="796.32 38.04 792.29 40.38 796.32 42.7 796.32 38.04"/><polygon class="cls-4" points="824.18 40.38 819.95 37.93 819.95 42.81 824.18 40.38"/><polygon class="cls-4" points="875.67 37.71 871.05 40.38 875.67 43.04 875.67 37.71"/><polygon class="cls-4" points="903.72 40.38 898.92 37.6 898.92 43.14 903.72 40.38"/><polygon class="cls-4" points="954.88 37.6 950.09 40.38 954.88 43.14 954.88 37.6"/><polygon class="cls-4" points="982.86 40.38 978.08 37.61 978.08 43.13 982.86 40.38"/><polygon class="cls-4" points="1033.96 37.73 1029.39 40.38 1033.96 43.01 1033.96 37.73"/><polygon class="cls-4" points="1061.82 40.38 1057.33 37.78 1057.33 42.96 1061.82 40.38"/><polygon class="cls-4" points="1112.92 38.07 1108.94 40.38 1112.92 42.67 1112.92 38.07"/><polygon class="cls-4" points="1140.5 40.38 1136.72 38.19 1136.72 42.56 1140.5 40.38"/><polygon class="cls-4" points="1192.15 37.94 1187.94 40.38 1192.15 42.8 1192.15 37.94"/><polygon class="cls-4" points="1220.25 40.38 1215.58 37.67 1215.58 43.08 1220.25 40.38"/><polygon class="cls-4" points="1232.3 59.81 1226.39 63.22 1232.3 66.63 1232.3 59.81"/><polygon class="cls-4" points="1262.21 108.92 1253.96 104.16 1253.96 113.69 1262.21 108.92"/><polygon class="cls-4" points="1273.11 126.23 1263.51 131.77 1273.11 137.32 1273.11 126.23"/><polygon class="cls-4" points="1304.63 177.47 1292.12 170.25 1292.12 184.7 1304.63 177.47"/><polygon class="cls-4" points="1314.15 192.24 1300.14 200.32 1314.15 208.41 1314.15 192.24"/><polygon class="cls-4" points="1347.45 246.02 1330.08 235.99 1330.08 256.05 1347.45 246.02"/><polygon class="cls-4" points="1355.29 258.07 1336.59 268.87 1355.29 279.68 1355.29 258.07"/><polygon class="cls-4" points="1390.47 314.58 1367.93 301.57 1367.93 327.58 1390.47 314.58"/><polygon class="cls-4" points="1396.85 323.2 1372.21 337.43 1396.85 351.65 1396.85 323.2"/><polygon class="cls-4" points="1433.69 383.13 1405.69 366.96 1405.69 399.29 1433.69 383.13"/><polygon class="cls-4" points="1437.8 389.38 1409.05 405.97 1437.8 422.57 1437.8 389.38"/><polygon class="cls-4" points="1473.41 451.67 1445.2 435.39 1445.2 467.96 1473.41 451.67"/><polygon class="cls-4" points="1476.83 458.88 1449.72 474.52 1476.83 490.17 1476.83 458.88"/><polygon class="cls-4" points="1472.03 497.38 1445.88 482.28 1445.88 512.47 1472.03 497.38"/><polygon class="cls-4" points="1435.81 529.93 1413.03 543.08 1435.81 556.23 1435.81 529.93"/><polygon class="cls-4" points="1428.53 565.93 1408.27 554.23 1408.27 577.62 1428.53 565.93"/><polygon class="cls-4" points="1393.45 603.29 1379.02 611.63 1393.45 619.96 1393.45 603.29"/><polygon class="cls-4" points="1383.23 634.48 1371.55 627.73 1371.55 641.22 1383.23 634.48"/><polygon class="cls-4" points="664.24 131.77 662.46 130.74 662.46 132.81 664.24 131.77"/><polygon class="cls-4" points="676.98 107.65 674.78 108.92 676.98 110.19 676.98 107.65"/><polygon class="cls-4" points="704.53 63.22 701.68 61.58 701.68 64.87 704.53 63.22"/><polygon class="cls-4" points="704.13 17.52 701.88 16.22 701.88 18.83 704.13 17.52"/><polygon class="cls-4" points="756.35 15.88 753.5 17.52 756.35 19.17 756.35 15.88"/><polygon class="cls-4" points="783.8 17.52 780.77 15.78 780.77 19.27 783.8 17.52"/><polygon class="cls-4" points="835.56 15.78 832.54 17.52 835.56 19.27 835.56 15.78"/><polygon class="cls-4" points="863.03 17.52 859.89 15.71 859.89 19.34 863.03 17.52"/><polygon class="cls-4" points="914.77 15.67 911.57 17.52 914.77 19.38 914.77 15.67"/><polygon class="cls-4" points="942.22 17.52 939.03 15.69 939.03 19.36 942.22 17.52"/><polygon class="cls-4" points="993.92 15.69 990.74 17.52 993.92 19.36 993.92 15.69"/><polygon class="cls-4" points="1021.24 17.52 1018.25 15.8 1018.25 19.24 1021.24 17.52"/><polygon class="cls-4" points="1073.01 15.8 1070.03 17.52 1073.01 19.24 1073.01 15.8"/><polygon class="cls-4" points="1100.26 17.52 1097.48 15.92 1097.48 19.13 1100.26 17.52"/><polygon class="cls-4" points="1152.1 15.92 1149.32 17.52 1152.1 19.13 1152.1 15.92"/><polygon class="cls-4" points="1179.6 17.52 1176.54 15.76 1176.54 19.29 1179.6 17.52"/><polygon class="cls-4" points="1231.71 15.13 1227.56 17.52 1231.71 19.92 1231.71 15.13"/><polygon class="cls-4" points="1260.84 63.22 1254.65 59.65 1254.65 66.8 1260.84 63.22"/><polygon class="cls-4" points="1272.38 81.79 1264.96 86.07 1272.38 90.36 1272.38 81.79"/><polygon class="cls-4" points="1302.59 131.77 1293.14 126.32 1293.14 137.23 1302.59 131.77"/><polygon class="cls-4" points="1313.01 148.51 1302.42 154.62 1313.01 160.74 1313.01 148.51"/><polygon class="cls-4" points="1344.59 200.32 1331.51 192.77 1331.51 207.88 1344.59 200.32"/><polygon class="cls-4" points="1353.95 214.7 1339.27 223.17 1353.95 231.65 1353.95 214.7"/><polygon class="cls-4" points="1387.06 268.87 1369.64 258.81 1369.64 278.94 1387.06 268.87"/><polygon class="cls-4" points="1395.03 280.65 1375.86 291.72 1395.03 302.79 1395.03 280.65"/><polygon class="cls-4" points="1430.69 337.43 1407.19 323.86 1407.19 350.99 1430.69 337.43"/><polygon class="cls-4" points="1436.7 345.58 1411.24 360.27 1436.7 374.97 1436.7 345.58"/><polygon class="cls-4" points="1473.04 405.97 1445.38 390 1445.38 421.95 1473.04 405.97"/><polygon class="cls-4" points="1477.03 412.83 1449.32 428.82 1477.03 444.82 1477.03 412.83"/><polygon class="cls-4" points="1511.33 474.52 1485.6 459.67 1485.6 489.38 1511.33 474.52"/><polygon class="cls-4" points="1475.44 506.98 1452.51 520.23 1475.44 533.47 1475.44 506.98"/><polygon class="cls-4" points="1468.5 543.08 1447.65 531.03 1447.65 555.12 1468.5 543.08"/><polygon class="cls-4" points="1433.55 579.53 1417.55 588.78 1433.55 598.02 1433.55 579.53"/><polygon class="cls-4" points="1424.22 611.63 1410.43 603.66 1410.43 619.59 1424.22 611.63"/><polygon class="cls-4" points="664.37 86.07 662.39 84.93 662.39 87.21 664.37 86.07"/><polygon class="cls-4" points="676.99 61.92 674.74 63.22 676.99 64.53 676.99 61.92"/><polygon class="cls-4" points="1259.87 17.52 1255.13 14.79 1255.13 20.26 1259.87 17.52"/><polygon class="cls-4" points="1271.77 37.15 1266.18 40.38 1271.77 43.59 1271.77 37.15"/><polygon class="cls-4" points="1301.34 86.07 1293.77 81.7 1293.77 90.44 1301.34 86.07"/><polygon class="cls-4" points="1312.29 104.06 1303.87 108.92 1312.29 113.79 1312.29 104.06"/><polygon class="cls-4" points="1342.48 154.62 1332.56 148.89 1332.56 160.35 1342.48 154.62"/><polygon class="cls-4" points="1352.63 171.29 1341.92 177.47 1352.63 183.66 1352.63 171.29"/><polygon class="cls-4" points="1384.29 223.17 1371.02 215.51 1371.02 230.83 1384.29 223.17"/><polygon class="cls-4" points="1393.52 237.57 1378.87 246.02 1393.52 254.48 1393.52 237.57"/><polygon class="cls-4" points="1426.77 291.72 1409.15 281.56 1409.15 301.89 1426.77 291.72"/><polygon class="cls-4" points="1434.86 303.07 1414.94 314.58 1434.86 326.07 1434.86 303.07"/><polygon class="cls-4" points="1470.77 360.27 1446.52 346.27 1446.52 374.28 1470.77 360.27"/><polygon class="cls-4" points="1476.41 368.19 1450.55 383.13 1476.41 398.06 1476.41 368.19"/><polygon class="cls-4" points="1511.94 428.82 1485.3 413.44 1485.3 444.21 1511.94 428.82"/><polygon class="cls-4" points="1516.03 436.67 1490.05 451.67 1516.03 466.67 1516.03 436.67"/><polygon class="cls-4" points="1515 484.15 1492.11 497.38 1515 510.59 1515 484.15"/><polygon class="cls-4" points="1508.17 520.23 1487.18 508.11 1487.18 532.34 1508.17 520.23"/><polygon class="cls-4" points="1473.39 556.24 1456.61 565.93 1473.39 575.61 1473.39 556.24"/><polygon class="cls-4" points="1464.12 588.78 1449.84 580.53 1449.84 597.02 1464.12 588.78"/><polygon class="cls-4" points="1431.61 628.59 1421.42 634.48 1431.61 640.36 1431.61 628.59"/><polygon class="cls-4" points="664.29 40.38 662.43 39.3 662.43 41.45 664.29 40.38"/><polygon class="cls-4" points="676.84 16.49 675.05 17.52 676.84 18.55 676.84 16.49"/><polygon class="cls-4" points="1300.41 40.38 1294.23 36.81 1294.23 43.94 1300.41 40.38"/><polygon class="cls-4" points="1311.8 59.22 1304.86 63.22 1311.8 67.23 1311.8 59.22"/><polygon class="cls-4" points="1341.38 108.92 1333.11 104.14 1333.11 113.7 1341.38 108.92"/><polygon class="cls-4" points="1351.88 126.89 1343.43 131.77 1351.88 136.65 1351.88 126.89"/><polygon class="cls-4" points="1381.72 177.47 1372.31 172.04 1372.31 182.91 1381.72 177.47"/><polygon class="cls-4" points="1392.11 194.32 1381.71 200.32 1392.11 206.33 1392.11 194.32"/><polygon class="cls-4" points="1423.72 246.02 1410.67 238.49 1410.67 253.55 1423.72 246.02"/><polygon class="cls-4" points="1432.97 260.64 1418.7 268.87 1432.97 277.11 1432.97 260.64"/><polygon class="cls-4" points="1467.02 314.58 1448.39 303.81 1448.39 325.33 1467.02 314.58"/><polygon class="cls-4" points="1474.8 325.28 1453.77 337.43 1474.8 349.57 1474.8 325.28"/><polygon class="cls-4" points="1510.83 383.13 1485.85 368.7 1485.85 397.54 1510.83 383.13"/><polygon class="cls-4" points="1515.99 391.05 1490.13 405.97 1515.99 420.9 1515.99 391.05"/><polygon class="cls-4" points="1550.59 451.67 1525.34 437.1 1525.34 466.25 1550.59 451.67"/><polygon class="cls-4" points="1554.9 460.75 1531.04 474.52 1554.9 488.3 1554.9 460.75"/><polygon class="cls-4" points="1548.29 497.38 1526.49 484.79 1526.49 509.96 1548.29 497.38"/><polygon class="cls-4" points="1512.99 533.33 1496.12 543.08 1512.99 552.82 1512.99 533.33"/><polygon class="cls-4" points="1503.95 565.93 1489.29 557.47 1489.29 574.39 1503.95 565.93"/><polygon class="cls-4" points="1471.33 605.5 1460.71 611.63 1471.33 617.75 1471.33 605.5"/><polygon class="cls-4" points="1460.41 634.48 1451.69 629.44 1451.69 639.51 1460.41 634.48"/><polygon class="cls-4" points="1311.4 14.19 1305.64 17.52 1311.4 20.85 1311.4 14.19"/><polygon class="cls-4" points="1340.63 63.22 1333.48 59.09 1333.48 67.35 1340.63 63.22"/><polygon class="cls-4" points="1351.58 81.7 1344.02 86.07 1351.58 90.44 1351.58 81.7"/><polygon class="cls-4" points="1380.4 131.77 1372.97 127.48 1372.97 136.06 1380.4 131.77"/><polygon class="cls-4" points="1391.17 150.25 1383.58 154.62 1391.17 159 1391.17 150.25"/><polygon class="cls-4" points="1420.89 200.32 1412.09 195.24 1412.09 205.41 1420.89 200.32"/><polygon class="cls-4" points="1431.54 217.42 1421.57 223.17 1431.54 228.93 1431.54 217.42"/><polygon class="cls-4" points="1463.05 268.87 1450.38 261.56 1450.38 276.19 1463.05 268.87"/><polygon class="cls-4" points="1472.68 283.26 1458.02 291.72 1472.68 300.19 1472.68 283.26"/><polygon class="cls-4" points="1507.57 337.43 1487.48 325.82 1487.48 349.03 1507.57 337.43"/><polygon class="cls-4" points="1514.84 347.34 1492.43 360.27 1514.84 373.21 1514.84 347.34"/><polygon class="cls-4" points="1550.61 405.97 1525.33 391.38 1525.33 420.57 1550.61 405.97"/><polygon class="cls-4" points="1555.4 414.19 1530.05 428.82 1555.4 443.46 1555.4 414.19"/><polygon class="cls-4" points="1589.05 474.52 1565.47 460.91 1565.47 488.14 1589.05 474.52"/><polygon class="cls-4" points="1553.06 509.64 1534.73 520.23 1553.06 530.8 1553.06 509.64"/><polygon class="cls-4" points="1544.01 543.08 1528.63 534.19 1528.63 551.96 1544.01 543.08"/><polygon class="cls-4" points="1510.86 582.73 1500.39 588.78 1510.86 594.82 1510.86 582.73"/><polygon class="cls-4" points="1499.99 611.63 1491.27 606.59 1491.27 616.66 1499.99 611.63"/><polygon class="cls-4" points="1339.98 17.52 1333.81 13.96 1333.81 21.09 1339.98 17.52"/><polygon class="cls-4" points="1351.29 36.52 1344.61 40.38 1351.29 44.23 1351.29 36.52"/><polygon class="cls-4" points="1379.95 86.07 1373.19 82.17 1373.19 89.97 1379.95 86.07"/><polygon class="cls-4" points="1390.81 105.16 1384.29 108.92 1390.81 112.68 1390.81 105.16"/><polygon class="cls-4" points="1419.12 154.62 1412.97 151.07 1412.97 158.18 1419.12 154.62"/><polygon class="cls-4" points="1430.32 173.83 1424 177.47 1430.32 181.13 1430.32 173.83"/><polygon class="cls-4" points="1460.1 223.17 1451.85 218.41 1451.85 227.93 1460.1 223.17"/><polygon class="cls-4" points="1471.01 240.45 1461.36 246.02 1471.01 251.6 1471.01 240.45"/><polygon class="cls-4" points="1503.07 291.72 1489.73 284.02 1489.73 299.42 1503.07 291.72"/><polygon class="cls-4" points="1512.81 305.15 1496.49 314.58 1512.81 324 1512.81 305.15"/><polygon class="cls-4" points="1548.3 360.27 1526.48 347.68 1526.48 372.87 1548.3 360.27"/><polygon class="cls-4" points="1554.85 369.44 1531.15 383.13 1554.85 396.81 1554.85 369.44"/><polygon class="cls-4" points="1590.14 428.82 1564.93 414.26 1564.93 443.38 1590.14 428.82"/><polygon class="cls-4" points="1594.86 437.25 1569.86 451.67 1594.86 466.1 1594.86 437.25"/><polygon class="cls-4" points="1593.46 485.35 1572.65 497.38 1593.46 509.39 1593.46 485.35"/><polygon class="cls-4" points="1585.07 520.23 1567.46 510.06 1567.46 530.39 1585.07 520.23"/><polygon class="cls-4" points="1550.86 559.14 1539.12 565.93 1550.86 572.7 1550.86 559.14"/><polygon class="cls-4" points="1539.85 588.78 1530.71 583.5 1530.71 594.05 1539.85 588.78"/><polygon class="cls-4" points="1509.22 631.27 1503.67 634.48 1509.22 637.67 1509.22 631.27"/><polygon class="cls-4" points="1379.62 40.38 1373.36 36.76 1373.36 43.99 1379.62 40.38"/><polygon class="cls-4" points="1390.66 59.71 1384.58 63.22 1390.66 66.73 1390.66 59.71"/><polygon class="cls-4" points="1418.5 108.92 1413.28 105.91 1413.28 111.94 1418.5 108.92"/><polygon class="cls-4" points="1429.81 129.02 1425.03 131.77 1429.81 134.53 1429.81 129.02"/><polygon class="cls-4" points="1457.83 177.47 1452.98 174.68 1452.98 180.27 1457.83 177.47"/><polygon class="cls-4" points="1469.62 197.16 1464.14 200.32 1469.62 203.49 1469.62 197.16"/><polygon class="cls-4" points="1499.59 246.02 1491.47 241.34 1491.47 250.71 1499.59 246.02"/><polygon class="cls-4" points="1510.67 263.16 1500.78 268.87 1510.67 274.58 1510.67 263.16"/><polygon class="cls-4" points="1544.12 314.58 1528.58 305.6 1528.58 323.55 1544.12 314.58"/><polygon class="cls-4" points="1553.2 326.6 1534.45 337.43 1553.2 348.24 1553.2 326.6"/><polygon class="cls-4" points="1589 383.13 1565.5 369.55 1565.5 396.7 1589 383.13"/><polygon class="cls-4" points="1594.87 391.53 1569.85 405.97 1594.87 420.42 1594.87 391.53"/><polygon class="cls-4" points="1629.97 451.67 1604.38 436.9 1604.38 466.45 1629.97 451.67"/><polygon class="cls-4" points="1634.22 460.47 1609.87 474.52 1634.22 488.58 1634.22 460.47"/><polygon class="cls-4" points="1627.04 497.38 1605.85 485.14 1605.85 509.61 1627.04 497.38"/><polygon class="cls-4" points="1591.18 535.01 1577.21 543.08 1591.18 551.14 1591.18 535.01"/><polygon class="cls-4" points="1580.61 565.93 1569.69 559.62 1569.69 572.23 1580.61 565.93"/><polygon class="cls-4" points="1549 608.07 1542.84 611.63 1549 615.18 1549 608.07"/><polygon class="cls-4" points="1536.63 634.48 1532.32 631.98 1532.32 636.97 1536.63 634.48"/><polygon class="cls-4" points="1390.52 14.27 1384.88 17.52 1390.52 20.78 1390.52 14.27"/><polygon class="cls-4" points="1418.39 63.22 1413.34 60.31 1413.34 66.14 1418.39 63.22"/><polygon class="cls-4" points="1429.73 83.45 1425.18 86.07 1429.73 88.69 1429.73 83.45"/><polygon class="cls-4" points="1456.87 131.77 1453.46 129.81 1453.46 133.74 1456.87 131.77"/><polygon class="cls-4" points="1468.87 152.76 1465.64 154.62 1468.87 156.49 1468.87 152.76"/><polygon class="cls-4" points="1496.86 200.32 1492.84 198 1492.84 202.65 1496.86 200.32"/><polygon class="cls-4" points="1509.1 220.18 1503.91 223.17 1509.1 226.17 1509.1 220.18"/><polygon class="cls-4" points="1539.57 268.87 1530.85 263.84 1530.85 273.9 1539.57 268.87"/><polygon class="cls-4" points="1550.72 285.19 1539.41 291.72 1550.72 298.25 1550.72 285.19"/><polygon class="cls-4" points="1585.54 337.43 1567.23 326.86 1567.23 348 1585.54 337.43"/><polygon class="cls-4" points="1593.62 348 1572.34 360.27 1593.62 372.55 1593.62 348"/><polygon class="cls-4" points="1629.99 405.97 1604.37 391.18 1604.37 420.76 1629.99 405.97"/><polygon class="cls-4" points="1634.88 413.62 1608.54 428.82 1634.88 444.03 1634.88 413.62"/><polygon class="cls-4" points="1669.27 474.52 1644.1 459.99 1644.1 489.05 1669.27 474.52"/><polygon class="cls-4" points="1632.08 509.88 1614.16 520.23 1632.08 530.57 1632.08 509.88"/><polygon class="cls-4" points="1622.22 543.08 1608.25 535.01 1608.25 551.14 1622.22 543.08"/><polygon class="cls-4" points="1589.02 584.45 1581.53 588.78 1589.02 593.1 1589.02 584.45"/><polygon class="cls-4" points="1576.89 611.63 1571.55 608.54 1571.55 614.71 1576.89 611.63"/><polygon class="cls-4" points="1418.38 17.52 1413.35 14.62 1413.35 20.42 1418.38 17.52"/><polygon class="cls-4" points="1429.76 37.69 1425.12 40.38 1429.76 43.05 1429.76 37.69"/><polygon class="cls-4" points="1456.92 86.07 1453.44 84.07 1453.44 88.08 1456.92 86.07"/><polygon class="cls-4" points="1468.72 107.31 1465.94 108.92 1468.72 110.53 1468.72 107.31"/><polygon class="cls-4" points="1495.42 154.62 1493.56 153.55 1493.56 155.7 1495.42 154.62"/><polygon class="cls-4" points="1508.09 176.24 1505.94 177.47 1508.09 178.71 1508.09 176.24"/><polygon class="cls-4" points="1536.45 223.17 1532.41 220.84 1532.41 225.51 1536.45 223.17"/><polygon class="cls-4" points="1548.89 242.66 1543.06 246.02 1548.89 249.39 1548.89 242.66"/><polygon class="cls-4" points="1580.44 291.72 1569.78 285.56 1569.78 297.89 1580.44 291.72"/><polygon class="cls-4" points="1591.35 306.22 1576.88 314.58 1591.35 322.92 1591.35 306.22"/><polygon class="cls-4" points="1627.3 360.27 1605.72 347.81 1605.72 372.73 1627.3 360.27"/><polygon class="cls-4" points="1634.21 369.09 1609.89 383.13 1634.21 397.16 1634.21 369.09"/><polygon class="cls-4" points="1670.6 428.82 1643.43 413.14 1643.43 444.51 1670.6 428.82"/><polygon class="cls-4" points="1674.76 435.95 1647.53 451.67 1674.76 467.39 1674.76 435.95"/><polygon class="cls-4" points="1673.28 484.2 1650.47 497.38 1673.28 510.54 1673.28 484.2"/><polygon class="cls-4" points="1664.88 520.23 1646.29 509.49 1646.29 530.96 1664.88 520.23"/><polygon class="cls-4" points="1629.6 559.87 1619.11 565.93 1629.6 571.98 1629.6 559.87"/><polygon class="cls-4" points="1617.77 588.78 1610.49 584.57 1610.49 592.98 1617.77 588.78"/><polygon class="cls-4" points="1587.5 632.78 1584.57 634.48 1587.5 636.17 1587.5 632.78"/><polygon class="cls-4" points="1457.12 40.38 1453.34 38.2 1453.34 42.55 1457.12 40.38"/><polygon class="cls-4" points="1468.86 61.38 1465.66 63.22 1468.86 65.07 1468.86 61.38"/><polygon class="cls-4" points="1495.34 108.92 1493.6 107.92 1493.6 109.93 1495.34 108.92"/><polygon class="cls-4" points="1507.73 131.14 1506.64 131.77 1507.73 132.4 1507.73 131.14"/><polygon class="cls-4" points="1534.51 177.47 1533.38 176.81 1533.38 178.13 1534.51 177.47"/><polygon class="cls-4" points="1547.55 199.29 1545.75 200.32 1547.55 201.36 1547.55 199.29"/><polygon class="cls-4" points="1576.67 246.02 1571.66 243.13 1571.66 248.91 1576.67 246.02"/><polygon class="cls-4" points="1588.94 264.69 1581.69 268.87 1588.94 273.06 1588.94 264.69"/><polygon class="cls-4" points="1622.47 314.58 1608.13 306.3 1608.13 322.85 1622.47 314.58"/><polygon class="cls-4" points="1632.23 326.81 1613.84 337.43 1632.23 348.04 1632.23 326.81"/><polygon class="cls-4" points="1669.05 383.13 1644.21 368.78 1644.21 397.47 1669.05 383.13"/><polygon class="cls-4" points="1674.71 390.33 1647.62 405.97 1674.71 421.62 1674.71 390.33"/><polygon class="cls-4" points="1670.67 534.43 1655.69 543.08 1670.67 551.72 1670.67 534.43"/><polygon class="cls-4" points="1659.76 565.93 1648.85 559.62 1648.85 572.23 1659.76 565.93"/><polygon class="cls-4" points="1627.68 608.88 1622.94 611.63 1627.68 614.37 1627.68 608.88"/><polygon class="cls-4" points="1614.68 634.48 1612.02 632.95 1612.02 636 1614.68 634.48"/><polygon class="cls-4" points="1469.05 15.35 1465.28 17.52 1469.05 19.7 1469.05 15.35"/><polygon class="cls-4" points="1495.79 63.22 1493.37 61.83 1493.37 64.62 1495.79 63.22"/><polygon class="cls-4" points="1507.92 85.11 1506.27 86.07 1507.92 87.03 1507.92 85.11"/><polygon class="cls-4" points="1533.95 131.77 1533.66 131.6 1533.66 131.94 1533.95 131.77"/><polygon class="cls-4" points="1547.02 154.5 1546.81 154.62 1547.02 154.75 1547.02 154.5"/><polygon class="cls-4" points="1574.07 200.32 1572.96 199.69 1572.96 200.96 1574.07 200.32"/><polygon class="cls-4" points="1587.37 221.72 1584.85 223.17 1587.37 224.63 1587.37 221.72"/><polygon class="cls-4" points="1617.52 268.87 1610.61 264.88 1610.61 272.87 1617.52 268.87"/><polygon class="cls-4" points="1629.47 285.89 1619.37 291.72 1629.47 297.55 1629.47 285.89"/><polygon class="cls-4" points="1664.95 337.43 1646.26 326.63 1646.26 348.22 1664.95 337.43"/><polygon class="cls-4" points="1673.21 347.24 1650.63 360.27 1673.21 373.31 1673.21 347.24"/><polygon class="cls-4" points="1668.25 584.33 1660.55 588.78 1668.25 593.22 1668.25 584.33"/><polygon class="cls-4" points="1655.77 611.63 1650.85 608.78 1650.85 614.47 1655.77 611.63"/><polygon class="cls-4" points="1496.29 17.52 1493.12 15.7 1493.12 19.35 1496.29 17.52"/><polygon class="cls-4" points="1508.18 38.97 1505.76 40.38 1508.18 41.77 1508.18 38.97"/><polygon class="cls-4" points="1534.37 86.07 1533.45 85.54 1533.45 86.6 1534.37 86.07"/><polygon class="cls-4" points="1547.06 108.74 1546.73 108.92 1547.06 109.11 1547.06 108.74"/><polygon class="cls-4" points="1586.53 177.47 1586.52 177.47 1586.53 177.48 1586.53 177.47"/><polygon class="cls-4" points="1614.38 223.17 1612.17 221.9 1612.17 224.45 1614.38 223.17"/><polygon class="cls-4" points="1627.46 243.68 1623.39 246.02 1627.46 248.37 1627.46 243.68"/><polygon class="cls-4" points="1659.26 291.72 1649.1 285.86 1649.1 297.59 1659.26 291.72"/><polygon class="cls-4" points="1670.54 306.15 1655.96 314.58 1670.54 323 1670.54 306.15"/><polygon class="cls-4" points="1666.63 632.83 1663.78 634.48 1666.63 636.12 1666.63 632.83"/><polygon class="cls-4" points="1535.07 40.38 1533.1 39.23 1533.1 41.51 1535.07 40.38"/><polygon class="cls-4" points="1547.35 62.52 1546.14 63.22 1547.35 63.92 1547.35 62.52"/><polygon class="cls-4" points="1626.23 200.11 1625.85 200.32 1626.23 200.54 1626.23 200.11"/><polygon class="cls-4" points="1655.1 246.02 1651.18 243.76 1651.18 248.29 1655.1 246.02"/><polygon class="cls-4" points="1667.89 265.05 1661.27 268.87 1667.89 272.7 1667.89 265.05"/><polygon class="cls-4" points="1547.73 16.17 1545.39 17.52 1547.73 18.87 1547.73 16.17"/><polygon class="cls-4" points="1574.03 63.22 1572.98 62.62 1572.98 63.83 1574.03 63.22"/><polygon class="cls-4" points="1586.68 85.81 1586.22 86.07 1586.68 86.33 1586.68 85.81"/><polygon class="cls-4" points="1652.66 200.32 1652.4 200.18 1652.4 200.47 1652.66 200.32"/><polygon class="cls-4" points="1666.29 222.13 1664.47 223.17 1666.29 224.22 1666.29 222.13"/><polygon class="cls-4" points="1574.85 17.52 1572.57 16.2 1572.57 18.84 1574.85 17.52"/><polygon class="cls-4" points="1587.1 39.38 1585.38 40.38 1587.1 41.36 1587.1 39.38"/><polygon class="cls-4" points="1613.21 86.07 1612.76 85.81 1612.76 86.33 1613.21 86.07"/><polygon class="cls-4" points="1614.07 40.38 1612.33 39.37 1612.33 41.38 1614.07 40.38"/><polygon class="cls-4" points="1626.48 62.57 1625.35 63.22 1626.48 63.87 1626.48 62.57"/><polygon class="cls-4" points="1626.93 16.08 1624.44 17.52 1626.93 18.97 1626.93 16.08"/><polygon class="cls-4" points="1653.25 63.22 1652.11 62.56 1652.11 63.88 1653.25 63.22"/><polygon class="cls-4" points="1665.88 85.72 1665.28 86.07 1665.88 86.42 1665.88 85.72"/><polygon class="cls-4" points="1654.29 17.52 1651.59 15.96 1651.59 19.08 1654.29 17.52"/><polygon class="cls-4" points="1666.33 39.24 1664.38 40.38 1666.33 41.5 1666.33 39.24"/><polygon class="cls-4" points="959.2 636.58 959.02 636.48 959.02 636.68 959.2 636.58"/><polygon class="cls-4" points="932.7 590.88 932.69 590.88 932.7 590.88 932.7 590.88"/><polygon class="cls-4" points="932.87 636.29 932.35 636.58 932.87 636.88 932.87 636.29"/><polygon class="cls-4" points="919.77 613.73 919.37 613.5 919.37 613.96 919.77 613.73"/><polygon class="cls-4" points="893.17 567.93 893 568.03 893.17 568.13 893.17 567.93"/><polygon class="cls-4" points="880.03 545.18 879.87 545.09 879.87 545.27 880.03 545.18"/><polygon class="cls-4" points="893.36 613.32 892.64 613.73 893.36 614.14 893.36 613.32"/><polygon class="cls-4" points="880.39 590.88 879.69 590.48 879.69 591.28 880.39 590.88"/><polygon class="cls-4" points="853.68 544.95 853.27 545.18 853.68 545.41 853.68 544.95"/><polygon class="cls-4" points="840.57 522.33 840.24 522.14 840.24 522.52 840.57 522.33"/><polygon class="cls-4" points="814.01 476.54 813.86 476.63 814.01 476.72 814.01 476.54"/><polygon class="cls-4" points="800.77 453.78 800.77 453.77 800.77 453.78 800.77 453.78"/><polygon class="cls-4" points="880.77 636.58 879.5 635.85 879.5 637.31 880.77 636.58"/><polygon class="cls-4" points="853.86 590.33 852.9 590.88 853.86 591.43 853.86 590.33"/><polygon class="cls-4" points="840.94 568.03 840.05 567.52 840.05 568.54 840.94 568.03"/><polygon class="cls-4" points="814.2 521.92 813.5 522.33 814.2 522.73 814.2 521.92"/><polygon class="cls-4" points="801.11 499.48 800.6 499.18 800.6 499.77 801.11 499.48"/><polygon class="cls-4" points="774.5 453.59 774.17 453.78 774.5 453.97 774.5 453.59"/><polygon class="cls-4" points="761.31 430.93 761.14 430.83 761.14 431.03 761.31 430.93"/><polygon class="cls-4" points="854.09 635.63 852.44 636.58 854.09 637.53 854.09 635.63"/><polygon class="cls-4" points="841.32 613.73 839.86 612.89 839.86 614.57 841.32 613.73"/><polygon class="cls-4" points="814.38 567.3 813.12 568.03 814.38 568.76 814.38 567.3"/><polygon class="cls-4" points="801.49 545.18 800.41 544.56 800.41 545.8 801.49 545.18"/><polygon class="cls-4" points="774.68 498.97 773.8 499.48 774.68 499.99 774.68 498.97"/><polygon class="cls-4" points="761.66 476.63 760.96 476.23 760.96 477.03 761.66 476.63"/><polygon class="cls-4" points="734.94 430.69 734.54 430.93 734.94 431.16 734.94 430.69"/><polygon class="cls-4" points="721.83 408.08 721.51 407.89 721.51 408.27 721.83 408.08"/><polygon class="cls-4" points="814.58 612.66 812.73 613.73 814.58 614.79 814.58 612.66"/><polygon class="cls-4" points="801.87 590.88 800.22 589.93 800.22 591.83 801.87 590.88"/><polygon class="cls-4" points="774.87 544.34 773.41 545.18 774.87 546.02 774.87 544.34"/><polygon class="cls-4" points="762.04 522.33 760.77 521.6 760.77 523.06 762.04 522.33"/><polygon class="cls-4" points="735.17 476.01 734.09 476.63 735.17 477.25 735.17 476.01"/><polygon class="cls-4" points="722.21 453.78 721.32 453.27 721.32 454.29 722.21 453.78"/><polygon class="cls-4" points="695.4 407.78 694.89 408.08 695.4 408.37 695.4 407.78"/><polygon class="cls-4" points="682.27 385.23 681.92 385.02 681.92 385.43 682.27 385.23"/><polygon class="cls-4" points="802.3 636.58 800 635.26 800 637.9 802.3 636.58"/><polygon class="cls-4" points="775.06 589.7 773.03 590.88 775.06 592.05 775.06 589.7"/><polygon class="cls-4" points="762.46 568.03 760.56 566.93 760.56 569.13 762.46 568.03"/><polygon class="cls-4" points="735.36 521.38 733.71 522.33 735.36 523.28 735.36 521.38"/><polygon class="cls-4" points="722.59 499.48 721.13 498.64 721.13 500.32 722.59 499.48"/><polygon class="cls-4" points="695.59 453.16 694.51 453.78 695.59 454.4 695.59 453.16"/><polygon class="cls-4" points="682.63 430.93 681.74 430.42 681.74 431.44 682.63 430.93"/><polygon class="cls-4" points="775.28 635.03 772.59 636.58 775.28 638.13 775.28 635.03"/><polygon class="cls-4" points="762.85 613.73 760.37 612.29 760.37 615.16 762.85 613.73"/><polygon class="cls-4" points="735.55 566.74 733.32 568.03 735.55 569.32 735.55 566.74"/><polygon class="cls-4" points="722.97 545.18 720.94 544 720.94 546.36 722.97 545.18"/><polygon class="cls-4" points="695.78 498.52 694.13 499.48 695.78 500.43 695.78 498.52"/><polygon class="cls-4" points="683.01 476.63 681.55 475.79 681.55 477.47 683.01 476.63"/><polygon class="cls-4" points="735.75 612.11 732.94 613.73 735.75 615.35 735.75 612.11"/><polygon class="cls-4" points="723.41 590.88 720.72 589.33 720.72 592.43 723.41 590.88"/><polygon class="cls-4" points="696 543.86 693.7 545.18 696 546.5 696 543.86"/><polygon class="cls-4" points="683.4 522.33 681.36 521.15 681.36 523.51 683.4 522.33"/><polygon class="cls-4" points="723.81 636.58 720.52 634.68 720.52 638.48 723.81 636.58"/><polygon class="cls-4" points="696.23 589.15 693.23 590.88 696.23 592.61 696.23 589.15"/><polygon class="cls-4" points="683.83 568.03 681.14 566.48 681.14 569.58 683.83 568.03"/><polygon class="cls-4" points="696.43 634.5 692.83 636.58 696.43 638.66 696.43 634.5"/><polygon class="cls-4" points="684.31 613.73 680.9 611.76 680.9 615.7 684.31 613.73"/></g></g></svg>