<svg id="Layer_1" data-name="Layer 1" xmlns="http://www.w3.org/2000/svg" viewBox="0 0 49.62 38.41"><defs><style>.cls-1{fill:#005481;}</style></defs><path class="cls-1" d="M49.62,21a21.68,21.68,0,0,1-.94,4.24C46,32.47,40.93,36.9,33.37,38.16A19.19,19.19,0,1,1,43.1,4.77a19,19,0,0,1,6.45,12.31,1.28,1.28,0,0,0,.07.28ZM30.46,35.37A16.18,16.18,0,1,0,30.47,3a16.18,16.18,0,1,0,0,32.35Z"/><path class="cls-1" d="M4.25,17.72c1.23,0,2.45,0,3.68,0,.42,0,.57.14.56.56,0,.64,0,1.29,0,1.93,0,.34-.1.5-.47.49q-3.76,0-7.54,0c-.36,0-.48-.13-.47-.48,0-.67,0-1.35,0-2,0-.36.13-.47.48-.47C1.74,17.73,3,17.72,4.25,17.72Z"/><path class="cls-1" d="M5.56,14.88c-.79,0-1.58,0-2.37,0-.39,0-.56-.11-.55-.52,0-.68,0-1.36,0-2,0-.3.11-.44.43-.44h5c.28,0,.42.1.42.39,0,.72,0,1.45,0,2.17,0,.33-.16.42-.45.41C7.2,14.87,6.38,14.88,5.56,14.88Z"/><path class="cls-1" d="M5.55,23.53c.83,0,1.65,0,2.47,0,.33,0,.47.12.46.45,0,.7,0,1.39,0,2.08,0,.34-.13.45-.46.45-1.65,0-3.29,0-4.93,0-.32,0-.45-.12-.44-.42V24c0-.31.13-.43.44-.43C3.91,23.54,4.73,23.53,5.55,23.53Z"/><path class="cls-1" d="M31.44,15.24c0,1.39,0,2.78,0,4.17a.78.78,0,0,0,.4.75c1.8,1.22,3.59,2.46,5.4,3.67.39.25.4.45.14.8-.4.52-.77,1.08-1.12,1.63-.18.28-.34.33-.62.14l-6.88-4.69a.62.62,0,0,1-.29-.57q0-5.1,0-10.21c0-.33.13-.46.46-.46h2c.38,0,.5.15.5.52C31.44,12.41,31.44,13.83,31.44,15.24Z"/></svg>