<svg id="Layer_1" data-name="Layer 1" xmlns="http://www.w3.org/2000/svg" viewBox="0 0 31.7 43.53"><defs><style>.cls-1,.cls-2{fill:#005481;}.cls-1{fill-rule:evenodd;}</style></defs><path class="cls-1" d="M11,14.38v1.24a.54.54,0,0,1-.54.54H6a.55.55,0,0,1-.55-.54h0V11.2A.55.55,0,0,1,6,10.66H9a.54.54,0,1,1,0,1.08H6.58v3.34H9.91v-.7a.55.55,0,0,1,1.09,0Z"/><path class="cls-1" d="M18.7,31.2a.54.54,0,0,1-.52.53h-3.8a.55.55,0,0,1,0-1.09h3.8A.54.54,0,0,1,18.7,31.2Z"/><path class="cls-1" d="M26.21,34.13a.55.55,0,0,1-.55.54H14.38a.54.54,0,0,1,0-1.08H25.66A.55.55,0,0,1,26.21,34.13Z"/><path class="cls-1" d="M12,37.25h0a.53.53,0,0,1-.53.54H6a.54.54,0,1,1,0-1.08h5.39A.54.54,0,0,1,12,37.25Z"/><path class="cls-1" d="M11.76,31.16l-2.4,2.4a.53.53,0,0,1-.77,0L7.35,32.32h0a.55.55,0,0,1,0-.77.54.54,0,0,1,.77,0l.86.86,2-2a.54.54,0,0,1,.76.76Z"/><path class="cls-1" d="M11,33.63v1.23a.55.55,0,0,1-.54.55H6a.55.55,0,0,1-.55-.55V30.45A.54.54,0,0,1,6,29.91H9A.54.54,0,1,1,9,31H6.58v3.34H9.91v-.7a.54.54,0,0,1,.56-.52A.54.54,0,0,1,11,33.63Z"/><path class="cls-1" d="M12,18a.53.53,0,0,1-.53.54H6a.54.54,0,1,1,0-1.08h5.38A.54.54,0,0,1,12,18Z"/><path class="cls-1" d="M12,27.63a.54.54,0,0,1-.53.55H6a.55.55,0,1,1,0-1.09h5.38A.54.54,0,0,1,12,27.63Z"/><path class="cls-1" d="M11,24v1.23a.54.54,0,0,1-.54.54H6a.55.55,0,0,1-.55-.53h0V20.82A.55.55,0,0,1,6,20.28H9a.54.54,0,0,1,0,1.08H6.58V24.7H9.91V24A.55.55,0,0,1,11,24Z"/><path class="cls-1" d="M11.76,21.54l-2.4,2.4a.55.55,0,0,1-.77,0L7.35,22.7a.54.54,0,1,1,.77-.77l.86.86,2-2a.54.54,0,0,1,.76,0A.55.55,0,0,1,11.76,21.54Z"/><path class="cls-1" d="M26.21,24.5h0a.55.55,0,0,1-.55.54H14.38a.54.54,0,0,1,0-1.08H25.66A.54.54,0,0,1,26.21,24.5Z"/><path class="cls-1" d="M18.72,21.56a.54.54,0,0,1-.54.54h-3.8a.54.54,0,0,1,0-1.08h3.8A.54.54,0,0,1,18.72,21.56Z"/><path class="cls-1" d="M26.21,14.88a.55.55,0,0,1-.55.54H14.38a.54.54,0,0,1,0-1.08H25.66A.55.55,0,0,1,26.21,14.88Z"/><path class="cls-1" d="M18.7,12a.54.54,0,0,1-.52.53h-3.8a.54.54,0,0,1-.53-.55.53.53,0,0,1,.53-.53h3.8A.53.53,0,0,1,18.7,12Z"/><path class="cls-1" d="M11.76,11.92l-2.4,2.4h0a.55.55,0,0,1-.77,0L7.35,13.07a.54.54,0,0,1,0-.76.55.55,0,0,1,.77,0l.86.86H9l2-2a.54.54,0,0,1,.76,0A.55.55,0,0,1,11.76,11.92Z"/><path class="cls-2" d="M31.69,7.71v0a.29.29,0,0,0,0-.09h0l0-.08h0l0-.07h0a.25.25,0,0,1,0-.07s0,0,0,0a.1.1,0,0,1,0,0l0,0-.05-.06h0L24.52.29h0L24.45.23s0,0,0,0l-.06,0h0l-.06,0h0l-.08,0h0l-.08,0a0,0,0,0,1,0,0L24,0H1A1,1,0,0,0,0,1V42.54a1,1,0,0,0,1,1H30.72a1,1,0,0,0,1-1V7.78A.15.15,0,0,1,31.69,7.71ZM24.81,3.37,28.34,6.9H24.81Zm4.92,38.19H2V2H22.84V7.88a1,1,0,0,0,1,1h5.91Z"/></svg>