<svg id="Layer_1" data-name="Layer 1" xmlns="http://www.w3.org/2000/svg" viewBox="0 0 31.71 43.52"><defs><style>.cls-1{fill:#005481;}</style></defs><path class="cls-1" d="M31.7,7.78s0,.06,0,.1V42.54a1,1,0,0,1-1,1H1a1,1,0,0,1-1-1V1A1,1,0,0,1,1,0h23L24,0h0l.09,0h0l.08,0h0l.07,0h0l.07,0,0,0,.05,0h0l.06.05,0,0,6.89,6.89,0,0,0,0,0,0,0,0v0l0,.06v0l0,.07h0a.13.13,0,0,1,0,.08h0a.19.19,0,0,0,0,.08v0S31.7,7.76,31.7,7.78ZM24.81,3.36V6.89h3.53ZM2,41.55H29.74V8.86H23.83a1,1,0,0,1-1-1V2H2Zm5.56-8a1,1,0,0,1-1.07-1.06,1.06,1.06,0,0,1,1.07-1.11H14a1.06,1.06,0,0,1,1.07,1.11A1,1,0,0,1,14,33.51Zm0,4.35A1,1,0,0,1,6.46,36.8a1.07,1.07,0,0,1,1.07-1.11H14a1.07,1.07,0,0,1,1.07,1.11A1,1,0,0,1,14,37.86Zm10-4.35a1,1,0,0,1-1.07-1.06,1.06,1.06,0,0,1,1.07-1.11H24a1.06,1.06,0,0,1,1.07,1.11A1,1,0,0,1,24,33.51Zm0,4.35a1,1,0,0,1-1.07-1.06,1.07,1.07,0,0,1,1.07-1.11H24a1.06,1.06,0,0,1,1.07,1.11A1,1,0,0,1,24,37.86ZM15.69,8.27a4.64,4.64,0,0,1,4.63,4.63v3.9a6.51,6.51,0,1,1-9.35,0V12.91a4.64,4.64,0,0,1,4.64-4.64ZM12.42,12.9v2.77a6.54,6.54,0,0,1,6.45,0V12.9a3.19,3.19,0,0,0-3.18-3.18h-.08A3.19,3.19,0,0,0,12.42,12.9Zm3.23,5.31A2,2,0,0,0,14.92,22v2a.73.73,0,0,0,.73.73.73.73,0,0,0,.72-.73V22a2,2,0,0,0-.72-3.81Zm0,1.45a.52.52,0,0,1,.52.52.53.53,0,1,1-1.05,0A.52.52,0,0,1,15.65,19.66Z"/></svg>