<?xml version="1.0" encoding="utf-8"?>
<!-- Generator: Adobe Illustrator 26.2.1, SVG Export Plug-In . SVG Version: 6.00 Build 0)  -->
<svg version="1.1" id="Layer_1" xmlns="http://www.w3.org/2000/svg" xmlns:xlink="http://www.w3.org/1999/xlink" x="0px" y="0px"
	 viewBox="0 0 34.8 43.5" style="enable-background:new 0 0 34.8 43.5;" xml:space="preserve">
<style type="text/css">
	.st0{fill:#005481;}
	.st1{fill:none;}
</style>
<path class="st0" d="M23.9,9.5c-0.1-0.5-0.4-0.9-0.8-1.1H23c-0.1-0.3-0.2-0.5-0.3-0.8V7.5c0.2-0.5,0.1-1-0.2-1.4
	c-0.3-0.4-0.6-0.7-1-1c-0.4-0.3-0.9-0.4-1.4-0.2H20c-0.3-0.1-0.5-0.2-0.8-0.3V4.5c-0.2-0.5-0.6-0.8-1.1-0.8c-0.5-0.1-1-0.1-1.4,0
	c-0.5,0.1-0.9,0.4-1.1,0.8v0.1c-0.3,0.1-0.5,0.2-0.8,0.3h-0.1c-0.5-0.2-1-0.1-1.4,0.2c-0.4,0.3-0.7,0.6-1,1C12.1,6.5,12,7,12.2,7.5
	v0.1c-0.1,0.2-0.2,0.5-0.3,0.8h-0.1C11.4,8.6,11.1,9,11,9.5c-0.1,0.5-0.1,1,0,1.4c0.1,0.5,0.4,0.9,0.8,1.1h0.1
	c0.1,0.3,0.2,0.5,0.3,0.8l-0.1,0.1c-0.2,0.5-0.1,1,0.2,1.4c0.3,0.4,0.6,0.7,1,1c0.4,0.3,0.9,0.4,1.3,0.2h0.1
	c0.2,0.1,0.5,0.2,0.8,0.3v0.1c0.2,0.5,0.6,0.8,1.1,0.8c0.5,0.1,1,0.1,1.4,0c0.5-0.1,0.9-0.4,1.1-0.8v-0.1c0.3-0.1,0.5-0.2,0.8-0.3
	H20c0.5,0.2,1,0.1,1.4-0.2c0.4-0.3,0.7-0.6,1-1c0.3-0.4,0.4-0.9,0.2-1.4v-0.1c0.2-0.2,0.3-0.5,0.4-0.8h0.1c0.5-0.2,0.8-0.6,0.8-1.1
	C24,10.4,24,9.9,23.9,9.5z M22.5,10.6l-0.4,0.2c-0.2,0.1-0.4,0.3-0.4,0.5c-0.1,0.4-0.2,0.8-0.5,1.1c-0.1,0.2-0.1,0.4,0,0.6l0.2,0.3
	c-0.1,0.1-0.2,0.3-0.4,0.4c-0.1,0.1-0.2,0.2-0.3,0.3l-0.4-0.2c-0.2-0.1-0.4-0.1-0.6,0c-0.3,0.2-0.7,0.3-1.1,0.5
	c-0.2,0-0.4,0.2-0.5,0.4L18,15.2c-0.2,0-0.4,0-0.5,0c-0.2,0-0.3,0-0.5,0l-0.2-0.4c-0.1-0.2-0.3-0.4-0.5-0.4
	c-0.4-0.1-0.8-0.2-1.1-0.4c-0.1-0.1-0.2-0.1-0.4-0.1c-0.1,0-0.2,0-0.3,0l-0.3,0.2c-0.1-0.1-0.3-0.2-0.4-0.4
	c-0.1-0.1-0.2-0.2-0.4-0.3l0.2-0.4c0.1-0.2,0.1-0.4,0-0.6c-0.2-0.3-0.3-0.7-0.5-1.1c-0.1-0.2-0.2-0.4-0.4-0.5l-0.4-0.1
	c0-0.2,0-0.3,0-0.5c0-0.2,0-0.3,0-0.5c0.3-0.1,0.3-0.1,0.3-0.1c0.2-0.1,0.4-0.3,0.4-0.5c0.1-0.4,0.2-0.7,0.5-1.1
	c0.1-0.2,0.1-0.4,0-0.6L13.5,7c0.1-0.1,0.2-0.3,0.4-0.4c0.1-0.1,0.2-0.2,0.3-0.3l0.4,0.2c0.2,0.1,0.4,0.1,0.6,0
	c0.3-0.2,0.7-0.3,1.1-0.5c0.2-0.1,0.4-0.2,0.5-0.4l0.1-0.3c0.2,0,0.3,0,0.5,0c0.2,0,0.3,0,0.5,0l0.2,0.4c0.1,0.2,0.3,0.4,0.5,0.4
	c0.4,0.1,0.7,0.2,1.1,0.4c0.2,0.1,0.4,0.1,0.6,0l0.3-0.2c0.1,0.1,0.3,0.2,0.4,0.4c0.1,0.1,0.2,0.2,0.3,0.3l-0.2,0.4
	c-0.1,0.2-0.1,0.4,0,0.6c0.2,0.3,0.4,0.7,0.5,1c0.1,0.2,0.2,0.4,0.4,0.5l0.3,0.1c0,0.2,0,0.4,0,0.5C22.5,10.3,22.5,10.5,22.5,10.6
	L22.5,10.6L22.5,10.6z"/>
<path class="st0" d="M17.4,7.3c-1.4,0-2.6,1.1-2.9,2.5c0,0,0,0.1,0,0.1c0,0.1,0,0.2,0,0.3c0,0.8,0.3,1.5,0.8,2
	c0.5,0.5,1.2,0.9,2,0.9c1.5,0,2.8-1.2,2.9-2.6c0,0,0,0,0,0c0-0.1,0-0.1,0-0.2C20.3,8.6,19,7.3,17.4,7.3z M18.9,10.2
	C18.9,10.2,18.9,10.3,18.9,10.2c0,0.8-0.7,1.4-1.4,1.4c-0.8,0-1.5-0.6-1.5-1.4v0c0-0.1,0-0.1,0-0.2c0,0,0-0.1,0-0.1
	c0.1-0.7,0.7-1.2,1.4-1.2C18.2,8.7,18.9,9.3,18.9,10.2C18.9,10.1,18.9,10.2,18.9,10.2z"/>
<path class="st0" d="M0,34.8c0,0.5,0.3,1,0.7,1.2l16.2,7.5c0.2,0.1,0.3,0.1,0.5,0.1c0.2,0,0.4,0,0.5-0.1L34.1,36
	c0.6-0.3,0.9-1,0.6-1.7c-0.1-0.3-0.3-0.5-0.6-0.6L31,32.3l3.1-1.4c0.6-0.3,0.9-1,0.6-1.6c-0.1-0.3-0.3-0.5-0.6-0.6l-3-1.4l3-1.4
	c0.6-0.3,0.9-1,0.6-1.6c-0.1-0.3-0.3-0.5-0.6-0.6l-10.8-5c0.2-0.2,0.4-0.4,0.6-0.6c4.3-3.6,4.9-10,1.3-14.3s-10-4.9-14.3-1.3
	S6,12.3,9.6,16.6c0,0,0,0,0,0c0.4,0.5,0.9,1,1.4,1.4c0.2,0.2,0.4,0.3,0.5,0.5l-10.8,5c-0.6,0.3-0.9,1-0.6,1.6c0,0,0,0,0,0
	c0.1,0.3,0.3,0.5,0.6,0.6l3,1.4l-3,1.4c-0.6,0.3-0.9,1-0.6,1.6c0,0,0,0,0,0c0.1,0.3,0.3,0.5,0.6,0.6l3.1,1.4l-3,1.4
	C0.3,33.9,0,34.3,0,34.8z M21,26.1c0,0.4-0.3,0.7-0.7,0.7h-5.8c-0.4,0-0.7-0.3-0.7-0.7c0-0.4,0.3-0.7,0.7-0.7h5.8
	C20.7,25.4,21,25.7,21,26.1C21,26.1,21,26.1,21,26.1z M21.7,23.9H13c-0.4,0-0.7-0.3-0.7-0.7c0-0.4,0.3-0.7,0.7-0.7h8.7
	c0.4,0,0.7,0.3,0.7,0.7C22.5,23.6,22.1,23.9,21.7,23.9L21.7,23.9z M8.7,10.2c0-4.8,3.9-8.7,8.7-8.7c4.8,0,8.7,3.9,8.7,8.7
	c0,2.6-1.1,5.1-3.1,6.7c-1.2,1-1.9,2.4-2,4V21h-7.3l0,0c0-1.5-0.7-3-1.9-4C9.9,15.3,8.7,12.8,8.7,10.2L8.7,10.2z M12.2,19.9
	c0.1,0.4,0.1,0.7,0.1,1.1v0.2c-1.1,0.4-1.7,1.6-1.3,2.7c0.2,0.7,0.8,1.2,1.5,1.4c-0.4,1.1,0.1,2.4,1.2,2.8c0.3,0.1,0.5,0.2,0.8,0.2
	h5.8c1.2,0,2.2-1,2.2-2.2c0-0.3-0.1-0.6-0.2-0.8c1.2-0.3,1.8-1.5,1.5-2.7c-0.2-0.7-0.7-1.2-1.4-1.5v-0.3c0-0.3,0-0.7,0.1-1l10.4,4.8
	l-15.7,7.2L1.7,24.7L12.2,19.9z M5.5,28l11.4,5.2c0.3,0.2,0.7,0.2,1.1,0L29.3,28l3.8,1.7L17.4,37L1.7,29.8L5.5,28z M5.5,33.1
	l11.4,5.2c0.3,0.1,0.7,0.1,1.1,0l11.4-5.2l3.8,1.7l-15.7,7.2L1.7,34.8L5.5,33.1z"/>
<path class="st1" d="M12.7,9.5c0,0,0,0-0.3,0.1"/>
</svg>
