<svg id="Layer_1" data-name="Layer 1" xmlns="http://www.w3.org/2000/svg" viewBox="0 0 31.7 43.53"><defs><style>.cls-1{fill:#005481;}</style></defs><path class="cls-1" d="M15.07,8.78a8.53,8.53,0,1,0,8.52,8.53A8.53,8.53,0,0,0,15.07,8.78Zm.11,7.66a3.33,3.33,0,0,1,3.38,3.32A3.38,3.38,0,0,1,15.94,23v.49a.87.87,0,1,1-1.74,0V23a3.38,3.38,0,0,1-2.62-3.22.87.87,0,0,1,1.74,0,1.68,1.68,0,0,0,1.75,1.59,1.67,1.67,0,0,0,1.75-1.59c0-.93-.64-1.5-1.82-1.6-2.11-.24-3.41-1.51-3.41-3.32a3.37,3.37,0,0,1,2.62-3.21v-.5a.87.87,0,0,1,1.74,0v.5a3.36,3.36,0,0,1,2.62,3.21.87.87,0,0,1-1.74,0,1.49,1.49,0,0,0-.51-1.11,1.8,1.8,0,0,0-1.24-.48,1.69,1.69,0,0,0-1.75,1.59C13.33,15.76,14,16.3,15.18,16.44Z"/><path class="cls-1" d="M15.07,36.8A1,1,0,0,1,14,37.87H7.52A1,1,0,0,1,6.46,36.8a1.06,1.06,0,0,1,1.06-1.11H14A1.06,1.06,0,0,1,15.07,36.8Z"/><path class="cls-1" d="M15.07,32.45A1,1,0,0,1,14,33.52H7.52a1,1,0,0,1-1.06-1.07,1.06,1.06,0,0,1,1.06-1.11H14A1.06,1.06,0,0,1,15.07,32.45Z"/><path class="cls-1" d="M25.08,36.8A1,1,0,0,1,24,37.87H17.54a1,1,0,0,1-1.07-1.07,1.06,1.06,0,0,1,1.07-1.11H24A1.06,1.06,0,0,1,25.08,36.8Z"/><path class="cls-1" d="M25.08,32.45A1,1,0,0,1,24,33.52H17.54a1,1,0,0,1-1.07-1.07,1.06,1.06,0,0,1,1.07-1.11H24A1.06,1.06,0,0,1,25.08,32.45Z"/><path class="cls-1" d="M31.69,7.71v0a.29.29,0,0,0,0-.09h0l0-.08h0l0-.07h0a.25.25,0,0,1,0-.07s0,0,0,0a.1.1,0,0,1,0,0l0,0-.05-.06h0L24.52.29h0L24.45.23s0,0,0,0l-.06,0h0l-.06,0h0l-.08,0h0l-.08,0a0,0,0,0,1,0,0L24,0H1A1,1,0,0,0,0,1V42.54a1,1,0,0,0,1,1H30.72a1,1,0,0,0,1-1V7.78A.15.15,0,0,1,31.69,7.71ZM24.81,3.37,28.34,6.9H24.81Zm4.92,38.19H2V2H22.84V7.88a1,1,0,0,0,1,1h5.91Z"/><path class="cls-1" d="M15.07,36.8A1,1,0,0,1,14,37.87H7.52A1,1,0,0,1,6.46,36.8a1.06,1.06,0,0,1,1.06-1.11H14A1.06,1.06,0,0,1,15.07,36.8Z"/><path class="cls-1" d="M15.07,32.45A1,1,0,0,1,14,33.52H7.52a1,1,0,0,1-1.06-1.07,1.06,1.06,0,0,1,1.06-1.11H14A1.06,1.06,0,0,1,15.07,32.45Z"/><path class="cls-1" d="M25.08,36.8A1,1,0,0,1,24,37.87H17.54a1,1,0,0,1-1.07-1.07,1.06,1.06,0,0,1,1.07-1.11H24A1.06,1.06,0,0,1,25.08,36.8Z"/><path class="cls-1" d="M25.08,32.45A1,1,0,0,1,24,33.52H17.54a1,1,0,0,1-1.07-1.07,1.06,1.06,0,0,1,1.07-1.11H24A1.06,1.06,0,0,1,25.08,32.45Z"/><path class="cls-1" d="M15.07,32.45A1,1,0,0,1,14,33.52H7.52a1,1,0,0,1-1.06-1.07,1.06,1.06,0,0,1,1.06-1.11H14A1.06,1.06,0,0,1,15.07,32.45Z"/><path class="cls-1" d="M15.07,36.8A1,1,0,0,1,14,37.87H7.52A1,1,0,0,1,6.46,36.8a1.06,1.06,0,0,1,1.06-1.11H14A1.06,1.06,0,0,1,15.07,36.8Z"/><path class="cls-1" d="M25.08,32.45A1,1,0,0,1,24,33.52H17.54a1,1,0,0,1-1.07-1.07,1.06,1.06,0,0,1,1.07-1.11H24A1.06,1.06,0,0,1,25.08,32.45Z"/><path class="cls-1" d="M25.08,36.8A1,1,0,0,1,24,37.87H17.54a1,1,0,0,1-1.07-1.07,1.06,1.06,0,0,1,1.07-1.11H24A1.06,1.06,0,0,1,25.08,36.8Z"/></svg>