<svg id="Layer_1" data-name="Layer 1" xmlns="http://www.w3.org/2000/svg" viewBox="0 0 44.25 44.25"><defs><style>.cls-1{fill:#005481;}</style></defs><path class="cls-1" d="M42,28H33.18V29.5H42a.74.74,0,0,1,.74.73V41.3a1.48,1.48,0,0,1-3,0V34.66a2.21,2.21,0,0,0-2.21-2.21H27.29a2.22,2.22,0,0,0-2.22,2.21v7.47a2.12,2.12,0,0,0,2.12,2.12H41.3a3,3,0,0,0,3-3V30.23A2.23,2.23,0,0,0,42,28Z"/><path class="cls-1" d="M22.86,31h3.69a5.9,5.9,0,0,0,5.9-5.9h7.37a.76.76,0,0,0,.53-.21l2.95-2.95-1-1L39.52,23.6H32.26A5.91,5.91,0,0,0,28,19.36v-.19a5.91,5.91,0,0,0-5.16-5.85V5.9a.76.76,0,0,0-.21-.53L19.7,2.42l-1,1.05L21.39,6.2v7.12a5.91,5.91,0,0,0-5.17,5.85v.19a5.87,5.87,0,0,0-3.63,2.76H5.16a.73.73,0,0,0-.52.22L1.69,25.28l1,1L5.47,23.6H12a5.59,5.59,0,0,0-.19,1.47,5.9,5.9,0,0,0,5.9,5.9h3.69v8.11a.74.74,0,0,0,.21.53l1.47,1.47,1-1-1.24-1.26Zm-4.45-8.16h0l0,.05Zm.06-.06h0a.72.72,0,0,1-1,0l-.06-.07a5.75,5.75,0,0,1-.87-1.73.74.74,0,1,1,1.41-.45h0a4.24,4.24,0,0,0,.65,1.27A.76.76,0,0,1,18.47,22.75Zm3,2.32h0a.74.74,0,0,1-.74-.73.37.37,0,0,1,0-.11,5.92,5.92,0,0,1,4.55-4.91.75.75,0,0,1,.83.39h0a.73.73,0,0,1-.34,1l-.16.07a4.42,4.42,0,0,0-3.41,3.7A.76.76,0,0,1,21.44,25.07Z"/><path class="cls-1" d="M.74,19.17H14a.74.74,0,0,0,.74-.73V3.69A.74.74,0,0,0,14,3H4.42V1.47h11.8v11.8H17.7V.74A.74.74,0,0,0,17,0H3.69A.74.74,0,0,0,3,.74V3H.74A.74.74,0,0,0,0,3.69V18.44A.74.74,0,0,0,.74,19.17ZM3,6.64H11.8V8.11H3Zm0,3.68H11.8V11.8H3ZM3,14H11.8v1.48H3Z"/><path class="cls-1" d="M15.63,32.15,10,36.36a.77.77,0,0,1-.89,0L2,31a.69.69,0,0,1,.2,0H13.28a7.06,7.06,0,0,1-1.47-1.47H2.21A2.22,2.22,0,0,0,0,31.71V42a2.23,2.23,0,0,0,2.21,2.22H17A2.22,2.22,0,0,0,19.17,42V32.45H17.7A7.3,7.3,0,0,1,15.63,32.15Z"/><path class="cls-1" d="M42,0H28.76a2.22,2.22,0,0,0-2.21,2.21V13.28a7.41,7.41,0,0,1,2.89,5,6.77,6.77,0,0,1,1.52.88H42A2.22,2.22,0,0,0,44.25,17V2.21A2.23,2.23,0,0,0,42,0ZM33.18,5.12a.74.74,0,0,1,.74-.74.65.65,0,0,1,.43.14L37.5,6.78a.75.75,0,0,1,.17,1A.69.69,0,0,1,37.5,8l-3.15,2.25a.73.73,0,0,1-1.17-.6V5.12Zm8.12,9.63H32.45v.74H31v-.74H29.5V13.27H31v-.73h1.48v.73H41.3Z"/></svg>