<svg id="Layer_1" data-name="Layer 1" xmlns="http://www.w3.org/2000/svg" viewBox="0 0 50 48"><defs><style>.cls-1{fill:#005481;fill-rule:evenodd;}</style></defs><path class="cls-1" d="M0,27.44A1.47,1.47,0,1,0,1.47,26a1.5,1.5,0,0,0-1,.43A1.5,1.5,0,0,0,0,27.44Zm45.66-12a1.47,1.47,0,1,0-1,.43A1.44,1.44,0,0,0,45.66,15.49ZM50,1.47a1.47,1.47,0,1,0-1.47,1.47,1.5,1.5,0,0,0,1-.43A1.5,1.5,0,0,0,50,1.47Zm-.43,27a1.47,1.47,0,1,0-2.08,0,1.47,1.47,0,0,0,2.08,0Zm-45.66-14a1.47,1.47,0,1,0,.43-1A1.42,1.42,0,0,0,3.91,14.45ZM.43.43A1.47,1.47,0,0,0,2.51,2.51a1.48,1.48,0,0,0,0-2.08,1.5,1.5,0,0,0-1-.43,1.5,1.5,0,0,0-1,.43ZM22.2,18.83V16.64h0a2.8,2.8,0,0,1,5.6,0v2.19a5.2,5.2,0,1,0-7.18-1.58A5.41,5.41,0,0,0,22.2,18.83Zm0,4.44a2.84,2.84,0,0,1-.38-.13,10.13,10.13,0,0,1-1.52-.73h0a.61.61,0,0,0-.67,0L17,24.33l-1.87-1.87L17,19.86a.6.6,0,0,0,.06-.7A10.68,10.68,0,0,1,16.46,18a9.93,9.93,0,0,1-.4-1.2.62.62,0,0,0-.5-.49l-3.2-.52V13.13l3.19-.52h0a.62.62,0,0,0,.5-.46,10.43,10.43,0,0,1,.41-1.23,9.16,9.16,0,0,1,.59-1.17h0a.61.61,0,0,0,0-.66L15.13,6.46,17,4.58l2.6,1.87a.62.62,0,0,0,.7,0,9.3,9.3,0,0,1,2.37-1,.61.61,0,0,0,.48-.5l.53-3.2h2.64L26.85,5h0a.61.61,0,0,0,.45.49,9.52,9.52,0,0,1,2.4,1h0a.63.63,0,0,0,.67,0L33,4.58l1.87,1.87L33,9.05a.62.62,0,0,0,0,.7,9.09,9.09,0,0,1,.58,1.17,8.49,8.49,0,0,1,.41,1.2.62.62,0,0,0,.5.49l3.19.52v2.65l-3.19.52h0a.61.61,0,0,0-.49.46A8.92,8.92,0,0,1,33.53,18,9.09,9.09,0,0,1,33,19.16h0a.61.61,0,0,0,0,.66l1.89,2.63L33,24.33l-2.6-1.87a.62.62,0,0,0-.7-.05,10.61,10.61,0,0,1-1.52.73,3,3,0,0,1-.39.13v-3A6.34,6.34,0,0,0,30.32,18a6.41,6.41,0,1,0-8.9,1.76,7.44,7.44,0,0,0,.78.44v3ZM36.53,33.41V31.2a1.59,1.59,0,0,1,1.57-1.49h.12a1.59,1.59,0,0,1,1,.47,1.39,1.39,0,0,1,.42,1v.09l-.86,12.15-1.15,4.1A.71.71,0,0,1,37,48H23.87a.69.69,0,0,1-.7-.62l-.26-2.09h0a.71.71,0,0,0-.13-.31L20.27,41.9,16,32.66a1.88,1.88,0,0,1-.14-1.3,1.44,1.44,0,0,1,.69-.89h0a1.58,1.58,0,0,1,2.14.57h0l3.57,6.19a.62.62,0,0,0,1.16-.29l0-20.3h0a1.57,1.57,0,0,1,3.14,0V30.41a.61.61,0,1,0,1.22,0V27.19a1.57,1.57,0,0,1,3.14.08v4.38a.61.61,0,0,0,.63.59.61.61,0,0,0,.6-.59V29.39a1.57,1.57,0,0,1,3.14.09v3.93a.61.61,0,0,0,.61.62.62.62,0,0,0,.62-.62ZM14.25,21.57H7.54a.6.6,0,0,0-.4.15l-4,3.47a2.69,2.69,0,0,1,.81.93L7.77,22.8h6.14a1.92,1.92,0,0,1,.34-1.23Zm-6.14-6.5h3V13.84h-3a2.84,2.84,0,0,1,0,1.23ZM7.54,7.34h6.71a2.24,2.24,0,0,1-.34-1.23H7.77L3.94,2.79a2.78,2.78,0,0,1-.81.93l4,3.47a.66.66,0,0,0,.4.15ZM36.09,6.11a1.42,1.42,0,0,1-.34,1.23h6.71a.66.66,0,0,0,.4-.15l4-3.47a2.69,2.69,0,0,1-.81-.93L42.23,6.11Zm5.8,7.73h-3v1.23h3a2.74,2.74,0,0,1,0-1.23Zm.57,7.73H35.75a1.79,1.79,0,0,1,.34,1.23h6.14l3.83,3.32a2.69,2.69,0,0,1,.81-.93l-4-3.47a.66.66,0,0,0-.4-.15Z"/></svg>