<svg id="Layer_1" data-name="Layer 1" xmlns="http://www.w3.org/2000/svg" viewBox="0 0 138 169.41"><defs><style>.cls-1{fill:#005481;}</style></defs><path class="cls-1" d="M72.7.81c-17.8,4.9-25,25.9-13.6,40.2,2.7,3.4,2.9,4.2,2.3,8.7l-.7,5,3.7-2.6c3.5-2.3,4.4-2.5,11.5-2,6.5.5,8.4.2,12.9-1.7,16.3-7,20.5-28.5,8.1-40.9C90.6,1.21,81-1.49,72.7.81ZM91,15.91c0,1.1-21.3,2-23.8,1a1.08,1.08,0,0,1-.7-1.5C67.4,14,91,14.51,91,15.91Zm.3,8c.1.6-4.7,1.1-12.5,1.3-11.7.2-14.1-.2-12.1-2.2C67.8,21.91,91,22.81,91.3,23.91Zm.2,8.5c-.4.6-5.8,1-13.1,1-7.6,0-12.4-.4-12.4-1s5-1,13.1-1C87.5,31.41,91.9,31.81,91.5,32.41Z"/><path class="cls-1" d="M113.5,58.41a11.21,11.21,0,0,0-6.1,14.4c1.9,4.5,5.2,6.6,10.2,6.6a10.32,10.32,0,0,0,10.5-7.9C130.6,63,121.7,55,113.5,58.41Z"/><path class="cls-1" d="M33.1,61.81c-3.2,1.8-5,5.3-5.1,9.9,0,5.2,5.2,10.7,10.2,10.7,10.5,0,15.6-12.8,7.7-19.4A11.69,11.69,0,0,0,33.1,61.81Z"/><path class="cls-1" d="M132.6,79c-1.4,1.3-1.6,5.1-1.6,25.9v24.3l-11.1.4c-10.7.3-11.2.4-13.5,3.1-1.3,1.6-2.4,3.2-2.4,3.8s7,.9,17,.9h17v-29c0-27.6-.1-29-1.9-30A2.55,2.55,0,0,0,132.6,79Z"/><path class="cls-1" d="M113.5,83.31c-2.9,1.2-5.2,4.2-6.2,7.9-.6,2.5-3.1,5.2-10.3,11.1-8.1,6.6-9.5,8.1-9.5,10.6s.4,3.1,2.7,3.3c2.1.3,4.3-.9,9-4.7,3.4-2.8,6.6-4.7,7.1-4.2s.7,3.5.5,6.7l-.3,5.9-9.8.5c-13,.7-12.7.3-12.7,18.3,0,7.6.5,14.7,1,15.8,1.2,2.1,5.4,2.6,6.7.6.4-.6,1-7,1.3-14.2l.5-13,17.8-.3,17.7-.2v-17.6c0-19.6-.8-23.2-5.9-25.8A11.26,11.26,0,0,0,113.5,83.31Z"/><path class="cls-1" d="M20.5,86.41c-4.6,1.9-8.5,8.3-8.5,14.1,0,2.8.2,2.9,4.5,2.9H21v-4.1c0-2.4.4-3.8,1-3.4s1,2.2,1,4.1v3.4H53.9l.3-3.5c.2-2,.8-3.5,1.3-3.5s1.1,1.5,1.3,3.5c.3,3.4.5,3.5,4.3,3.5H65v-4.3a14,14,0,0,0-6.9-12.2c-3.2-1.6-11.1-2.1-11.1-.6,0,1.2-6.3,4.1-8.8,4.1-1,0-3.6-1.1-5.6-2.5A12.9,12.9,0,0,0,20.5,86.41Z"/><path class="cls-1" d="M2.6,107.51a6.26,6.26,0,0,0-2.6,5v2.9H78v-2.5a8.24,8.24,0,0,0-2.5-5l-2.4-2.5H39.2C6.4,105.41,5.2,105.51,2.6,107.51Z"/><path class="cls-1" d="M8,143.41v26H69v-52H8Z"/><path class="cls-1" d="M118.7,140.11c-.4.3-.7,4.6-.7,9.4v8.8l-5.1.3c-4.7.3-5.3.6-7.2,4-2.8,4.8-1.3,6.2,2.1,2,2.2-2.6,3.4-3.2,6.4-3.2,3.5,0,3.7.2,4,3.7.4,5.2,2.8,5.6,2.8.4v-4.1h6c5.6,0,6,.2,7.5,3,.9,1.6,2,3,2.5,3,1.7,0,1.1-3-1-6-1.8-2.6-2.8-2.9-8.3-3.2l-6.2-.3-.3-9.3C120.9,140.11,120.4,138.31,118.7,140.11Z"/></svg>