<svg id="Layer_1" data-name="Layer 1" xmlns="http://www.w3.org/2000/svg" viewBox="0 0 43.63 39.69"><defs><style>.cls-1{fill:#005481;fill-rule:evenodd;}</style></defs><path class="cls-1" d="M22.94,11.57a4.53,4.53,0,0,1,3.35,3.72l9.34,2.42a4.58,4.58,0,0,1,4.72-1.64,4.43,4.43,0,0,1,3.28,3.4l-4.39-1.13L37.59,20l.63,2.27,4.4,1.13a4.43,4.43,0,0,1-4.52,1.39,4.58,4.58,0,0,1-3.35-3.71l-9.34-2.42a4.51,4.51,0,0,1-8-1.76l4.39,1.13,1.65-1.68-.63-2.27L18.42,13a4.51,4.51,0,0,1,4.52-1.4ZM15,35.11H9.85A2.63,2.63,0,0,0,7,37.4v2.29H36.64V37.4a2.63,2.63,0,0,0-2.86-2.29H28.67V29.79H40.28a3.37,3.37,0,0,0,3.35-3.36v-2a5.91,5.91,0,0,1-5.9,1.75,6,6,0,0,1-3.18-2.08H31.61L29,26.7,27,25.78a11.38,11.38,0,0,1-1.8.75l-.82,2.12H19.29l-.81-2.12a11.49,11.49,0,0,1-1.81-.75l-2.07.92L12,24.14H2.81V3.27a.45.45,0,0,1,.46-.46H40.36a.46.46,0,0,1,.47.46V14.69a5.94,5.94,0,0,1,2.8,1.71v-13A3.36,3.36,0,0,0,40.28,0H3.35A3.36,3.36,0,0,0,0,3.35V26.43a3.37,3.37,0,0,0,3.35,3.36H15v5.32ZM40.83,21.46l2.8.72V21l-2.8-.72v1.21Zm-16.77-15-.72-1.87H20.29l-.72,1.87a9.84,9.84,0,0,0-2.82,1.17l-1.83-.81L12.76,9l.81,1.83a9.57,9.57,0,0,0-1.17,2.82l-1.87.72v3l1.87.72A9.74,9.74,0,0,0,13.57,21l-.81,1.83L14.92,25l1.83-.82a9.31,9.31,0,0,0,2.82,1.17l.72,1.87h3.05l.72-1.87a9.31,9.31,0,0,0,2.82-1.17l1.84.82,2.16-2.16-.61-1.37-3.5-.91a6.78,6.78,0,1,1,1.64-6.19l4.69,1.21V14.38l-1.87-.72a9.57,9.57,0,0,0-1.17-2.82L30.88,9,28.72,6.85l-1.84.81A9.84,9.84,0,0,0,24.06,6.49Z"/></svg>