<svg id="Layer_1" data-name="Layer 1" xmlns="http://www.w3.org/2000/svg" viewBox="0 0 48 46.01"><defs><style>.cls-1{fill:#005481;fill-rule:evenodd;}</style></defs><path class="cls-1" d="M25,19.59l3.29-3.3A1,1,0,0,1,29,16h3.17a3,3,0,1,1,0,2H29.41L25,22.41v1.18L29.41,28h2.76a3,3,0,1,1,0,2H29a1,1,0,0,1-.71-.29L25,26.41V42a4,4,0,0,0,4,4h4a4,4,0,0,0,3.86-3l-2.43-4h-.6a3,3,0,1,1,0-2H35a1,1,0,0,1,.86.49l2.62,4.37C42,41.18,45,38.14,45,34.5a6.22,6.22,0,0,0-.26-1.75l-4.29,2.14a1,1,0,0,1-.9-1.78l4.83-2.42A10.2,10.2,0,0,0,48,23a9.78,9.78,0,0,0-1.8-5.52l-4.44,5.18A1,1,0,0,1,41,23H38a1,1,0,0,1,0-2h2.54l5.29-6.17A7.4,7.4,0,0,0,47,11a8.32,8.32,0,0,0-6.81-7.9L37.92,8.39A1,1,0,0,1,37,9H33.83a3,3,0,1,1,0-2h2.51l2.24-5.22A3.56,3.56,0,0,0,35.5,0H29a4,4,0,0,0-4,4ZM31,37a1,1,0,1,1-1,1A1,1,0,0,1,31,37Zm4-9a1,1,0,1,1-1,1A1,1,0,0,1,35,28Zm0-12a1,1,0,1,1-1,1A1,1,0,0,1,35,16ZM31,7a1,1,0,1,1-1,1A1,1,0,0,1,31,7Z"/><path class="cls-1" d="M23,19.59l-3.29-3.3A1,1,0,0,0,19,16H15.83a3,3,0,1,0,0,2h2.76L23,22.41v1.18L18.59,28H15.83a3,3,0,1,0,0,2H19a1.05,1.05,0,0,0,.71-.29L23,26.41V42a4,4,0,0,1-4,4H15a4,4,0,0,1-3.86-3l2.43-4h.6a3,3,0,1,0,0-2H13a1,1,0,0,0-.86.49L9.52,41.86C6,41.18,3,38.14,3,34.5a6.22,6.22,0,0,1,.26-1.75l4.29,2.14a1,1,0,1,0,.9-1.78L3.62,30.69A10.2,10.2,0,0,1,0,23a9.78,9.78,0,0,1,1.8-5.52l4.44,5.18A1,1,0,0,0,7,23h3a1,1,0,0,0,0-2H7.46L2.17,14.83A7.4,7.4,0,0,1,1,11,8.32,8.32,0,0,1,7.81,3.1l2.27,5.29A1,1,0,0,0,11,9h3.17a3,3,0,1,0,0-2H11.66L9.42,1.78A3.56,3.56,0,0,1,12.5,0H19a4,4,0,0,1,4,4ZM17,37a1,1,0,1,0,1,1A1,1,0,0,0,17,37Zm-4-9a1,1,0,1,0,1,1A1,1,0,0,0,13,28Zm0-12a1,1,0,1,0,1,1A1,1,0,0,0,13,16Zm4-9a1,1,0,1,0,1,1A1,1,0,0,0,17,7Z"/></svg>