<svg id="Layer_1" data-name="Layer 1" xmlns="http://www.w3.org/2000/svg" viewBox="0 0 35.27 46"><defs><style>.cls-1{fill:#005481;}</style></defs><path class="cls-1" d="M32.2,10.73H27.6V3.07A3.06,3.06,0,0,0,24.54,0H3.07A3.06,3.06,0,0,0,0,3.06H0V42.93A3.06,3.06,0,0,0,3.06,46H24.53a3.06,3.06,0,0,0,3.07-3.06h0V36.8h4.6a3.07,3.07,0,0,0,3.07-3.06h0V13.8a3.08,3.08,0,0,0-3.07-3.07ZM7.67,29.9a.77.77,0,1,1,0-1.53h9.2a.75.75,0,0,1,.75.77.76.76,0,0,1-.75.76Zm6.9,2.3a.78.78,0,0,1-.77.77H7.67a.77.77,0,1,1,0-1.54H13.8A.78.78,0,0,1,14.57,32.2Zm.54-9A.77.77,0,0,1,14,24.31l-3.83-3.83a.77.77,0,0,1,0-1.09L14,15.56a.76.76,0,0,1,1.09,0,.75.75,0,0,1,0,1.06l-3.3,3.29Zm2.46,2.38a.77.77,0,0,1-1.41-.6l4.6-10.73a.77.77,0,0,1,1.41.6Zm10.57-5.12-3.83,3.83A.77.77,0,0,1,23,23.75a.79.79,0,0,1,.22-.53l3.3-3.29-3.3-3.29a.77.77,0,0,1,1.09-1.08l3.83,3.83A.77.77,0,0,1,28.14,20.48ZM26.07,42.93a1.55,1.55,0,0,1-1.54,1.54H3.07a1.55,1.55,0,0,1-1.54-1.54V3.07A1.55,1.55,0,0,1,3.07,1.53H8.43V2.3a2.31,2.31,0,0,0,2.3,2.3h6.14a2.31,2.31,0,0,0,2.3-2.3V1.53h5.36a1.55,1.55,0,0,1,1.54,1.54v7.66H6.13A3.07,3.07,0,0,0,3.07,13.8h0V33.73A3.06,3.06,0,0,0,6.13,36.8H26.07Z"/><path class="cls-1" d="M10.73,42.93h6.14a.75.75,0,0,0,.75-.77.76.76,0,0,0-.75-.76H10.73a.77.77,0,0,0,0,1.53Z"/></svg>