<svg id="Layer_1" data-name="Layer 1" xmlns="http://www.w3.org/2000/svg" viewBox="0 0 44.12 44.12"><defs><style>.cls-1{fill:#005481;}</style></defs><path class="cls-1" d="M39.46,0H4.65A4.65,4.65,0,0,0,0,4.65V30.5a4.66,4.66,0,0,0,4.65,4.66H15a8.56,8.56,0,0,1-2.61,4.13h-.86A2.59,2.59,0,0,0,9,41.88H9v.69a1.56,1.56,0,0,0,1.55,1.55h23.1a1.56,1.56,0,0,0,1.55-1.55v-.69a2.59,2.59,0,0,0-2.59-2.59h-.85a8.51,8.51,0,0,1-2.62-4.13H39.46a4.68,4.68,0,0,0,4.66-4.66V4.65A4.66,4.66,0,0,0,39.46,0ZM22.06,32.4a.69.69,0,1,1,.69-.69A.69.69,0,0,1,22.06,32.4Zm5.51-4.14H1V4.65A3.64,3.64,0,0,1,4.65,1H27.57Zm6.91-17.4L36.17,6a.53.53,0,0,1,.66-.32.52.52,0,0,1,.32.67L35.46,11.2a.52.52,0,0,1-1-.34ZM30.64,8.3l1.84-2.41a.52.52,0,0,1,.73-.1.53.53,0,0,1,.1.73l-1.6,2.1,1.6,2.1a.52.52,0,0,1-.83.62L30.64,8.93A.52.52,0,0,1,30.64,8.3Zm9.51,17.89H31.54a.52.52,0,1,1,0-1h8.61a.52.52,0,1,1,0,1Zm0-3.44H31.54a.52.52,0,0,1-.52-.52.52.52,0,0,1,.52-.52h8.61a.52.52,0,0,1,.52.52A.52.52,0,0,1,40.15,22.75Zm0-3.45H31.54a.52.52,0,1,1,0-1h8.61a.52.52,0,1,1,0,1Zm0-3.45H31.54a.52.52,0,1,1,0-1h8.61a.52.52,0,1,1,0,1Zm.9-6.92L39.2,11.34a.52.52,0,0,1-.72.14.53.53,0,0,1-.13-.72l0,0L40,8.62l-1.61-2.1a.52.52,0,0,1,.06-.73.51.51,0,0,1,.73.06l0,0L41.05,8.3A.52.52,0,0,1,41.05,8.93Z"/><rect class="cls-1" x="2.76" y="3.1" width="23.09" height="12.75" rx="1.55"/><rect class="cls-1" x="2.76" y="17.58" width="10.68" height="8.62" rx="1.55"/><rect class="cls-1" x="15.17" y="17.58" width="10.68" height="8.62" rx="1.55"/></svg>