<svg id="Layer_1" data-name="Layer 1" xmlns="http://www.w3.org/2000/svg" viewBox="0 0 42.75 42.75"><defs><style>.cls-1{fill:#005481;}</style></defs><path class="cls-1" d="M42.75,1.94A1.94,1.94,0,0,0,40.81,0H1.94A1.94,1.94,0,0,0,0,1.94V34a1.93,1.93,0,0,0,1.94,1.93H13.76v5.48H11.35a.63.63,0,0,0-.66.67.67.67,0,0,0,.66.67h20a.72.72,0,0,0,.67-.67.67.67,0,0,0-.67-.67H28.92V35.93H40.74A1.93,1.93,0,0,0,42.68,34V1.94ZM27.59,41.41H15.1V35.93H27.59ZM41.41,29.46H1.34V1.94a.59.59,0,0,1,.6-.6h38.8a.61.61,0,0,1,.67.6Z"/><path class="cls-1" d="M15.3,15.7a.68.68,0,0,0-.87.4L10.22,27a.7.7,0,0,0,.4.87.69.69,0,0,0,.87-.4L15.7,16.56A.69.69,0,0,0,15.3,15.7Z"/><path class="cls-1" d="M9.75,18.43a.66.66,0,0,0-.93-.2L3.94,21.17a.72.72,0,0,0,0,1.21l4.88,2.93a.67.67,0,0,0,.73-1.13L5.61,21.77l3.94-2.4A.72.72,0,0,0,9.75,18.43Z"/><path class="cls-1" d="M22,21.17,17.1,18.23a.68.68,0,1,0-.74,1.14l3.94,2.4-3.94,2.41a.68.68,0,1,0,.74,1.13L22,22.38a.71.71,0,0,0,0-1.21Z"/><path class="cls-1" d="M38.74,10.69l-1.87-.8a5.34,5.34,0,0,0-.47-1.14l.74-1.94A.74.74,0,0,0,37,6.08L35.87,4.94a.62.62,0,0,0-.74-.13l-1.93.8a6.48,6.48,0,0,0-1.14-.47l-.8-1.93a.64.64,0,0,0-.6-.4H29.05a.59.59,0,0,0-.6.4l-.8,1.93a6.08,6.08,0,0,0-1.13.47l-1.94-.8a.73.73,0,0,0-.74.13L22.71,6.08a.6.6,0,0,0-.13.73l.8,1.94a7.41,7.41,0,0,0-.47,1.14l-2.07.8a.63.63,0,0,0-.4.6v1.6a.57.57,0,0,0,.4.6l1.87.8a5.56,5.56,0,0,0,.47,1.14l-.8,1.94a.71.71,0,0,0,.13.73l1.13,1.14a.62.62,0,0,0,.74.13l1.94-.73a5.45,5.45,0,0,0,1.13.46l.8,1.94a.65.65,0,0,0,.6.4h1.61a.59.59,0,0,0,.6-.4l.8-1.94A5.78,5.78,0,0,0,33,18.64l1.93.73a.62.62,0,0,0,.74-.13L36.8,18.1a.61.61,0,0,0,.14-.73l-.74-1.94a7.84,7.84,0,0,0,.47-1.14l1.87-.8a.63.63,0,0,0,.4-.6v-1.6C39.14,11,38.94,10.82,38.74,10.69Zm-9,5.41a4,4,0,1,1,4-4A4,4,0,0,1,29.79,16.1Z"/><path class="cls-1" d="M14.76,7.15,14,7.88a.66.66,0,0,0,.93.94L16.83,7a.71.71,0,0,0,0-.94L15,4.14a.64.64,0,0,0-.93,0,.65.65,0,0,0,0,.94l.73.73c-.07.07-7.68-.47-7.68,6.68a.67.67,0,0,0,1.34,0C8.42,6.68,14.69,7.21,14.76,7.15Z"/><path class="cls-1" d="M34.13,21.44a.71.71,0,0,0-.93.2c-1.87,3.14-5.28,2.54-5.61,2.61l.73-.74a.64.64,0,0,0,0-.93.65.65,0,0,0-.94,0l-1.87,1.87a.86.86,0,0,0-.2.46.62.62,0,0,0,.2.47l1.87,1.87a.65.65,0,0,0,.94,0,.64.64,0,0,0,0-.93l-.73-.74c.26-.07,4.47.6,6.74-3.27A.6.6,0,0,0,34.13,21.44Z"/></svg>