<svg id="Layer_1" data-name="Layer 1" xmlns="http://www.w3.org/2000/svg" xmlns:xlink="http://www.w3.org/1999/xlink" viewBox="0 0 140.09 140"><defs><style>.cls-1{fill:url(#linear-gradient);}.cls-2{fill:url(#linear-gradient-2);}.cls-3{fill:url(#linear-gradient-3);}.cls-4{fill:url(#linear-gradient-4);}</style><linearGradient id="linear-gradient" x1="-1359.04" y1="738.83" x2="-1358.79" y2="738.62" gradientTransform="matrix(189.83, 0, 0, -255.34, 258029.59, 188692.17)" gradientUnits="userSpaceOnUse"><stop offset="0" stop-color="#4285eb"/><stop offset="1" stop-color="#2ec7ff"/></linearGradient><linearGradient id="linear-gradient-2" x1="-1358.93" y1="738.99" x2="-1359.02" y2="738.4" gradientTransform="matrix(189.83, 0, 0, -255.34, 258029.59, 188692.17)" gradientUnits="userSpaceOnUse"><stop offset="0" stop-color="#29cdff"/><stop offset="0.38" stop-color="#148eff"/><stop offset="1" stop-color="#0a60ff"/></linearGradient><linearGradient id="linear-gradient-3" x1="-1345.84" y1="737.82" x2="-1346.13" y2="737.1" gradientTransform="matrix(63.23, 0, 0, -99.51, 85225.8, 73453.59)" gradientUnits="userSpaceOnUse"><stop offset="0" stop-color="#fa816e"/><stop offset="0.41" stop-color="#f74a5c"/><stop offset="1" stop-color="#f51d2c"/></linearGradient><linearGradient id="linear-gradient-4" x1="-1344.27" y1="736.63" x2="-1344.47" y2="735.81" gradientTransform="matrix(60.65, 0, 0, -60.6, 81611.81, 44684.56)" gradientUnits="userSpaceOnUse"><stop offset="0" stop-color="#fa8e7d"/><stop offset="0.51" stop-color="#f74a5c"/><stop offset="1" stop-color="#f51d2c"/></linearGradient></defs><path class="cls-1" d="M64.07,2.49,2.48,64a8.44,8.44,0,0,0,0,12l61.59,61.53a8.46,8.46,0,0,0,12,0l25.82-25.8A7.59,7.59,0,1,0,91.12,101L71.55,120.55a2,2,0,0,1-2.9,0L19.47,71.41a2,2,0,0,1,0-2.9L68.65,19.37a2,2,0,0,1,2.9,0L91.12,38.93A7.59,7.59,0,1,0,101.86,28.2L76,2.41A8.54,8.54,0,0,0,64.07,2.49Z"/><path class="cls-2" d="M64.07,2.49,2.48,64a8.44,8.44,0,0,0,0,12l61.59,61.53a8.46,8.46,0,0,0,12,0l25.82-25.8A7.59,7.59,0,1,0,91.12,101L71.55,120.55a2,2,0,0,1-2.9,0L19.47,71.41a2,2,0,0,1,0-2.9L68.65,19.37c2-1.76,5.4-5.35,10.31-6.19q5.49-.93,12,4.12L76,2.41A8.54,8.54,0,0,0,64.07,2.49Z"/><path class="cls-3" d="M107.82,95.27a7.6,7.6,0,0,0,10.74,0l19-19a8.44,8.44,0,0,0,0-12L118.39,45.15a7.6,7.6,0,0,0-10.75,10.74l13,13a2,2,0,0,1,0,2.9l-12.8,12.79A7.57,7.57,0,0,0,107.82,95.27Z"/><ellipse class="cls-4" cx="70.36" cy="70.31" rx="16.63" ry="16.61"/></svg>