<svg id="Layer_1" data-name="Layer 1" xmlns="http://www.w3.org/2000/svg" xmlns:xlink="http://www.w3.org/1999/xlink" viewBox="0 0 141.5 139.87"><defs><style>.cls-1{fill:#fff;}.cls-2{fill:#dbeae5;}.cls-3,.cls-4,.cls-5,.cls-8,.cls-9{fill:none;}.cls-3,.cls-4{stroke:#dbeae5;}.cls-4,.cls-5{stroke-width:3px;}.cls-5{stroke:#2b8fbc;}.cls-6{fill:url(#linear-gradient);}.cls-7{fill:#c2cad6;}.cls-8{stroke:#fff;stroke-linecap:round;}.cls-9{stroke:#005481;stroke-miterlimit:10;}.cls-10{fill:#005481;}</style><linearGradient id="linear-gradient" x1="98.96" y1="22.98" x2="98.96" y2="79.98" gradientUnits="userSpaceOnUse"><stop offset="0" stop-color="#005481"/><stop offset="1" stop-color="#6abfeb"/></linearGradient></defs><rect class="cls-1" x="12.79" width="117.81" height="91.63" rx="8.73"/><path class="cls-2" d="M30.24,8.73h0a2.18,2.18,0,0,1,2.18,2.18h0a2.19,2.19,0,0,1-2.18,2.18h0a2.18,2.18,0,0,1-2.18-2.18h0A2.17,2.17,0,0,1,30.24,8.73Z"/><path class="cls-2" d="M39,8.73h0a2.18,2.18,0,0,1,2.18,2.18h0A2.19,2.19,0,0,1,39,13.09h0a2.19,2.19,0,0,1-2.19-2.18h0A2.18,2.18,0,0,1,39,8.73Z"/><path class="cls-2" d="M47.69,8.73h0a2.17,2.17,0,0,1,2.18,2.18h0a2.18,2.18,0,0,1-2.18,2.18h0a2.19,2.19,0,0,1-2.18-2.18h0A2.18,2.18,0,0,1,47.69,8.73Z"/><path class="cls-2" d="M56.42,8.73h52.36A2.18,2.18,0,0,1,111,10.91h0a2.19,2.19,0,0,1-2.18,2.18H56.42a2.18,2.18,0,0,1-2.18-2.18h0A2.17,2.17,0,0,1,56.42,8.73Z"/><path class="cls-3" d="M12.79,20.73h117.8M43.33,33.81h24m-24,4.37h24m-24,6.54H63"/><circle class="cls-4" cx="28.06" cy="39.27" r="8.73"/><path class="cls-5" d="M34.83,44.78a8.73,8.73,0,0,0-6.69-14.24"/><rect class="cls-6" x="76.05" y="26.18" width="45.81" height="45.81" rx="4.36"/><path class="cls-1" d="M113.14,45.81a2.18,2.18,0,0,0-4.36,0V72h4.36Zm-8.73-10.9a2.18,2.18,0,1,0-4.36,0V72h4.36ZM95.69,50.18a2.19,2.19,0,1,0-4.37,0V72h4.37ZM87,58.9a2.18,2.18,0,1,0-4.36,0V72H87Z"/><rect class="cls-2" x="19.33" y="61.08" width="47.99" height="10.91" rx="2.18"/><rect class="cls-7" x="56.42" y="80.72" width="85.08" height="56.72" rx="8.73"/><path class="cls-8" d="M66.24,94.9h41.45m-41.45,6.54H99"/><path class="cls-9" d="M117.5,114l6.55,5.95L135,109.08"/><path class="cls-8" d="M66.24,112.35h41.45M66.24,118.9H99"/><path class="cls-1" d="M132.77,87.26h0A2.19,2.19,0,0,1,135,89.44h0a2.19,2.19,0,0,1-2.19,2.19h0a2.19,2.19,0,0,1-2.18-2.19h0A2.19,2.19,0,0,1,132.77,87.26Z"/><path class="cls-1" d="M39.56,83.83a22.9,22.9,0,1,1-32.39,0,22.89,22.89,0,0,1,32.39,0Z"/><path class="cls-10" d="M23.37,123.39a23.37,23.37,0,1,1,16.85-7.17l4.3,4.3a.45.45,0,0,1,0,.66.47.47,0,0,1-.66,0l-4.3-4.3A23.28,23.28,0,0,1,23.37,123.39Zm0-45.79a22.43,22.43,0,1,0,15.86,38.29h0A22.43,22.43,0,0,0,23.37,77.6Z"/><rect class="cls-10" x="48.76" y="121.06" width="10.91" height="19.63" rx="4.36" transform="translate(-76.66 76.67) rotate(-45)"/></svg>