<svg id="Layer_1" data-name="Layer 1" xmlns="http://www.w3.org/2000/svg" viewBox="0 0 141 67.31"><defs><style>.cls-1{fill:#0acf83;}.cls-2{fill:#a259ff;}.cls-3{fill:#f24e1e;}.cls-4{fill:#ff7262;}.cls-5{fill:#1abcfe;}</style></defs><path class="cls-1" d="M11.23,67.31A11.23,11.23,0,0,0,22.44,56.09V44.88H11.23a11.22,11.22,0,1,0,0,22.43Z"/><path class="cls-2" d="M0,33.65A11.21,11.21,0,0,1,11.21,22.44H22.43V44.88H11.21A11.22,11.22,0,0,1,0,33.66Z"/><path class="cls-3" d="M0,11.21A11.21,11.21,0,0,1,11.21,0H22.43V22.44H11.21A11.22,11.22,0,0,1,0,11.23Z"/><path class="cls-4" d="M22.33,0H33.55a11.22,11.22,0,0,1,0,22.43H22.33Z"/><path class="cls-5" d="M44.88,33.65a11.27,11.27,0,1,0-.12,0Z"/><path d="M57.14,18.59V42.1h3V30.88h7.27V28H60.16V21.53h9.45V18.59Zm17.94,4.78a2,2,0,0,0,2-2,1.89,1.89,0,0,0-2-1.86,2,2,0,0,0-2,2,2,2,0,0,0,.58,1.41,2,2,0,0,0,1.42.59Zm-1.53,3V42.1h2.91V26.33H73.55Zm14.26-.47c-4,0-6.82,3.53-6.82,7.44s2.82,7.41,6.82,7.41a6,6,0,0,0,4.46-1.87v2.1a4.89,4.89,0,0,1-1.36,3.37,4.71,4.71,0,0,1-3.37,1.42,5.06,5.06,0,0,1-2.68-.9l-1.53,2.62a7.77,7.77,0,0,0,12-6.55V26.31h-3v1.41a6,6,0,0,0-4.46-1.87ZM84,33.3a4.14,4.14,0,0,1,6.3-3.88,4.16,4.16,0,0,1,2,3.88A4.15,4.15,0,0,1,86,37.18,4.16,4.16,0,0,1,84,33.3Z"/><path d="M106.21,29a3.3,3.3,0,0,0-3.29,3.28v10h-3V26.44h3v1.33a4.83,4.83,0,0,1,3.91-1.91,5.26,5.26,0,0,1,4.68,2.67,6,6,0,0,1,4.71-2.67c3.45,0,5.59,2.78,5.6,6.22v10h-3v-10a3.28,3.28,0,1,0-6.49,0v10h-2.9v-10a3.3,3.3,0,0,0-3.29-3.28ZM138,28.12a7.35,7.35,0,0,0-5.33-2.25c-4.51,0-7.65,3.82-7.65,8.24s3.17,8.24,7.65,8.24A7.31,7.31,0,0,0,138,40.1v1.79h3V26.12h-3Zm-10,6.12a5,5,0,1,1,10,0,5,5,0,1,1-10,0Z"/></svg>