<svg id="Layer_1" data-name="Layer 1" xmlns="http://www.w3.org/2000/svg" xmlns:xlink="http://www.w3.org/1999/xlink" viewBox="0 0 140 36.16"><defs><style>.cls-1{fill:none;}.cls-2{clip-path:url(#clip-path);}.cls-3{fill:#323232;}.cls-4{fill:#ff3c00;}</style><clipPath id="clip-path"><rect class="cls-1" width="140" height="36.16"/></clipPath></defs><g class="cls-2"><path class="cls-3" d="M36.63,27.42V0h4.25V10.83a6.79,6.79,0,0,1,6-3,6.82,6.82,0,0,1,5.3,2,8,8,0,0,1,1.87,5.65v11.9H49.83V16.11c0-3.12-1.4-4.69-4.18-4.69a4.82,4.82,0,0,0-3.43,1.26,4.7,4.7,0,0,0-1.34,3.55V27.42Z"/><path class="cls-3" d="M74.18,25.05a10,10,0,0,1-17.13-7.21,9.69,9.69,0,0,1,2.85-7.19A10,10,0,0,1,77,17.84,9.77,9.77,0,0,1,74.18,25.05ZM63,22.65a5.5,5.5,0,0,0,8.08,0,7.15,7.15,0,0,0,1.52-4.81,7,7,0,0,0-1.54-4.76,5.47,5.47,0,0,0-8.06,0,7.06,7.06,0,0,0-1.51,4.78A7.15,7.15,0,0,0,63,22.65Z"/><path class="cls-3" d="M86.86,27.89q-5.86,0-5.87-6.3V11.9H78V8.31h3.07l1-5.63h3.19V8.31h7.6V11.9h-7.6v9.57c0,1.76.64,2.64,1.93,2.64s2.3-1.11,3.27-3.31l3.31,1.69Q91.36,27.89,86.86,27.89Z"/><path class="cls-3" d="M95.16,36.16a7,7,0,0,1-4.68-1.58l1.57-3.34a3.27,3.27,0,0,0,2.48,1.34c1.18,0,1.78-.77,1.78-2.29v-22h4.25V30.37c0,2.05-.51,3.52-1.52,4.43A5.57,5.57,0,0,1,95.16,36.16ZM98.43,5.08a2.64,2.64,0,0,1-1.89-.71A2.47,2.47,0,0,1,96,3.55a2.41,2.41,0,0,1-.18-1,2.56,2.56,0,0,1,.18-1,2.55,2.55,0,0,1,.57-.84A2.81,2.81,0,0,1,98.42,0a2.77,2.77,0,0,1,1.88.73,2.4,2.4,0,0,1,.58.83,2.31,2.31,0,0,1,.19,1,2.35,2.35,0,0,1-.19,1,2.23,2.23,0,0,1-.58.81,2.44,2.44,0,0,1-.86.55A2.48,2.48,0,0,1,98.43,5.08Z"/><path class="cls-3" d="M111.12,27.89a8.16,8.16,0,0,1-5.29-1.64,5.57,5.57,0,0,1,.07-8.66,8,8,0,0,1,5.3-1.75,7.82,7.82,0,0,1,5.52,2.08V15.6a4.46,4.46,0,0,0-1-3.17,3.8,3.8,0,0,0-3-1.12q-3.9,0-4.85,4l-3.9-.82a8.59,8.59,0,0,1,3.12-4.85,9.28,9.28,0,0,1,5.79-1.77,8.48,8.48,0,0,1,6,2A7.44,7.44,0,0,1,121,15.64V27.42h-4.14V25A6.7,6.7,0,0,1,111.12,27.89Zm.79-3.15a5.77,5.77,0,0,0,4.81-2.84v-.59A6,6,0,0,0,111.91,19a4.25,4.25,0,0,0-2.68.8,2.58,2.58,0,0,0-.76.91,2.46,2.46,0,0,0-.26,1.16,2.53,2.53,0,0,0,.25,1.18,2.6,2.6,0,0,0,.75.93,4.18,4.18,0,0,0,2.7.81Z"/><path class="cls-3" d="M125.15,27.42V8.31h4.14v3.31A5.5,5.5,0,0,1,134.72,8a5.16,5.16,0,0,1,3.78,1.49,5.43,5.43,0,0,1,1.5,4,9.24,9.24,0,0,1-.51,3l-3.9-.39c.08-.52.13-1.05.16-1.57,0-2-.82-3-2.45-3a3.26,3.26,0,0,0-2.77,1.75,8.49,8.49,0,0,0-1.13,4.63v9.5Z"/><path class="cls-4" d="M10.06,11.23C13.23,9.47,17.58,7.06,17.58,0H12.32c0,3.93-1.91,5-4.81,6.6C4.34,8.4,0,10.81,0,17.83H5.26C5.26,13.91,7.17,12.84,10.06,11.23Z"/><path class="cls-4" d="M19.16,9.62c0,3.93-1.91,5-4.8,6.6C11.19,18,6.84,20.39,6.84,27.42H12.1c0-3.93,1.91-5,4.81-6.6,3.17-1.77,7.51-4.18,7.51-11.2Z"/></g></svg>