<svg id="Layer_1" data-name="Layer 1" xmlns="http://www.w3.org/2000/svg" viewBox="0 0 139 48.88"><defs><style>.cls-1{fill-rule:evenodd;}</style></defs><path class="cls-1" d="M60.35,1.4a4.78,4.78,0,0,0,0,6.78,4.93,4.93,0,0,0,6.89,0,4.76,4.76,0,0,0,0-6.78A4.93,4.93,0,0,0,60.35,1.4ZM98.23,14.07l-4.42.7C85.37,16.68,79.9,19.41,79.9,28.6V47l7.67,1.55V29.75c0-4.29,2.44-6.23,6.24-6.95l4.42-.8Zm-58.39,33,7.68,1.55V27.82c0-10-7.8-13.61-13.2-13.61a12.1,12.1,0,0,0-9.1,3.41,12.47,12.47,0,0,0-8.45-3.48,11.7,11.7,0,0,0-9.1,4.2V14.85L0,16.33V47.11l7.67,1.55V27.5c0-3.36,2.47-5.75,6.18-5.75S20,24.14,20,27.5V47.11l7.67,1.55V27.5c0-3.36,2.46-5.75,6.11-5.75s6.1,2.39,6.1,5.75ZM139,31.48a17.5,17.5,0,1,1-17.46-17.34A17.47,17.47,0,0,1,139,31.48ZM121.54,41.65a10.11,10.11,0,1,1,0-20.22,10.11,10.11,0,1,1,0,20.22Zm-54,7.23L59.9,47.11v-31l7.67-1.55Z"/></svg>