<svg id="Layer_1" data-name="Layer 1" xmlns="http://www.w3.org/2000/svg" xmlns:xlink="http://www.w3.org/1999/xlink" viewBox="0 0 134.46 137.08"><defs><style>.cls-1,.cls-2{fill:#fff;}.cls-1,.cls-7{fill-rule:evenodd;}.cls-3{fill:url(#linear-gradient);}.cls-4,.cls-7{fill:#dbeae5;}.cls-5{mask:url(#mask);}.cls-6{fill:none;stroke:#fff;stroke-width:2px;}.cls-8{fill:url(#linear-gradient-2);}.cls-9{fill:#005481;}</style><linearGradient id="linear-gradient" x1="37.82" y1="18.99" x2="37.82" y2="163.45" gradientUnits="userSpaceOnUse"><stop offset="0" stop-color="#005481"/><stop offset="1" stop-color="#6abfeb"/></linearGradient><mask id="mask" x="3.68" y="37.29" width="68.28" height="68.28" maskUnits="userSpaceOnUse"><g id="d"><path class="cls-1" d="M19.8,47.52l5.9,3a4.21,4.21,0,0,0,5.65-1.86,4,4,0,0,0,.23-.57l2.08-6.29a30.5,30.5,0,0,1,8.32,0l2.08,6.29a4.19,4.19,0,0,0,5.3,2.67,3.23,3.23,0,0,0,.58-.24l5.9-3a29.88,29.88,0,0,1,5.89,5.89l-3,5.9A4.19,4.19,0,0,0,60.62,65a2.87,2.87,0,0,0,.57.24l6.28,2.07a29.8,29.8,0,0,1,0,8.33l-6.28,2.07A4.21,4.21,0,0,0,58.52,83a3.23,3.23,0,0,0,.24.58l3,5.9a29.88,29.88,0,0,1-5.89,5.89l-5.9-3a4.22,4.22,0,0,0-5.65,1.87,4,4,0,0,0-.23.57L42,101.08a30.5,30.5,0,0,1-8.32,0L31.58,94.8a4.19,4.19,0,0,0-5.3-2.67,4.12,4.12,0,0,0-.58.23l-5.9,3a29.88,29.88,0,0,1-5.89-5.89l3-5.9A4.21,4.21,0,0,0,15,77.9a5.72,5.72,0,0,0-.57-.24L8.16,75.59a30.58,30.58,0,0,1,0-8.33l6.29-2.07a4.2,4.2,0,0,0,2.67-5.31,3.46,3.46,0,0,0-.24-.57l-3-5.9a29.88,29.88,0,0,1,5.89-5.89Z"/></g></mask><linearGradient id="linear-gradient-2" x1="90.88" y1="43.06" x2="134.46" y2="43.06" xlink:href="#linear-gradient"/></defs><rect class="cls-2" y="2.62" width="75.64" height="134.47" rx="8.4"/><path class="cls-3" d="M0,32H75.64v84H0Z"/><path class="cls-4" d="M25.21,15.22H44.12a2.1,2.1,0,0,1,2.1,2.11h0a2.1,2.1,0,0,1-2.1,2.1H25.21a2.1,2.1,0,0,1-2.1-2.1h0A2.1,2.1,0,0,1,25.21,15.22Z"/><circle class="cls-4" cx="13.66" cy="17.33" r="5.25"/><g class="cls-5"><path class="cls-2" d="M19.8,47.52l1.89-3.76-2.34-1.17-2.09,1.57Zm5.9,3,1.89-3.75Zm5.88-2.43,4,1.31-4-1.31Zm2.08-6.29-.58-4.16L30.49,38l-.82,2.49,4,1.32Zm8.32,0,4-1.31L45.15,38l-2.59-.36Zm2.08,6.29,4-1.32-4,1.32Zm5.88,2.43-1.89-3.75,1.89,3.75Zm5.9-3,2.53-3.36-2.09-1.57L54,43.76Zm5.89,5.89,3.75,1.89L66.66,53l-1.58-2.09Zm-3,5.9,3.75,1.89Zm2.43,5.88-1.31,4,1.31-4Zm6.28,2.07,4.16-.58-.36-2.59-2.48-.82Zm0,8.33,1.32,4,2.48-.82.36-2.59-4.16-.58Zm-6.28,2.07,1.32,4-1.32-4Zm-2.43,5.89,3.75-1.9Zm3,5.9L65.08,92l1.58-2.09-1.18-2.33Zm-5.89,5.89L54,99.09l2.33,1.18,2.09-1.58Zm-5.9-3L48,96.12ZM44.06,94.8l-4-1.32ZM42,101.08l.58,4.16,2.59-.36L46,102.4Zm-8.32,0-4,1.32.82,2.48,2.6.36.58-4.16ZM31.58,94.8l4-1.32ZM25.7,92.36l1.89,3.76Zm-5.9,3-2.53,3.35,2.08,1.58,2.34-1.18Zm-5.89-5.89-3.75-1.89L9,89.89,10.56,92Zm3-5.9,3.76,1.89Zm-2.43-5.89,1.31-4-1.31,4ZM8.16,75.59,4,76.17l.36,2.59,2.49.82,1.32-4Zm0-8.33-1.31-4-2.49.82L4,66.68Zm6.29-2.07,1.31,4Zm2.43-5.88L13.13,61.2l3.75-1.89Zm-3-5.9-3.36-2.54L9,53l1.17,2.34,3.76-1.9Zm4-2.14,5.9,3,3.78-7.5-5.9-3Zm5.9,3A8.41,8.41,0,0,0,35.1,50.52a9.56,9.56,0,0,0,.47-1.15l-8-2.63-3.78,7.51Zm11.76-4.87,2.08-6.28-8-2.63-2.07,6.28,8,2.63Zm-1.34-3.43a25.38,25.38,0,0,1,3.59-.25v-8.4a35.27,35.27,0,0,0-4.74.32Zm3.59-.25a24.84,24.84,0,0,1,3.58.25l1.16-8.33a32.64,32.64,0,0,0-4.74-.32Zm.17-2.6,2.07,6.28,8-2.63L46,40.46Zm2.07,6.28a8.41,8.41,0,0,0,10.62,5.35,8.22,8.22,0,0,0,1.15-.48L48,46.74Zm11.77,4.87,5.9-3L54,43.76l-5.9,3,3.78,7.5Zm1.48-3.37a26.18,26.18,0,0,1,5.07,5.07l6.7-5.07a34.4,34.4,0,0,0-6.71-6.71Zm4.67.65-3,5.9,7.51,3.78,3-5.9Zm-3,5.9a8.42,8.42,0,0,0,3.73,11.29,8.94,8.94,0,0,0,1.15.47l2.63-8Zm4.88,11.76,6.27,2.07,2.64-8L62.51,61.2Zm3.43-1.34a26.5,26.5,0,0,1,.25,3.59H72a33.94,33.94,0,0,0-.33-4.75Zm.25,3.59A26.35,26.35,0,0,1,63.31,75l8.32,1.16A33.8,33.8,0,0,0,72,71.43Zm2.59.17-6.27,2.07,2.63,8,6.28-2.07Zm-6.27,2.07a8.41,8.41,0,0,0-5.35,10.62A9.42,9.42,0,0,0,55,85.43l7.51-3.78ZM55,85.43l3,5.91,7.5-3.78-3-5.91Zm3.38,1.49A26.13,26.13,0,0,1,53.31,92l5.06,6.71A33.86,33.86,0,0,0,65.08,92Zm-.65,4.66-5.9-3L48,96.12l5.91,3Zm-5.9-3a8.4,8.4,0,0,0-11.29,3.73,8.1,8.1,0,0,0-.48,1.14l8,2.64,3.78-7.51ZM40.06,93.48,38,99.76l8,2.64,2.08-6.28Zm1.35,3.44a26.62,26.62,0,0,1-3.59.24v8.41a33.69,33.69,0,0,0,4.74-.33Zm-3.59.24a26.51,26.51,0,0,1-3.59-.24l-1.15,8.32a33.69,33.69,0,0,0,4.74.33Zm-.17,2.6-2.08-6.28-8,2.64,2.07,6.28Zm-2.08-6.28A8.39,8.39,0,0,0,25,88.14a7.7,7.7,0,0,0-1.15.47l3.78,7.51ZM23.81,88.61l-5.9,3,3.78,7.5,5.9-3ZM22.33,92a25.86,25.86,0,0,1-5.07-5.06L10.56,92a33.86,33.86,0,0,0,6.71,6.71L22.33,92Zm-4.67-.64,3-5.9-7.51-3.79-3,5.91Zm3-5.9a8.4,8.4,0,0,0-3.73-11.29,7.75,7.75,0,0,0-1.15-.48l-2.63,8,7.51,3.79ZM15.76,73.67,9.48,71.6l-2.63,8,6.28,2.07,2.63-8ZM12.33,75a25.24,25.24,0,0,1-.25-3.58H3.68A35.38,35.38,0,0,0,4,76.17Zm-.25-3.58a26.5,26.5,0,0,1,.25-3.59L4,66.69a35.72,35.72,0,0,0-.32,4.74Zm-2.6-.18,6.28-2.07-2.63-8L6.85,63.27Zm6.28-2.07a8.4,8.4,0,0,0,5.35-10.61,8.94,8.94,0,0,0-.47-1.15L13.13,61.2Zm4.88-11.76-3-5.9L10.15,55.3l3,5.9Zm-3.38-1.48a25.91,25.91,0,0,1,5.07-5.07l-5.06-6.71a34.73,34.73,0,0,0-6.72,6.71Z"/></g><circle class="cls-6" cx="37.82" cy="71.43" r="12.08"/><path class="cls-7" d="M84.25,24a4.21,4.21,0,0,1,8,0l.2.61a4.2,4.2,0,0,0,5.3,2.68,5.89,5.89,0,0,0,.58-.24l.58-.29a4.2,4.2,0,0,1,5.64,5.64l-.29.58a4.19,4.19,0,0,0,1.86,5.64,3.14,3.14,0,0,0,.57.24l.62.2a4.2,4.2,0,0,1,0,8l-.62.21a4.19,4.19,0,0,0-2.67,5.3,3.23,3.23,0,0,0,.24.58l.29.58a4.2,4.2,0,0,1-5.64,5.64l-.58-.29a4.2,4.2,0,0,0-5.65,1.86,4,4,0,0,0-.23.57l-.21.62a4.2,4.2,0,0,1-8,0l-.2-.62a4.2,4.2,0,0,0-5.31-2.67,3.14,3.14,0,0,0-.57.24l-.58.29A4.2,4.2,0,0,1,72,53.72l.29-.58a4.22,4.22,0,0,0-1.86-5.65,5.89,5.89,0,0,0-.58-.24l-.61-.2a4.2,4.2,0,0,1,0-8l.61-.2a4.21,4.21,0,0,0,2.68-5.31,5.72,5.72,0,0,0-.24-.57L72,32.41a4.2,4.2,0,0,1,5.64-5.64l.58.29a4.2,4.2,0,0,0,5.64-1.86,3.23,3.23,0,0,0,.24-.58l.2-.61Zm4,30.73A11.68,11.68,0,1,0,76.56,43.07,11.67,11.67,0,0,0,88.24,54.74Z"/><path class="cls-8" d="M91.4,86.13a.52.52,0,0,1-.52-.52.52.52,0,0,1,.52-.52c.67,0,1.36,0,2,0a.52.52,0,1,1,0,1C92.79,86.11,92.09,86.13,91.4,86.13Zm4.12-.2a.52.52,0,0,1,0-1c.68-.07,1.36-.15,2-.25a.51.51,0,0,1,.58.44.52.52,0,0,1-.43.59c-.69.1-1.39.18-2.08.25Zm4.09-.6a.51.51,0,0,1-.1-1c.66-.13,1.33-.28,2-.44a.52.52,0,0,1,.63.38.51.51,0,0,1-.38.62c-.67.17-1.36.32-2,.45Zm4-1a.51.51,0,0,1-.15-1c.65-.19,1.3-.4,1.94-.63a.52.52,0,0,1,.35,1c-.66.24-1.33.45-2,.65A.39.39,0,0,1,103.62,84.34Zm3.9-1.38a.51.51,0,0,1-.48-.32.52.52,0,0,1,.28-.67c.63-.26,1.26-.53,1.87-.82a.52.52,0,0,1,.69.25.51.51,0,0,1-.25.68c-.63.3-1.28.58-1.92.85A.63.63,0,0,1,107.52,83Zm3.75-1.75a.52.52,0,0,1-.25-1c.6-.32,1.2-.66,1.79-1a.5.5,0,0,1,.7.18.51.51,0,0,1-.18.71c-.6.35-1.21.7-1.82,1A.53.53,0,0,1,111.27,81.21Zm3.55-2.11a.52.52,0,0,1-.28-.95c.56-.37,1.13-.76,1.67-1.16a.52.52,0,1,1,.61.83c-.56.41-1.14.81-1.71,1.19A.52.52,0,0,1,114.82,79.1Zm3.34-2.44a.53.53,0,0,1-.4-.19.52.52,0,0,1,.07-.73q.8-.64,1.56-1.32a.51.51,0,0,1,.73,0,.52.52,0,0,1,0,.73c-.52.46-1.06.91-1.6,1.35A.49.49,0,0,1,118.16,76.66Zm3.08-2.76a.51.51,0,0,1-.36-.88c.48-.47,1-1,1.42-1.47a.51.51,0,1,1,.75.7c-.47.52-1,1-1.45,1.51A.54.54,0,0,1,121.24,73.9Zm2.8-3a.5.5,0,0,1-.33-.12.52.52,0,0,1-.07-.73c.44-.52.87-1.06,1.27-1.6a.52.52,0,1,1,.83.63c-.42.55-.86,1.1-1.3,1.63A.51.51,0,0,1,124,70.87Zm2.49-3.29a.52.52,0,0,1-.29-.09.51.51,0,0,1-.13-.72c.38-.56.75-1.14,1.11-1.71a.52.52,0,0,1,.88.54c-.37.59-.75,1.18-1.14,1.75A.51.51,0,0,1,126.53,67.58Zm2.16-3.52a.5.5,0,0,1-.24-.06.52.52,0,0,1-.21-.7c.33-.59.64-1.2.94-1.81a.52.52,0,1,1,.93.45q-.47.95-1,1.86A.52.52,0,0,1,128.69,64.06Zm1.81-3.7a.51.51,0,0,1-.2,0,.53.53,0,0,1-.27-.68c.27-.62.52-1.26.76-1.89a.52.52,0,0,1,1,.36c-.25.65-.51,1.3-.78,1.94A.53.53,0,0,1,130.5,60.36ZM132,56.49a.41.41,0,0,1-.16,0,.53.53,0,0,1-.34-.65c.21-.64.4-1.3.57-2a.53.53,0,0,1,.64-.37.52.52,0,0,1,.36.64c-.17.67-.37,1.34-.58,2A.51.51,0,0,1,132,56.49Zm1.06-4h-.11a.51.51,0,0,1-.4-.61c.14-.67.27-1.34.38-2a.52.52,0,0,1,.59-.43.53.53,0,0,1,.43.6c-.11.68-.24,1.37-.39,2.05A.52.52,0,0,1,133,52.5Zm.66-4.08h-.06a.51.51,0,0,1-.45-.57c.07-.67.13-1.36.18-2a.52.52,0,1,1,1,.06c-.05.7-.11,1.4-.19,2.08A.51.51,0,0,1,133.67,48.42Zm.27-4.12h0a.51.51,0,0,1-.51-.52v-.72c0-.44,0-.88,0-1.33a.52.52,0,0,1,1,0c0,.45,0,.91,0,1.36,0,.25,0,.49,0,.73A.51.51,0,0,1,133.94,44.3Zm-.13-4.13a.51.51,0,0,1-.52-.47c0-.68-.12-1.36-.21-2a.52.52,0,0,1,1-.14c.08.69.16,1.39.21,2.08a.52.52,0,0,1-.47.56Zm-.53-4.1a.52.52,0,0,1-.51-.42c-.12-.67-.25-1.34-.4-2a.51.51,0,0,1,.39-.62.5.5,0,0,1,.61.39c.16.67.3,1.36.42,2a.52.52,0,0,1-.42.6Zm-.92-4a.52.52,0,0,1-.5-.38c-.18-.65-.38-1.31-.6-2a.52.52,0,0,1,.33-.65.51.51,0,0,1,.65.32c.22.66.43,1.34.62,2a.53.53,0,0,1-.36.64Zm-1.31-3.92a.52.52,0,0,1-.48-.33c-.25-.64-.52-1.27-.79-1.89a.51.51,0,0,1,.94-.42c.28.63.56,1.28.81,1.93a.52.52,0,0,1-.29.67A.46.46,0,0,1,131.05,28.13Zm-1.69-3.78a.51.51,0,0,1-.46-.28c-.31-.61-.64-1.22-1-1.8a.52.52,0,1,1,.89-.52c.35.61.68,1.23,1,1.85a.51.51,0,0,1-.23.69A.46.46,0,0,1,129.36,24.35Zm-2.05-3.59a.54.54,0,0,1-.44-.24c-.36-.57-.74-1.14-1.14-1.7a.52.52,0,0,1,.13-.72.52.52,0,0,1,.72.12c.4.57.79,1.16,1.16,1.74a.52.52,0,0,1-.15.72A.6.6,0,0,1,127.31,20.76Zm-2.39-3.38a.54.54,0,0,1-.41-.2c-.41-.53-.85-1.06-1.29-1.57a.52.52,0,0,1,.78-.68c.45.53.9,1.07,1.33,1.62a.52.52,0,0,1-.09.72A.5.5,0,0,1,124.92,17.38Zm-2.7-3.13a.49.49,0,0,1-.37-.16c-.47-.48-.95-1-1.45-1.44a.52.52,0,0,1,0-.73.51.51,0,0,1,.73,0c.5.48,1,1,1.47,1.48a.52.52,0,0,1,0,.73A.5.5,0,0,1,122.22,14.25Zm-3-2.85a.54.54,0,0,1-.34-.12c-.51-.45-1-.88-1.57-1.3a.52.52,0,1,1,.64-.81c.54.42,1.09.87,1.61,1.32a.51.51,0,0,1,.05.73A.5.5,0,0,1,119.23,11.4ZM116,8.85a.55.55,0,0,1-.3-.09c-.55-.39-1.12-.78-1.69-1.14a.52.52,0,0,1,.56-.87c.58.37,1.16.76,1.73,1.17a.51.51,0,0,1-.3.93ZM112.5,6.63a.47.47,0,0,1-.25-.07c-.59-.33-1.19-.66-1.79-1a.51.51,0,0,1-.23-.69.52.52,0,0,1,.7-.23c.61.32,1.23.65,1.83,1a.51.51,0,0,1-.26,1Zm-3.67-1.87a.54.54,0,0,1-.21,0c-.62-.28-1.25-.54-1.88-.79a.52.52,0,1,1,.38-1c.64.25,1.29.53,1.92.81a.51.51,0,0,1,.26.68A.5.5,0,0,1,108.83,4.76ZM105,3.25a.45.45,0,0,1-.16,0c-.64-.21-1.3-.41-2-.6a.51.51,0,1,1,.28-1c.67.19,1.34.39,2,.62a.51.51,0,0,1,.32.65A.5.5,0,0,1,105,3.25Zm-4-1.12-.12,0c-.66-.15-1.33-.29-2-.41a.52.52,0,0,1-.42-.6.53.53,0,0,1,.6-.42c.69.13,1.38.27,2,.43a.52.52,0,0,1,.39.62A.53.53,0,0,1,101,2.13ZM97,1.39h-.07c-.67-.09-1.35-.16-2-.22a.52.52,0,0,1,.09-1c.69.06,1.39.13,2.08.22a.52.52,0,0,1,.44.58A.51.51,0,0,1,97,1.39Zm-4.12-.33h0c-.48,0-.95,0-1.43,0a.52.52,0,0,1,0-1h0l1.45,0a.52.52,0,0,1,0,1Z"/><rect class="cls-9" x="123.96" y="99.27" width="6.3" height="37.82" rx="2.1"/><rect class="cls-9" x="113.46" y="86.66" width="6.3" height="50.42" rx="2.1"/><rect class="cls-9" x="102.95" y="107.67" width="6.3" height="29.41" rx="2.1"/><rect class="cls-9" x="92.45" y="116.07" width="6.3" height="21.01" rx="2.1"/></svg>