<svg id="Layer_1" data-name="Layer 1" xmlns="http://www.w3.org/2000/svg" xmlns:xlink="http://www.w3.org/1999/xlink" viewBox="0 0 140.8 130.56"><defs><style>.cls-1,.cls-5{fill:#fff;}.cls-2{fill:#dbeae5;}.cls-3{fill:url(#linear-gradient);}.cls-4{fill:#005481;}.cls-5{stroke:#2b8fbc;stroke-width:1.6px;}.cls-6{fill:url(#linear-gradient-2);}.cls-7{fill:url(#linear-gradient-3);}</style><linearGradient id="linear-gradient" x1="62.28" y1="48.14" x2="66.51" y2="157.02" gradientUnits="userSpaceOnUse"><stop offset="0" stop-color="#005481"/><stop offset="1" stop-color="#6abfeb"/></linearGradient><linearGradient id="linear-gradient-2" x1="150.24" y1="-12.33" x2="111.12" y2="26.79" xlink:href="#linear-gradient"/><linearGradient id="linear-gradient-3" x1="86.51" y1="35.71" x2="105.32" y2="35.71" xlink:href="#linear-gradient"/></defs><circle class="cls-1" cx="57.61" cy="30.5" r="29.31"/><circle class="cls-1" cx="89.96" cy="38.58" r="29.31"/><circle class="cls-1" cx="29.31" cy="58.8" r="29.31"/><rect class="cls-2" x="8.09" y="47.68" width="111.18" height="72.78" rx="2.02"/><path class="cls-2" d="M0,121.26a.8.8,0,0,1,.81-.8H128.57a.81.81,0,0,1,.81.8v3.24a6.06,6.06,0,0,1-6.07,6.06H6.06A6.06,6.06,0,0,1,0,124.5Z"/><path class="cls-1" d="M52.56,120.93a.47.47,0,0,1,.48-.47H78.36a.47.47,0,0,1,.48.47,3.57,3.57,0,0,1-3.57,3.57H56.13A3.57,3.57,0,0,1,52.56,120.93Z"/><rect class="cls-3" x="12.13" y="53.74" width="103.1" height="60.65" rx="2.02"/><path class="cls-1" d="M44.47,100.24c-8.89-21,14.49-41.1,27.29-48.52,1,2,2,3,0,5.06-3,3-24.25,26.28-12.12,43.46,4-9.1,13.14-8.09,16.17,0,5-7.08,23.25,1,16.17,16.17H14.15c1.62-9.7,11.79-12.13,16.17-9.09C28.3,102.26,35.38,93.16,44.47,100.24Z"/><path class="cls-4" d="M65.38,28.07c9.17-4.14,25.27-6.63,30.33-5.74L72.89,38.22a54.23,54.23,0,0,1-8.49-7A2,2,0,0,1,65.38,28.07ZM96.25,67.42c6.21-7.92,12.46-23,12.8-28.09L88.18,57.71a54.91,54.91,0,0,0,4.73,9.91A2.06,2.06,0,0,0,96.25,67.42Z"/><path class="cls-5" d="M139.74,1.77c3.37,5.42-27.11,41.67-49.31,59.72a2.64,2.64,0,0,1-3.3.23c-2.75-2.21-8.49-7-10.95-10.09s-5.71-9.84-7.19-13a2.66,2.66,0,0,1,1-3.16C97.27,14.58,136.36-3.67,139.74,1.77Z"/><path class="cls-6" d="M139.74,1.77c-1.44-2.32-9.41-.32-20.2,4.36a49.32,49.32,0,0,0,4.47,8,40.17,40.17,0,0,0,6.29,5.73c6.75-8.86,10.79-15.92,9.44-18.08Z"/><circle class="cls-7" cx="95.91" cy="35.71" r="9.41"/></svg>