<svg id="Layer_1" data-name="Layer 1" xmlns="http://www.w3.org/2000/svg" xmlns:xlink="http://www.w3.org/1999/xlink" viewBox="0 0 141 28.77"><defs><style>.cls-1,.cls-2{fill-rule:evenodd;}.cls-1{fill:url(#linear-gradient);}.cls-2{fill:#24292e;}</style><linearGradient id="linear-gradient" x1="-1.33" y1="394.34" x2="46.61" y2="314.43" gradientTransform="matrix(1, 0, 0, -1, 1.33, 368.77)" gradientUnits="userSpaceOnUse"><stop offset="0" stop-color="#2383ae"/><stop offset="1" stop-color="#6dd7b9"/></linearGradient></defs><path class="cls-1" d="M12,9.59Q14.38,0,24,0c9.6,0,10.79,7.19,15.59,8.39Q44.35,9.59,48,4.8q-2.4,9.58-12,9.59c-9.59,0-10.79-7.19-15.58-8.4-3.2-.79-6,.4-8.39,3.6ZM0,24q2.4-9.6,12-9.59c9.59,0,10.79,7.19,15.58,8.39q4.8,1.2,8.39-3.6-2.4,9.6-12,9.59c-9.59,0-10.78-7.19-15.58-8.39Q3.59,19.18,0,24Z"/><path class="cls-2" d="M56.67,11.06H53.54V9.18H62v1.88H58.87v8.53h-2.2Zm9.43,7.57a4,4,0,0,1-1,.83,3,3,0,0,1-1.46.32,3.6,3.6,0,0,1-1-.13,2.42,2.42,0,0,1-.8-.41,2,2,0,0,1-.55-.71,2.49,2.49,0,0,1-.2-1,2.13,2.13,0,0,1,.35-1.28,2.3,2.3,0,0,1,.92-.77,4.5,4.5,0,0,1,1.27-.4,14,14,0,0,1,1.44-.14l1-.05v-.37a1.06,1.06,0,0,0-.39-1,1.55,1.55,0,0,0-.91-.27c-.81,0-1.27.31-1.38.92L61.52,14a2.43,2.43,0,0,1,1-1.73,4.18,4.18,0,0,1,2.28-.53,4.65,4.65,0,0,1,1.49.21,2.33,2.33,0,0,1,1,.6,2.24,2.24,0,0,1,.54,1A4.09,4.09,0,0,1,68,14.78v4.81H66.1v-1Zm0-2.44-.91,0a4.4,4.4,0,0,0-1,.13,1.87,1.87,0,0,0-.61.25.73.73,0,0,0-.28.36,1.33,1.33,0,0,0-.07.45.71.71,0,0,0,.26.6,1.1,1.1,0,0,0,.72.22,2.08,2.08,0,0,0,1.29-.37,1.58,1.58,0,0,0,.45-.51,1.55,1.55,0,0,0,.17-.78v-.4ZM69.69,12h2v7.61h-2Zm0-2.8h2.1V11h-2.1Zm3.82,0h2V19.59h-2Zm3,2.8h2.22l1.06,5,1.46-5H83l1.37,5,1.07-5h2.13l-2.22,7.6h-2l-1.36-5-1.37,5H78.66L76.44,12Zm12,0h2.05v7.61H88.46Zm0-2.8h2.1V11h-2.1ZM92.24,12h2v1a2.76,2.76,0,0,1,1.07-1,2.91,2.91,0,0,1,1.29-.3,2.5,2.5,0,0,1,1.92.67,3.09,3.09,0,0,1,.63,2.14v5h-2V14.84a1.48,1.48,0,0,0-.31-1.1,1.14,1.14,0,0,0-.82-.29,1.91,1.91,0,0,0-.67.12,1.82,1.82,0,0,0-.54.34,1.72,1.72,0,0,0-.34.48,1.51,1.51,0,0,0-.14.62v4.58H92.22V12Zm13.83,6.6a2.71,2.71,0,0,1-2.36,1.24,2.79,2.79,0,0,1-2.4-1.08,4.93,4.93,0,0,1-.78-3,5.62,5.62,0,0,1,.22-1.63,3.91,3.91,0,0,1,.65-1.27,2.87,2.87,0,0,1,1-.82,3.25,3.25,0,0,1,1.38-.29A3.18,3.18,0,0,1,105,12a2.62,2.62,0,0,1,1.06.78V9.19h2v10.4h-2v-1Zm0-2.88a3.73,3.73,0,0,0-.14-1.17,1.81,1.81,0,0,0-.4-.71,1.41,1.41,0,0,0-.58-.35,2.56,2.56,0,0,0-.62-.07,1.4,1.4,0,0,0-.63.13,1.43,1.43,0,0,0-.53.4,2,2,0,0,0-.35.73,3.8,3.8,0,0,0-.13,1.08,4.06,4.06,0,0,0,.13,1.14,2.38,2.38,0,0,0,.35.75,1.26,1.26,0,0,0,.51.41,1.6,1.6,0,0,0,.62.13,1.72,1.72,0,0,0,1.2-.42,1.79,1.79,0,0,0,.43-.71A3.47,3.47,0,0,0,106,16v-.26ZM122,16a5.19,5.19,0,0,1-.38,1.54,3.89,3.89,0,0,1-.87,1.22,3.82,3.82,0,0,1-1.34.81,5.42,5.42,0,0,1-1.84.29,5,5,0,0,1-2.08-.4,4,4,0,0,1-1.51-1.1,5,5,0,0,1-.91-1.73,7.87,7.87,0,0,1-.31-2.24,7,7,0,0,1,.34-2.27,5,5,0,0,1,1-1.72,4.13,4.13,0,0,1,1.52-1.09,5,5,0,0,1,2-.38,5.6,5.6,0,0,1,1.73.24,3.52,3.52,0,0,1,1.24.72,3.7,3.7,0,0,1,.81,1.12,6.25,6.25,0,0,1,.45,1.47l-2.16.28a3,3,0,0,0-.62-1.44,1.82,1.82,0,0,0-1.45-.53,2.16,2.16,0,0,0-1.91.94,4.67,4.67,0,0,0-.65,2.66,4.34,4.34,0,0,0,.7,2.67,2.2,2.2,0,0,0,1.86.93,1.9,1.9,0,0,0,1.48-.52,2.62,2.62,0,0,0,.59-1.48Zm3.18.2a1.88,1.88,0,0,0,.62,1.4,2.47,2.47,0,0,0,1.61.44,2.68,2.68,0,0,0,.86-.11,1.52,1.52,0,0,0,.57-.29,1.06,1.06,0,0,0,.32-.43,1.61,1.61,0,0,0,.09-.54,1.16,1.16,0,0,0-.3-.76,2,2,0,0,0-1.13-.52l-1.36-.25a6.66,6.66,0,0,1-1.41-.38,3,3,0,0,1-1-.6,2.46,2.46,0,0,1-.64-.91,3.53,3.53,0,0,1-.22-1.28,2.8,2.8,0,0,1,.3-1.31,2.72,2.72,0,0,1,.83-1,4.06,4.06,0,0,1,1.28-.58,6.42,6.42,0,0,1,1.64-.19,5.71,5.71,0,0,1,1.89.26,3.3,3.3,0,0,1,1.23.69,2.73,2.73,0,0,1,.69,1,4.76,4.76,0,0,1,.3,1.18l-2,.26a2.08,2.08,0,0,0-.62-1.24,2.19,2.19,0,0,0-1.4-.38,3.32,3.32,0,0,0-.91.1,1.68,1.68,0,0,0-.57.24.89.89,0,0,0-.31.36,1.06,1.06,0,0,0-.09.42,1.12,1.12,0,0,0,.33.88,2.53,2.53,0,0,0,1.12.45l1.43.28a5,5,0,0,1,2.48,1.08,2.86,2.86,0,0,1,.79,2.17,3.12,3.12,0,0,1-.26,1.26,2.67,2.67,0,0,1-.76,1,3.59,3.59,0,0,1-1.26.68,5.9,5.9,0,0,1-1.78.24,5.06,5.06,0,0,1-3.26-.92A3.59,3.59,0,0,1,123,16.2h2.22Zm9.47,0a1.85,1.85,0,0,0,.62,1.4,2.47,2.47,0,0,0,1.61.44,2.68,2.68,0,0,0,.86-.11,1.52,1.52,0,0,0,.57-.29,1.06,1.06,0,0,0,.32-.43,1.61,1.61,0,0,0,.09-.54,1.1,1.1,0,0,0-.31-.76,1.92,1.92,0,0,0-1.12-.52l-1.36-.25a6.93,6.93,0,0,1-1.42-.38,3.09,3.09,0,0,1-1-.6,2.46,2.46,0,0,1-.64-.91,3.33,3.33,0,0,1-.22-1.28,2.68,2.68,0,0,1,.3-1.31,3,3,0,0,1,.83-1A3.75,3.75,0,0,1,135,9.11a6.38,6.38,0,0,1,1.63-.2,6.05,6.05,0,0,1,1.9.26,3.55,3.55,0,0,1,1.23.7,2.61,2.61,0,0,1,.69,1,5,5,0,0,1,.3,1.18l-2.06.27a2,2,0,0,0-.61-1.24,2.19,2.19,0,0,0-1.4-.38,3.82,3.82,0,0,0-.91.09,2.1,2.1,0,0,0-.58.25.81.81,0,0,0-.3.36,1,1,0,0,0-.09.42,1.09,1.09,0,0,0,.33.87,2.41,2.41,0,0,0,1.12.46l1.44.29a4.9,4.9,0,0,1,2.48,1.08,2.84,2.84,0,0,1,.79,2.16,3,3,0,0,1-.26,1.26,2.7,2.7,0,0,1-.76,1,3.43,3.43,0,0,1-1.26.67,5.94,5.94,0,0,1-1.78.24,5.06,5.06,0,0,1-3.26-.91,3.52,3.52,0,0,1-1.22-2.75Z"/></svg>