<?xml version="1.0" encoding="utf-8"?>
<!-- Generator: Adobe Illustrator 26.2.1, SVG Export Plug-In . SVG Version: 6.00 Build 0)  -->
<svg version="1.1" id="Layer_1" xmlns="http://www.w3.org/2000/svg" xmlns:xlink="http://www.w3.org/1999/xlink" x="0px" y="0px"
	 viewBox="0 0 137.5 139.9" style="enable-background:new 0 0 137.5 139.9;" xml:space="preserve">
<style type="text/css">
	.st0{clip-path:url(#SVGID_00000166650772688170764010000010003173298309680050_);}
	.st1{fill:none;}
	.st2{fill:url(#SVGID_00000087376808885240095740000004533377900192734620_);}
	.st3{fill:url(#SVGID_00000102541609642613390310000016468152770669356450_);}
	.st4{fill:#FFFFFF;}
	.st5{fill:url(#SVGID_00000139258126643973257690000012143269112264763779_);}
	.st6{fill:#DBEAE5;}
	.st7{fill:url(#SVGID_00000172423805790783578190000017506603403278706104_);}
	.st8{clip-path:url(#SVGID_00000106128402578850945710000008356427759558781312_);}
	.st9{fill:url(#SVGID_00000073717005082767995260000003535100084894985649_);}
	.st10{fill:url(#SVGID_00000060012511569753398760000003601398296055216004_);}
	.st11{fill:#005481;}
	.st12{fill:none;stroke:#FFFFFF;stroke-width:2;stroke-linecap:round;}
</style>
<g>
	<defs>
		<rect id="SVGID_1_" width="148.5" height="139.9"/>
	</defs>
	<clipPath id="SVGID_00000109026528583921336920000000865549962758117506_">
		<use xlink:href="#SVGID_1_"  style="overflow:visible;"/>
	</clipPath>
	<g style="clip-path:url(#SVGID_00000109026528583921336920000000865549962758117506_);">
		<rect x="-2.4" y="-2.8" class="st1" width="146" height="146"/>
		
			<linearGradient id="SVGID_00000023991596824412184810000015050390829229579138_" gradientUnits="userSpaceOnUse" x1="30.045" y1="148.82" x2="30.045" y2="180.32" gradientTransform="matrix(1 0 0 1 0 -148.65)">
			<stop  offset="0" style="stop-color:#C6E6DC;stop-opacity:0"/>
			<stop  offset="1" style="stop-color:#DCEEE8"/>
		</linearGradient>
		<path style="fill:url(#SVGID_00000023991596824412184810000015050390829229579138_);" d="M11.8-69.7h36.5c4.5,0,8.1,3.6,8.1,8.1
			v85.2c0,4.5-3.6,8.1-8.1,8.1H11.8c-4.5,0-8.1-3.6-8.1-8.1v-85.2C3.7-66.1,7.3-69.7,11.8-69.7z"/>
		
			<linearGradient id="SVGID_00000145033158546633277480000012253674508265908617_" gradientUnits="userSpaceOnUse" x1="68.19" y1="-908.6" x2="68.19" y2="-874.1899" gradientTransform="matrix(1 0 0 -1 44 -767.48)">
			<stop  offset="0" style="stop-color:#C6E6DC;stop-opacity:0"/>
			<stop  offset="1" style="stop-color:#DCEEE8"/>
		</linearGradient>
		<path style="fill:url(#SVGID_00000145033158546633277480000012253674508265908617_);" d="M94.9,106.7h34.5c4.5,0,8.1,3.6,8.1,8.1
			v77.1c0,4.5-3.6,8.1-8.1,8.1H94.9c-4.5,0-8.1-3.6-8.1-8.1v-77.1C86.8,110.3,90.5,106.7,94.9,106.7z"/>
		<path class="st4" d="M94.9,3.3h34.5c4.5,0,8.1,3.6,8.1,8.1v81.1c0,4.5-3.6,8.1-8.1,8.1H94.9c-4.5,0-8.1-3.6-8.1-8.1V11.4
			C86.8,6.9,90.5,3.3,94.9,3.3z"/>
		
			<linearGradient id="SVGID_00000026881035680154218200000000987736097493305021_" gradientUnits="userSpaceOnUse" x1="86.37" y1="42.035" x2="176.64" y2="42.035" gradientTransform="matrix(1 0 0 -1 0 132.52)">
			<stop  offset="0" style="stop-color:#005481"/>
			<stop  offset="1" style="stop-color:#6ABFEB"/>
		</linearGradient>
		<path style="fill:url(#SVGID_00000026881035680154218200000000987736097493305021_);" d="M97,84.4h30.4c3.4,0,6.1,2.7,6.1,6.1l0,0
			l0,0c0,3.4-2.7,6.1-6.1,6.1H97c-3.4,0-6.1-2.7-6.1-6.1l0,0l0,0C90.9,87.1,93.6,84.4,97,84.4z"/>
		<path class="st6" d="M109.2,43.8h18.2c1.1,0,2,0.9,2,2l0,0c0,1.1-0.9,2-2,2h-18.2c-1.1,0-2-0.9-2-2l0,0
			C107.2,44.7,108,43.8,109.2,43.8z"/>
		<circle class="st6" cx="97" cy="45.9" r="6.1"/>
		<path class="st6" d="M100,58h10.1c0.6,0,1,0.4,1,1l0,0c0,0.6-0.4,1-1,1H100c-0.6,0-1-0.4-1-1l0,0C99,58.5,99.5,58,100,58z"/>
		<path class="st6" d="M100,66.1h10.1c0.6,0,1,0.4,1,1l0,0c0,0.6-0.4,1-1,1H100c-0.6,0-1-0.4-1-1l0,0C99,66.6,99.5,66.1,100,66.1z"
			/>
		<path class="st6" d="M100,74.3h10.1c0.6,0,1,0.4,1,1l0,0c0,0.6-0.4,1-1,1H100c-0.6,0-1-0.4-1-1l0,0C99,74.7,99.5,74.3,100,74.3z"
			/>
		
			<linearGradient id="SVGID_00000003086154514429040490000016600603000589787059_" gradientUnits="userSpaceOnUse" x1="112.19" y1="135.68" x2="112.19" y2="89.75" gradientTransform="matrix(1 0 0 -1 0 132.52)">
			<stop  offset="0" style="stop-color:#005481"/>
			<stop  offset="1" style="stop-color:#6ABFEB"/>
		</linearGradient>
		<path style="fill:url(#SVGID_00000003086154514429040490000016600603000589787059_);" d="M86.8,11.4c0-4.5,3.6-8.1,8.1-8.1
			c0,0,0,0,0,0h34.5c4.5,0,8.1,3.6,8.1,8.1l0,0v24.3H86.8V11.4z"/>
		<path class="st6" d="M93.9,56L93.9,56c1.7,0,3,1.3,3,3l0,0c0,1.7-1.3,3-3,3l0,0c-1.7,0-3-1.3-3-3l0,0C91,57.4,92.3,56,93.9,56z"/>
		<path class="st6" d="M93.9,64.1L93.9,64.1c1.7,0,3,1.3,3,3l0,0c0,1.7-1.3,3-3,3l0,0c-1.7,0-3-1.3-3-3l0,0
			C90.9,65.5,92.3,64.1,93.9,64.1z"/>
		<path class="st6" d="M93.9,72.3L93.9,72.3c1.7,0,3,1.3,3,3l0,0c0,1.7-1.3,3-3,3l0,0c-1.7,0-3-1.3-3-3l0,0
			C90.9,73.6,92.3,72.3,93.9,72.3z"/>
		<g>
			<defs>
				<rect id="SVGID_00000124878178504930832530000009020330900179989427_" x="102" y="9.7" width="19.4" height="19.4"/>
			</defs>
			<clipPath id="SVGID_00000056408519048148983720000005121351325013936773_">
				<use xlink:href="#SVGID_00000124878178504930832530000009020330900179989427_"  style="overflow:visible;"/>
			</clipPath>
			<g style="clip-path:url(#SVGID_00000056408519048148983720000005121351325013936773_);">
				<path class="st4" d="M107.8,25.3c-1.1,0-1.9,0.9-1.9,1.9c0,1.1,0.9,1.9,1.9,1.9c1.1,0,1.9-0.9,1.9-1.9
					C109.7,26.1,108.9,25.3,107.8,25.3z M102,9.8v1.9h1.9l3.5,7.4l-1.3,2.3c-0.1,0.3-0.2,0.7-0.2,1c0,1,0.9,1.9,1.9,1.9h11.6v-1.9
					h-11.2c-0.1,0-0.2-0.1-0.2-0.2v-0.1l0.9-1.7h7.2c0.7,0,1.3-0.4,1.6-1l3.5-6.3c0.1-0.1,0.2-0.3,0.2-0.5c0.1-0.5-0.3-0.9-0.8-1
					c-0.1,0-0.1,0-0.2,0h-14.3l-0.9-1.9L102,9.8z M117.5,25.3c-1.1,0-1.9,0.9-1.9,1.9c0,1.1,0.9,1.9,1.9,1.9c1.1,0,1.9-0.9,1.9-1.9
					C119.4,26.1,118.6,25.3,117.5,25.3z"/>
			</g>
		</g>
		<path class="st4" d="M11.8,35.7h36.5c4.5,0,8.1,3.6,8.1,8.1V129c0,4.5-3.6,8.1-8.1,8.1H11.8c-4.5,0-8.1-3.6-8.1-8.1V43.8
			C3.7,39.4,7.3,35.7,11.8,35.7z"/>
		<path class="st6" d="M9.8,47.9h20.3c1.1,0,2,0.9,2,2l0,0c0,1.1-0.9,2-2,2H9.8c-1.1,0-2-0.9-2-2l0,0C7.8,48.8,8.7,47.9,9.8,47.9z"
			/>
		
			<linearGradient id="SVGID_00000019662529101103108870000004435399047347092386_" gradientUnits="userSpaceOnUse" x1="4.05" y1="5.535" x2="77.4" y2="5.535" gradientTransform="matrix(1 0 0 -1 0 132.52)">
			<stop  offset="0" style="stop-color:#005481"/>
			<stop  offset="1" style="stop-color:#6ABFEB"/>
		</linearGradient>
		<path style="fill:url(#SVGID_00000019662529101103108870000004435399047347092386_);" d="M13.8,120.9h32.4c3.4,0,6.1,2.7,6.1,6.1
			l0,0c0,3.4-2.7,6.1-6.1,6.1c0,0,0,0,0,0H13.8c-3.4,0-6.1-2.7-6.1-6.1l0,0l0,0C7.7,123.6,10.5,120.9,13.8,120.9z"/>
		<circle class="st6" cx="44.2" cy="49.9" r="6.1"/>
		
			<linearGradient id="SVGID_00000075872719401262513550000008488556664937138844_" gradientUnits="userSpaceOnUse" x1="30.05" y1="68.14" x2="30.05" y2="7.41" gradientTransform="matrix(1 0 0 -1 0 132.52)">
			<stop  offset="0" style="stop-color:#005481"/>
			<stop  offset="1" style="stop-color:#6ABFEB"/>
		</linearGradient>
		<path style="fill:url(#SVGID_00000075872719401262513550000008488556664937138844_);" d="M11.8,70.2h36.5c2.2,0,4.1,1.8,4.1,4.1
			v38.5c0,2.2-1.8,4.1-4.1,4.1H11.8c-2.2,0-4.1-1.8-4.1-4.1V74.3C7.7,72,9.6,70.2,11.8,70.2z"/>
		<path class="st6" d="M9.8,58H24c1.1,0,2,0.9,2,2v4c0,1.1-0.9,2-2,2H9.8c-1.1,0-2-0.9-2-2v-4C7.7,58.9,8.6,58,9.8,58z"/>
		<path class="st6" d="M38.2,58h12.2c1.1,0,2,0.9,2,2v4c0,1.1-0.9,2-2,2H38.2c-1.1,0-2-0.9-2-2v-4C36.1,58.9,37,58,38.2,58z"/>
		<path class="st11" d="M84.8,47.9l-12.2-7v14L84.8,47.9z M55.5,129l7,7l7-7l-7-7L55.5,129z M69,51.9v73h2.4V52L69,51.9z
			 M66.1,127.8h-3.6v2.5h3.6V127.8z M69,125c0,1.6-1.3,2.8-2.8,2.8l0,0v2.5c2.9,0,5.3-2.4,5.3-5.3l0,0L69,125z M74.2,46.7
			c-2.9,0-5.3,2.4-5.3,5.3c0,0,0,0,0,0h2.4c0-1.6,1.3-2.8,2.8-2.8l0,0V46.7z"/>
		<circle class="st4" cx="32.6" cy="91.1" r="7.6"/>
		<path class="st12" d="M29.4,95l-6.8,6.8"/>
	</g>
</g>
</svg>
