<?xml version="1.0" encoding="utf-8"?>
<!-- Generator: Adobe Illustrator 26.2.1, SVG Export Plug-In . SVG Version: 6.00 Build 0)  -->
<svg version="1.1" id="Layer_1" xmlns="http://www.w3.org/2000/svg" xmlns:xlink="http://www.w3.org/1999/xlink" x="0px" y="0px"
	 viewBox="0 0 512 275" style="enable-background:new 0 0 512 275;" xml:space="preserve">
<g>
	<path d="M25.7,0v182.5l80.6-90.9h3.7L50.2,159L129,274.8h-25.7l-67.8-99.7l-9.9,11.4v88.3H0V0H25.7z M153,184.7
		c0-59.5,38.4-92.6,88.3-92.6c46,0,85.4,23.5,85.4,88.3c0,59.5-38.4,92.6-88.3,92.6C192.5,273,153,249.5,153,184.7z M176.8,184.7
		c0,62.6,27.5,85.9,61.6,85.9c35.9,0,64.5-32.9,64.5-90.2c0-62.6-27.5-85.9-61.6-85.9C205.4,94.5,176.8,127.5,176.8,184.7z M501,272
		c-43.3,0-41.2-25.3-41.2-25.3v-5c-7.1,12.8-20.6,31.7-55.8,31.7c-41.6,0-48.7-26.3-50.8-40.6c-3.6-23.9,5-41.7,68.2-45.9
		c16-1.4,34.1-0.7,38.4-0.4v-59.1c0,0,3.9-32-37.3-32c-22,0-49.4,9.3-58.2,14.2l-1.4-2.5c4.6-2.1,26.3-14.6,64.3-14.6
		c51.5,0,57.5,22.8,57.5,34.9v119.3c0,23.1,16.3,22.4,16.3,22.4h11v2.8H501z M410.2,271c26.6,0,48.3-24.2,49.4-38.7v-43.8
		c-4.2-0.4-20.7-1.8-38.2,0.4c-37.1,4.3-44.5,17.4-42.4,43.8C380.5,250.4,385.7,271,410.2,271z"/>
</g>
</svg>
