<?xml version="1.0" encoding="utf-8"?>
<!-- Generator: Adobe Illustrator 26.2.1, SVG Export Plug-In . SVG Version: 6.00 Build 0)  -->
<svg version="1.1" id="Layer_1" xmlns="http://www.w3.org/2000/svg" xmlns:xlink="http://www.w3.org/1999/xlink" x="0px" y="0px"
	 viewBox="0 0 2413.7 2484.8" style="enable-background:new 0 0 2413.7 2484.8;" xml:space="preserve">
<style type="text/css">
	.st0{fill:#FF2D20;}
</style>
<path class="st0" d="M2412.3,562.1c0.9,3.3,1.4,6.7,1.4,10.2v533.4c0,13.9-7.5,26.8-19.5,33.7l-447.7,257.7V1908
	c0,13.9-7.4,26.7-19.4,33.7l-934.4,537.9c-2.1,1.2-4.5,2-6.8,2.8c-0.9,0.3-1.7,0.8-2.6,1.1c-6.5,1.7-13.4,1.7-19.9,0
	c-1.1-0.3-2-0.9-3.1-1.3c-2.1-0.8-4.4-1.5-6.4-2.6L19.5,1941.7C7.5,1934.7,0,1921.9,0,1908V307.9c0-3.5,0.5-6.9,1.4-10.2
	c0.3-1.1,1-2.1,1.4-3.3c0.7-2,1.4-4.1,2.5-6c0.7-1.3,1.8-2.3,2.7-3.5c1.1-1.6,2.1-3.2,3.5-4.5c1.1-1.1,2.6-1.9,3.8-2.9
	c1.4-1.2,2.7-2.4,4.3-3.4h0l467.1-269c12-6.9,26.9-6.9,38.9,0l467.1,269h0.1c1.6,1,2.9,2.2,4.3,3.3c1.3,1,2.7,1.8,3.8,2.9
	c1.4,1.4,2.3,3,3.5,4.6c0.8,1.2,1.9,2.2,2.6,3.5c1.1,1.9,1.7,4,2.5,6c0.4,1.1,1.1,2.1,1.4,3.3c0.9,3.3,1.4,6.7,1.4,10.2v999.4
	l389.3-224.1V572.2c0-3.4,0.5-6.9,1.4-10.1c0.3-1.2,1-2.2,1.4-3.3c0.8-2,1.5-4.1,2.5-6c0.7-1.3,1.8-2.3,2.6-3.5
	c1.2-1.6,2.1-3.2,3.5-4.5c1.1-1.1,2.5-1.9,3.8-2.9c1.5-1.2,2.7-2.4,4.3-3.4h0l467.2-269c12-6.9,26.9-6.9,38.9,0l467.1,269
	c1.7,1,2.9,2.2,4.4,3.3c1.2,1,2.6,1.8,3.7,2.9c1.4,1.4,2.3,3,3.5,4.6c0.9,1.2,1.9,2.2,2.6,3.5c1.1,1.9,1.8,4,2.5,6
	C2411.4,559.9,2412,561,2412.3,562.1L2412.3,562.1z M2335.8,1083.1V639.6l-163.5,94.1l-225.8,130v443.5L2335.8,1083.1L2335.8,1083.1
	z M1868.7,1885.4v-443.8l-222.1,126.9l-634.4,362.1v448L1868.7,1885.4z M77.9,375.2v1510.2l856.4,493.1v-447.9l-447.4-253.2
	l-0.1-0.1l-0.2-0.1c-1.5-0.9-2.8-2.1-4.2-3.2c-1.2-1-2.6-1.8-3.7-2.8l-0.1-0.1c-1.3-1.2-2.1-2.7-3.2-4.1c-1-1.3-2.1-2.4-2.9-3.8
	l0-0.1c-0.9-1.5-1.4-3.2-2-4.9c-0.6-1.5-1.5-2.8-1.8-4.4v0c-0.5-1.8-0.6-3.8-0.8-5.7c-0.2-1.5-0.6-2.9-0.6-4.4V599.4L241.4,469.3
	L77.9,375.2L77.9,375.2z M506.1,83.8l-389.2,224l389.1,224l389.2-224.1L506.1,83.8L506.1,83.8z M708.5,1482.1l225.8-130V375.2
	l-163.5,94.1L545,599.4v976.9L708.5,1482.1z M1907.6,348.2l-389.2,224l389.2,224l389.1-224.1L1907.6,348.2z M1868.7,863.8
	l-225.8-130l-163.5-94.1v443.5l225.8,130l163.5,94.2V863.8z M973.2,1863.2l570.8-325.9l285.3-162.8l-388.9-223.9l-447.8,257.8
	l-408.1,234.9L973.2,1863.2z"/>
</svg>
