<?xml version="1.0" encoding="utf-8"?>
<!-- Generator: Adobe Illustrator 26.2.1, SVG Export Plug-In . SVG Version: 6.00 Build 0)  -->
<svg version="1.1" id="Layer_1" xmlns="http://www.w3.org/2000/svg" xmlns:xlink="http://www.w3.org/1999/xlink" x="0px" y="0px"
	 viewBox="0 0 2493 1554.2" style="enable-background:new 0 0 2493 1554.2;" xml:space="preserve">
<style type="text/css">
	.st0{fill:#621EE5;}
</style>
<g>
	<path class="st0" d="M120,802c-6.4-6.8-14.1-12.2-22.7-15.9c-8.6-3.8-17.7-5.6-27.1-5.6c-9.4-0.2-18.5,1.8-27.1,5.4
		c-8.6,3.8-16.3,9.2-22.7,15.9c-6.6,6.6-11.8,14.3-15.1,22.9C1.8,833.4,0,842.6,0,851.8c-0.2,9.4,1.6,18.5,5.2,27.1
		c3.6,8.6,8.8,16.3,15.3,22.9c12.9,13.7,31,21.3,49.8,20.9c18.8,0.1,36.8-7.5,49.8-20.9c6.8-6.4,12-14.1,15.5-22.7
		c3.6-8.6,5.4-17.7,5.4-27.1s-1.8-18.5-5.4-27.1C131.9,816.1,126.7,808.3,120,802L120,802z M953.8,640.2c-1,44.6,1.2,89.5,6.4,133.9
		h-2.4c-5.6-11-17.9-31.3-36.9-61L466.7,0H328.8v910.4h106V252.2c1.2-41.6-0.6-83.3-5-124.9h4c7.6,19.9,17.3,39.1,28.9,57
		l466.6,726.1h130.5V0h-106V640.2z M1778.5,810.3h-374.6V494.9h327.8v-96h-327.8V96.4h351.7V0h-460.3v910.4h482.6L1778.5,810.3z
		 M1859.6,0v96.4h261v813.9h106V96.4h264V0H1859.6z M820.7,1136.7c-26.5,10.6-50.4,26.7-70.1,47.2c-20.3,21.7-36.3,47.2-46.6,75.3
		c-10.4,28.1-14.9,57.8-13.7,87.5c-2,55,17.1,108.8,53.8,149.8c18.3,19.3,40.6,34.3,65.4,44.2c24.7,10,51.2,14.3,77.7,13.2
		c39.8,1.4,79.5-7,115.6-24.5l0.4-46.4c-33.1,19.3-70.7,28.9-109,27.9c-20.5,0.8-41-2.8-60-10.6c-18.9-7.8-36.1-19.7-50-34.9
		c-29.2-33.9-44.2-77.7-41.8-122.3c-2.4-47.2,13.7-93.4,44.8-128.9c14.7-16.3,32.9-29.1,53-37.9c20.2-8.6,42-12.7,64-12.2
		c34.9-0.6,69.1,8,99.6,24.9v-50c-31.6-12.7-65.6-18.7-99.6-17.5C875.5,1121.2,847,1126.1,820.7,1136.7L820.7,1136.7z
		 M1317.4,1279.4c-27-28.3-64.9-43.5-104-41.4c-20.5-1-40.8,2.4-60,9.8c-19.1,7.4-36.5,18.5-51.2,32.7
		c-14.3,15.9-25.3,34.5-32.5,54.8c-7.2,20.3-10.2,41.6-8.8,63.2c-2,40.8,12.2,80.9,39.3,111.4c13.5,14.5,29.9,26.1,48.2,33.9
		c18.3,7.6,38.1,11.4,57.8,10.6c20.1,0.6,40.2-3.2,59-11c18.7-7.8,35.5-19.5,49.2-34.5c27.9-31.5,42.4-72.7,40.2-114.8
		C1357.1,1352.1,1343.7,1311.2,1317.4,1279.4L1317.4,1279.4z M1281,1484c-17.8,20.5-44,31.6-71.1,30.1c-13.7,0.6-27.3-2-39.8-7.2
		c-12.6-5.4-23.7-13.3-32.9-23.7c-19.1-23.6-28.7-53.5-26.9-83.9c-1.8-31.3,7.8-62.2,26.9-86.9c9-10.4,20.1-18.5,32.7-24.1
		c12.6-5.4,26.3-8,39.8-7.4c13.5-0.8,26.9,1.8,39.3,7.2c12.4,5.4,23.3,13.5,32.1,23.9c18.1,25,26.9,55.6,24.9,86.5
		C1307.9,1428.8,1299.1,1459.3,1281,1484L1281,1484z M1511.9,1259.8c-14.9,13.3-25.9,30.7-31.3,50v-62.6h-49.8V1547h49.8v-152.8
		c-1.6-27.7,5.6-55.4,20.3-78.9c5.4-8.6,12.6-15.7,21.3-20.7c8.8-5,18.5-8,28.5-8.2c12.8-1,25.5,2.4,36.3,9.6v-49.4
		c-9.2-3-18.7-4.4-28.3-4C1541.6,1242.3,1525,1248.5,1511.9,1259.8z M1878.5,1383.6c2.4-38.1-9-75.5-31.9-105.8
		c-11.4-12.8-25.3-22.9-41-29.5s-32.7-9.6-49.6-8.6c-18.7-0.6-37.5,3.2-54.8,10.8c-17.1,7.6-32.5,18.9-44.8,33.3
		c-27.1,31.6-41.1,72.2-39.3,113.8c-2.6,41.4,10.4,82.5,36.3,114.8c12.6,13.7,28.1,24.5,45.2,31.7c17.1,7.2,35.9,10.2,54.4,9.4
		c36.9,1.8,73.3-8.2,104-28.5v-45c-26.2,21.3-58.9,33.1-92.6,33.5c-13,0.8-26.1-1.2-38.3-6c-12.2-4.8-23.3-11.8-32.5-21.1
		c-17.8-21.5-26.8-49-25.3-76.9h210.6L1878.5,1383.6z M1667.9,1369.6c2.6-23.7,13-46,29.3-63.4c14.8-15.9,35.7-24.8,57.4-24.5
		c10.4-0.6,20.5,1.2,30.1,5.2c9.6,4,17.9,10,24.7,17.7c13.9,18.5,20.9,41.2,19.9,64.4L1667.9,1369.6z"/>
</g>
</svg>
