<?xml version="1.0" encoding="utf-8"?>
<!-- Generator: Adobe Illustrator 26.2.1, SVG Export Plug-In . SVG Version: 6.00 Build 0)  -->
<svg version="1.1" id="Layer_1" xmlns="http://www.w3.org/2000/svg" xmlns:xlink="http://www.w3.org/1999/xlink" x="0px" y="0px"
	 viewBox="0 0 945.7 942" style="enable-background:new 0 0 945.7 942;" xml:space="preserve">
<style type="text/css">
	.st0{fill-rule:evenodd;clip-rule:evenodd;fill:#E0234E;}
</style>
<path class="st0" d="M556.8,0c-6.8,0-13.2,1.5-19.1,3.4c12.5,8.3,19.3,19.3,22.7,31.8c0.2,1.7,0.7,2.9,1,4.6
	c0.2,1.5,0.5,2.9,0.5,4.4c1,21.5-5.6,24.2-10.3,36.9c-7.1,16.4-5.1,33.9,3.4,48.1c0.7,1.7,1.7,3.7,2.9,5.4
	c-9.3-61.8,42.3-71.1,51.8-90.4c0.7-16.9-13.2-28.1-24.2-35.9C575.2,2,565.6,0,556.8,0L556.8,0z M634.5,13.9c-1,5.6-0.2,4.2-0.5,7.1
	c-0.2,2-0.2,4.4-0.5,6.3c-0.5,2-1,3.9-1.7,5.9c-0.5,2-1.2,3.9-2,5.9c-1,2-1.7,3.7-2.7,5.6c-0.7,1-1.2,2-2,2.9
	c-0.5,0.7-1,1.5-1.5,2.2c-1.2,1.7-2.4,3.4-3.7,4.9c-1.5,1.5-2.7,3.2-4.4,4.4v0.2c-1.5,1.2-2.9,2.7-4.6,3.9
	c-5.1,3.9-11,6.8-16.4,10.5c-1.7,1.2-3.4,2.2-4.9,3.7c-1.7,1.2-3.2,2.4-4.6,3.9c-1.7,1.5-2.9,2.9-4.4,4.6c-1.2,1.5-2.7,3.2-3.7,4.9
	c-1.2,1.7-2.4,3.4-3.4,5.1c-1,2-1.7,3.7-2.7,5.6c-0.7,2-1.5,3.7-2,5.6c-0.7,2.2-1.2,4.2-1.7,6.1c-0.2,1-0.2,2.2-0.5,3.2
	c-0.2,1-0.2,2-0.5,2.9c0,2-0.2,4.2-0.2,6.1c0,1.5,0,2.9,0.2,4.4c0,2,0.2,3.9,0.7,6.1c0.2,2,0.7,3.9,1.2,5.9c0.7,2,1.2,3.9,2,5.9
	c0.5,1.2,1.2,2.4,1.7,3.4l-56.2-21.7c-9.5-2.7-18.8-5.1-28.3-7.3c-5.1-1.2-10.3-2.4-15.4-3.7c-14.7-2.9-29.6-5.1-44.5-6.6
	c-0.5,0-0.7-0.2-1.2-0.2c-14.7-1.5-29.1-2.2-43.7-2.2c-10.7,0-21.5,0.5-32,1.2c-14.9,1-29.8,2.9-44.7,5.4c-3.7,0.5-7.3,1.2-11,2
	c-7.6,1.5-14.9,3.2-22,4.9c-3.7,1-7.3,2-11,2.9c-3.7,1.5-7.1,3.2-10.5,4.6c-2.7,1.2-5.4,2.4-8.1,3.7c-0.5,0.2-1,0.2-1.2,0.5
	c-2.4,1.2-4.6,2.2-6.8,3.4c-0.7,0.2-1.2,0.5-1.7,0.7c-2.7,1.2-5.4,2.7-7.6,3.9c-1.7,0.7-3.4,1.7-4.9,2.4c-0.7,0.5-1.7,1-2.2,1.2
	c-2.2,1.2-4.4,2.4-6.4,3.7c-2.2,1.2-4.2,2.4-5.9,3.7c-1.7,1.2-3.4,2.2-4.9,3.4c-0.2,0.2-0.5,0.2-0.7,0.5c-1.5,1-3.2,2.2-4.6,3.4
	c0,0-0.2,0.2-0.5,0.5c-1.2,1-2.4,2-3.7,2.9c-0.5,0.2-1,0.7-1.5,1c-1.2,1-2.4,2.2-3.7,3.2c-0.2,0.5-0.7,0.7-1,1
	c-1.5,1.5-2.9,2.7-4.4,4.2c-0.2,0-0.2,0.2-0.5,0.5c-1.5,1.2-2.9,2.7-4.4,4.2c-0.2,0.2-0.2,0.5-0.5,0.5c-1.2,1.2-2.4,2.4-3.7,3.9
	c-0.5,0.5-1.2,1-1.7,1.5c-1.2,1.5-2.7,2.9-4.2,4.4c-0.2,0.5-0.7,0.7-1,1.2c-2,2-3.7,3.9-5.6,5.9c-0.2,0.2-0.5,0.5-0.7,0.7
	c-3.9,4.2-8.1,8.3-12.5,12c-4.4,3.9-9,7.6-13.7,10.7c-4.9,3.4-9.5,6.4-14.7,9.3c-4.9,2.7-10,5.1-15.4,7.3
	c-5.1,2.2-10.5,4.2-15.9,5.9c-10.3,2.2-20.8,6.4-29.8,7.1c-2,0-4.2,0.5-6.1,0.7c-2.2,0.5-4.2,1-6.1,1.5c-2,0.7-3.9,1.5-5.9,2.2
	c-2,0.7-3.9,1.7-5.9,2.7c-1.7,1.2-3.7,2.2-5.4,3.4c-1.7,1.2-3.4,2.7-4.9,4.2c-1.7,1.2-3.4,2.9-4.9,4.4c-1.5,1.7-2.9,3.2-4.2,4.9
	c-1.2,2-2.7,3.7-3.7,5.6c-1.2,1.7-2.4,3.7-3.4,5.6c-1,2.2-2,4.2-2.7,6.4c-0.7,2-1.5,4.2-2.2,6.4c-0.5,2-1,3.9-1.2,5.9
	c0,0.2-0.2,0.5-0.2,0.7c-0.5,2.2-0.5,5.1-0.7,6.6c-0.2,1.7-0.5,3.2-0.5,4.9c0,1,0,2.2,0.2,3.2c0.2,1.7,0.5,3.2,1,4.6
	c0.5,1.5,1,2.9,1.7,4.4v0.2c0.7,1.5,1.7,2.9,2.7,4.4c1,1.5,2,2.9,3.2,4.4c1.2,1.2,2.7,2.7,4.2,3.9c1.5,1.5,2.9,2.7,4.6,3.9
	c5.9,5.1,7.3,6.8,14.9,10.7c1.2,0.7,2.4,1.2,3.9,2c0.2,0,0.5,0.2,0.7,0.2c0,0.5,0,0.7,0.2,1.2c0.2,2,0.7,3.9,1.2,5.9
	c0.5,2.2,1.2,4.2,2,5.9c0.7,1.5,1.2,2.9,2,4.4c0.2,0.5,0.5,1,0.7,1.2c1,2,2,3.7,2.9,5.4c1.2,1.7,2.4,3.4,3.7,5.1
	c1.2,1.5,2.7,3.2,4.2,4.6c1.5,1.5,2.9,2.7,4.6,4.2c0,0,0.2,0.2,0.5,0.2c1.5,1.2,2.9,2.4,4.4,3.4c1.7,1.2,3.4,2.2,5.4,3.2
	c1.7,1,3.7,2,5.6,2.7c1.5,0.7,3.2,1.2,4.9,1.7c0.2,0.2,0.5,0.2,1,0.5c1,0.2,2.2,0.5,3.2,0.7c-0.7,13.2-1,25.6,1,30
	c2.2,4.9,12.9-10,23.7-27.1c-1.5,16.9-2.4,36.6,0,42.5c2.7,6.1,17.3-12.9,30-33.9C311.4,378.3,469.4,498,486,667
	c-3.2-26.4-35.7-41-50.6-37.4c-7.3,18.1-19.8,41.3-39.8,55.7c1.7-16.1,1-32.7-2.4-48.8c-5.4,22.5-15.9,43.5-30.3,61.5
	c-23.2,1.7-46.4-9.5-58.6-26.4c-1-0.7-1.2-2.2-2-3.2c-0.7-1.7-1.5-3.4-2-5.1c-0.7-1.7-1.2-3.4-1.5-5.1c-0.2-1.7-0.2-3.4-0.2-5.4
	c0-1.2,0-2.4,0-3.7c0.2-1.7,0.7-3.4,1.2-5.1c0.5-1.7,1-3.4,1.7-5.1c1-1.7,1.7-3.4,2.9-5.1c4.2-11.7,4.2-21.2-3.4-26.9
	c-1.5-1-2.9-1.7-4.6-2.4c-1-0.2-2.2-0.7-3.2-1c-0.7-0.2-1.2-0.5-2-0.7c-1.7-0.5-3.4-1-5.1-1.2c-1.7-0.5-3.4-0.7-5.1-0.7
	c-1.7-0.2-3.7-0.5-5.4-0.5c-1.2,0-2.4,0.2-3.7,0.2c-2,0-3.7,0.2-5.4,0.7c-1.7,0.2-3.4,0.5-5.1,1c-1.7,0.5-3.4,1-5.1,1.7
	c-1.7,0.7-3.2,1.5-4.9,2.2c-1.5,0.7-2.9,1.7-4.6,2.4c-56.9,37.1-23,124.1,15.9,149.2c-14.7,2.7-29.6,5.9-33.7,9
	c-0.2,0.2-0.5,0.5-0.5,0.5c10.5,6.3,21.5,11.7,33,16.4c15.6,5.1,32.2,9.8,39.6,11.7v0.2c20.3,4.2,40.8,5.6,61.5,4.4
	c108.2-7.6,196.9-89.9,213-198.3c0.5,2.2,1,4.2,1.5,6.4c0.7,4.4,1.7,9,2.2,13.7v0.2c0.5,2.2,0.7,4.4,1,6.3v1
	c0.2,2.2,0.5,4.4,0.5,6.3c0.2,2.7,0.5,5.4,0.5,8.1v3.9c0,1.2,0.2,2.7,0.2,3.9c0,1.5-0.2,2.9-0.2,4.4v3.4c0,1.7-0.2,3.2-0.2,4.9
	c0,1,0,2-0.2,3.2c0,1.7-0.2,3.4-0.2,5.4c-0.2,0.7-0.2,1.5-0.2,2.2c-0.2,2-0.5,3.7-0.7,5.6c0,0.7,0,1.5-0.2,2.2
	c-0.2,2.4-0.7,4.6-1,7.1v0.2v0.2c-0.5,2.2-1,4.6-1.5,6.8v0.7c-0.5,2.2-1,4.4-1.5,6.6c0,0.2-0.2,0.7-0.2,1c-0.5,2.2-1,4.4-1.7,6.6
	v0.7c-0.7,2.4-1.5,4.6-2,6.8c-0.2,0.2-0.2,0.5-0.2,0.5c-0.7,2.4-1.5,4.9-2.2,7.3c-1,2.4-1.7,4.6-2.7,7.1c-1,2.4-1.7,4.9-2.7,7.1
	c-1,2.4-2,4.6-2.9,7.1h-0.2c-1,2.2-2,4.6-3.2,6.8c-0.2,0.7-0.5,1.2-0.7,1.7c-0.2,0.2-0.2,0.5-0.5,0.7c-15.9,32-39.3,60.1-68.6,82.1
	c-2,1.2-3.9,2.7-5.9,4.2c-0.5,0.5-1.2,0.7-1.7,1.2c-1.7,1.2-3.4,2.4-5.4,3.7l0.7,1.5h0.2c3.4-0.5,6.8-1,10.3-1.5h0.2
	c6.4-1,12.7-2.2,19.1-3.4c1.7-0.2,3.7-0.7,5.4-1.2c1.2-0.2,2.2-0.5,3.4-0.7c1.7-0.2,3.4-0.7,5.1-1c1.5-0.5,2.9-0.7,4.4-1.2
	c24.4-5.9,48.1-13.9,70.8-23.4c-38.8,53-90.9,95.7-151.7,123.8c28.1-2,56.2-6.6,83.3-14.4c98.4-29.1,181.2-95.3,230.8-184.4
	c-10,56.4-32.5,110.1-65.7,157c23.7-15.6,45.4-33.7,65.2-54.2c54.7-57.2,90.6-129.7,102.8-207.6c8.3,38.6,10.7,78.4,7.1,117.7
	c176.3-245.9,14.7-500.9-53-568.1c-0.2-0.5-0.5-0.7-0.5-1.2c-0.2,0.2-0.2,0.2-0.2,0.5c0-0.2,0-0.2-0.2-0.5c0,2.9-0.2,5.9-0.5,8.8
	c-0.7,5.6-1.5,11-2.4,16.4c-1.2,5.4-2.7,10.7-4.2,16.1c-1.7,5.1-3.7,10.5-5.9,15.6c-2.2,4.9-4.6,10-7.3,14.9
	c-2.7,4.6-5.6,9.5-8.8,13.9c-3.2,4.6-6.6,9-10,13.2c-3.7,4.4-7.6,8.3-11.5,12.2c-2.4,2.2-4.6,4.2-7.1,6.1c-2,1.7-3.7,3.2-5.6,4.9
	c-4.4,3.4-8.8,6.6-13.7,9.5c-4.6,2.9-9.5,5.9-14.4,8.3c-5.1,2.4-10.3,4.6-15.4,6.8c-5.1,2-10.5,3.7-15.9,5.1
	c-5.4,1.5-11,2.7-16.4,3.7c-5.6,1-11.2,1.5-16.6,2c-3.9,0.2-7.8,0.5-11.7,0.5c-5.6,0-11.2-0.5-16.6-1c-5.6-0.5-11.2-1.2-16.6-2.4
	c-5.6-1-11-2.4-16.4-4.2h-0.2c5.4-0.5,10.7-1,16.1-2c5.6-1,11-2.2,16.4-3.7c5.4-1.5,10.7-3.2,15.9-5.1c5.4-2,10.5-4.4,15.4-6.8
	c5.1-2.4,9.8-5.1,14.7-8.1c4.6-3.2,9.3-6.3,13.7-9.8c4.4-3.4,8.5-7.1,12.5-11c4.2-3.7,7.8-7.8,11.5-12c3.7-4.4,7.1-8.8,10.3-13.2
	c0.5-0.7,1-1.7,1.5-2.4c2.4-3.9,4.9-7.8,7.1-11.7c2.7-4.9,5.1-9.8,7.3-14.9c2.2-5.1,4.2-10.3,5.9-15.6c1.7-5.1,2.9-10.5,4.2-15.9
	c1-5.6,2-11,2.4-16.4c0.5-5.6,1-11.2,1-16.6c0-3.9-0.2-7.8-0.5-11.7c-0.5-5.6-1.2-11-2-16.4c-1-5.6-2.2-11-3.7-16.4
	c-1.7-5.1-3.4-10.5-5.4-15.6c-2-5.1-4.4-10.3-6.8-15.1c-2.7-4.9-5.4-9.8-8.3-14.4c-3.2-4.6-6.4-9-9.8-13.4
	c-3.7-4.2-7.3-8.3-11.2-12.5c-2-2-4.2-4.2-6.3-6.1c-11-8.5-22.5-16.6-33.9-23.9c-1.7-1-3.2-1.7-4.9-2.4
	C649.7,19.1,642.1,16.4,634.5,13.9L634.5,13.9z"/>
</svg>
