<?xml version="1.0" encoding="utf-8"?>
<!-- Generator: Adobe Illustrator 26.2.1, SVG Export Plug-In . SVG Version: 6.00 Build 0)  -->
<svg version="1.1" id="Layer_1" xmlns="http://www.w3.org/2000/svg" xmlns:xlink="http://www.w3.org/1999/xlink" x="0px" y="0px"
	 viewBox="0 0 97.3 31.6" style="enable-background:new 0 0 97.3 31.6;" xml:space="preserve">
<style type="text/css">
	.st0{fill:#FFC24A;}
	.st1{fill:#FFA712;}
	.st2{filter:url(#B);}
	.st3{fill:#F4BD62;}
	.st4{fill:#FFA50E;}
	.st5{filter:url(#A);}
	.st6{fill:#F6820C;}
	.st7{fill:#FDE068;}
	.st8{fill:#FCCA3F;}
	.st9{fill:#EEAB37;}
	.st10{fill:#63666A;}
</style>
<filter  height="2" id="B" width="2" x="-.5" y="-.5">
	<feGaussianBlur  in="SourceAlpha" stdDeviation="17.5"></feGaussianBlur>
	<feOffset></feOffset>
	<feComposite  in2="SourceAlpha" k1="0" k2="-1" k3="1" k4="0" operator="arithmetic"></feComposite>
	<feColorMatrix  values="0 0 0 0 0 0 0 0 0 0 0 0 0 0 0 0 0 0 0.06 0"></feColorMatrix>
</filter>
<filter  height="2" id="A" width="2" x="-.5" y="-.5">
	<feGaussianBlur  in="SourceAlpha" stdDeviation="3.5"></feGaussianBlur>
	<feOffset  dx="1" dy="-9"></feOffset>
	<feComposite  in2="SourceAlpha" k1="0" k2="-1" k3="1" k4="0" operator="arithmetic"></feComposite>
	<feColorMatrix  values="0 0 0 0 0 0 0 0 0 0 0 0 0 0 0 0 0 0 0.09 0"></feColorMatrix>
</filter>
<g transform="matrix(.090203 0 0 .090203 11.921255 15.418666)">
	<path class="st0" d="M-132.2,112.1l2.1-3L-29.6-81.4l0.2-2l-44.3-83.1c-3.7-7-14.2-5.2-15.4,2.6L-132.2,112.1z"/>
	<g>
		<path id="D" class="st1" d="M-130.9,109.8l1.6-3.1L-30-81.8l-44.1-83.5c-3.7-6.9-13-5.1-14.2,2.6L-130.9,109.8z"/>
	</g>
	<g class="st2">
		<g>
			<path id="D_00000073702523654791352020000000988522532541693591_" d="M-130.9,109.8l1.6-3.1L-30-81.8l-44.1-83.5
				c-3.7-6.9-13-5.1-14.2,2.6L-130.9,109.8z"/>
		</g>
	</g>
	<path class="st3" d="M2.8-20.6l33-33.8l-33-62.9c-3.1-6-11.9-6-15,0l-17.6,33.6v2.9L2.8-20.6z"/>
	<g>
		<path id="C" class="st4" d="M2.3-22l32-32.8l-32-61c-3-5.8-10.4-6.4-13.4-0.6l-17.7,34.1l-0.5,1.7L2.3-22z"/>
	</g>
	<g class="st5">
		<g>
			<path id="C_00000039093424375282004000000000984808755565775240_" d="M2.3-22l32-32.8l-32-61c-3-5.8-10.4-6.4-13.4-0.6
				l-17.7,34.1l-0.5,1.7L2.3-22z"/>
		</g>
	</g>
	<path class="st6" d="M-29.6-83.8l-102.5,195.9l1-1l3.5-1.4L0.8-18.3l1.6-4.4L-29.6-83.8z"/>
	<path class="st7" d="M7,176.6l116.3-64.8L90-92.7c-1-6.4-8.9-8.9-13.5-4.3l-208.7,209.1l115.6,64.5C-9.2,180.7-0.3,180.7,7,176.6"
		/>
	<path class="st8" d="M122.2,111.2l-33-202.9c-1-6.3-7.6-9-12.1-4.4l-208,207.8l114.3,63.9c7.3,4,16.1,4,23.3,0L122.2,111.2z"/>
	<path class="st9" d="M7,174.7c-7.3,4.1-16.2,4.1-23.5,0l-114.7-63.6l-0.9,1l115.6,64.5c7.3,4.1,16.2,4.1,23.5,0l116.3-64.8L123,110
		L7,174.7z"/>
</g>
<path class="st10" d="M31,22.8h-1.8V8.9h8.1v1.7H31v4.6h5.7v1.7H31V22.8z M40.4,10.9c-0.2,0.2-0.5,0.4-0.9,0.4
	c-0.3,0-0.7-0.1-0.9-0.4c-0.2-0.2-0.4-0.6-0.4-0.9c0-0.3,0.1-0.7,0.4-0.9c0.2-0.2,0.6-0.4,0.9-0.4c0.3,0,0.7,0.1,0.9,0.4
	c0.2,0.2,0.4,0.6,0.4,0.9C40.8,10.4,40.7,10.7,40.4,10.9z M40.4,22.8h-1.8v-9.5h1.8V22.8z M44.3,22.8h-1.8v-9.5h1.7v1.6h0.1
	c0.2-0.5,0.6-0.9,1.1-1.3c0.6-0.3,1.1-0.5,1.6-0.5s1,0.1,1.3,0.2L47.7,15c-0.2-0.1-0.6-0.1-1-0.1c-0.6,0-1.2,0.3-1.7,0.8
	c-0.5,0.5-0.7,1.2-0.7,2V22.8L44.3,22.8z M53.1,23.1c-1.4,0-2.6-0.5-3.5-1.4c-0.9-1-1.3-2.2-1.3-3.6c0-1.4,0.4-2.6,1.3-3.6
	s2-1.5,3.3-1.5c1.4,0,2.5,0.5,3.4,1.4s1.3,2.1,1.3,3.7l0,0.3H50c0.1,1,0.4,1.7,1,2.3c0.6,0.5,1.3,0.8,2.1,0.8c1.3,0,2.1-0.5,2.6-1.6
	l1.6,0.7c-0.3,0.7-0.8,1.4-1.5,1.9S54.1,23.1,53.1,23.1L53.1,23.1z M55.6,16.9c0-0.5-0.3-1.1-0.7-1.6s-1.1-0.7-2-0.7
	c-0.7,0-1.2,0.2-1.7,0.6s-0.8,1-1,1.7L55.6,16.9L55.6,16.9z M64,23.1c-0.7,0-1.4-0.2-1.9-0.5s-1-0.7-1.3-1.2h-0.1v1.3H59V8.9h1.8
	v4.4l-0.1,1.3h0.1c0.3-0.5,0.7-0.9,1.3-1.2S63.3,13,64,13c1.2,0,2.3,0.5,3.2,1.5s1.3,2.2,1.3,3.6s-0.4,2.6-1.3,3.6
	S65.2,23.1,64,23.1L64,23.1z M63.7,21.5c0.8,0,1.5-0.3,2.1-0.9s0.9-1.5,0.9-2.5s-0.3-1.9-0.9-2.5s-1.3-0.9-2.1-0.9
	c-0.8,0-1.6,0.3-2.1,0.9c-0.6,0.6-0.9,1.5-0.9,2.5s0.3,1.9,0.9,2.5S62.9,21.5,63.7,21.5L63.7,21.5z M73.2,23.1c-1,0-1.9-0.3-2.5-0.9
	s-1-1.4-1-2.3c0-1,0.4-1.8,1.2-2.4s1.8-0.9,3-0.9c1,0,1.9,0.2,2.6,0.6v-0.3c0-0.7-0.2-1.3-0.7-1.7s-1.1-0.6-1.8-0.6
	c-0.5,0-1,0.1-1.4,0.4c-0.4,0.2-0.7,0.6-0.9,1L70,15.3c0.2-0.6,0.7-1.1,1.3-1.6s1.5-0.7,2.6-0.7c1.2,0,2.2,0.4,3,1.1s1.2,1.7,1.2,3
	v5.7h-1.7v-1.3h-0.1C75.6,22.6,74.6,23.1,73.2,23.1L73.2,23.1z M73.5,21.5c0.7,0,1.4-0.3,2-0.8s0.9-1.2,0.9-2
	c-0.5-0.4-1.3-0.6-2.3-0.6c-0.9,0-1.5,0.2-2,0.6s-0.7,0.8-0.7,1.3c0,0.5,0.2,0.8,0.6,1.1S73,21.5,73.5,21.5L73.5,21.5z M83.3,23.1
	c-1.1,0-1.9-0.3-2.6-0.8c-0.7-0.5-1.2-1.2-1.5-1.9l1.6-0.7c0.5,1.2,1.4,1.8,2.6,1.8c0.6,0,1-0.1,1.4-0.4s0.5-0.6,0.5-1
	c0-0.6-0.4-1-1.3-1.3L82,18.5c-0.6-0.2-1.2-0.5-1.7-0.9s-0.8-1-0.8-1.7c0-0.8,0.4-1.5,1.1-2s1.6-0.8,2.7-0.8c0.8,0,1.6,0.2,2.2,0.6
	s1.1,0.9,1.4,1.6l-1.6,0.6c-0.3-0.8-1.1-1.3-2.2-1.3c-0.5,0-1,0.1-1.3,0.3s-0.5,0.5-0.5,0.9c0,0.5,0.4,0.9,1.3,1.1l1.9,0.4
	c0.9,0.2,1.6,0.6,2,1.1s0.6,1.1,0.6,1.7c0,0.9-0.3,1.6-1,2.1S84.4,23.1,83.3,23.1L83.3,23.1z M92.8,23.1c-1.4,0-2.6-0.5-3.5-1.4
	S88,19.5,88,18.1c0-1.4,0.4-2.6,1.3-3.6s2-1.5,3.3-1.5c1.4,0,2.5,0.5,3.4,1.4s1.3,2.1,1.3,3.7v0.3h-7.5c0.1,1,0.4,1.7,1,2.3
	c0.6,0.5,1.3,0.8,2.1,0.8c1.3,0,2.1-0.5,2.6-1.6l1.6,0.7c-0.3,0.7-0.8,1.4-1.5,1.9S93.9,23.1,92.8,23.1L92.8,23.1z M95.4,16.9
	c0-0.5-0.3-1.1-0.7-1.6s-1.1-0.7-2-0.7c-0.6,0-1.2,0.2-1.7,0.6c-0.5,0.4-0.8,1-1,1.7L95.4,16.9L95.4,16.9z"/>
</svg>
