<?xml version="1.0" encoding="utf-8"?>
<!-- Generator: Adobe Illustrator 26.2.1, SVG Export Plug-In . SVG Version: 6.00 Build 0)  -->
<svg version="1.1" id="Layer_1" xmlns="http://www.w3.org/2000/svg" xmlns:xlink="http://www.w3.org/1999/xlink" x="0px" y="0px"
	 viewBox="0 0 923.1 458" style="enable-background:new 0 0 923.1 458;" xml:space="preserve">
<path d="M4.3,450.6h76.3v-325H4.3V450.6z M42.3,83.1c23.9,0,42.6-18.4,42.6-41.4C84.9,18.4,66.2,0,42.3,0C18.7,0,0,18.4,0,41.7
	C0,64.7,18.7,83.1,42.3,83.1L42.3,83.1z M334.8,0.9c-129.1,0-210,88-210,228.7S205.7,458,334.8,458c128.8,0,209.7-87.7,209.7-228.4
	S463.5,0.9,334.8,0.9z M334.8,68.4c78.8,0,129.1,62.5,129.1,161.3c0,98.4-50.3,160.9-129.1,160.9c-79.1,0-129.1-62.5-129.1-160.9
	C205.7,130.9,255.7,68.4,334.8,68.4z M576.7,326.2c3.4,81.5,70.2,131.8,172,131.8c107,0,174.4-52.7,174.4-136.7
	c0-65.9-38-103-127.8-123.5l-50.9-11.6c-54.3-12.9-76.6-30-76.6-59.5c0-36.8,33.7-61.3,83.7-61.3c50.6,0,85.2,24.8,88.9,66.2h75.4
	C913.9,53.7,849.5,0.9,752,0.9c-96.3,0-164.6,53-164.6,131.5c0,63.2,38.6,102.4,120.2,121.1l57.3,13.5
	c55.8,13.2,78.5,31.6,78.5,63.5c0,36.8-37.1,63.2-90.4,63.2c-54,0-94.7-26.7-99.6-67.4L576.7,326.2L576.7,326.2z"/>
</svg>
