<?xml version="1.0" encoding="utf-8"?>
<!-- Generator: Adobe Illustrator 26.2.1, SVG Export Plug-In . SVG Version: 6.00 Build 0)  -->
<svg version="1.1" id="Layer_1" xmlns="http://www.w3.org/2000/svg" xmlns:xlink="http://www.w3.org/1999/xlink" x="0px" y="0px"
	 viewBox="0 0 111.1 40.3" style="enable-background:new 0 0 111.1 40.3;" xml:space="preserve">
<style type="text/css">
	.st0{clip-path:url(#SVGID_00000132775074882034619070000009406698965971461268_);}
	.st1{fill:#39CEFD;}
	.st2{clip-path:url(#SVGID_00000054242266823657337070000016393234615244658057_);fill:#39CEFD;}
	.st3{clip-path:url(#SVGID_00000075849263852821247140000014307822514936738234_);fill:#03569B;}
	
		.st4{clip-path:url(#SVGID_00000103248500651227618200000016727803866311696809_);fill:url(#SVGID_00000003082493339768536260000005185488936877884341_);}
	.st5{clip-path:url(#SVGID_00000165222014053503757270000013791323171397318059_);}
	.st6{fill:#16B9FD;}
	.st7{fill:url(#SVGID_00000026147016591091306060000018289295109980364723_);}
	.st8{fill:#808080;}
</style>
<g transform="matrix(.03881911 0 0 .03881916 -.560501 8.162276)">
	<g>
		<g>
			<defs>
				<path id="SVGID_1_" d="M853.2,269L573.6,548.7l279.6,279.7H533.7L413.8,708.5L254,548.7L533.7,269H853.2z M533.7-210.3L14.4,309
					l159.8,159.8l679-679.1C853.2-210.3,533.7-210.3,533.7-210.3z"/>
			</defs>
			<clipPath id="SVGID_00000045600617150541021620000001914992880502693797_">
				<use xlink:href="#SVGID_1_"  style="overflow:visible;"/>
			</clipPath>
			<g style="clip-path:url(#SVGID_00000045600617150541021620000001914992880502693797_);">
				<path class="st1" d="M413.8,708.5L853.2,269H533.7L254.1,548.7L413.8,708.5z"/>
			</g>
		</g>
	</g>
	<g>
		<g>
			<defs>
				<path id="SVGID_00000070801740252645429420000010706784744115196842_" d="M853.2,269L573.6,548.7l279.6,279.7H533.7L413.8,708.5
					L254,548.7L533.7,269H853.2z M533.7-210.3L14.4,309l159.8,159.8l679-679.1C853.2-210.3,533.7-210.3,533.7-210.3z"/>
			</defs>
			<clipPath id="SVGID_00000012444071453948147700000018163061115246900671_">
				<use xlink:href="#SVGID_00000070801740252645429420000010706784744115196842_"  style="overflow:visible;"/>
			</clipPath>
			<path style="clip-path:url(#SVGID_00000012444071453948147700000018163061115246900671_);fill:#39CEFD;" d="M14.4,309
				l519.3-519.3h319.5l-679,679.1L14.4,309z"/>
		</g>
	</g>
	<g>
		<g>
			<defs>
				<path id="SVGID_00000115485304272760970230000004326960918100293527_" d="M853.2,269L573.6,548.7l279.6,279.7H533.7L413.8,708.5
					L254,548.7L533.7,269H853.2z M533.7-210.3L14.4,309l159.8,159.8l679-679.1C853.2-210.3,533.7-210.3,533.7-210.3z"/>
			</defs>
			<clipPath id="SVGID_00000027579234689138847520000008602299502041350048_">
				<use xlink:href="#SVGID_00000115485304272760970230000004326960918100293527_"  style="overflow:visible;"/>
			</clipPath>
			<path style="clip-path:url(#SVGID_00000027579234689138847520000008602299502041350048_);fill:#03569B;" d="M533.7,828.3h319.5
				L573.6,548.7L413.8,708.5L533.7,828.3z"/>
		</g>
	</g>
	<g>
		<g>
			<defs>
				<path id="SVGID_00000139253596779310352470000005681069719192779451_" d="M853.2,269L573.6,548.7l279.6,279.7H533.7L413.8,708.5
					L254,548.7L533.7,269H853.2z M533.7-210.3L14.4,309l159.8,159.8l679-679.1C853.2-210.3,533.7-210.3,533.7-210.3z"/>
			</defs>
			<clipPath id="SVGID_00000061440552652487687340000004614710739007317400_">
				<use xlink:href="#SVGID_00000139253596779310352470000005681069719192779451_"  style="overflow:visible;"/>
			</clipPath>
			
				<linearGradient id="SVGID_00000129886781453053559860000004333071473357528238_" gradientUnits="userSpaceOnUse" x1="-210497.1094" y1="87207.2891" x2="-210490.6094" y2="87213.7969" gradientTransform="matrix(3.767308e-04 0 0 -3.767318e-04 -48002.3906 -23571.6348)">
				<stop  offset="0" style="stop-color:#1A237E;stop-opacity:0.4"/>
				<stop  offset="1" style="stop-color:#1A237E;stop-opacity:0"/>
			</linearGradient>
			
				<path style="clip-path:url(#SVGID_00000061440552652487687340000004614710739007317400_);fill:url(#SVGID_00000129886781453053559860000004333071473357528238_);" d="
				M573.6,548.7L413.8,708.5l237-82.1L573.6,548.7z"/>
		</g>
	</g>
	<g>
		<g>
			<defs>
				<path id="SVGID_00000093136231629471950780000011176637287761079223_" d="M853.2,269L573.6,548.7l279.6,279.7H533.7L413.8,708.5
					L254,548.7L533.7,269H853.2z M533.7-210.3L14.4,309l159.8,159.8l679-679.1C853.2-210.3,533.7-210.3,533.7-210.3z"/>
			</defs>
			<clipPath id="SVGID_00000039125324583500399220000016109813037108092067_">
				<use xlink:href="#SVGID_00000093136231629471950780000011176637287761079223_"  style="overflow:visible;"/>
			</clipPath>
			<g style="clip-path:url(#SVGID_00000039125324583500399220000016109813037108092067_);">
				<path class="st6" d="M254.1,548.6l159.8-159.8l159.8,159.8L413.9,708.5L254.1,548.6z"/>
			</g>
		</g>
	</g>
	
		<radialGradient id="SVGID_00000009560048808970309620000011134785395281774999_" cx="433.84" cy="309.0872" r="18.3237" gradientTransform="matrix(3.767308e-04 0 0 -3.767318e-04 -48002.3906 -23571.6348)" gradientUnits="userSpaceOnUse">
		<stop  offset="0" style="stop-color:#FFFFFF;stop-opacity:0.1"/>
		<stop  offset="1" style="stop-color:#FFFFFF;stop-opacity:0"/>
	</radialGradient>
	<path style="fill:url(#SVGID_00000009560048808970309620000011134785395281774999_);" d="M853.2,269L573.6,548.7l279.6,279.7H533.7
		L413.8,708.5L254,548.7L533.7,269H853.2z M533.7-210.3L14.4,309l159.8,159.8l679-679.1C853.2-210.3,533.7-210.3,533.7-210.3z"/>
</g>
<g transform="matrix(1.0352624 0 0 1.0352624 -1.939178 -1.035154)">
	<path class="st8" d="M37.1,11.4h10.5v2h-8.3v6.2h7.5v2h-7.5v7.8h-2.1v-18H37.1z"/>
	<path class="st8" d="M50.1,11.4h2.1v18.1h-2.1V11.4z"/>
	<path class="st8" d="M60.1,29.9c-1.6,0-2.7-0.5-3.6-1.4c-0.8-0.9-1.2-2.2-1.2-3.8v-8.1h2.1v7.8c0,1.2,0.3,2.1,0.8,2.7
		c0.6,0.6,1.3,0.9,2.3,0.9c0.7,0,1.4-0.2,1.9-0.6c0.6-0.4,1-0.9,1.3-1.5c0.3-0.6,0.5-1.3,0.5-2v-7.3h2.1v12.9h-2v-1.9h-0.1
		c-0.4,0.6-0.9,1.2-1.7,1.6C61.8,29.7,61,29.9,60.1,29.9z"/>
	<path class="st8" d="M74.7,29.7c-0.5,0-1-0.1-1.5-0.3c-0.4-0.2-0.8-0.4-1.1-0.7c-0.3-0.3-0.6-0.7-0.8-1.1S71,26.7,71,26.1v-7.6
		h-2.3v-1.9H71V13h2.1v3.6h3.1v1.9h-3.1v7c0,0.7,0.1,1.2,0.4,1.6c0.3,0.4,0.8,0.6,1.4,0.6c0.5,0,1-0.1,1.4-0.4v2.1
		c-0.3,0.1-0.5,0.2-0.8,0.3C75.5,29.7,75.1,29.7,74.7,29.7z"/>
	<path class="st8" d="M83.8,29.7c-0.5,0-1-0.1-1.5-0.3c-0.4-0.2-0.8-0.4-1.1-0.7c-0.3-0.3-0.6-0.7-0.8-1.1s-0.3-0.9-0.3-1.5v-7.6H78
		v-1.9h2.3V13h2.1v3.6h3.1v1.9h-3.1v7c0,0.7,0.1,1.2,0.4,1.6c0.3,0.4,0.8,0.6,1.4,0.6c0.5,0,1-0.1,1.4-0.4v2.1
		c-0.3,0.1-0.5,0.2-0.8,0.3C84.6,29.7,84.2,29.7,83.8,29.7z"/>
	<path class="st8" d="M93.3,29.9c-1.2,0-2.3-0.3-3.3-0.9c-1-0.6-1.7-1.4-2.3-2.4c-0.5-1-0.8-2.2-0.8-3.5c0-1.2,0.3-2.4,0.8-3.4
		s1.3-1.9,2.2-2.5c0.9-0.6,2-0.9,3.3-0.9s2.4,0.3,3.3,0.9c0.9,0.6,1.6,1.3,2.1,2.3s0.8,2.1,0.8,3.4c0,0.3,0,0.5-0.1,0.7H89
		c0.1,1,0.3,1.8,0.7,2.5c0.4,0.7,1,1.2,1.6,1.5c0.7,0.3,1.3,0.5,2,0.5c1.7,0,2.9-0.8,3.8-2.3l1.8,0.9c-0.6,1-1.3,1.9-2.3,2.5
		C95.8,29.6,94.7,29.9,93.3,29.9L93.3,29.9z M97,21.7c0-0.5-0.2-1.1-0.5-1.6s-0.7-1-1.3-1.4c-0.6-0.4-1.3-0.6-2.2-0.6
		c-1,0-1.9,0.3-2.6,1c-0.7,0.6-1.1,1.5-1.4,2.6H97z"/>
	<path class="st8" d="M101.8,16.6h2v2.1h0.1c0.3-0.7,0.7-1.3,1.5-1.7c0.7-0.5,1.5-0.7,2.3-0.7c0.6,0,1.1,0.1,1.5,0.3v2.3
		c-0.5-0.3-1.1-0.4-1.8-0.4c-0.6,0-1.2,0.2-1.7,0.5c-0.5,0.4-0.9,0.8-1.3,1.4c-0.3,0.6-0.5,1.2-0.5,1.9v7.2h-2.1V16.6z"/>
</g>
</svg>
