<svg id="Layer_1" data-name="Layer 1" xmlns="http://www.w3.org/2000/svg" viewBox="0 0 482.95 583.84"><defs><style>.cls-1{fill:#3b4eff;}.cls-2,.cls-7,.cls-8{fill:#2e2e2e;}.cls-3,.cls-5,.cls-6{fill:#f5f5ff;}.cls-3,.cls-4,.cls-5,.cls-6,.cls-7,.cls-8,.cls-9{stroke:#2e2e2e;}.cls-3,.cls-4,.cls-5,.cls-6,.cls-8,.cls-9{stroke-linecap:round;stroke-linejoin:round;}.cls-3,.cls-4{stroke-width:0.54px;}.cls-4,.cls-9{fill:none;}.cls-5{stroke-width:0.56px;}.cls-6{stroke-width:0.62px;}.cls-7{stroke-miterlimit:10;stroke-width:0.46px;}.cls-8{stroke-width:0.92px;}.cls-9{stroke-width:0.62px;}</style></defs><circle class="cls-1" cx="241.47" cy="218.13" r="218.13" transform="translate(-83.52 234.64) rotate(-45)"/><path class="cls-2" d="M127.31,110.4a36.08,36.08,0,0,1,1.74-27.53,33.39,33.39,0,0,1,20.57-17.22c.93-13.61,12.55-24.24,25.56-23.75a20.1,20.1,0,0,1,11.93-14.63,17.65,17.65,0,0,1,17.6,2.91c1.55-6,5.55-11.76,11.39-13a16.18,16.18,0,0,1,16,6.05c3.14-7,10.13-8.71,17.54-9.24a21,21,0,0,1,19,10c5-6.24,13.17-7.77,20.42-4.87s12.32,10.92,12.06,19c4.66-3.7,12.12-2.55,17.34.23A17,17,0,0,1,327,53.28c6.51.15,12.36,4,16,9.64a22.86,22.86,0,0,1,2.41,19.54c6.54.88,11.33,8.65,13.49,15.18a19.74,19.74,0,0,1-4.11,19.2c5.36,3.56,7.18,12,8.15,18.53A24.49,24.49,0,0,1,358,154c4.31,4.17,4.92,13.07,4.13,19.16a19.53,19.53,0,0,1-9.77,14.49c4,4.29,1.87,13.53-.66,18.91a14.18,14.18,0,0,1-14.16,8.05c1.68,5.68-2.64,14.26-7.21,17.79a13.62,13.62,0,0,1-16,.3C313,246.61,296.28,261.88,283,260.27c-3.32,5.67-11,10.92-17.36,11.3a19.74,19.74,0,0,1-16.7-7.88c-2.33,6.15-11,13-17.31,13a16.34,16.34,0,0,1-14.81-10.45c-10.63,6.32-29-.82-34.06-12.46-4.66,4.77-15.15,7.28-20.68,3.68s-8.23-11.36-6.21-17.85c-5.19.55-11.68-2.32-15.25-6.3a18.76,18.76,0,0,1-4.37-15.14c-4.94-.65-9.69-6.57-11.47-11.44A15.35,15.35,0,0,1,127.28,192c-4.39-3.36-6.36-10.94-6.66-16.63a20.12,20.12,0,0,1,6-15.33c-7.86-7.43-9-23.25-1.25-30.75-3.14-1.9-4.06-4.63-4.2-8.42S124.32,112.55,127.31,110.4Z"/><path class="cls-3" d="M301.73,171.81c-8.9,14.3-8,31.23,1.93,37.82s25.25.36,34.15-13.94,8-31.23-1.92-37.82S310.64,157.51,301.73,171.81Z"/><path class="cls-4" d="M328.39,164.73a13.26,13.26,0,0,1,3.47,22.72"/><path class="cls-3" d="M181.58,171.81c8.9,14.3,8,31.23-1.93,37.82s-25.25.36-34.15-13.94-8-31.23,1.92-37.82S172.67,157.51,181.58,171.81Z"/><path class="cls-4" d="M154.92,164.73a13.26,13.26,0,0,0-3.47,22.72"/><path class="cls-5" d="M284.38,337.28a42.75,42.75,0,1,1-85.47,1.45c0-.48,0-1,0-1.45l4.74-63.71,1.21-16.13,2.37-31.65H276l3.78,50,2.7,36.4Z"/><path class="cls-2" d="M282.49,312.22c-22.57,1.61-47.42-9.61-64.48-31.41a85.61,85.61,0,0,1-13.11-23.37l2.37-31.65H276l3.78,50Z"/><path class="cls-3" d="M315.25,214.18a111.24,111.24,0,0,1-11.2,21c-9,13.39-20.85,25.95-32.71,33.92-13,8.71-30,11.56-44.88,6.5-11.67-4-21.29-12.33-29.9-21.17-10.73-11-20.53-23.33-26-37.7-4.27-11.18-6.1-23.61-6.59-36.34-.68-17.64,1.21-35.83,2.72-52,2.21-23.89,16.68-46.56,37.32-58.72a75.89,75.89,0,0,1,112.1,46.84c4.1,16.19,2.7,33,2.95,49.51.06,4.64.28,9.31.38,14C319.73,191.59,319.5,203.22,315.25,214.18Z"/><path class="cls-2" d="M319.69,180v.58l-.43-.38a26.35,26.35,0,0,1-9-18.45l-2.81-53.32c-2.81-1.12-5.5-2.28-8.24-3.55A131,131,0,0,1,287.5,98.5a94.91,94.91,0,0,1-20.37-16A108.55,108.55,0,0,1,242,85.33a104.45,104.45,0,0,1-28.84-3.81,91.1,91.1,0,0,1-19.06,15.67,119.69,119.69,0,0,1-13.9,7.66c-1.08.5-2.27,1-3.69,1.66l-2.81,55.21a26.26,26.26,0,0,1-9.52,18.87l-.42.35,0-.54c-.61-16.41,1-33.5,2.39-48.56l.35-3.5A76.42,76.42,0,0,1,271.87,64.77a77.62,77.62,0,0,1,44.47,51.63c3.16,12.48,3.08,25.49,3,38.08,0,3.78,0,7.7,0,11.52,0,2.65.12,5.39.23,8C319.57,176,319.65,178,319.69,180Z"/><path class="cls-2" d="M299.74,85.06a75.65,75.65,0,0,0-27.87-20.29,77.54,77.54,0,0,0-68,4.62,76.51,76.51,0,0,0-19.68,16.83,38,38,0,0,0,5.13,6.62,18.4,18.4,0,0,0,21.8,17.45c1.08,4.25,6.09,8.62,10.42,9.25a11.44,11.44,0,0,0,11.19-5.32c2.43,3.75,7.47,7,11.93,6.67A12.71,12.71,0,0,0,255,113.41c2.63,4.44,6.79,8.31,11.9,7.62a13.55,13.55,0,0,0,11-9.64c6.44,1.85,14-1.22,15.62-7.72a12.33,12.33,0,0,0-1.45-9A38.67,38.67,0,0,0,299.74,85.06Z"/><path class="cls-6" d="M264.53,232.36c0,6-12.79,10.82-21.48,10.82-8.17,0-24.79-4.85-24.79-10.82"/><path class="cls-7" d="M264.53,232.19v.11H218.26v-.11c0-4.54,16.11-8.23,24.79-8.23C251.22,224,264.53,227.65,264.53,232.19Z"/><path class="cls-2" d="M260.16,229.63a11,11,0,0,0,10.15-1.26.27.27,0,0,1,.33.42,12.14,12.14,0,0,1-11,2.4.82.82,0,1,1,.53-1.56Z"/><path class="cls-2" d="M223.67,231.19a12.12,12.12,0,0,1-11-2.4.28.28,0,0,1,0-.38.28.28,0,0,1,.36,0,11,11,0,0,0,10.15,1.26.82.82,0,1,1,.52,1.56Z"/><path class="cls-8" d="M234.74,231.33a11.25,11.25,0,0,0,14.4.66"/><path class="cls-2" d="M253.34,151.54c1.81-4.42,5.42-7.68,9.42-9.93A29.84,29.84,0,0,1,276,138a29.45,29.45,0,0,1,13.45,2.72,21.14,21.14,0,0,1,10.11,9.2l-12.36-.33c-3.75-.07-7.31-.06-10.84,0s-7.07.32-10.8.63S258,151,253.34,151.54Z"/><path class="cls-2" d="M230,151.54c-4.69-.53-8.51-1-12.27-1.26s-7.26-.52-10.79-.63-7.09-.11-10.84-.05l-12.36.34a21.14,21.14,0,0,1,10.11-9.2A29.45,29.45,0,0,1,207.27,138a29.84,29.84,0,0,1,13.28,3.59C224.55,143.86,228.16,147.12,230,151.54Z"/><path class="cls-2" d="M256,183l3-5.31c7.28-10.69,19.88-13.53,31.11-7.11a26.1,26.1,0,0,1,8.62,7.76.24.24,0,0,1-.07.33.23.23,0,0,1-.28,0c-1.46-1.29-2.78-2.61-4.22-3.83a29.17,29.17,0,0,0-4.64-3.19c-10.87-5.91-22.5-3.46-29.89,6.52.07-.15-3.24,5.12-3.24,5.09-.15.25-.56,0-.4-.24Z"/><path class="cls-2" d="M269.68,175.58a7.08,7.08,0,1,1,6.56,7.58A7.09,7.09,0,0,1,269.68,175.58Z"/><path class="cls-4" d="M291,182.05a17.71,17.71,0,0,0,7.15-3.43"/><path class="cls-4" d="M255.33,170.83a24.64,24.64,0,0,1,30-10.55"/><path class="cls-2" d="M226.89,183.27s-3.32-5.23-3.24-5.09c-7.39-10-19-12.43-29.89-6.52-3.38,1.79-6,4.45-8.86,7a.23.23,0,0,1-.33,0,.24.24,0,0,1,0-.29,26.1,26.1,0,0,1,8.62-7.76c11.24-6.43,23.86-3.57,31.13,7.14l3,5.28a.23.23,0,0,1-.4.24Z"/><path class="cls-2" d="M213.63,175.58a7.08,7.08,0,1,0-6.56,7.58A7.09,7.09,0,0,0,213.63,175.58Z"/><path class="cls-4" d="M192.27,182.05a17.71,17.71,0,0,1-7.15-3.43"/><path class="cls-4" d="M228,170.83a24.64,24.64,0,0,0-30-10.55"/><path class="cls-9" d="M230.5,208.58c-3.81.46-6-3.67-4.2-7.07"/><path class="cls-9" d="M252.81,209c3.81.46,6-3.67,4.2-7.07"/><path class="cls-9" d="M230.16,208a17.81,17.81,0,0,0,22.86.37"/><path class="cls-2" d="M407.69,502.34c-32.81,14.8-62.76,19.37-66.9,10.19s19.1-28.61,51.91-43.41,62.76-19.37,66.9-10.2S440.5,487.54,407.69,502.34Z"/><path class="cls-3" d="M393.28,582.92l-15.36-37.3-12.3-29.9L355.26,490.5l-22.78-55.34c-12-29.12-.21-61.38,25.66-70.24a41.52,41.52,0,0,1,13.72-2.21c.42,0,.85,0,1.27.05,20.06.73,39.43,15.61,47.2,38.35L438.76,455,447,479.16l35.66,104.42"/><path class="cls-3" d="M458.89,457.81c-6.07-7.66-34.81-2.83-66.18,11.29-32.81,14.81-56.08,34.25-51.9,43.45a2.74,2.74,0,0,0,.34.55l-.34.15-36.25-85c-14.22-33.36,1.14-71.4,33.46-82.68a55.94,55.94,0,0,1,18.55-3.19c22.12,0,43.35,13.13,54.24,34.41Z"/><path class="cls-2" d="M76.06,502.91c32.81,14.8,62.76,19.37,66.9,10.19s-19.1-28.61-51.91-43.42-62.76-19.36-66.9-10.19S43.25,488.11,76.06,502.91Z"/><path class="cls-3" d="M.27,583.58,36.69,479.46l8.43-24.14L64,401.57c8.09-23.14,28.23-38,48.71-38h.27a41.87,41.87,0,0,1,13.44,2.31c25.79,9.05,37.38,41.39,25.18,70.42l-23.18,55.18v0l-10.55,25.1-11.24,26.76L89.67,583.58"/><path class="cls-3" d="M24.86,458.38c6.07-7.66,34.81-2.83,66.18,11.29,32.81,14.81,56.08,34.25,51.9,43.45a3.28,3.28,0,0,1-.34.55l.34.15,36.25-85c14.22-33.36-1.14-71.4-33.46-82.69A56.18,56.18,0,0,0,127.18,343c-22.12,0-43.35,13.13-54.24,34.41Z"/><polygon class="cls-3" points="378.76 583.58 104.19 583.58 105.61 543.34 106.61 514.31 107.89 478.65 111.97 363.53 112.59 344.23 172.92 324.6 182.85 321.02 187.78 319.21 200.64 312.3 204.53 312.3 278.84 312.3 280.38 312.3 294.82 318.94 299.71 320.71 309.64 324.3 370.91 344.23 371.36 363.57 373.56 428.41 375.21 477.96 376.41 513.81 376.41 514 377.49 546.38 378.76 583.58"/><path class="cls-3" d="M282.87,310.57l10,7.54,4.69,1.68a56.79,56.79,0,0,1-112.62.3l4.78-1.73,11.38-9.16"/></svg>