<?xml version="1.0" encoding="utf-8"?>
<!-- Generator: Adobe Illustrator 26.2.1, SVG Export Plug-In . SVG Version: 6.00 Build 0)  -->
<svg version="1.1" id="Layer_1" xmlns="http://www.w3.org/2000/svg" xmlns:xlink="http://www.w3.org/1999/xlink" x="0px" y="0px"
	 viewBox="0 0 500.9 583.8" style="enable-background:new 0 0 500.9 583.8;" xml:space="preserve">
<style type="text/css">
	.st0{fill:#14B2A3;}
	.st1{fill:#009990;}
	.st2{fill:#FFFFFF;}
	.st3{fill:#17CCBB;}
	.st4{fill:#3D3D3D;}
	.st5{fill:#56B3AE;}
	.st6{fill:#FEDCB5;}
	.st7{fill:#EDAB7D;}
	.st8{fill:#EBA53C;}
	.st9{fill:#FBB040;}
	.st10{fill:#5B3824;}
</style>
<g>
	<path class="st0" d="M458.7,435.5c-5.9-14.6-17-26.5-31.2-33.4l-128.7-62.2h-51.3h-51.3L67.6,402.1c-14.2,6.9-25.3,18.8-31.2,33.4
		C24.9,464,7,516.5,0.2,580.9h247.4h247.4C488.1,516.5,470.2,464,458.7,435.5z"/>
	<path class="st1" d="M427.6,402.1l-91.7-44.3l0,0l-31.7,29c0,0,26.2-14.1,33.4-15.2c7.2-1.1,60.7,39.2,73.7,47.9
		c13.1,8.7,28.5,30.1,34.8,49.9c6.3,19.8,35.6,95.7,35.2,101.1c-0.5,5.4-96.4,10.5-127.5,10.5h141.1
		c-6.8-64.4-24.7-116.9-36.2-145.4C452.8,420.8,441.7,408.9,427.6,402.1z"/>
	<path class="st2" d="M34,574.8c-6.2-0.1-10.8-0.4-14.2-0.8c-5.4-0.6-9.2-5.6-8.3-11c2.5-14.9,8.3-47.1,17.3-84.2
		c12.5-51.4,32.6-64.8,38.4-68.6c5.8-3.8,80.2-40.8,88.3-41.8c8.2-1,40.8,23.2,40.8,23.2l-37-33.8l0,0l-91.7,44.3
		c-14.2,6.9-25.3,18.8-31.2,33.4C24.9,464,7,516.5,0.2,580.9h159C161.1,580.9,55.6,575.3,34,574.8z"/>
	<polygon class="st3" points="247.6,386.1 219.7,413 159.2,357.8 196.3,339.9 	"/>
	<path class="st2" d="M200.5,343.5c0,0-26.3,12.7-30.2,16.8c-3.9,4.1,9.4,16.2,9.4,16.2l-20.5-18.7l37-17.9L200.5,343.5z"/>
	<polygon class="st3" points="247.6,386.1 275.4,413 335.9,357.8 298.9,339.9 	"/>
	<polygon class="st4" points="247.6,386.1 225.7,407.3 232.2,417.4 232.2,580.9 247.6,580.9 262.9,580.9 262.9,417.4 269.4,407.3 	
		"/>
	<path class="st5" d="M270.1,369.1c0,0,21.5-16.7,28.7-17.6c4-0.5,10.9,1.6,16.3,3.6c3.8,1.4,5.1,6.1,2.5,9.3l-31.5,38.8l49.8-45.4
		l-37-17.9L270.1,369.1z"/>
	<path class="st5" d="M219.1,360.4c0,0,18.5,19.8,15.8,25.7c-2.7,5.9-17.3,24.9-17.3,24.9l2.1,2l27.8-26.9L219.1,360.4z"/>
	<path class="st6" d="M290.9,301.8c-12.6,9.1-27.8,13.9-43.4,13.9s-30.8-4.8-43.4-13.9c-2.7-2-5.3-4.1-7.9-6.2v44.3l51.3,46.3
		l51.3-46.3v-44.3C296.3,297.7,293.7,299.8,290.9,301.8z"/>
	<path class="st7" d="M290.9,301.8c-12.6,9.1-27.8,13.9-43.4,13.9s-30.8-4.8-43.4-13.9c0,0,8.6,19.6,34,22.8
		c25.3,3.2,42.5-10.1,46.9-8.9c4.4,1.3,3.2,17.8,0,24.1c-3.2,6.3-32.5,32.9-37.5,33.5c-5,0.6-31.7-15.9-31.7-15.9l31.7,28.6
		l51.3-46.3v-44.3C296.3,297.7,293.7,299.8,290.9,301.8z"/>
	<path class="st2" d="M204.2,301.8c0,0-2.3,27.3,0,34.2c2.3,7,11.7,21.5,11.7,21.5l-19.6-17.7v-44.3L204.2,301.8z"/>
	<path class="st6" d="M363.2,171c-0.2-9.1-7.8-16.4-16.9-16.2l-2.3,0v-5v-49.7h-96.5H151v49.7v5l-2.3,0c-9.1-0.2-16.7,7-16.9,16.2
		l-0.2,7.2c-0.2,11.4,8.2,21,19.3,22.3v2.1c0,21.9,6.2,43.3,18,61.8h0c9.3,14.6,21.3,27.3,35.2,37.3c12.6,9.1,27.8,13.9,43.4,13.9
		s30.8-4.8,43.4-13.9c13.9-10.1,25.9-22.7,35.2-37.3l0,0c11.7-18.5,18-39.9,18-61.8v-2.1c11.1-1.4,19.5-10.9,19.3-22.3L363.2,171z"
		/>
	<path class="st2" d="M165.9,244.8c-7.5-16.4-7.6-36-7.1-45c0.1-2.7-1.5-5.3-4.2-6.1c-5.5-1.8-12.3-5.6-14.8-11
		c-3.2-7,2.5-18,2.5-18l0.2-8.8c-6.1,2.3-10.6,8.2-10.7,15.1l-0.2,7.2c-0.2,11.4,8.2,21,19.3,22.3v2.1c0,21.9,6.2,43.3,18,61.8h0
		c9.3,14.6,21.3,27.3,35.2,37.3c7.9,5.7,16.8,9.7,26.1,11.9C200.4,304,176,267,165.9,244.8z"/>
	<path class="st7" d="M355.8,157.6c-5.5,14.1-11.7,20.1-11.7,20.1s-4.7-22.4-12.4-35.8c-7.7-13.4-12.2-19.7-13.4-30.7
		c0,0-43.5,13.4-70.7,13.4c-27.2,0-70.7-13.4-70.7-13.4s28.9,22.1,68.2,21.5c39.3-0.6,64.6-10.7,64.6-10.7s9.5,14.5,12.7,22.1
		c3.2,7.6,12.4,25.3,13.5,41.8s-4.9,88.2-61.5,124.9c5.8-2.3,11.4-5.2,16.5-8.9c13.9-10.1,25.9-22.7,35.2-37.3l0,0
		c11.7-18.5,18-39.9,18-61.8v-2.1c11.1-1.4,19.5-10.9,19.3-22.3l-0.2-7.2C363.1,165.4,360.2,160.5,355.8,157.6z"/>
	<path class="st8" d="M255.5,3.2l0.1-0.2c0,0-51.2-1.9-85.1,14.1c-24.2,11.4-33.6,4.6-37-0.3c-0.7-0.9-2.2-0.4-2.2,0.7
		c0,6.7,2.8,19.6,22.9,26.2c0,0-16.2,2.8-25.8-5.3c-0.9-0.8-2.3,0.1-1.9,1.2c1.7,6,6.3,16.7,18.1,19.4l0,0
		c-11.6,22.6-14.3,47.3-12.8,64.2c3.5,39,19.3,54.4,19.3,54.4s4.7-22.4,12.4-35.8c7.7-13.4,12.2-19.7,13.4-30.7
		c0,0,43.5,13.4,70.7,13.4c27.2,0,70.7-13.4,70.7-13.4c1.3,11,5.8,17.3,13.4,30.7c7.7,13.4,12.4,35.8,12.4,35.8s15.8-15.4,19.3-54.4
		C366.8,85.3,348.7,7.4,255.5,3.2z"/>
	<path class="st2" d="M149.5,171.5c-21.1-42.2-11.1-81.2,0.5-104.9c4.5-9.3-2.5-12.4-9.1-14.9c-6.6-2.5-11.1-9.3-11.1-9.3
		s-0.8,0.3-2.1,0.9c2.3,6,7.2,13.6,16.9,15.8l0,0c-11.6,22.6-14.3,47.3-12.8,64.2c3.5,39,19.3,54.4,19.3,54.4s0.1-0.7,0.4-1.8
		C150.9,174.6,150.3,173.1,149.5,171.5z"/>
	<path class="st9" d="M255.5,3.2l0.1-0.2c0,0-51.2-1.9-85.1,14.1c-20.7,9.8-30.6,6.2-35.1,1.9c-0.7,1.6-1,2.6-1,2.6
		s9.9,12,24.3,11.2c14.5-0.8,31.1,10.7,88,9.7c56.9-1,62.4,3.4,71.9,22.8c9.5,19.4,46.2,74.6,27,106.3c-0.9,1.4-1.5,2.7-2,3.9
		c0.3,1.4,0.5,2.3,0.5,2.3s15.8-15.4,19.3-54.4C366.8,85.3,348.7,7.4,255.5,3.2z"/>
	<g>
		<path class="st10" d="M500.5,573.7c-0.3-2.5-0.7-6.2-1.4-10.8c-1.2-9.3-3.4-22.6-6.7-38.4c-3.4-15.8-7.9-34.1-14.1-53.3
			c-3-9.6-6.4-19.5-10.2-29.4c-0.9-2.5-1.9-5-2.9-7.4c-1.1-2.6-2.2-5.2-3.6-7.6c-2.7-5-6.1-9.6-10-13.8c-3.9-4.1-8.3-7.8-13.1-10.8
			c-2.4-1.5-4.9-2.9-7.4-4.1c-2.4-1.2-4.8-2.3-7.1-3.5c-9.5-4.6-18.8-9.2-27.8-13.5c-18-8.8-34.8-17-49.2-24
			c-22.3-10.9-38.8-18.9-45.2-22c0-2.1-0.2-4.5-0.2-7.1c0-10.3,0-20.6,0-30.9c7-6,13.3-12.8,18.9-19.8
			c16.9-21.1,25.8-47.1,26.3-74.2c15.3-3.8,19.5-17.1,19.2-31.9c-0.6-5.9-3-10.6-6.7-13.9c3.2-9,5-18.6,6.1-27
			c2.2-18.1,0.6-36.1-4.7-53.6C346.2,29.1,304.7,3.3,256.7,0.4c-0.3-0.1-0.7-0.3-1.1-0.3c-18.1-0.6-36.4,1.1-54.2,4.4
			c-15.6,2.9-29,9.9-44,14.5c-5.8,1.7-12.4,2.4-17.9-0.5c-2.7-1.4-3.6-3.9-6.6-4.9c-1.3-0.4-2.5,0.3-3.3,1.3
			c-3,4.1-0.1,10.8,1.7,14.9c2.2,4.7,5.9,8.3,10.2,11c-5.3-1.2-9.5-5-14.6-5.3c-1.3-0.1-2.3,1-2.8,2.1c-2.8,7.6,7.6,20.4,16.2,23.6
			c-11.4,25-14.3,51.9-9.1,79c1,5.4,2.5,11.2,4.5,16.9c-13.1,11.8-7.6,40.3,12.4,45.7c0.7,34.6,17.7,72.1,45.2,94.8
			c0,10.1,0,20.1,0,30.2c0,3.4-0.3,6.2-0.1,8.8c-15.8,7.9-49.5,24.5-106.1,51.3c-4.7,2.3-9.6,4.6-14.5,6.9c-2.5,1.2-5,2.4-7.5,3.6
			c-2.7,1.3-5.2,2.8-7.7,4.5c-10,6.7-18.2,16.3-23.3,27.4c-0.6,1.4-1.2,2.8-1.8,4.2l-1.5,4c-1,2.7-2,5.4-3,8.1
			c-1.9,5.4-3.7,10.8-5.4,16.2c-3.4,10.7-6.3,21.3-8.9,31.4C3.4,534.8,0.7,568.5,0,578.1c-0.1,0.6,0.1,1.2,0.3,1.7
			C0.1,580,0,580.2,0,580.5c0,1.8,3.7,3.2,8.3,3.2l471.9,0.1c2.3,0,4.1-0.7,4.1-1.6c0-0.8-1.7-1.5-3.9-1.6
			c-20.4-0.4-118-2.4-214.8-3c0-28.8,0-57.7,0-86.5c0-18.9,0-37.7,0-56.6c0-5.1,0-10.1,0-15.2c0-3,1.7-5.6,3.6-8.2
			c1.3,1.3,2.7,2.6,4,3.9c1.2,1.1,2.9,1.1,4.1,0c19.8-18,39.5-36.1,59.3-54.1c17.8,8.6,41,20,70.2,34.6c4.7,2.3,9.5,4.7,14.4,7.1
			c2.4,1.2,4.9,2.4,7.4,3.6c2.3,1.1,4.6,2.5,6.7,3.9c8.7,5.8,16,14.1,20.7,23.7c0.6,1.2,1.1,2.4,1.7,3.7l1.6,3.9
			c1,2.6,2.1,5.3,3.1,7.9c2,5.3,4,10.5,5.9,15.7c3.7,10.5,7.1,20.8,10,30.7c11.9,39.7,16.9,72.9,18.3,82.4c0.2,1.6,1.3,2.7,2.4,2.6
			c1.2-0.1,1.9-1.5,1.7-3.2C500.9,577.5,500.8,576.2,500.5,573.7z M219.7,409.1c-18.1-16.6-36.3-33.1-54.4-49.7
			c14.3-6.9,25.3-12.2,31.5-15.2c0.2,0.1,0.3,0.3,0.5,0.4c0,0,0,0,0,0c15.4,13.9,30.7,27.7,46.1,41.6
			C235.5,393.8,227.6,401.5,219.7,409.1z M147,60.6c0.9-1.8-0.2-4.5-2.5-4.3c-4.2,0.2-13-7.9-14.7-13.8c1.5,0.9,3,2,4.2,2.4
			c3.3,1.1,6.4,1.7,9.8,2c3.7,0.4,7.5,0.2,11.1-0.4c3.1-0.5,2.4-4.7,0-5.6c-7.1-2.6-13.5-6.1-17.7-12.5c-0.8-1.3-2.4-4.3-2.9-6.9
			c0.8,0.8,1.6,1.5,2.3,1.9c3,1.9,6.7,2.4,10.2,2.7c14.6,1.1,28.9-9,42.5-12.9c20.8-6.1,43.7-8.1,65.4-7.4c0.1,0,0.1,0,0.2,0.1
			c0.1,0,0.1,0,0.2,0c0.1,0,0.2,0.1,0.4,0.1c46.5,2.5,85.2,26.8,99.8,72c4.7,14.5,6.5,30.1,5.3,45.2c-1.3,15.2-4.9,35.2-14.9,48.3
			c-2-8-4.5-15.9-7.7-23.6c-5.4-12.9-14.8-23.4-16.8-37.6c-0.2-1.5-2.2-2.4-3.5-2c-22.4,6.9-46.4,13-69.9,13.3
			c-23.3,0.3-47.8-6.5-69.9-13.3c-1.4-0.4-3.3,0.5-3.5,2c-2,14.2-11.5,24.7-16.8,37.6c-3.2,7.6-5.7,15.5-7.7,23.5
			c-6.4-8.6-9.7-20.1-12.1-30C130.9,114.3,134.7,85.6,147,60.6z M180.5,275.5c-17.6-21.1-26.6-47.6-26.6-74.9c0-1.2-0.9-2.5-2.1-2.8
			c-11.1-2-17.4-10.3-17.1-21.4c0.1-5.2,1.2-9.9,3.6-13.2c2.7,6.2,6.2,12.1,10.7,16.6c1.5,1.5,4.3,0.9,4.8-1.3
			c2.2-10.5,5.4-20.9,9.8-30.7c5.1-11.4,12.8-20.8,15.5-33c22.1,6.7,45.5,12.4,68.5,12.7c22.8,0.3,46.6-6,68.5-12.6
			c2.6,12.1,10,21.9,15.5,33c4.7,9.5,7.6,20.3,9.8,30.7c0.5,2.2,3.3,2.7,4.8,1.3c4.6-4.6,8.2-10.4,11-16.8c1.7,2,2.9,4.7,3.2,8.1
			c0.3,12.7-2.5,24.1-17,26.8c-1.2,0.2-2.1,1.6-2.1,2.8c0,33.1-15.9,70-42.4,92.2c-0.7,0-1.4,0.2-2,0.7c-2.4,2-4.8,3.9-7.3,5.8
			c-27.3,18.9-59.9,16.7-85.9-1.7c-0.1-0.1-0.2-0.1-0.3-0.2c-0.8-0.6-1.6-1.2-2.3-1.8C193.4,289.7,186.6,282.8,180.5,275.5z
			 M247.6,318.6c11.5,0.2,22.2-2.5,32-7.1c4.4-2,8.7-4.4,12.8-7.2c1-0.7,1.9-1.5,2.8-2.2c0.2-0.2,0.5-0.4,0.7-0.6
			c0,8.2,0,16.4,0,24.6c0,4.2,0,8.3,0,12.5c-16.1,14.6-32.3,29.1-48.4,43.7c-15.5-14-31.1-28-46.6-42c-0.5-0.4-1-0.9-1.4-1.3l0,0
			c-0.1-0.1-0.3-0.2-0.4-0.4c0-4.2,0-8.3,0-12.5c0-8,0-16,0-24C213.1,312.1,229.5,318.2,247.6,318.6z M179.5,577.5
			c-98.1,0.4-151.7,0-171.1-0.1c-1.5,0-2.9,0.1-4.2,0.4c0.1-0.6,0.2-1.6,0.4-3.1c0.3-2.5,0.7-6.1,1.4-10.7
			c1.3-9.2,3.4-22.3,6.8-37.9c3.4-15.6,8-33.6,14.1-52.5c3-9.5,6.4-19.2,10.2-28.9c0.9-2.4,1.9-4.9,2.9-7.3c1-2.3,2-4.6,3.2-6.8
			c2.4-4.4,5.4-8.4,8.8-12.1c3.5-3.6,7.3-6.8,11.6-9.5c2.1-1.4,4.3-2.5,6.6-3.6c2.4-1.2,4.8-2.3,7.1-3.4c9.5-4.6,18.8-9.1,27.8-13.4
			c18-8.7,34.9-16.8,49.3-23.8c1.8-0.9,3.6-1.7,5.3-2.6c19.3,17.6,38.7,35.3,58,52.9c1.2,1.1,2.9,1.1,4.1,0c1.2-1.2,2.4-2.3,3.6-3.5
			c2.1,2.7,4.1,5.4,4.1,8c0,4.8,0,9.6,0,14.4c0,18.6,0,37.3,0,55.9c0,29.2,0,58.4,0,87.5C212.3,577.4,195.5,577.4,179.5,577.5z
			 M266.2,408.2c-1.5,2.3-3,4.6-4.4,6.9c-0.9,1.4-1.6,2.1-1.6,3.6c0,16.3,0,32.6,0,48.9c0,36.6,0,73.3,0,109.9
			c-8.4-0.1-16.8-0.1-25.1-0.1c0-36.8,0-73.6,0-110.5c0-16.3,0-32.6,0-48.9c0-1.2-0.2-1.7-0.9-2.9c-1.5-2.3-3-4.6-4.4-6.9
			c-0.1-0.2-0.3-0.4-0.4-0.5c6.1-5.9,12.2-11.8,18.3-17.7C253.8,396.2,260,402.2,266.2,408.2C266.2,408.2,266.2,408.2,266.2,408.2z
			 M251.8,386.2c15.4-13.9,30.7-27.7,46.1-41.6l0,0c0.5-0.5,1-0.9,1.5-1.4c10.5,5.1,21,10.1,31.5,15.2
			c-18.5,16.9-36.9,33.7-55.4,50.6C267.5,401.5,259.7,393.8,251.8,386.2z"/>
		<circle class="st10" cx="204.2" cy="181.6" r="9.8"/>
		
			<ellipse transform="matrix(0.9239 -0.3827 0.3827 0.9239 -47.1157 126.2593)" class="st10" cx="293.8" cy="181.6" rx="9.8" ry="9.8"/>
		<path class="st10" d="M236.1,232c0.5,0.3,1,0.6,1.5,0.9c1,0.5,2,1,3,1.3c2.1,0.7,4.2,0.9,6.1,0.8c3.8-0.3,6.7-1.5,8.6-2.4
			c1.9-0.9,2.9-1.6,2.9-1.6c0.7-0.4,0.6-1.6-0.1-2.5c-0.7-0.9-1.7-1.4-2.2-1.1c-1.1,0.7-3.3,2.3-7.1,3.2c-1.9,0.4-4.1,0.6-6.5-0.1
			c-1.2-0.4-2.5-0.9-3.7-1.8c-0.3-0.2-0.6-0.4-0.9-0.6c-0.2-0.2-0.4-0.4-0.6-0.6c-0.4-0.4-0.6-1-0.8-1.5c-0.2-0.7-0.1-1.4,0.1-2
			c0.4-1,0.9-2.1,1.4-3.2c0.9-2.3,1.6-4.6,2.2-7c1.3-4.7,2.2-9.5,2.8-13.8c1.3-8.7,1.8-15.8,1.9-17.8c0-0.3-0.4-0.7-1-0.7
			c-0.6-0.1-1.1,0.1-1.1,0.5c0,0-0.6,4.4-1.9,11c-1.3,6.5-3.1,15.3-5.9,23.6l-1.2,3l-0.6,1.5l-0.3,0.7c-0.1,0.3-0.3,0.7-0.4,1
			c-1,2.9,0.1,6.2,2.2,8.1C235.2,231.4,235.7,231.7,236.1,232z"/>
		<path class="st10" d="M230.7,265.3c1.9,1.5,4.4,3.1,7.5,4.3c3.1,1.2,6.7,2.1,10.7,2.1c4-0.1,7.6-1.1,10.6-2.4
			c3-1.3,5.5-2.8,7.5-4.2c3.9-2.9,5.7-5.3,5.3-5.9c-0.5-0.6-3,0.8-7.2,2.7c-4.1,1.8-9.9,4.4-16.2,4.6c-6.4,0.1-12.1-2.4-16.1-4.3
			c-4-2-6.5-3.5-7-3C225.2,259.7,226.9,262.3,230.7,265.3z"/>
		<path class="st10" d="M214.2,158.1c2.6,0.9,4.2,1.8,4.7,1.4c0.5-0.4-0.3-2.5-2.9-4.6c-2.5-2.1-7.2-4-12.3-3.6
			c-5.1,0.4-9.3,2.5-11.8,4.4c-2.5,1.9-3.7,3.6-3.3,4.1c0.9,1.4,7.4-2.6,15.4-3.2C208.1,156.3,211.6,157.1,214.2,158.1z"/>
		<path class="st10" d="M283.5,158.1c2.6-1,6.1-1.8,10.1-1.6c8,0.6,14.5,4.7,15.4,3.2c0.4-0.6-0.8-2.2-3.3-4.1
			c-2.5-1.9-6.7-4-11.8-4.4c-5.2-0.3-9.8,1.5-12.3,3.6c-2.6,2.1-3.4,4.1-2.9,4.6C279.3,159.9,280.9,159,283.5,158.1z"/>
	</g>
</g>
</svg>
