<?xml version="1.0" encoding="utf-8"?>
<!-- Generator: Adobe Illustrator 26.2.1, SVG Export Plug-In . SVG Version: 6.00 Build 0)  -->
<svg version="1.1" id="Layer_1" xmlns="http://www.w3.org/2000/svg" xmlns:xlink="http://www.w3.org/1999/xlink" x="0px" y="0px"
	 viewBox="0 0 477.9 523.9" style="enable-background:new 0 0 477.9 523.9;" xml:space="preserve">
<style type="text/css">
	.st0{fill:none;stroke:#5B3824;stroke-width:16;stroke-miterlimit:10;}
	.st1{fill:#FFBF9B;}
	.st2{fill:#3D2E46;}
	.st3{fill:#C196FF;}
	.st4{fill:#7860C4;}
	.st5{opacity:0.3;}
	.st6{fill:#FFA687;}
	.st7{fill:#FF8882;}
	.st8{fill:#FFA258;}
	.st9{fill:#FFFFFF;}
	.st10{fill:#A03E4B;}
	.st11{fill:#FFD893;}
</style>
<g>
	<path class="st0" d="M460.4,489.1L460.4,489.1l-8.5-34.8c-0.4-1.5-0.8-2.9-1.2-4.4c-0.1-0.2-0.1-0.4-0.2-0.6
		c-9.9-33.8-34.9-61.4-67.8-74.4l-95.9-38l-9.3-3.7v-34.1v-6.3c2.4-1.7,4.8-3.5,7-5.6l3.6-3.3c15.9-14.6,27.2-33.3,32.9-53.8
		c4.8,3.7,10.7,5.8,17.2,5.8c15.6,0,28.3-12.7,28.3-28.3c0-15.6-12.7-28.3-28.3-28.3c-2.9,0-5.6,0.4-8.2,1.2l3.8-22
		c2.7-22.9-1.1-50.9-8.3-72.9c-2.1-6.5-4.8-13.1-9.6-18.1c-6.3-5.5-20.9-7.3-20.9-7.3c4.7-3,9.4-5.4,14.2-8.3
		c-12.7-11-31.1-17.1-47.8-15.1c5.5-6.4,12.8-11.4,20.8-14.1c-19.9-5.2-42.1-3.4-60.5,5.8c2.2-5.4,4.9-10.5,7.1-16
		c-23.1,6.8-41.1,26.1-48.1,49.2c-6.6-2.1-13.9,0.8-18.7,5.8c-4.8,4.9-7.5,11.5-9.6,18.1c-7.2,22-11,50-8.3,72.9l3.8,22
		c-2.6-0.8-5.4-1.2-8.2-1.2c-15.6,0-28.3,12.7-28.3,28.3c0,15.6,12.7,28.3,28.3,28.3c6.5,0,12.4-2.2,17.2-5.8
		c5.7,20.5,17,39.1,32.9,53.8l3.6,3.3c2.2,2,4.5,3.9,7,5.6v6.3v34.1l-9.3,3.7l-95.9,38c-33,13.1-57.9,40.6-67.8,74.4
		c-0.1,0.2-0.1,0.4-0.2,0.6c-0.4,1.5-0.8,2.9-1.2,4.4l-2,8.3l0,0l-6.5,26.5l0,0l-6.5,26.5h228h228L460.4,489.1z"/>
	<g>
		<g>
			<path class="st1" d="M275.1,302.6c-9.4,12.9-21.7,20.1-34.4,20.1h-1.8h-1.8c-12.7,0-25-7.2-34.4-20.1l-2.5-3.4v34.1l-9.3,3.7
				l3.8,5.5c10.1,14.4,26.6,23,44.2,23s34.1-8.6,44.2-23l3.8-5.5l-9.3-3.7v-34.1L275.1,302.6z"/>
			<path class="st2" d="M237.1,322.6h1.8h1.8c12.7,0,25-7.2,34.4-20.1l2.5-3.4V254h-38.7h-38.7v45.2l2.5,3.4
				C212.1,315.5,224.3,322.6,237.1,322.6z"/>
		</g>
		<g>
			<path class="st3" d="M451.9,454.4c-8.8-36.1-34.6-65.8-69.2-79.5l-95.9-38l-3.8,5.5c-10.1,14.4-26.6,23-44.2,23
				s-34.1-8.6-44.2-23l-3.8-5.5l-95.9,38c-34.6,13.7-60.4,43.3-69.2,79.5l-15,61.2h228h228L451.9,454.4z"/>
			<g>
				<path class="st4" d="M25.8,454.4l-2,8.3H454l-2-8.3c-1.5-6.3-3.6-12.4-6.1-18.2H31.9C29.4,442,27.3,448.1,25.8,454.4z"/>
				<polygon class="st4" points="10.8,515.6 238.9,515.6 466.9,515.6 460.4,489.1 17.3,489.1 				"/>
				<path class="st4" d="M286.9,336.9l-3.8,5.5c-4,5.8-9.1,10.6-14.8,14.3h68.5L286.9,336.9z"/>
				<path class="st4" d="M194.7,342.4l-3.8-5.5l-49.9,19.8h68.5C203.8,353,198.7,348.2,194.7,342.4z"/>
				<path class="st4" d="M47.9,409.7h381.9c-8.4-10.5-18.7-19.5-30.4-26.5H78.3C66.6,390.2,56.4,399.2,47.9,409.7z"/>
			</g>
			<g class="st5">
				<g>
					<path class="st2" d="M290.9,355.4c-6.8,5.8-15.3,11.3-25,15.2c-9.7,3.9-20.6,6.2-31.5,6c-10.9-0.2-21.7-3-31.2-7.3
						c-9.6-4.3-17.8-10.2-24.4-16.2c4.3,7.8,11.6,15.9,21.3,21.9c9.7,6,21.7,9.9,34.1,10.1c12.3,0.3,24.5-3.1,34.4-8.7
						C278.6,370.8,286.2,363.1,290.9,355.4z"/>
				</g>
				<g>
					<path class="st2" d="M100.5,511c3.3-15.5,4-36.5,1-57.1c-2.9-20.6-9.4-40.6-16.9-54.5c2.7,15.6,6.6,35.5,9.4,55.6
						C97,475,98.7,495.2,100.5,511z"/>
				</g>
				<g>
					<path class="st2" d="M377.2,511c-3.3-15.5-4-36.5-1-57.1c2.9-20.6,9.4-40.6,16.9-54.5c-2.7,15.6-6.6,35.5-9.4,55.6
						C380.8,475,379,495.2,377.2,511z"/>
				</g>
				<g>
					<path class="st2" d="M344.7,463.1c-15.9,4.8-34.8,7.7-54.8,7c-20-0.6-41.1-4.5-61.3-11.4c-20.1-6.9-39.3-16.6-56.6-27
						c-17.3-10.4-32.8-21.6-46.1-31.5c11.6,11.8,26,24.6,42.9,36.4c16.9,11.7,36.4,22.3,57.3,29.5c20.9,7.1,43.1,10.6,63.8,9.8
						C310.7,475.3,329.8,470.3,344.7,463.1z"/>
				</g>
				<g>
					<path class="st2" d="M331.7,424.3c-12.8,6.7-29.6,14.2-47.4,18.8c-17.7,4.7-36,6.3-50.5,6.7c6.9,2,15.3,3.4,24.3,3.4
						c9,0.1,18.6-1,27.9-3.5c9.3-2.4,18.2-6.1,26.1-10.6C320,434.7,326.6,429.4,331.7,424.3z"/>
				</g>
			</g>
		</g>
		<g>
			<g>
				
					<ellipse transform="matrix(0.2298 -0.9732 0.9732 0.2298 -94.7365 295.7687)" class="st6" cx="139.5" cy="207.7" rx="28.3" ry="28.3"/>
				<path class="st7" d="M155.5,207.7c0,8.8-7.2,16-16,16s-16-7.2-16-16c0-8.8,7.2-16,16-16S155.5,198.9,155.5,207.7z"/>
			</g>
			<g>
				
					<ellipse transform="matrix(0.7071 -0.7071 0.7071 0.7071 -47.8218 300.0215)" class="st6" cx="338.2" cy="207.7" rx="28.3" ry="28.3"/>
				<path class="st7" d="M322.2,207.7c0,8.8,7.2,16,16,16c8.8,0,16-7.2,16-16c0-8.8-7.2-16-16-16
					C329.4,191.7,322.2,198.9,322.2,207.7z"/>
			</g>
			<path class="st1" d="M238.9,63L238.9,63L238.9,63c-47.7,0-86.3,38.6-86.3,86.3v50.4c0,32,13.4,62.6,37,84.2l3.6,3.3
				c11.8,10.9,27.3,16.9,43.4,16.9h2.3h2.3c16.1,0,31.6-6,43.4-16.9l3.6-3.3c23.6-21.6,37-52.2,37-84.2v-50.4
				C325.2,101.7,286.5,63,238.9,63z"/>
			<path class="st8" d="M289.5,98.2c8.7-7.2,17.7,13,22.9,27.1c1.7,4.5,2.8,9.2,3.3,13.9l8.5,75.1l9.5-55.7
				c2.7-22.9-1.1-50.9-8.3-72.9c-2.1-6.5-4.8-13.1-9.6-18.1c-6.3-5.5-20.9-7.3-20.9-7.3c4.7-3,9.4-5.4,14.2-8.3
				c-12.7-11-31.1-17.1-47.8-15.1c5.5-6.4,12.8-11.4,20.8-14.1c-19.9-5.2-42.1-3.4-60.5,5.8c2.2-5.4,4.9-10.5,7.1-16
				c-23.1,6.8-41.1,26.1-48.1,49.2c-6.6-2.1-13.9,0.8-18.7,5.8c-4.8,4.9-7.5,11.5-9.6,18.1c-7.2,22-11,50-8.3,72.9l9.5,55.7
				l8.5-74.6c0.6-5.6,2.1-11,4.2-16.2c3.2-7.6,7.3-16,12.2-22.7c3.8-5.2,11.1-6.3,16.3-2.4c13.1,9.6,28.3,18.8,43.5,18.6
				C256.7,116.7,275.2,110,289.5,98.2z"/>
			<circle class="st2" cx="200.3" cy="179.4" r="7.8"/>
			<circle class="st2" cx="277.4" cy="179.4" r="7.8"/>
			<path class="st6" d="M253.1,218.6c-8.9,0.1-17.8,0.1-26.7,0.2c1.6,2.2,2.8,5.2,4.8,7c2.1,1.8,4.6,3.2,7.4,3.3
				c2.8,0.1,5.6-1.1,7.8-2.8C248.7,224.6,251.4,220.8,253.1,218.6z"/>
			<path class="st9" d="M269.3,237.6c-19.8,5-40.7,5.8-60.9,2.3c2,9,8.7,17.3,17,21.2c8.3,3.9,18.4,3.7,26.6-0.4
				C260.2,256.4,267.6,246.6,269.3,237.6z"/>
			<g>
				<path class="st10" d="M196.8,145.2c-9.5,1-17.2,6.6-21.3,14.2c14.9-2.3,30-3.9,45.1-4.7C215,148.1,206.2,144.2,196.8,145.2z"/>
			</g>
			<g>
				<path class="st10" d="M281,145.2c9.5,1,17.2,6.6,21.3,14.2c-14.9-2.3-30-3.9-45.1-4.7C262.8,148.1,271.5,144.2,281,145.2z"/>
			</g>
			<path class="st6" d="M250.9,276c-3-3-7.2-4.9-11.4-5c-4.3-0.1-8.6,1.4-11.7,4.3C235.1,275.5,243.6,275.7,250.9,276z"/>
			<g>
				<path class="st6" d="M215.9,189.9c-8.9-2.6-23.1-0.9-31.2,3.7C193.8,195.4,207.5,193.8,215.9,189.9z"/>
			</g>
			<g>
				<path class="st6" d="M261.9,189.9c8.9-2.6,23.1-0.9,31.2,3.7C284,195.4,270.2,193.8,261.9,189.9z"/>
			</g>
			<g>
				<path class="st11" d="M224.7,88.9c-3.1-8.1-3.1-17.5-0.4-26.2c2.7-8.7,8.1-16.5,14.7-22.3c6.6-5.9,14.3-9.9,21.4-12.6
					c-7.6,0.4-16.6,2.8-24.8,8.3c-8.2,5.4-15.2,14.2-18.4,24.4c-1.6,5.1-2.3,10.5-1.9,15.8c0.1,1.6,0.4,3.2,0.7,4.7
					c-1.3-2.4-2.5-4.8-3.5-7.3c-2.9-7-5-14.3-5-21.3c-0.1-7,1.9-13.6,5.6-18.5c-5.1,3.5-9.1,10.4-9.9,18.3c-1,7.9,0.9,16.3,4,23.8
					c3.2,7.6,8,14.5,13.4,19.8c2.8,2.8,5.8,5.1,8.8,7.1c3.2,2.4,6.6,4.2,9.9,5.2C233.2,103.8,227.7,97.1,224.7,88.9z"/>
				<path class="st11" d="M249.5,54.5c-4.9,3.3-9.2,8.2-11.9,13.9c-2.7,5.8-3.7,12.2-3.2,18.1c0.5,5.9,2.6,11.1,5.2,14.9
					c-1.3-4.4-2.1-9.6-1.9-15c0.2-5.4,1.4-11,3.8-16.1c2.4-5.1,6-9.6,10-13.2c4-3.6,8.5-6.2,12.8-8.1
					C259.7,49.4,254.4,51.2,249.5,54.5z"/>
			</g>
		</g>
	</g>
</g>
</svg>
