<?xml version="1.0" encoding="utf-8"?>
<!-- Generator: Adobe Illustrator 26.2.1, SVG Export Plug-In . SVG Version: 6.00 Build 0)  -->
<svg version="1.1" id="Layer_1" xmlns="http://www.w3.org/2000/svg" xmlns:xlink="http://www.w3.org/1999/xlink" x="0px" y="0px"
	 viewBox="0 0 513.5 583.8" style="enable-background:new 0 0 513.5 583.8;" xml:space="preserve">
<style type="text/css">
	.st0{fill:#F4B152;}
	.st1{fill:#FFFFFF;}
	.st2{fill:#DEA34B;}
	.st3{fill:#C1751B;}
	.st4{fill:#FEDCB5;}
	.st5{fill:#EDAB7D;}
	.st6{fill:#3E2217;}
	.st7{fill:#4D2B1D;}
	.st8{fill:#5B3824;}
</style>
<g>
	<g>
		<g>
			<path class="st0" d="M470.2,431.7c-6-15-17.4-27.2-32-34.2l-131.9-63.8h-52.6h-52.6L69.2,397.5c-14.5,7-25.9,19.2-32,34.2
				C25.5,461,7.1,514.8,0.2,580.8h253.5h253.5C500.3,514.8,482,461,470.2,431.7z"/>
			<path class="st1" d="M54.8,432.9c14.9-34.8,122.2-72.5,123-71.6c0,0-3.8-4.8-9.6-11.6l-98.9,47.8c-14.5,7-25.9,19.2-32,34.2
				C25.5,461,7.1,514.8,0.2,580.8h2.9c3.4-2.2,5.5-3.7,5.5-3.7S39.9,467.7,54.8,432.9z"/>
			<path class="st2" d="M470.2,431.7c-6-14.9-17.4-27.1-31.9-34.1l-103.1-49.8v18.4c0,0,88.5,39.2,103.4,72.7
				c10.4,23.3,28.3,66,38.8,98.9c4,12.4-4.4,25.4-17.4,26.9l-33.8,16.2c0,0,0.2,0.1,0.5,0.2h80.7C500.3,514.8,482,460.9,470.2,431.7
				z"/>
			<polygon class="st3" points="251.7,379.1 221.2,411.7 163.7,351.9 201.2,333.8 			"/>
			<polygon class="st3" points="255.8,379.1 286.2,411.7 343.8,351.9 306.3,333.8 			"/>
			<path class="st4" d="M298.2,294.7c-12.9,9.4-28.5,14.3-44.5,14.3c-16,0-31.5-4.9-44.5-14.3c-2.8-2-5.5-4.2-8.1-6.4v45.4
				l52.6,47.4l52.6-47.4v-45.4C303.7,290.6,301,292.7,298.2,294.7z"/>
			<path class="st5" d="M298.2,294.7c-12.9,9.4-28.5,14.3-44.5,14.3c-16,0-31.5-4.9-44.5-14.3c0,0,8.8,20.1,34.8,23.4
				c26,3.2,43.5-10.4,48.1-9.1c4.5,1.3,3.2,18.3,0,24.7s-33.3,33.7-38.4,34.4c-5.1,0.6-32.5-16.3-32.5-16.3l32.5,29.3l52.6-47.4
				v-45.4C303.7,290.6,301,292.7,298.2,294.7z"/>
			<path class="st1" d="M209.3,294.7c0,0-2.3,27.9,0,35.1c2.3,7.1,12,22.1,12,22.1l-20.1-18.1v-45.4L209.3,294.7z"/>
			<path class="st4" d="M372.3,160.7c-0.2-9.4-7.9-16.8-17.3-16.6l-2.3,0V139v-51h-98.9h-98.9v51v5.1l-2.3,0
				c-9.4-0.2-17.1,7.2-17.3,16.6l-0.2,7.4c-0.3,11.7,8.4,21.5,19.8,22.9v2.1c0,22.4,6.4,44.4,18.4,63.3h0c9.5,15,21.8,28,36,38.3
				c12.9,9.4,28.5,14.3,44.5,14.3c16,0,31.5-4.9,44.5-14.3c14.2-10.3,26.5-23.3,36-38.3l0,0c12-18.9,18.4-40.9,18.4-63.3V191
				c11.3-1.4,20-11.2,19.8-22.9L372.3,160.7z"/>
			<path class="st5" d="M355,144.1l-2.3,0V139v-51h-98.9h-77.4c0.8,0.9,1.4,1.6,1.4,1.6s37.5,29.4,76,30.8s59.2-5.5,72.9,9.6
				c13.7,15.1,16.4,38.5,17.1,54.3c0.7,15.8-6.2,105-90,124.7c16,0,31.5-4.9,44.5-14.3c14.2-10.3,26.5-23.3,36-38.3
				c12-18.9,18.4-40.9,18.4-63.3V191c11.3-1.4,20-11.2,19.8-22.9l-0.2-7.4C372.1,151.4,364.4,143.9,355,144.1z"/>
			<path class="st1" d="M231.7,305.2c-42.6-23.8-61.6-60.7-65.9-82.1c-2.2-11.2-2.7-21.3-2.6-28.3c0.1-5.5-3.5-10.2-8.6-12.1
				c-4.8-1.7-9.8-5-11-11.2c-2.4-12.5,5-23.4,5-23.4s-0.5-1.2-1.3-3.1c-6.8,2.1-11.8,8.3-12,15.8l-0.2,7.4
				c-0.3,11.7,8.4,21.5,19.8,22.9v1.2c0,21.8,5.6,43.2,16.9,61.8c9.7,16,22.5,29.8,37.5,40.7c7.4,5.3,15.7,9.2,24.4,11.6
				C233,305.9,232.4,305.6,231.7,305.2z"/>
			<polygon class="st3" points="364,457.3 328.2,457.3 328.2,519.8 364,535.4 399.8,519.8 399.8,457.3 			"/>
		</g>
		<path class="st6" d="M347.4,35.4c0,0-16.6-34.5-93.6-32.4c-58.5,1.6-87.4,22-97.9,31.7c-8.5,7.8-21.9,6.8-28.8-2.4c0,0,0,0,0-0.1
			c0,0-0.1,0-0.1,0.1c4.7,12.3,11.4,22.7,18.8,31.2c0,0,0,0-0.1-0.1h0c-8.7,7.7-14,31.5-10.6,58.6c3.4,27.1,21.3,39.5,21.3,39.5
			c2.7-34.7,14.7-60,21.4-71.8c0,0-0.1-0.1-0.1-0.1c11.6,6.8,20.4,9.7,20.4,9.7c51.8,20.6,125.2,11.7,125.2,11.7
			c20.6,16.6,29.1,50.5,29.1,50.5s9.8-2,20.2-40.8C382.9,81.8,372.5,46.6,347.4,35.4z"/>
		<path class="st7" d="M153,72.7c10.5-9.7,39.4-30,97.9-31.7c77-2.2,93.6,32.4,93.6,32.4c15.9,7.1,25.9,23.9,28.5,45.2
			c9.5-38-0.9-72.2-25.6-83.2c0,0-16.6-34.5-93.6-32.4c-58.5,1.6-87.4,22-97.9,31.7c-8.5,7.8-21.9,6.8-28.8-2.4c0,0,0,0,0-0.1
			c0,0-0.1,0-0.1,0.1c4.7,12.3,11.4,22.7,18.8,31.2c0,0,0,0-0.1-0.1h0c-3.2,2.8-5.9,7.9-8,14.4C143.1,78.3,148.7,76.6,153,72.7z"/>
	</g>
	<path class="st8" d="M389.5,456.8L389.5,456.8L389.5,456.8L389.5,456.8L389.5,456.8L389.5,456.8
		C389.5,456.9,389.5,456.9,389.5,456.8z"/>
	<path class="st8" d="M389.4,456.9L389.4,456.9c-0.1-0.2-0.2-0.3-0.3-0.4c-0.2-0.3-0.6-0.5-1-0.7c-0.8-0.4-2-0.7-3.3-0.6
		c-3.7,0-9.8,0.1-19,0.1c-9.7,0-22.7,0-39.7,0c0,7.9-0.1,22.2-0.2,38.7c0,8.8,0,17.9-0.1,27.3c12.5,5.4,25.5,10.9,38.1,16.3
		c13.1-5.9,25.7-11.6,37.3-16.9c-0.3-15.4-0.5-29.1-0.7-39.8c-0.2-10.5-0.4-18.1-0.5-21.6c0-1.2-0.5-2.1-1.1-2.1
		c-0.6,0-1.1,1-1.1,2.2l-0.1,58.9L364,533.1l-33.7-14.7l0.1-58.9l54.6,0.1c1.3,0,2.4-0.2,3.2-0.7c0.4-0.2,0.7-0.4,1-0.7
		c0.1-0.1,0.2-0.3,0.3-0.4l0,0l0,0v-0.2l0,0l0-0.5L389.4,456.9L389.4,456.9z"/>
	<path class="st8" d="M389.5,457.7L389.5,457.7C389.5,457.6,389.5,457.6,389.5,457.7L389.5,457.7L389.5,457.7L389.5,457.7z"/>
	<path class="st8" d="M8.5,583.7l483.7,0.1c2.3,0,4.2-0.7,4.2-1.6c0-0.9-1.7-1.6-4-1.6c-27.3-0.6-189.4-3.8-308.5-3.3
		c-100.6,0.4-155.5,0-175.3-0.2c-1.6,0-3,0.1-4.3,0.4c0.1-0.6,0.2-1.7,0.4-3.2c0.3-2.5,0.7-6.2,1.4-11c1.3-9.4,3.5-22.9,6.9-38.8
		c3.5-15.9,8.2-34.4,14.4-53.8c3.1-9.7,6.6-19.7,10.4-29.6c0.9-2.5,2-5,3-7.5c1-2.4,2-4.7,3.3-6.9c2.4-4.5,5.5-8.6,9-12.4
		c3.5-3.7,7.5-7,11.9-9.7c2.2-1.4,4.4-2.5,6.8-3.7c2.4-1.2,4.9-2.4,7.3-3.5c9.7-4.7,19.3-9.3,28.5-13.8
		c18.5-8.9,35.8-17.3,50.6-24.4c1.7-0.8,3.4-1.7,5.1-2.5c18.4,19.2,36.9,38.4,55.3,57.6c1.3,1.4,3.8,1.4,5.1,0
		c9.5-10.2,19-20.4,28.5-30.6c0.9,0.5,1.9,0.5,2.9,0c9.5,10.2,19,20.4,28.5,30.6c1.3,1.4,3.8,1.4,5.1,0
		c18.8-19.6,37.7-39.2,56.5-58.8c18.2,8.8,41.9,20.4,71.8,35.3c4.8,2.4,9.8,4.8,14.8,7.3c2.5,1.2,5,2.5,7.6,3.7
		c2.4,1.2,4.7,2.5,6.9,4c8.9,5.9,16.4,14.4,21.2,24.3c0.6,1.2,1.1,2.5,1.7,3.8l1.7,4c1.1,2.7,2.1,5.4,3.2,8.1
		c2.1,5.4,4.1,10.8,6,16.1c3.8,10.7,7.2,21.3,10.3,31.4c12.2,40.7,17.3,74.7,18.7,84.5c0.2,1.6,1.3,2.7,2.5,2.6
		c1.2-0.1,2-1.6,1.8-3.3c0,0-0.2-1.4-0.5-3.9c-0.3-2.6-0.7-6.3-1.4-11.1c-1.3-9.6-3.4-23.2-6.9-39.4c-3.4-16.2-8.1-34.9-14.4-54.6
		c-3.1-9.9-6.6-20-10.5-30.1c-0.9-2.5-2-5.1-3-7.6c-1.1-2.6-2.3-5.3-3.7-7.8c-2.8-5.1-6.2-9.8-10.2-14.1c-4-4.2-8.5-8-13.4-11.1
		c-2.4-1.6-5.1-3-7.6-4.2c-2.4-1.2-4.9-2.4-7.3-3.6c-9.7-4.7-19.2-9.4-28.5-13.9c-18.5-9-35.7-17.4-50.5-24.6
		c-22.9-11.2-39.8-19.4-46.3-22.6c0-2.2-0.2-4.6-0.2-7.3c0-10.5,0-21,0-31.6c7.2-6.1,13.7-13.1,19.6-20.4
		c17.3-21.7,26.4-48.3,26.9-76.1c15.7-3.9,20-17.6,19.7-32.7c-0.6-6.8-3.6-12-8.2-15.3c2.6-5.9,5.3-13.7,8.1-24
		c10.7-39.9,0.1-76-25.8-88.2c-3.4-5.9-24-35.1-95.8-33c-60.1,1.7-89.8,23.2-99.8,32.4c-3.1,2.9-7.2,4.5-11.4,4.5
		c-5.2,0-10-2.4-13.1-6.5c-1.1-1.6-3.7-1.5-4.8,0c-0.5,0.8-0.6,1.8-0.3,2.7c4.1,10.8,10,20.8,17.6,30c-8.7,10.4-12.7,34.4-9.6,59
		c1.2,9.8,4.2,17.6,7.7,23.9c-14,11.8-8.4,41.6,12.2,47.2c0.7,35.4,18.1,73.8,46.2,97c0,10.3,0,20.7,0,31c0,3.4-0.3,6.4-0.1,9
		c-16.2,8.1-50.7,25.1-108.8,52.6c-4.9,2.3-9.8,4.7-14.9,7.1c-2.5,1.2-5.1,2.5-7.7,3.7c-2.7,1.3-5.4,2.9-7.9,4.6
		c-10.2,6.9-18.7,16.8-23.9,28.1c-0.7,1.4-1.3,2.9-1.8,4.3l-1.6,4.1c-1,2.8-2,5.5-3,8.3c-2,5.5-3.8,11.1-5.5,16.6
		c-3.5,11-6.5,21.8-9.1,32.2C3.5,533.6,0.7,568.1,0,577.9c-0.1,0.6,0.1,1.2,0.3,1.7c-0.2,0.3-0.3,0.5-0.3,0.8
		C0,582.2,3.8,583.7,8.5,583.7z M253.7,376.1c-16.5-14.9-33.1-29.7-49.6-44.6c0-4,0-8,0-12c0-8.2,0-16.4,0-24.7
		c14.4,10.3,31.2,16.7,49.8,17c13.8,0.3,26.6-3.6,38.1-10c1.3-0.7,2.6-1.5,3.8-2.2c0.2-0.1,0.4-0.3,0.6-0.4c1.1-0.7,2.2-1.3,3.3-2.1
		c0.3-0.2,0.5-0.4,0.8-0.7c1-0.7,1.9-1.4,2.8-2.1c0,8.4,0,16.7,0,25.1c0,4,0,8,0,12C286.8,346.4,270.3,361.3,253.7,376.1z
		 M313.5,341.2c8.1,3.9,16.2,7.8,24.3,11.7c-17.2,17.9-34.3,35.7-51.5,53.6c-8.4-9.1-16.9-18.1-25.3-27.2
		c13.8-12.4,27.7-24.9,41.5-37.3c1.5-1.3,3-2.7,4.4-4C309.1,339.1,311.3,340.2,313.5,341.2z M137.9,121.6
		c-3.4-27.1,2.2-48.7,9.3-55.6c0.2-0.1,0.4-0.2,0.5-0.4c1.1-1.1,1.2-2.8,0.2-4c-5.5-6.3-10.2-13.2-13.9-20.4
		c3.2,1.3,6.8,1.9,10.5,1.5c5.1-0.5,9.9-2.9,13.7-6.3c9.9-9,38.3-28.9,95.6-30.5c73.7-2.1,90.8,30.4,90.9,30.7
		c0.3,0.6,0.8,1.1,1.4,1.4c23.9,10.7,33.6,44.3,23.5,81.9c-6.4,24-12.5,33.3-15.8,36.8c-3-9.7-11.9-34.3-28.9-48
		c-0.5-0.4-1.2-0.6-1.8-0.6c-0.1,0-0.2,0-0.3,0c-0.2,0-15.8,1.9-37.4,1.9c-24,0-58.5-2.3-86.5-13.5c-0.1,0-7.7-2.6-18.1-8.4
		c-1.1-0.6-2.5-0.8-3.8-0.4l0,0c-1.2,0.4-2.2,1.2-2.8,2.2c-6.7,12-17,34.9-20.3,65.7C148.8,150.3,140.1,139.1,137.9,121.6z
		 M185.2,267.8c-18.1-21.6-27.3-48.8-27.3-76.8c0-1.2-0.9-2.6-2.2-2.8c-11.4-2.1-17.8-10.5-17.6-22c0.1-6.1,1.5-11.4,4.8-14.9
		c5.6,8.1,11.2,12.2,11.6,12.5c0.9,0.6,1.9,0.7,2.9,0.2c0.9-0.4,1.6-1.4,1.6-2.4c2.5-31.8,12.8-55.5,19.7-68.1
		c10.4,5.8,17.9,8.3,18.1,8.3c28.8,11.4,64,13.8,88.5,13.8c18.4,0,32.7-1.3,36.8-1.8c18.9,16,27.1,47.9,27.2,48.2
		c0.3,1.3,1.5,2.2,2.8,2.2c0.2,0,0.4,0,0.6-0.1c1.2-0.3,5.9-2,11.8-13.5c2.7,2.2,4.4,5.5,4.9,9.9c0.3,13-2.5,24.7-17.4,27.5
		c-1.3,0.2-2.2,1.6-2.2,2.8c0,33.9-16.3,71.7-43.5,94.5c-0.8,0-1.5,0.2-2.2,0.7c-2.4,2.1-4.9,4-7.5,5.9
		c-27.2,18.8-59.6,17.2-85.8-0.3C201.3,285.2,192.7,276.8,185.2,267.8z M201.1,338.5c0.8,0.8,1.7,1.5,2.5,2.3
		c14.3,12.8,28.6,25.7,42.9,38.5c-8.4,9.1-16.9,18.1-25.3,27.2c-17-17.7-34-35.4-51-53.1C184,346.8,194.7,341.6,201.1,338.5z"/>
	<circle class="st8" cx="209.3" cy="171.5" r="10.1"/>
	<circle class="st8" cx="301.2" cy="171.5" r="10.1"/>
	<path class="st8" d="M243.7,211.7c0.9-2.3,1.7-4.8,2.3-7.2c1.3-4.8,2.2-9.7,2.9-14.2c1.4-8.9,1.8-16.1,2-18.2c0-0.3-0.4-0.7-1-0.7
		c-0.6-0.1-1.1,0.1-1.2,0.5c0,0-0.6,4.5-1.9,11.3c-1.3,6.7-3.1,15.7-6.1,24.2l-1.2,3.1l-0.7,1.5l-0.3,0.7c-0.1,0.3-0.3,0.7-0.4,1
		c-1,3,0.1,6.4,2.3,8.3c0.6,0.5,1.1,0.8,1.6,1.1c0.5,0.3,1,0.6,1.5,0.9c1,0.5,2.1,1,3.1,1.4c2.1,0.7,4.4,1,6.3,0.8
		c3.9-0.3,6.9-1.5,8.8-2.4c2-0.9,3-1.6,3-1.6c0.7-0.4,0.6-1.6-0.1-2.6c-0.7-1-1.7-1.5-2.3-1.1c-1.1,0.7-3.4,2.3-7.3,3.3
		c-1.9,0.4-4.2,0.6-6.7-0.1c-1.2-0.4-2.5-1-3.8-1.8c-0.3-0.2-0.6-0.4-1-0.7c-0.3-0.2-0.4-0.4-0.6-0.6c-0.4-0.4-0.6-1-0.8-1.6
		c-0.2-0.7-0.1-1.4,0.1-2.1C242.8,213.9,243.3,212.8,243.7,211.7z"/>
	<path class="st8" d="M275.9,251.8c-1.7,0.1-6.6,0.3-15.4-0.1c-10.5-0.5-24.7,1.6-27.1,2c-0.2,0-0.3,0.5-0.3,1.1
		c0,0.6,0.2,1.1,0.4,1.1l42.5,0.4c0.4,0,0.7-1,0.7-2.2C276.7,252.8,276.3,251.8,275.9,251.8z"/>
	<path class="st6" d="M243.4,164.8c0-0.2-0.1-0.4-0.1-0.5c0.1,0,0.2,0,0.4-0.1c7.4-2.7,16.1-1.9,23.6,0c0,0.2-0.1,0.4-0.1,0.7
		c-0.6,15.6,5.9,32.3,21.1,38.5c21,6.2,42.3-3.1,46.3-26.2c3.2-18.8-6.6-37.7-27.1-39.4c-14.2-1.2-33.7,5.7-38.9,20.2
		c-8.4-2-18.1-2.9-26.4,0.1c-5.1-14.7-24.8-21.5-39-20.4c-20.5,1.7-30.3,20.6-27.1,39.4c3.9,23.1,25.3,32.4,46.3,26.2
		C237.5,197.1,244,180.4,243.4,164.8z M272.5,166.9c0.6-15,17.4-25.2,31.4-24.1c18.6,1.6,30.6,16.6,24.8,35.5
		c-5.7,18.5-21.1,25.1-39,19.8C278,193.3,272,179,272.5,166.9z M181.9,178.3c-5.8-19,6.2-34,24.8-35.5c14-1.2,30.9,9.1,31.4,24.1
		c0.5,12.1-5.5,26.4-17.2,31.2C203,203.4,187.6,196.8,181.9,178.3z"/>
</g>
</svg>
