<svg id="Layer_1" data-name="Layer 1" xmlns="http://www.w3.org/2000/svg" viewBox="0 0 480.7 609.54"><defs><style>.cls-1{fill:#ffce33;}.cls-2{fill:#2e2e2e;}.cls-3,.cls-5,.cls-7{fill:#f5f5ff;}.cls-3,.cls-4,.cls-5,.cls-6{stroke:#2e2e2e;stroke-linecap:round;stroke-linejoin:round;}.cls-3,.cls-4{stroke-width:0.5px;}.cls-4,.cls-6{fill:none;}.cls-5{stroke-width:0.51px;}.cls-6{stroke-width:0.46px;}.cls-8{fill:#fff;}</style></defs><circle class="cls-1" cx="240.35" cy="227.72" r="227.72" transform="translate(-90.62 236.65) rotate(-45)"/><path class="cls-2" d="M379.42,238.91c8.64-7.32,7.88-19.71,3.4-30.1a27.39,27.39,0,0,0-27.43-15.9c9-6.33,7.81-19.3,2.69-29.06s-17.92-14.7-28.26-10.88c9.62-7.67,9.94-20.35,3.69-30.95a25.34,25.34,0,0,0-11.33-10,46.12,46.12,0,0,0-17-25.74A45,45,0,0,0,281.64,78c-9.8-6.63-22.3-10.49-32.74-5.38C219.28,62,183.67,70.79,162.41,94c-3.56,3.89-6.85,8.36-7.71,13.57s1.35,11.24,6.22,13.29c-13.22-6.43-24.92-1.4-35,9.25s-12.36,28-5.26,40.87c-11.35.37-20.49,13.71-23.18,24.74a27,27,0,0,0,12.68,29.07c-14,1.43-19.17,20.66-15,34.08,2.76,8.78,11.32,14.81,20.36,16a39.87,39.87,0,0,0-17.84,18.5c-5,11.51-1,26.26,9.23,33.59s25.46,6.48,34.77-1.93c-3.18,8.81,3.41,20.77,11.75,25s18.57,3.34,27.22-.26,16.05-9.58,23.32-15.49c-3,1.79,1.46,6.32,2.8,9.56s4.25,5.54,7.29,7.28c16.86,9.69,40.84,4,51.51-12.29-.55,11.61,8.38,22.5,20,22.83S308,351.66,308.16,340c7.48,11.26,21.24,14.15,31.91,5.85s12.21-26,3.13-36c9.84,8.78,27,14.11,35.17,3.72s5.49-27.43-5.4-34.88c12.14,2.59,26.21-2.16,27.79-14.47S391.82,239.45,379.42,238.91Z"/><path class="cls-3" d="M282.6,379.91c.82,24.85-18.67,45.46-43,45.46-23.8,0-43-19.76-43-44,0-.48,0-1,0-1.46l4.78-65.64.61-8.45,3-40.78h69.13l3.09,42.31.68,9.23Z"/><path class="cls-2" d="M280.55,347.31c-21.79,2.67-46.36-7.81-63-29.08a80,80,0,0,1-14.16-27.64l2-26.49h69.12l3.08,42.3.72,9.24Z"/><path class="cls-3" d="M303.59,203c-8.68,13.95-7.85,30.47,1.87,36.91s24.64.34,33.33-13.61,7.84-30.47-1.88-36.9S312.27,189.06,303.59,203Z"/><path class="cls-4" d="M329.6,196.09A13,13,0,0,1,333,218.26"/><path class="cls-3" d="M175.09,203c8.68,13.95,7.84,30.47-1.88,36.91s-24.64.34-33.32-13.61-7.85-30.47,1.87-36.9S166.4,189.06,175.09,203Z"/><path class="cls-4" d="M149.07,196.09a12.95,12.95,0,0,0-3.38,22.17"/><path class="cls-5" d="M326.07,176.92c0,1.28,0,2.52-.1,3.7a100,100,0,0,1-1,10.86l-.54,5.12-.26,2.76-.4,4c-.24,2.43-.41,4.82-.57,7.21-.1,1.53-.19,3-.29,4.54-.38,6.07-.73,12-1.63,18,0,.09,0,.2,0,.29-.19,1.13-.38,2.28-.62,3.41a35,35,0,0,1-.83,3.65c-.42,1.79-.95,3.61-1.56,5.44a20.58,20.58,0,0,1-.69,1.95c-.47,1.33-1,2.66-1.61,4a85,85,0,0,1-5.62,10.34c-9,14.2-22.73,27.2-36.53,35.83a.25.25,0,0,1-.19.13c-1.68,1.09-3.37,2.08-5,3A59.64,59.64,0,0,1,214.43,303,77.35,77.35,0,0,1,204,297.22a.14.14,0,0,1-.15-.09C190.49,288.5,179,276,170.41,262.25c-.62-1-1.19-1.91-1.78-2.9l-.85-1.55c-.48-.87-.95-1.77-1.45-2.66-1.37-2.37-2.58-4.85-3.67-7.26-.29-.66-.62-1.33-.88-2-4.06-9.67-5.5-20.47-6.45-31.09-.17-1.66-.31-3.35-.45-5-.16-1.86-.33-3.71-.47-5.55l-.48-5c-.12-.56-.21-1.09-.31-1.62a15.92,15.92,0,0,1-.3-1.79c-.43-2.28-.76-4.56-1-6.93a107.63,107.63,0,0,1-.67-12,7.25,7.25,0,0,1,.05-1c0-2.57.12-5.09.33-7.59.19-2.13.48-4.23.83-6.29a92.21,92.21,0,0,1,12.9-34.64,88.51,88.51,0,0,1,5.19-7.46A87.09,87.09,0,0,1,253,87.4c25.74,4.15,46.64,20,59.21,40.4.38.54.69,1.09,1.07,1.69a93.77,93.77,0,0,1,11.54,32.27c0,.09.05.15.05.24q.5,3.09.78,6.29c.24,2.5.36,5,.36,7.59A7.25,7.25,0,0,1,326.07,176.92Z"/><path class="cls-2" d="M249.69,74.93c9.24,8.47,11.5,23,5.24,33.69S234.44,125,222.05,122c3.84,5.76.82,14.59-3.32,20.16A19.1,19.1,0,0,1,199.8,149c5.9,18.39-6.15,40-23.62,49.56,4.72,9.12,2.19,23.66-2.79,32.66a34.44,34.44,0,0,1-25.24,16.88c7,7.86,9.46,20.43,5.77,30.11s-13.09,17.18-23.74,18.94c-8.69,1.43-22-.8-25.75-8.39S103.08,271.2,110,266c-4-8.15-6.48-15.78-7-24.77-.63-11.14,1.69-22.66,8.08-32s17.2-16.25,28.89-16.82c-10.09-14.32-12.58-31.35-5.23-47.11s23.58-27.46,41.5-29.91c-.18-9.86,3.63-19.36,11.64-25.61a36.27,36.27,0,0,1,29.18-6.67c2.6-5.91,11.89-9.39,18.53-10.42a20.89,20.89,0,0,1,18.19,6.23"/><path class="cls-2" d="M257.44,79.35a37.64,37.64,0,0,0,35.92,56.18c-6.33,7.05-5.24,18.72.65,26.15a21,21,0,0,0,25.65,5.15c-4.25,3.56-8.58,8.94-9,14.47s2.77,11.47,8.05,13.15,11.92-2.3,12-7.84c.12-15.6,9.68-30.27,4.42-45A55.69,55.69,0,0,0,303.54,109C298.37,89,278.18,79.07,257.44,79.35Z"/><circle class="cls-4" cx="198.05" cy="211.18" r="30.63"/><circle class="cls-4" cx="282.37" cy="211.18" r="30.63"/><path class="cls-4" d="M228.69,207.57a22.94,22.94,0,0,1,23.17.08"/><line class="cls-4" x1="167.42" y1="211.18" x2="150.1" y2="188.11"/><line class="cls-4" x1="312.43" y1="211.18" x2="329.75" y2="188.11"/><path class="cls-2" d="M254.64,180.1a20.35,20.35,0,0,1,9.2-9.68,29.2,29.2,0,0,1,26.08-.85,20.7,20.7,0,0,1,9.86,9l-12.07-.33c-3.65-.07-7.12-.05-10.57.05s-6.9.3-10.53.61S259.22,179.59,254.64,180.1Z"/><path class="cls-2" d="M225.21,180.1c-4.58-.51-8.31-.93-12-1.22s-7.09-.51-10.53-.61-6.92-.12-10.58-.05l-12.06.33a20.66,20.66,0,0,1,9.86-9,29.2,29.2,0,0,1,26.08.85A20.44,20.44,0,0,1,225.21,180.1Z"/><path class="cls-2" d="M257.26,210.83s2.93-5.15,2.95-5.17c7.11-10.42,19.38-13.18,30.33-6.93a25.87,25.87,0,0,1,8.41,7.56.22.22,0,0,1-.06.31.21.21,0,0,1-.27,0c-1.42-1.26-2.69-2.56-4.11-3.74a27.42,27.42,0,0,0-4.53-3.12c-10.56-5.79-22-3.37-29.19,6.37.07-.14-3.15,5-3.15,5a.22.22,0,0,1-.38-.23Z"/><path class="cls-2" d="M270.59,203.57A6.91,6.91,0,1,1,277,211,6.91,6.91,0,0,1,270.59,203.57Z"/><path class="cls-4" d="M291.42,209.87a17.19,17.19,0,0,0,7-3.34"/><path class="cls-2" d="M222.21,211.06s-3.23-5.1-3.16-5c-7.16-9.74-18.62-12.15-29.18-6.37-3.3,1.74-5.91,4.34-8.64,6.86a.22.22,0,0,1-.31,0,.21.21,0,0,1,0-.27,25.77,25.77,0,0,1,8.41-7.56c10.95-6.25,23.22-3.48,30.33,6.93,0,0,2.92,5.15,2.94,5.17.13.24-.22.47-.37.23Z"/><path class="cls-2" d="M209.26,203.57a6.91,6.91,0,1,0-6.4,7.38A6.92,6.92,0,0,0,209.26,203.57Z"/><path class="cls-4" d="M188.43,209.87a17.19,17.19,0,0,1-7-3.34"/><path class="cls-6" d="M228,241.43a15.12,15.12,0,0,1,24-.2"/><path class="cls-2" d="M240.65,267.59a78.8,78.8,0,0,0,9.21-.58c.93-.12,10.08-1.37,10-1.95,0,0-4.71-3.61-6.34-5l-.73-.65a18.39,18.39,0,0,0-5.84-4,6.59,6.59,0,0,0-6.93,1.53,6.6,6.6,0,0,0-6.9-1.71,18.29,18.29,0,0,0-5.93,3.84l-.74.62c-1.67,1.34-6.48,4.84-6.48,4.84-.07.75,7.88,2.13,8.79,2.26a81.52,81.52,0,0,0,10.12.81C239.48,267.6,240.06,267.6,240.65,267.59Z"/><path class="cls-5" d="M228.88,273.57a23.68,23.68,0,0,0,23.1.33"/><path class="cls-2" d="M48.71,587.83c30.51,13.77,58.37,18,62.22,9.48S93.16,570.7,62.66,556.94s-58.37-18-62.22-9.48S18.21,574.07,48.71,587.83Z"/><path class="cls-3" d="M89.63,609.29l31-73.59,5.11-12.21,8.45-20.09,5.6-13.3,9.5-22.69L157.43,448c11.35-27,.57-57.07-23.4-65.48a38.33,38.33,0,0,0-12.73-2.18,40.52,40.52,0,0,0-11.24,1.62C95.22,386.08,82,398.44,76,415.68L58.07,466.77l-8.86,25.32L8.56,608.2c-.11.38-.26.72-.38,1.09"/><path class="cls-2" d="M.8,546.5c5.64-7.12,32.36-2.63,61.53,10.5,30.52,13.78,52.16,31.85,48.27,40.41a3.26,3.26,0,0,1-.32.51l.32.14,66-157c13.22-31-1.06-66.39-31.11-76.89a52,52,0,0,0-17.25-3c-20.57,0-40.32,12.21-50.44,32Z"/><circle class="cls-7" cx="51.89" cy="488.27" r="3.81"/><path class="cls-7" d="M59,533.11a5.41,5.41,0,1,0,5.4-5.41A5.4,5.4,0,0,0,59,533.11Z"/><path class="cls-7" d="M80.62,462.36a4.58,4.58,0,1,1-4.57-4.58A4.58,4.58,0,0,1,80.62,462.36Z"/><path class="cls-2" d="M432,587.83c-30.51,13.77-58.36,18-62.21,9.48S387.53,570.7,418,556.94s58.36-18,62.21-9.48S462.49,574.07,432,587.83Z"/><path class="cls-3" d="M391.07,609.29l-31-73.59L355,523.49l-8.46-20.09L341,490.1l-9.51-22.69L323.26,448c-11.34-27-.56-57.07,23.41-65.48a38.33,38.33,0,0,1,12.73-2.18,40.44,40.44,0,0,1,11.23,1.62c14.84,4.17,28.07,16.53,34.11,33.77l17.89,51.09,8.86,25.32L472.14,608.2c.11.38.26.72.37,1.09"/><path class="cls-2" d="M479.9,546.5c-5.64-7.12-32.36-2.63-61.54,10.5-30.51,13.78-52.15,31.85-48.27,40.41a3.37,3.37,0,0,0,.33.51l-.33.14-65.94-157c-13.23-31,1.06-66.39,31.11-76.89a52,52,0,0,1,17.25-3c20.57,0,40.31,12.21,50.44,32Z"/><path class="cls-7" d="M388.41,402.55a3.75,3.75,0,1,1-3.75-3.74A3.74,3.74,0,0,1,388.41,402.55Z"/><circle class="cls-7" cx="428.81" cy="488.27" r="3.81"/><path class="cls-7" d="M400.88,460.76a4.58,4.58,0,1,1-4.57-4.57A4.58,4.58,0,0,1,400.88,460.76Z"/><path class="cls-7" d="M421.67,533.11a5.41,5.41,0,1,1-5.41-5.41A5.41,5.41,0,0,1,421.67,533.11Z"/><path class="cls-7" d="M377.6,544.75a3.75,3.75,0,1,1-3.75-3.74A3.74,3.74,0,0,1,377.6,544.75Z"/><path class="cls-2" d="M378.26,430l-9.62,46a66.45,66.45,0,0,1,4.44,13.26,69.58,69.58,0,0,1,1.61,14.88,66.92,66.92,0,0,1-2.33,17.65A65,65,0,0,1,367,535.7a69.12,69.12,0,0,1-14.69,19.16L341,609.29H137.5l-11.31-56a68.46,68.46,0,0,1-20.73-49.17,69.81,69.81,0,0,1,2.1-16.91,72,72,0,0,1,3.27-9.92L101.29,430c-4.1-17.43-3.31-34.49,2.85-47.34a37.1,37.1,0,0,1,26.64-21.14,51.23,51.23,0,0,1,10.55-1.06H343.21a49.11,49.11,0,0,1,10.37,1.06c12.1,2.62,19.8,10.1,23.93,20.36C382.81,394.87,382.43,412.26,378.26,430Z"/><path class="cls-8" d="M378.57,430c-2.31,11.5-7,34.55-9.4,46,10.66,22.32,6.95,51.66-9.15,71a77.92,77.92,0,0,1-7.39,7.81A76.57,76.57,0,0,0,359.9,547c15.88-19.69,19.32-48,8.88-71,2.4-11.44,7.31-34.51,9.79-45.94Z"/><path class="cls-8" d="M126.5,553.33a68.88,68.88,0,0,1-20.61-56.14A66.73,66.73,0,0,1,111,477.38c-2.37-11.78-7-35.58-9.34-47.37,2.47,11.8,7.35,35.48,9.74,47.28a72.75,72.75,0,0,0-5,19.95,69.45,69.45,0,0,0,20.13,56.09Z"/><path class="cls-3" d="M280.38,358.12l20.46,3.07c-9.09,23.59-32.42,41.81-57.89,42.9-27.35,1.2-53.95-17.5-63.6-42.9l19.88-4.75"/><path class="cls-7" d="M148.87,456.6A4.57,4.57,0,1,1,144.3,452,4.57,4.57,0,0,1,148.87,456.6Z"/><path class="cls-7" d="M193.78,568.87a8.73,8.73,0,1,1-8.73-8.73A8.73,8.73,0,0,1,193.78,568.87Z"/><path class="cls-7" d="M327.66,495.27a5.82,5.82,0,1,1-5.82-5.82A5.81,5.81,0,0,1,327.66,495.27Z"/><circle class="cls-7" cx="248.25" cy="478.22" r="12.06"/><path class="cls-7" d="M349.29,389.25a4.58,4.58,0,1,1-4.58-4.58A4.58,4.58,0,0,1,349.29,389.25Z"/><path class="cls-7" d="M148.87,395.07a8.73,8.73,0,1,1-8.73-8.74A8.73,8.73,0,0,1,148.87,395.07Z"/><circle class="cls-7" cx="293.99" cy="575.52" r="7.07"/><circle class="cls-7" cx="146.38" cy="529.37" r="6.65"/><path class="cls-7" d="M314.36,433.73a5.82,5.82,0,1,1-5.82-5.82A5.83,5.83,0,0,1,314.36,433.73Z"/><circle class="cls-7" cx="214.57" cy="436.23" r="6.65"/><path class="cls-7" d="M252.82,586.75a3.33,3.33,0,1,1-3.32-3.33A3.32,3.32,0,0,1,252.82,586.75Z"/></svg>