<svg id="Layer_1" data-name="Layer 1" xmlns="http://www.w3.org/2000/svg" viewBox="0 0 482.39 587.33"><defs><style>.cls-1{fill:#3b4eff;}.cls-2{fill:#2e2e2e;}.cls-10,.cls-11,.cls-3,.cls-5,.cls-6{fill:#f5f5ff;}.cls-10,.cls-11,.cls-3,.cls-4,.cls-5,.cls-7,.cls-8,.cls-9{stroke:#2e2e2e;stroke-linecap:round;stroke-linejoin:round;}.cls-3,.cls-4{stroke-width:0.5px;}.cls-4,.cls-7,.cls-8,.cls-9{fill:none;}.cls-5{stroke-width:0.56px;}.cls-7{stroke-width:0.46px;}.cls-8{stroke-width:0.42px;}.cls-9{stroke-width:0.4px;}.cls-10{stroke-width:0.54px;}.cls-11{stroke-width:0.52px;}</style></defs><circle class="cls-1" cx="241.2" cy="218.56" r="218.56" transform="translate(-83.9 234.56) rotate(-45)"/><path class="cls-2" d="M274,216.57H205.72c-20.09,0-37.18-17.31-40.23-40.75l-6.26-48.16c-3.77-29.09,15.3-55.31,40.24-55.31h81.34C306,72.35,325.09,99,321,128.27l-6.8,48.16C310.88,199.59,293.9,216.57,274,216.57Z"/><path class="cls-3" d="M295.22,173.21c-8.34,13.4-7.54,29.28,1.8,35.46s23.68.33,32-13.07,7.54-29.28-1.81-35.47S303.57,159.8,295.22,173.21Z"/><path class="cls-4" d="M320.22,166.57a12.44,12.44,0,0,1,3.25,21.3"/><path class="cls-3" d="M182.56,173.21c8.35,13.4,7.54,29.28-1.8,35.46s-23.67.33-32-13.07-7.54-29.28,1.8-35.47S174.22,159.8,182.56,173.21Z"/><path class="cls-4" d="M157.57,166.57a12.43,12.43,0,0,0-3.25,21.3"/><path class="cls-5" d="M285.32,335a42.83,42.83,0,1,1-85.64,1.45c0-.48,0-1,0-1.45l4.75-63.84L205.68,255l2.38-31.71h68.87l3.79,50.13,2.7,36.47Z"/><path class="cls-2" d="M283.42,309.9c-22.61,1.61-47.51-9.63-64.6-31.47A85.87,85.87,0,0,1,205.68,255l2.38-31.71h68.87l3.79,50.13Z"/><path class="cls-3" d="M316.44,194.87a67.92,67.92,0,0,1-21,49.13L275,262.37A32.76,32.76,0,0,1,250.77,273H231.71a33,33,0,0,1-24-10.43L186.77,244a67.87,67.87,0,0,1-21.41-49.49l.33-5.67,1.87-32.49L169,132.31c0-40,32.2-72.49,71.91-72.49A71.43,71.43,0,0,1,291.75,81a72.48,72.48,0,0,1,21.08,51.27l1.59,27.4,1.55,27Z"/><path class="cls-2" d="M314.42,159.71h-2.24a117.88,117.88,0,0,1-19.57-52c-1.4-11.59-17.87-15.49-29.49-14.23a30.32,30.32,0,0,1-23.93,13.36c-9.5.29-18.81-6.07-24.52-13.68-11.58-1.27-28.12,2.63-29.53,14.22a117.5,117.5,0,0,1-17.58,49L169,132.31c0-40,32.2-72.49,71.91-72.49A71.43,71.43,0,0,1,291.75,81a72.48,72.48,0,0,1,21.08,51.27Z"/><path class="cls-2" d="M316.44,194.87l-.47-8.13c-5.63,7.44-12.53,16.54-17.4,21.92-7,7.72-19.13,8.56-31.19,8.27-3.14-.07-7.29-1.52-11.48-3.43a42.11,42.11,0,0,0-34,0c-4.15,1.91-8.37,3.36-11.52,3.43-12,.29-24.15-.55-31.15-8.27C175,204,170,196.13,165.69,188.87l-.33,5.67a68,68,0,0,0,.75,9.48c-.14-.23-.29-.47-.42-.71l-.33,5.67a67.87,67.87,0,0,0,21.41,49.49L207.67,277a33,33,0,0,0,24,10.43h19.06A32.76,32.76,0,0,0,275,276.81l20.47-18.37a67.92,67.92,0,0,0,21-49.13l-.41-7.14A68.1,68.1,0,0,0,316.44,194.87Z"/><path class="cls-6" d="M228.18,287.27c5.71.26,12.92-.06,18.67,0,10.52.6,20.73-2.66,28-10.54,3.26-2.9,6.57-5.75,9.86-8.61-3.17,2.94-6.44,6-9.6,8.86-7.25,8.15-17.54,11.42-28.24,10.75-5.75-.11-13,.06-18.67-.42Z"/><path class="cls-6" d="M274.49,231.46c-9.42,9.61-22.09,15-34.73,14.57-11.48-.37-22.7-5.54-31.37-14.08h2c3.15-.08,7.37-1.72,11.52-3.9a37.52,37.52,0,0,1,34,0c4.19,2.18,8.34,3.82,11.48,3.9A34.53,34.53,0,0,0,274.49,231.46Z"/><path class="cls-2" d="M239.76,241.56a19.54,19.54,0,0,1,7.56,5,7.65,7.65,0,0,1,2.09,5,7.56,7.56,0,0,1-2.06,5,19.46,19.46,0,0,1-7.59,5,19.49,19.49,0,0,1-7.58-5,7.51,7.51,0,0,1-2.06-5,7.65,7.65,0,0,1,2.09-5A19.49,19.49,0,0,1,239.76,241.56Z"/><path class="cls-2" d="M256.68,145.89a44.45,44.45,0,0,1,23.12-5.84,28.82,28.82,0,0,1,12.46,3.13A19.13,19.13,0,0,1,301,152,37.59,37.59,0,0,0,290.24,150a46.5,46.5,0,0,0-9.8.9c-6.51,1.16-13.12,3.42-20.56,4.35a5,5,0,0,1-3.2-9.33Z"/><path class="cls-2" d="M221.84,155.22c-7.45-.93-14.06-3.19-20.57-4.35a46.5,46.5,0,0,0-9.8-.9A37.53,37.53,0,0,0,180.73,152a19.06,19.06,0,0,1,8.72-8.85,28.82,28.82,0,0,1,12.46-3.13A44.52,44.52,0,0,1,225,145.89a5,5,0,0,1-3.2,9.33Z"/><path class="cls-2" d="M258.61,177.1c1.29-1.58,4-5.28,5.51-6.58l1.07-1c.4-.29,1.35-1,1.74-1.32s1.46-.88,1.86-1.14a23.36,23.36,0,0,1,24.84,1.68,44.52,44.52,0,0,1,4.47,3.54.22.22,0,0,1-.25.35c-3.34-1.73-6.15-4.39-9.74-5.63a23.15,23.15,0,0,0-18.84,1c-.38.23-1.43.82-1.8,1l-1.71,1.21a26.4,26.4,0,0,0-2.08,1.87c-.69.65-4,4.5-4.74,5.28-.17.21-.51-.06-.33-.28Z"/><path class="cls-2" d="M271.31,171a6.64,6.64,0,1,1,6.14,7.09A6.64,6.64,0,0,1,271.31,171Z"/><path class="cls-4" d="M259.54,177.31a21.33,21.33,0,0,0,10.8,2.39"/><path class="cls-4" d="M258.6,169.3a23.62,23.62,0,0,1,15.71-9.44"/><path class="cls-2" d="M226.26,177.38c-1-1.18-4.16-4.75-5.23-5.78-.32-.29-1.26-1.07-1.59-1.37-.66-.44-1.61-1.19-2.31-1.56a23,23,0,0,0-20-1.66c-3.58,1.24-6.39,3.9-9.73,5.63-1.62.13,3.91-3.61,4.22-3.89a23.36,23.36,0,0,1,24.84-1.68c.39.26,1.47.89,1.86,1.14l1.74,1.32c.33.33,1.27,1.16,1.6,1.48s1.11,1.27,1.44,1.62l3.54,4.47c.17.21-.15.49-.33.28Z"/><path class="cls-2" d="M213.89,171a6.64,6.64,0,1,0-6.15,7.09A6.65,6.65,0,0,0,213.89,171Z"/><path class="cls-4" d="M225.66,177.31a21.37,21.37,0,0,1-10.81,2.39"/><path class="cls-4" d="M226.6,169.3a23.62,23.62,0,0,0-15.71-9.44"/><line class="cls-7" x1="242.33" y1="201.46" x2="242.33" y2="169.18"/><path class="cls-7" d="M231.12,207.05l5.54,2.33h0a14.29,14.29,0,0,0,11.08,0h0l5.55-2.33"/><path class="cls-8" d="M246.77,232.63c6.76.07,13.83-1.24,19.63-4.72"/><path class="cls-8" d="M233.91,232.92c-6.76.07-13.84-1.24-19.63-4.72"/><path class="cls-8" d="M233.91,232.92a11,11,0,0,0,12.86-.29"/><path class="cls-2" d="M240.53,217.1a11.45,11.45,0,0,1,7.43-5.83,19.45,19.45,0,0,1,8.74-.14c5.61,1.25,9.63,3.5,12.61,4.75l3.53,1.53a8.67,8.67,0,0,0,3.48.85c3.16.25,7.83-1.35,13.75-1.9-.57,6.86-2.65,12.77-7.84,17.46a16.81,16.81,0,0,1-9.77,4.13,19.56,19.56,0,0,1-9.76-1.85c-5.56-2.55-9.14-6.38-11.86-9.45-1.43-1.65-2.76-3.27-4.26-4.91A18.86,18.86,0,0,0,240.53,217.1Z"/><path class="cls-2" d="M240.56,217.1a18.86,18.86,0,0,0-6.05,4.64c-1.5,1.64-2.83,3.26-4.27,4.91-2.72,3.07-6.29,6.9-11.86,9.45a19.5,19.5,0,0,1-9.75,1.85,16.84,16.84,0,0,1-9.78-4.13c-5.18-4.69-7.26-10.6-7.83-17.46,5.92.55,10.58,2.15,13.75,1.9a8.67,8.67,0,0,0,3.48-.85l3.53-1.53c3-1.25,7-3.5,12.61-4.75a19.41,19.41,0,0,1,8.73.14A11.44,11.44,0,0,1,240.56,217.1Z"/><path class="cls-2" d="M246.59,92.79c13.39-1.55,27.73-6,35-17.39,6.11-9.56,5.74-22.21,1.47-32.71C276.69,27.06,261.73,15.08,245,13S210.47,19,201.7,33.4s-7.63,34.38,3.2,47.32,30.76,17.48,45.87,10"/><path class="cls-9" d="M285.6,40.48c7.37,7.15,7.43,19.75,2.25,28.66S273.44,83.79,264,87.6c-14.58,5.86-31.27,7.91-45.91,2.2S191.65,69.44,192.3,53.56"/><path class="cls-9" d="M251.55,84c13.77-1.75,25.63-12.88,29-26.33s-1.38-28.45-11.38-38.07S244.5,5.76,230.77,7.77c-12.42,1.82-24.28,8.8-30.78,19.55S193,52.55,200,63s21.33,15.77,33,11.1"/><path class="cls-2" d="M407,504.51c-32.87,14.83-62.88,19.4-67,10.21s19.14-28.67,52-43.5,62.88-19.41,67-10.21S439.86,489.68,407,504.51Z"/><path class="cls-10" d="M392.55,585.25l-15.39-37.38-12.32-30-10.39-25.27L331.63,437.2c-12-29.18-.2-61.5,25.71-70.38a41.48,41.48,0,0,1,13.75-2.21c.42,0,.85,0,1.27.05,20.1.72,39.51,15.64,47.29,38.42l18.47,54,8.27,24.22L482.12,585.9"/><path class="cls-3" d="M458.27,459.89C452.21,452.22,423.4,457,392,471.2c-32.9,14.85-56.21,34.33-52,43.55a2.06,2.06,0,0,0,.35.54l-.35.16L325.29,481c6.56-10.49,26.66-24.88,52.43-36.49,26.08-11.77,50.42-17.36,62.5-15.12Z"/><path class="cls-2" d="M440.22,429.42c-12.08-2.24-36.42,3.35-62.5,15.12-25.77,11.61-45.87,26-52.43,36.49L303.65,430.3c-14.24-33.41,1.16-71.52,33.52-82.83a55.86,55.86,0,0,1,18.6-3.2c22.18,0,43.44,13.16,54.36,34.45Z"/><path class="cls-2" d="M75.4,504.51c32.87,14.83,62.89,19.4,67,10.21s-19.13-28.67-52-43.5S27.54,451.81,23.4,461,42.53,489.68,75.4,504.51Z"/><path class="cls-10" d="M89.84,585.25l15.39-37.38,12.32-30,10.39-25.27,22.82-55.45c12-29.18.2-61.5-25.71-70.38a41.44,41.44,0,0,0-13.75-2.21c-.42,0-.85,0-1.27.05-20.1.72-39.51,15.64-47.29,38.42l-18.47,54L36,481.29.27,585.9"/><path class="cls-3" d="M24.12,459.89C30.18,452.22,59,457,90.4,471.2c32.91,14.85,56.21,34.33,52,43.55a2.06,2.06,0,0,1-.35.54l.35.16L157.1,481c-6.56-10.49-26.66-24.88-52.43-36.49-26.08-11.77-50.42-17.36-62.5-15.12Z"/><path class="cls-2" d="M42.17,429.42c12.08-2.24,36.42,3.35,62.5,15.12,25.77,11.61,45.87,26,52.43,36.49l21.64-50.73c14.24-33.41-1.15-71.52-33.52-82.83a55.86,55.86,0,0,0-18.6-3.2c-22.18,0-43.44,13.16-54.35,34.45Z"/><polygon class="cls-10" points="378.96 587.06 103.86 587.06 105.29 546.74 106.29 517.66 107.56 481.93 111.65 366.58 112.27 349.42 121.14 346.21 172.72 327.58 182.68 323.99 187.61 322.18 200.5 315.25 204.4 315.25 278.85 315.25 280.39 315.25 294.86 321.91 299.76 323.68 309.71 327.27 362.8 346.44 370.98 349.42 371.56 366.62 373.75 431.59 375.41 481.24 376.61 517.15 376.61 517.35 377.69 549.79 378.96 587.06"/><path class="cls-11" d="M283,313.63l10.78,7.44,4.7,1.69a56.9,56.9,0,0,1-112.84.3l4.78-1.74,11.32-8.68"/><line class="cls-7" x1="149.48" y1="336.23" x2="149.48" y2="585.86"/><line class="cls-7" x1="197.36" y1="351.24" x2="197.36" y2="585.86"/><line class="cls-7" x1="241.82" y1="372.82" x2="241.81" y2="585.86"/><line class="cls-7" x1="289.68" y1="347.08" x2="289.68" y2="585.86"/><line class="cls-7" x1="334.14" y1="336.23" x2="334.14" y2="585.86"/></svg>