<?xml version="1.0" encoding="utf-8"?>
<!-- Generator: Adobe Illustrator 26.2.1, SVG Export Plug-In . SVG Version: 6.00 Build 0)  -->
<svg version="1.1" id="Layer_1" xmlns="http://www.w3.org/2000/svg" xmlns:xlink="http://www.w3.org/1999/xlink" x="0px" y="0px"
	 viewBox="0 0 513.5 583.8" style="enable-background:new 0 0 513.5 583.8;" xml:space="preserve">
<style type="text/css">
	.st0{fill:#C2B59B;}
	.st1{fill:#FFFFFF;}
	.st2{fill:#B2A68E;}
	.st3{fill:#414042;}
	.st4{fill:#FEDCB5;}
	.st5{fill:#333333;}
	.st6{fill:#EDAB7D;}
	.st7{fill:#2D2D2D;}
	.st8{fill:#5B3824;}
	.st9{fill:#3E2217;}
</style>
<g>
	<path class="st0" d="M472,431.7c-6.1-14.9-17.4-27.1-32-34.1L308,333.9h-52.6h-52.6L70.6,397.6c-14.6,7-25.9,19.2-32,34.1
		C26.8,460.9,8.5,514.6,1.5,580.5h253.8h253.8C502.2,514.6,483.8,460.9,472,431.7z"/>
	<path class="st1" d="M202.7,333.9L70.6,397.6c-14.6,7-25.9,19.2-32,34.1C26.8,460.9,8.5,514.6,1.5,580.5h5.4l1.6-0.3
		c0,0,12.3-74.4,25.1-115.9c12.9-41.5,16.5-39.1,28.2-51.9c11.6-12.8,137.2-67.8,137.2-67.8l13.1-10.6H202.7z"/>
	<path class="st2" d="M440,397.6L308,333.9h-27.4l27.4,10.8c0,0,83.4,55.6,107.8,82.1s54.6,141,49.1,147.7
		c-5.5,6.6-62.9,5.7-62.9,5.7l107.3,0.3c-7-65.9-25.3-119.6-37.1-148.8C465.9,416.7,454.6,404.6,440,397.6z"/>
	<path class="st3" d="M202.7,367.1l0.5,0.5c29.2,28.5,75.8,28.2,104.7-0.5l0,0v213.4H202.7V367.1z"/>
	<path class="st4" d="M299.8,295c-12.9,9.3-28.5,14.3-44.5,14.3c-16,0-31.6-4.9-44.5-14.3c-2.8-2-5.5-4.2-8.1-6.4v78.5l0.5,0.5
		c29.2,28.5,75.8,28.2,104.7-0.5v-78.5C305.3,290.8,302.6,293,299.8,295z"/>
	<path class="st5" d="M258.1,3V2.8c-1.2,0-2.4,0.1-3.6,0.1c-1.2,0-2.3-0.1-3.6-0.1V3C149,7,122.9,96.5,122.9,152
		c0,56.8,42.3,86.4,42.3,86.4H251h7.1h86.8c0,0,41.4-29.6,41.4-86.4C386.2,96.5,360.1,7,258.1,3z"/>
	<path class="st3" d="M258.1,3V2.8c-1.2,0-2.4,0.1-3.6,0.1c-1.2,0-2.3-0.1-3.6-0.1V3C149,7,122.9,96.5,122.9,152
		c0,56.8,42.3,86.4,42.3,86.4h1.7c-10.6-11.5-26.4-32.9-25.1-63.6c10-246,254.6-144,224.2,0c-6.4,30.1-14.2,52.1-24.6,63.6h3.7
		c0,0,41.4-29.6,41.4-86.4C386.2,96.5,360.1,7,258.1,3z"/>
	<path class="st4" d="M373.5,158.8c-0.2-9.1-7.5-16.3-16.4-16.6l-0.3,12l-20.4-26c-17.6-8.9-63.8-24.1-63.8-24.1
		c2.9,15.1,19.7,24.1,19.7,24.1c-31.9-3.2-53.4-24.1-53.4-24.1c-0.4,15.1,5.6,24.1,5.6,24.1c-32.6-6.2-59.2-30.1-59.2-30.1
		c-11.5,15-32.4,56.2-32.4,56.2v-12c-9.1,0.1-16.6,7.4-16.8,16.6l-0.2,7.4c-0.3,11.7,8.4,21.5,19.8,22.9v2.1
		c0,22.5,6.4,44.4,18.5,63.4v0c9.6,15,21.8,28,36.1,38.3c12.9,9.4,28.5,14.3,44.5,14.3c16,0,31.6-4.9,44.5-14.3
		c14.3-10.3,26.5-23.3,36.1-38.3v0c12.1-18.9,18.5-40.9,18.5-63.4v-2.1c11.4-1.4,20-11.2,19.8-22.9L373.5,158.8z"/>
	<path class="st1" d="M232.7,303.4c-42.6-23.9-61.7-60.8-66-82.2c-2.2-11.2-2.7-21.3-2.6-28.3c0.1-5.5-3.5-10.2-8.7-12.1
		c-4.8-1.7-9.8-5-11.1-11.3c-2.4-12.5,5-23.4,5-23.4s-0.5-1.2-1.3-3.1c-6.8,2.1-11.8,8.3-12,15.8l-0.2,7.4
		c-0.3,11.7,8.4,21.5,19.8,22.9v1.2c0,21.8,5.6,43.3,17,61.9c9.8,16,22.6,29.8,37.6,40.7c7.4,5.4,15.7,9.2,24.4,11.6
		C234.1,304.2,233.5,303.8,232.7,303.4z"/>
	<path class="st6" d="M373.5,158.8c-0.2-9.1-7.5-16.3-16.4-16.6l-0.3,12l-20.4-26c-17.6-8.9-63.8-24.1-63.8-24.1
		c2.9,15.1,19.7,24.1,19.7,24.1c-25.9-2.6-44.9-16.8-51.1-22.1c-0.1,2.2-0.1,3.6-0.1,3.6s27.3,27.5,67.6,26.1c0,0-6.6-6.1-9.8-15.2
		c0,0,25,7.4,37.5,22.4c12.6,15,11,22.6,11,33.2s-5.9,49.1-32.8,61c-12.7,5.6-1.1,16.4,14.8,26.3c2.1-2.9,4.2-5.8,6.1-8.8
		c12.1-18.9,18.5-40.9,18.5-63.4v-2.1c11.4-1.4,20-11.2,19.8-22.9L373.5,158.8z"/>
	<path class="st6" d="M255.4,385c-5,0.2-7.5,1.5-8.2,3.4c21.7,2.4,44.1-4.7,60.8-21.3v-78.5c-2.6,2.2-5.3,4.4-8.1,6.4
		c-12.9,9.3-28.5,14.3-44.5,14.3c-12.1,0-24-2.9-34.7-8.3c-2.6,6.1-4.2,10.3-4.2,10.3s15.9,10.6,40.4,11.8c32.1,1.5,29.8-6.1,35.5-3
		c4,2.1,5.6,22.4,6.2,34.4c0.3,6.2-2.3,12.1-7.1,15.9C283.8,376.4,271.2,384.3,255.4,385z"/>
	<path class="st7" d="M263.7,388.3l-10,4.8c0,0,20,5.8,35.1,0.1c14.8-5.7,14.6,180.9,14.5,187.3h4.6V367.1
		C295.6,379.4,279.9,386.5,263.7,388.3z"/>
	<path class="st3" d="M354.1,191.3c0,0-12.2,42.2-34.4,47.9c-15.5,4-20.1-11.6-64.7-11.6v0c0,0,0,0,0,0c0,0,0,0,0,0v0
		c-44.6,0-49.3,15.6-64.7,11.6c-22.2-5.7-34.4-47.9-34.4-47.9c-8.9,137.3,97.2,122.5,99.2,122.2C256.9,313.8,363,328.6,354.1,191.3z
		 M268.1,271.2c-9.9,3.7-21,3.7-31,0c-8-3-16.4-8.8-18.2-19.9c0,0,12.2-6.3,33.6-6.3s33.6,6.3,33.6,6.3
		C284.5,262.5,276.1,268.2,268.1,271.2z"/>
	<g>
		<path class="st8" d="M513.3,573.1c-0.3-2.6-0.7-6.3-1.4-11.1c-1.3-9.5-3.4-23.1-6.9-39.3c-3.4-16.1-8.2-34.9-14.4-54.5
			c-3.1-9.8-6.6-19.9-10.5-30.1c-0.9-2.5-2-5.1-3-7.6c-1.1-2.6-2.3-5.3-3.7-7.8c-2.8-5.1-6.3-9.8-10.2-14.1c-4-4.2-8.5-8-13.4-11.1
			c-2.4-1.6-5.1-2.9-7.6-4.2c-2.4-1.2-4.9-2.4-7.3-3.6c-9.7-4.7-19.3-9.4-28.5-13.9c-18.5-9-35.7-17.4-50.5-24.6
			c-20.2-9.8-35.8-17.4-43.6-21.2v-25.3c0,0,0.1,0,0.1-0.1c27-15,38.8-42.8,42.9-71.9c24.4-23.9,35.3-57.5,33.4-91.3
			c-4-71.6-49.7-137-125.2-141.2C213-4.1,165.3,21.9,140.9,65.7c-23,41.2-29.5,98-6.9,140.3c5.2,9.7,12.3,19.3,20.7,27.2
			c4.5,28.4,17,54.4,43.7,70.1v27.1c-16.1,8-50.7,25-109.2,52.6c-4.9,2.3-9.9,4.7-14.9,7.1c-2.5,1.2-5.1,2.5-7.7,3.7
			c-2.7,1.3-5.4,2.9-7.9,4.6c-10.2,6.8-18.7,16.7-23.9,28.1c-0.7,1.4-1.3,2.9-1.8,4.3l-1.6,4.1c-1,2.8-2,5.5-3,8.3
			c-2,5.5-3.8,11-5.6,16.5c-3.5,11-6.5,21.8-9.1,32.2c-10.4,41.6-13.2,76-13.9,85.8c-0.1,0.7,0.1,1.4,0.4,1.9
			c-0.2,0.3-0.4,0.6-0.4,0.9c0,1.8,3.8,3.3,8.5,3.3l484.2,0.1c2.3,0,4.2-0.7,4.2-1.6c0-0.9-1.7-1.6-4-1.6
			c-18.4-0.4-97.9-2-184.2-2.8c0.3-2.7,0.6-7.2,0.8-13.5c0.4-10.5,0.9-25.8,1.2-44.9c0.4-19.1,0.7-42,0.9-67.8
			c0.1-12.9,0.2-26.5,0.3-40.7c0.1-14.6,0.1-29.7,0.2-45.2c0.5-2.7,0.3-5.8,0.3-10.2v-15.6c17.7,8.3,51.5,24.5,105,51.1
			c4.8,2.4,9.8,4.8,14.8,7.3c2.5,1.2,5,2.5,7.6,3.7c2.4,1.2,4.7,2.5,6.9,4c8.9,5.9,16.4,14.4,21.2,24.3c0.6,1.2,1.1,2.5,1.7,3.8
			l1.7,4c1.1,2.7,2.1,5.4,3.2,8.1c2.1,5.4,4.1,10.8,6,16.1c3.8,10.7,7.3,21.2,10.3,31.4c12.2,40.6,17.3,74.6,18.8,84.3
			c0.2,1.6,1.3,2.7,2.5,2.6c1.2-0.1,2-1.6,1.8-3.3C513.7,577,513.6,575.7,513.3,573.1z M303.6,365.5c-1,0.9-1.9,1.8-2.9,2.5
			l-1.4,1.1l-1,0.7l-1.4,1c-0.9,0.6-1.8,1.3-2.8,1.9c-1.6,1.1-3.3,2-5,3c-0.6,0.3-1.2,0.7-1.7,0.9c-1.7,0.9-3.5,1.8-5.3,2.6
			c-0.2,0.1-0.3,0.1-0.5,0.2c-8.8,3.7-18.5,5-28,5c-7.7,0-15.4-1.7-22.6-4.3c-0.8-0.3-1.7-0.7-2.5-1c-4.2-1.8-8.1-4.1-12-6.5
			c-1-0.6-1.9-1.3-2.8-1.9l-1.4-1l-0.7-0.5c-0.5-0.4-1-0.7-1.5-1.1c-1.1-1-2.2-2-3.3-3v-57.3c9.2,4,19.2,6.4,29.1,7.8
			c5.4,0.7,14.8,0.1,18.4,0.6c16.4,2.2,33.8-0.5,49.1-7V365.5z M159,192.9c0-1.2-0.1-2.5-0.1-3.7c0-1.2-0.9-2.6-2.2-2.8
			c-11.4-2.1-17.8-10.5-17.6-22c0.2-9.1,3-16.3,11-18.4c0,2.8,0,5.6,0,8.4c0,2.7,3.9,4,5.2,1.4c9.2-18.1,18.6-36.9,30.5-53.5
			c16.5,14,36.8,24.2,57.9,28.8c2.3,0.5,4.6-1.9,3.2-4.1c-3.1-4.9-4.4-10.5-4.9-16.2c14.3,11.4,32.3,18.1,50.2,20.4
			c2.9,0.4,3.7-4,1.4-5.2c-7.2-4-13-9.8-16.4-17.1c15.3,5.1,30.6,10.5,45.6,16.6c9.2,3.7,12.5,6.2,18.4,13.7
			c4.5,5.8,9,11.5,13.6,17.3c1.6,2,4.8,0.3,4.8-2c0-2.8,0-5.6,0-8.4c6,1.4,10.4,5.6,11.1,13c0.3,13.1-2.5,24.8-17.5,27.5
			c-1.3,0.2-2.2,1.6-2.2,2.8c0,1.1,0,2.3-0.1,3.4c-5.2,17-16.6,44.1-36.5,44.7c-7.1,0.2-14.8-4.7-21.2-6.9
			c-12.6-4.3-26.3-5.4-39.5-5.3c-12.3,0.1-24.4,1.1-36.2,4.5c-7.4,2.2-14.5,7.2-22.3,7.7C176.1,238.4,164,209,159,192.9z M354,145.9
			c-0.2-0.3-0.4-0.5-0.6-0.8c0.2,0,0.4,0.1,0.6,0.1C354,145.5,354,145.7,354,145.9z M140.5,79.2c20.9-48.3,70.3-77.8,123-73.1
			c65,3.6,105.1,53.5,116.9,114.2c5.9,30.5,3.1,61.4-13.1,88.5c-3.1,5.2-6.9,10.1-10.9,14.7c0.9-9.9,0.9-19.9,0.5-29.4
			c0-0.9,0.1-1.7,0.1-2.6c15.7-3.9,20-17.6,19.7-32.7c-1-11-8.3-17.9-18.5-19.2c-0.1,0-0.2,0.1-0.3,0.1c-1.2-0.4-6.8,2.3-6.8,2.3
			c-6.4-8.5-12.8-16.3-23.2-20.7c-17.8-7.6-36.2-13.8-54.6-19.9c-2.1-0.7-4,1.5-3.5,3.5c2,7.1,5.8,13.3,11,18.3
			c-14.7-3.7-29-10.6-39.9-21c-1.7-1.6-4.9-0.5-4.8,2c0.1,6.7,0.8,13.6,3.2,19.9c-19-5.1-37.3-14.9-51.9-27.9
			c-1.5-1.3-3.3-0.9-4.4,0.6c-10.5,14.2-19,30.1-27.1,45.9c0-0.1,0-0.2,0-0.3c0-3-5.5-2.1-5.7-2.4c-24.9,4.8-21.4,45.1,2.9,51.7
			c0,0.4,0,0.8,0,1.2c-0.6,10.3-0.6,20.7,0.4,31C117.4,184.4,120.5,125.4,140.5,79.2z M157.9,205.4c5.8,14.8,15.1,30.8,29,35.4
			c7.5,2.4,13.3,1.3,20.4-1.8c15.1-6.5,30-8.8,46.5-8.9c16.3-0.1,31.7,2.3,46.8,8.4c7.8,3.2,14.2,4.9,22.5,2.3
			c13.8-4.5,23-20.3,28.9-35.1c-0.1,37.8-9.5,77.6-45.5,96.5c-14.8,7.8-35.1,11-50.8,8.8c-5-0.7-10.4,0.1-15.5-0.3
			c-12.3-1-24.4-4.4-35.5-9.9C168.2,282.9,157.7,243.2,157.9,205.4z M8.4,577.1c-1.6,0-3,0.1-4.3,0.4c0.1-0.5,0.2-1.7,0.4-3.5
			c0.3-2.5,0.7-6.2,1.4-10.9c1.3-9.4,3.5-22.8,6.9-38.7c3.5-15.9,8.2-34.3,14.4-53.7c3.1-9.7,6.6-19.6,10.5-29.6c0.9-2.5,2-5,3-7.5
			c1-2.4,2-4.7,3.3-6.9c2.4-4.5,5.5-8.6,9-12.4c3.5-3.7,7.5-7,11.9-9.7c2.2-1.4,4.4-2.5,6.8-3.7c2.4-1.2,4.9-2.4,7.3-3.5
			c9.7-4.7,19.3-9.3,28.5-13.7c18.5-8.9,35.8-17.2,50.6-24.4c17.6-8.5,31.6-15.2,40.2-19.3v15.4c0,4.5-0.4,7.8,0.3,10.8
			c0.1,15.3,0.1,30.2,0.2,44.6c0.1,14.2,0.2,27.8,0.3,40.7c0.2,25.8,0.6,48.7,0.9,67.8c0.4,19.1,0.8,34.4,1.2,44.9
			c0.3,5.9,0.5,10.3,0.8,13c-6.1,0-12.2,0-18.1,0C83.3,577.7,28.3,577.3,8.4,577.1z M203.3,577.2c0.3-2.7,0.5-7.1,0.8-13
			c0.4-10.5,0.9-25.8,1.2-44.9c0.4-19.1,0.7-42,0.9-67.8c0.2-22.8,0.3-48.1,0.5-75c8.1,6.5,17.6,11,27.6,13.7c1.8,0.5,3.6,1,5.4,1.5
			c5,1.2,10.3,1.8,15.6,1.8c4.5,0,8.9-0.4,13.3-1.2c12.8-2.3,24.9-8,35.2-15.7c0.2,27,0.4,52.3,0.5,75.1c0.2,25.8,0.6,48.7,0.9,67.8
			c0.4,19.1,0.8,34.4,1.2,44.9c0.3,6.3,0.5,10.8,0.8,13.5C272.6,577.4,236.7,577.2,203.3,577.2z"/>
		<circle class="st8" cx="210.3" cy="169.6" r="10.1"/>
		<circle class="st8" cx="302.3" cy="169.6" r="10.1"/>
		<path class="st8" d="M243.1,221.4c0.5,0.3,1,0.6,1.5,0.9c1,0.5,2.1,1,3.1,1.4c2.1,0.7,4.4,1,6.3,0.8c3.9-0.3,6.9-1.5,8.8-2.4
			c2-0.9,3-1.6,3-1.6c0.7-0.4,0.6-1.6-0.1-2.6c-0.7-1-1.7-1.5-2.3-1.1c-1.1,0.7-3.4,2.3-7.3,3.3c-1.9,0.4-4.2,0.6-6.7-0.1
			c-1.2-0.4-2.5-1-3.8-1.8c-0.3-0.2-0.6-0.4-1-0.7c-0.3-0.2-0.4-0.4-0.6-0.6c-0.4-0.4-0.6-1-0.8-1.6c-0.2-0.7-0.1-1.4,0.1-2.1
			c0.5-1.1,0.9-2.1,1.4-3.2c0.9-2.3,1.7-4.8,2.3-7.2c1.3-4.8,2.2-9.7,2.9-14.2c1.4-8.9,1.8-16.2,2-18.2c0-0.3-0.4-0.7-1-0.7
			c-0.6-0.1-1.1,0.1-1.2,0.5c0,0-0.6,4.5-1.9,11.3c-1.3,6.7-3.1,15.7-6.1,24.3l-1.2,3.1l-0.7,1.5l-0.3,0.7c-0.1,0.3-0.3,0.7-0.4,1
			c-1,3,0.1,6.4,2.3,8.3C242.2,220.7,242.6,221.1,243.1,221.4z"/>
		<path class="st8" d="M268.8,273.7c10.3-4.3,17.2-10.6,20-21.7c0.3-1.1-0.1-2.4-1.2-2.9c-19.9-9.8-50-9.8-69.9,0
			c-1.1,0.5-1.5,1.9-1.2,2.9C222.1,275.1,248.7,280.1,268.8,273.7z M224.9,251.8c3.7-1.3,7.5-2.1,11.3-2.8
			c12.8-2.5,26.5-1.6,39.2,1.4c3,0.7,5.9,1.7,8.7,2.9c2.9,1.3-14.1,14.4-16.7,15.5c-15.3,4.9-34.2,3.3-43.7-11.3
			C220.3,252.2,219.6,253.7,224.9,251.8z"/>
		<path class="st8" d="M231.1,260l42.5,0.4c0.4,0,0.7-1,0.7-2.2c0-1.3-0.3-2.3-0.8-2.2c-1.7,0.1-6.6,0.3-15.4-0.1
			c-10.5-0.5-24.7,1.6-27.1,2c-0.2,0-0.3,0.5-0.3,1.1C230.8,259.5,230.9,260,231.1,260z"/>
	</g>
	<path class="st9" d="M358,142.5c-8,0.9-20.9-1.2-27.1-2.2c-6.2-0.9-33.2-3.1-57.9,4c0,0-9.8,2.7-18.2,2.8c-8.4,0-18.2-2.8-18.2-2.8
		c-24.6-7.1-51.7-4.9-57.9-4c-6.2,0.9-19.1,3.1-27.1,2.2c-8-0.9-6.2,5.8-6.2,5.8l0.1,1.9c0.3,3.5,1.9,6.6,4.4,9.1
		c0.8,0.8,1.5,1.7,1.9,2.8c1.5,3.7,4.6,25.1,8.3,32.9c3.7,7.8,11.5,16.9,32.9,17.7c21.5,0.7,32.6-9.2,40.3-17.4
		c7.7-8.2,11.9-26.8,14.4-29.9c2.2-2.6,6.1-3.3,6.9-3.4c0.8,0.1,4.7,0.8,6.9,3.4c2.5,3.1,6.7,21.7,14.4,29.9
		c7.7,8.2,18.8,18.1,40.3,17.4c21.5-0.7,29.3-9.9,32.9-17.7c3.7-7.8,6.8-29.3,8.3-32.9c0.4-1.1,1.1-2,1.9-2.8
		c2.4-2.5,4.1-5.7,4.4-9.1l0.1-1.9C364.2,148.4,366,141.6,358,142.5z M233.8,187.5c-8.5,14.7-22.4,21.4-36,22
		c-13.5,0.6-23-3.6-29.5-9.7c-6.5-6.1-7.1-25.9-7.7-37.4c-0.6-11.5,6.7-13.5,6.7-13.5c32.9-12.7,63-1.4,68.3,3.6
		C240.8,157.6,242.2,172.7,233.8,187.5z M349.1,162.4c-0.6,11.5-1.2,31.3-7.7,37.4c-6.5,6.1-16,10.3-29.5,9.7
		c-13.5-0.6-27.5-7.3-36-22c-8.5-14.7-7.1-29.9-1.8-34.9c5.3-5.1,35.4-16.4,68.3-3.6C342.4,148.9,349.7,150.9,349.1,162.4z"/>
</g>
</svg>
