<?xml version="1.0" encoding="utf-8"?>
<!-- Generator: Adobe Illustrator 26.2.1, SVG Export Plug-In . SVG Version: 6.00 Build 0)  -->
<svg version="1.1" id="Layer_1" xmlns="http://www.w3.org/2000/svg" xmlns:xlink="http://www.w3.org/1999/xlink" x="0px" y="0px"
	 viewBox="0 0 482.7 583.8" style="enable-background:new 0 0 482.7 583.8;" xml:space="preserve">
<style type="text/css">
	.st0{fill:#3E2217;}
	.st1{fill:#BE1E2D;}
	.st2{fill:#FFFFFF;}
	.st3{fill:#A61C26;}
	.st4{fill:#E6E7E8;}
	.st5{fill:#FEDCB5;}
	.st6{fill:#EDAB7D;}
	.st7{fill:#FEFEFE;}
	.st8{fill:#49281D;}
	.st9{fill:#5B3824;}
</style>
<g>
	<g>
		<path class="st0" d="M383.8,224C383.7,132.7,353.2,4.2,240,4.1v0c0,0,0,0-0.1,0s0,0-0.1,0v0C126.7,4.2,96.2,132.7,96.1,224
			c-0.1,91.4,29.4,159.5,29.4,159.5l114.4,11.3v0l0.1,0l0.1,0v0l114.4-11.3C354.4,383.5,383.9,315.4,383.8,224z"/>
		<path class="st1" d="M443.5,440.3c-5.7-14.1-16.4-25.5-30-32.2l-124-60H240h-49.4l-124,60c-13.7,6.6-24.4,18.1-30,32.2
			C25.4,467.8,8.2,518.4,1.7,580.5H240h238.4C471.8,518.4,454.6,467.8,443.5,440.3z"/>
		<path class="st2" d="M190.6,348.2l-124,60c-13.7,6.6-24.4,18.1-30,32.2C25.4,467.8,8.2,518.4,1.7,580.5h5.1l1.5-0.3
			c0,0,11.5-70,23.6-109.2c12.1-39.1,15.5-36.8,26.5-48.9c10.9-12.1,128.9-63.9,128.9-63.9l12.3-10H190.6z"/>
		<path class="st3" d="M413.5,408.2l-124-60h-25.8l25.8,10.1c0,0,71.4,38.2,94.3,63.2c22.9,25,53.1,135.3,47.9,141.5
			c-5.2,6.2-54,17.1-54,17.1l100.7,0.3c-6.5-62.1-23.8-112.7-34.9-140.2C437.8,426.3,427.1,414.8,413.5,408.2z"/>
		<rect x="190.6" y="460.8" class="st4" width="98.9" height="119.3"/>
		<path class="st5" d="M281.8,311.5C269.7,320.3,255,325,240,325c-15,0-29.7-4.6-41.8-13.4c-2.6-1.9-5.2-3.9-7.6-6v155.3H240h49.4
			V305.5C287,307.6,284.4,309.6,281.8,311.5z"/>
		<path class="st6" d="M240,325c-11.5,0-22.9-2.8-33-8l-4,0.9c0,0,15.3,15.5,38.3,14.6c23-0.9,35.1-11.1,37.8-7.3
			c2.6,3.8,8.9,117.6,4,124.6c-4.9,7-68.5,11.1-68.5,11.1H240h49.4V305.5c-2.5,2.1-5,4.1-7.6,6C269.7,320.3,255,325,240,325z"/>
		<path class="st7" d="M193.7,312l-3.1-6.5v155.3h17.1c-7,0-14-4.1-14-4.1V312z"/>
		<path class="st5" d="M351.5,185.5c-0.2-8.8-7.5-15.8-16.3-15.6l-2.2,0v-4.8v-47.9h-93h-93v47.9v4.8l-2.2,0
			c-8.8-0.2-16.1,6.8-16.3,15.6l-0.2,7c-0.2,11,7.9,20.2,18.6,21.5v2c0,21.1,6,41.7,17.3,59.5l0,0c9,14.1,20.5,26.3,33.9,36
			C210.3,320.3,225,325,240,325c15,0,29.7-4.6,41.8-13.4c13.4-9.7,24.9-21.9,33.9-36l0,0C327,257.8,333,237.1,333,216v-2
			c10.7-1.3,18.8-10.5,18.6-21.5L351.5,185.5z"/>
		<path class="st6" d="M351.6,192.5l-0.2-7c-0.2-8.8-7.5-15.8-16.3-15.6l-2.2,0v-4.8v-35.3c-1.1-1-11-7.3-21.2-12.6H240h-25.4
			l8.8,4.7c0,0,25,21.2,46.2,28.2c1.6,0.5,3-1.3,2.1-2.7c-1-1.5-1.8-3.2-1.8-4.4c0,0,16.6,12.9,33.1,19.4c1.6,0.6,3.1-1.2,2.2-2.6
			c-1.1-1.7-2.1-3.6-2-5.1c0,0,14,17.1,27.4,23.7s14,14.6,11.4,21.1c-2.6,6.5-13.7,5.7-16.8,10.5c-3.1,4.8,1.7,38.5-16.5,63.9
			c-18.2,25.4-33.2,43.8-59.6,47.7c-4.4,0.7-4.9,1.8-2.8,3.2c12.8-1.1,25.2-5.6,35.6-13.2c14.1-10.2,26.1-23.2,35.3-38.2
			c10.6-17.5,15.9-37.7,15.9-58.1V214C343.7,212.7,351.9,203.5,351.6,192.5z"/>
		<path class="st2" d="M214.6,317.2c-45.9-24.9-61.9-70.8-61.1-88c0.8-17.2,1.3-18.4-10.5-24c-11.8-5.6-10.5-22.7-10.5-22.7
			s-1.1-0.7-3-2c-0.6,1.6-0.9,3.3-1,5.1l-0.1,7c-0.2,11,7.9,20.2,18.6,21.5v2c0,21.1,6,41.7,17.3,59.5c9,14.1,20.5,26.3,33.9,36
			c6.9,5,14.5,8.6,22.6,10.8C220.8,320.9,218.8,319.5,214.6,317.2z"/>
		<path class="st0" d="M144.2,170c0,0,37.9,3,80.8-50c0,0,22.4,16.6,38.9,22.2c0,0-7.1-7.4-9-16.6c0,0,13.4,19,44.4,28.1
			c0,0-4.7-4.2-9.8-19c0,0,17.1,24.9,43.6,38l6.7-75.8H137.3L144.2,170z"/>
		<path class="st8" d="M243.1,43.9L243.1,43.9C243.1,43.9,243.1,43.9,243.1,43.9c0.1,0,0.1,0,0.1,0v0
			C350,44,378.7,165.2,378.8,251.3c0,27.1-2.7,52.1-6.5,73.6c6.2-27.1,11.5-61.8,11.5-100.9C383.7,132.7,353.2,4.2,240,4.1v0
			c0,0,0,0-0.1,0s0,0-0.1,0v0C126.7,4.2,96.2,132.7,96.1,224c-0.1,91.4,29.4,159.5,29.4,159.5l3.2,0.3
			c-8.2-24.9-21.2-73.5-21.1-132.5C107.6,165.2,136.3,44,243.1,43.9z"/>
	</g>
	<g>
		<path class="st9" d="M482.3,573.5c-0.3-2.4-0.7-6-1.3-10.4c-1.2-9-3.2-21.8-6.5-37c-3.2-15.2-7.7-32.8-13.5-51.4
			c-2.9-9.3-6.2-18.8-9.8-28.3c-0.9-2.4-1.9-4.8-2.8-7.2c-1-2.5-2.1-5-3.5-7.4c-2.6-4.8-5.9-9.2-9.6-13.3c-3.8-4-8-7.5-12.6-10.4
			c-2.3-1.5-4.8-2.8-7.1-3.9c-2.3-1.1-4.6-2.2-6.9-3.3c-9.1-4.4-18.1-8.8-26.8-13.1c-7.2-3.5-14.2-6.9-20.9-10.2
			c7.5-20.2,26.9-79.7,26.8-153.7c0-32.3-4-94.1-29.9-146c-25.9-51.7-65.5-78-118-78l-0.3,0l0,0c-52.3,0.1-91.9,26.4-117.7,78
			C96,129.9,92.1,191.7,92,224c-0.1,74.2,19.5,133.9,26.9,153.9c-10.5,5-22.1,10.5-34.9,16.6c-4.6,2.2-9.3,4.4-14,6.7
			c-2.4,1.2-4.8,2.3-7.2,3.5c-2.6,1.3-5,2.7-7.5,4.3c-9.6,6.4-17.5,15.7-22.4,26.4c-0.6,1.3-1.2,2.7-1.7,4l-1.5,3.9
			c-1,2.6-1.9,5.2-2.9,7.8c-1.8,5.2-3.6,10.4-5.2,15.6c-3.3,10.3-6.1,20.5-8.6,30.3C3.3,536.1,0.7,568.5,0,577.7
			c-0.1,0.7,0.1,1.4,0.4,1.9C0.2,580,0,580.3,0,580.6c0,1.7,3.6,3.1,8,3.1l454.7,0.1c2.2,0,3.9-0.7,3.9-1.5c0-0.8-1.6-1.5-3.7-1.5
			c-17-0.4-90.2-1.8-170.1-2.6c0-39.1,0-78.2,0-117.3V353.4c16.4,7.7,48.3,23.1,99.3,48.4c4.5,2.2,9.2,4.5,13.9,6.9
			c2.4,1.2,4.7,2.3,7.1,3.5c2.2,1.1,4.4,2.4,6.5,3.7c8.4,5.6,15.4,13.6,19.9,22.8c0.6,1.2,1.1,2.3,1.6,3.6l1.6,3.8
			c1,2.5,2,5.1,3,7.6c2,5.1,3.9,10.1,5.6,15.2c3.6,10.1,6.8,20,9.7,29.6c11.5,38.2,16.3,70.2,17.6,79.4c0.2,1.5,1.3,2.6,2.3,2.5
			c1.1-0.1,1.9-1.5,1.7-3.1C482.7,577.3,482.5,576,482.3,573.5z M8.1,577.5c-1.5,0-2.9,0.1-4.1,0.4c0-0.3,0.2-1.5,0.4-3.5
			c0.3-2.4,0.7-5.9,1.4-10.3c1.2-8.9,3.3-21.5,6.5-36.5c3.2-15,7.7-32.4,13.6-50.6c2.9-9.1,6.2-18.5,9.8-27.9c0.9-2.4,1.8-4.7,2.8-7
			c0.9-2.2,1.9-4.4,3.1-6.5c2.3-4.2,5.2-8.1,8.5-11.6c3.3-3.5,7.1-6.6,11.1-9.1c2-1.3,4.1-2.4,6.3-3.5c2.3-1.1,4.6-2.2,6.9-3.3
			c9.1-4.4,18.1-8.7,26.8-12.9c17.4-8.4,33.6-16.2,47.5-23c17-8.2,30.4-14.7,38.4-18.5v107.3c0,38.9,0,77.8,0,116.8
			c-4.8,0-9.5,0-14.2,0C78.4,578.1,26.8,577.7,8.1,577.5z M147,172.8c0.2,0,0.4-0.1,0.7-0.1c10.3-0.7,42.4-6.3,77.8-49
			c6,4.3,23.6,16.3,37.5,21.1l10.4,3.6l-7.6-8c0,0-0.3-0.3-0.8-0.9c7.5,5.8,18.4,12.5,33.5,16.9l9.7,2.8c6.6,5.7,14.6,11.5,23.6,16
			l3.6,1.7l0.4-4.1c7,0.7,12.2,4.8,12.9,12.6c0.3,12.3-2.4,23.2-16.4,25.8c-1.2,0.2-2,1.5-2,2.7c0,48.1-35.1,104.9-87.3,108.1
			c-27.8,1.7-50.6-15.6-67.6-35.9c-17-20.3-25.7-45.9-25.7-72.2c0-1.2-0.8-2.5-2-2.7c-10.7-1.9-16.7-9.9-16.5-20.6
			C131.4,180.4,135.3,172.5,147,172.8z M194,576.8c0-37.5,0-75,0-112.5c30.7,0,61.4,0,92.1,0c0,37.5,0,75,0,112.5
			C255.4,576.8,224.7,576.8,194,576.8z M197.7,314.8c1.2,0.8,2.4,1.5,3.7,2.2c0.2,0.1,0.3,0.2,0.5,0.3c25.6,14.4,55.6,14.9,81.6-2.8
			c0.9-0.7,1.7-1.3,2.5-1.9v144.9c-30.7,0-61.4,0-92.1,0V312.3c0.8,0.6,1.7,1.1,2.5,1.7C196.9,314.2,197.3,314.5,197.7,314.8z
			 M292.8,344.4v-38.1c6.5-5.6,12.4-12,17.6-18.6c16.2-20.4,24.8-45.4,25.3-71.5c14.8-3.7,18.8-16.5,18.5-30.7
			c-1-10.3-7.6-16.8-17-18.1c-0.5,0.4-0.9,0.7-1.4,1c-0.9,0.5-1.8,0.9-2.8,1.2c-0.8-0.5-1.6-1-2.4-1.5l0,0.4
			c-23.5-13-38.9-35-39-35.2l-11.4-16.6l6.6,19c2,5.7,3.9,9.9,5.5,12.9c-24.3-9.3-35.2-24.4-35.3-24.5l-7.6-10.7l2.7,12.8
			c0.8,3.6,2.3,7,3.9,9.8c-14.2-6.9-29.3-18-29.4-18.2l-2.1-1.5l-1.6,2c-28.7,35.4-54.9,45.3-68.6,48c-1.8,0.9-3.7,1.4-5.8,1.4
			c-2.3,0-4.5,0-6.8,0c0,0,0,0,0,0c0,0-0.1,0-0.1,0c-0.1,0-0.2,0-0.3,0l0,0.1c-23.1,4.8-19.8,42.3,3,48.5
			c0.7,33,16.8,68.9,42.9,90.8v37.5c-10.5,5.3-30.2,15-60.9,29.8c-7.4-20-26.2-78-26.1-150.3c0-36,7-215.5,139.6-215.9l0.2,0
			C372.7,8.3,379.7,188,379.7,224c0.1,72-18.6,129.9-26,150.1c-6.8-3.3-13.2-6.5-19.2-9.4C314.9,355.2,300,347.9,292.8,344.4z"/>
		<path class="st9" d="M198.2,186.2c-5.2,0-9.5,4.2-9.5,9.5c0,5.2,4.2,9.5,9.5,9.5c5.2,0,9.5-4.2,9.5-9.5
			C207.7,190.5,203.4,186.2,198.2,186.2z"/>
		<path class="st9" d="M284.6,186.2c-5.2,0-9.5,4.2-9.5,9.5c0,5.2,4.2,9.5,9.5,9.5c5.2,0,9.5-4.2,9.5-9.5
			C294,190.5,289.8,186.2,284.6,186.2z"/>
		<path class="st9" d="M229,244.3c0.5,0.3,0.9,0.6,1.4,0.8c1,0.5,1.9,0.9,2.9,1.3c2,0.7,4.1,0.9,5.9,0.8c3.7-0.3,6.4-1.4,8.3-2.3
			c1.8-0.9,2.8-1.5,2.8-1.5c0.6-0.4,0.6-1.5-0.1-2.4c-0.7-0.9-1.6-1.4-2.1-1c-1.1,0.7-3.2,2.2-6.9,3.1c-1.8,0.4-4,0.6-6.3-0.1
			c-1.2-0.4-2.4-0.9-3.6-1.7c-0.3-0.2-0.6-0.4-0.9-0.6c-0.2-0.2-0.4-0.3-0.6-0.6c-0.4-0.4-0.6-0.9-0.7-1.5c-0.1-0.7-0.1-1.3,0.1-1.9
			c0.4-1,0.9-2,1.3-3c0.8-2.2,1.6-4.5,2.2-6.7c1.2-4.6,2.1-9.1,2.7-13.3c1.3-8.4,1.7-15.2,1.8-17.1c0-0.3-0.4-0.6-0.9-0.7
			c-0.6-0.1-1,0.1-1.1,0.4c0,0-0.6,4.2-1.8,10.6c-1.2,6.3-3,14.8-5.7,22.8l-1.1,2.9l-0.6,1.4l-0.3,0.7c-0.1,0.3-0.3,0.6-0.4,1
			c-0.9,2.8,0.1,6,2.2,7.8C228.1,243.7,228.5,244,229,244.3z"/>
		<path class="st9" d="M223.8,276.4c1.9,1.4,4.3,2.9,7.2,4.1c3,1.2,6.5,2.1,10.3,2c3.9-0.1,7.3-1.1,10.2-2.3
			c2.9-1.2,5.3-2.7,7.2-4.1c3.8-2.8,5.5-5.1,5.1-5.7c-0.5-0.5-2.9,0.7-6.9,2.6c-3.9,1.8-9.5,4.3-15.6,4.4
			c-6.1,0.1-11.7-2.3-15.6-4.1c-3.9-1.9-6.3-3.4-6.8-2.8C218.5,271,220.1,273.5,223.8,276.4z"/>
		<path class="st9" d="M198.1,171.5c3.8-0.2,7.3,0.6,9.7,1.5c2.5,0.9,4,1.8,4.6,1.3c0.5-0.4-0.2-2.4-2.8-4.4
			c-2.4-2-6.9-3.8-11.9-3.5c-4.9,0.4-8.9,2.4-11.4,4.2c-2.4,1.9-3.5,3.4-3.2,4C184.1,176,190.3,172.2,198.1,171.5z"/>
		<path class="st9" d="M274.6,173.1c2.5-1,5.9-1.8,9.7-1.5c7.8,0.6,14,4.5,14.8,3.1c0.4-0.5-0.7-2.1-3.2-4
			c-2.4-1.8-6.4-3.8-11.4-4.2c-5-0.3-9.4,1.4-11.9,3.5c-2.5,2-3.3,4-2.8,4.4C270.6,174.8,272.1,174,274.6,173.1z"/>
	</g>
</g>
</svg>
