<svg id="Layer_1" data-name="Layer 1" xmlns="http://www.w3.org/2000/svg" viewBox="0 0 481.54 548.81"><defs><style>.cls-1{fill:#3b4eff;}.cls-2{fill:#2e2e2e;}.cls-3,.cls-5{fill:#f5f5ff;}.cls-3,.cls-4,.cls-5,.cls-6,.cls-7,.cls-8{stroke:#2e2e2e;stroke-linecap:round;stroke-linejoin:round;}.cls-3,.cls-4{stroke-width:0.54px;}.cls-4,.cls-6,.cls-7,.cls-8{fill:none;}.cls-5{stroke-width:0.56px;}.cls-6{stroke-width:0.5px;}.cls-7{stroke-width:0.45px;}.cls-8{stroke-width:0.57px;}</style></defs><circle class="cls-1" cx="240.77" cy="217.13" r="217.13"/><path class="cls-2" d="M405.82,468.24c-32.65,14.74-62.47,19.28-66.59,10.15s19-28.49,51.67-43.22,62.47-19.28,66.59-10.15S438.48,453.51,405.82,468.24Z"/><path class="cls-3" d="M392.28,548.54l-15.56-37-12.46-29.67-10.5-25L330.69,401.9c-12.15-28.9-.66-61.09,25-70.1a41.24,41.24,0,0,1,13.65-2.3c.42,0,.84,0,1.26,0,20,.57,39.36,15.25,47.26,37.83l18.74,53.5,8.39,24,36.26,103.67"/><path class="cls-2" d="M456.79,423.92c-6-7.63-34.65-2.83-65.88,11.23-32.66,14.75-55.82,34.1-51.66,43.25a2.74,2.74,0,0,0,.34.55l-.34.15-36.08-84.58c-14.16-33.21,1.14-71.07,33.3-82.31a55.94,55.94,0,0,1,18.46-3.16c22,0,43.16,13.06,54,34.24Z"/><path class="cls-2" d="M75.71,468.24c32.66,14.74,62.47,19.28,66.6,10.15s-19-28.49-51.67-43.22S28.16,415.89,24,425,43.06,453.51,75.71,468.24Z"/><path class="cls-3" d="M.27,548.54,36.52,444.9l8.4-24,18.74-53.5c8-23,28.09-37.87,48.48-37.87h.27a41.73,41.73,0,0,1,13.38,2.3c25.68,9,37.21,41.2,25.06,70.1l-23.07,54.92v0l-10.5,25-11.19,26.64-16.83,40"/><path class="cls-2" d="M24.75,423.92c6-7.63,34.64-2.83,65.87,11.23,32.67,14.75,55.83,34.1,51.67,43.25a3.36,3.36,0,0,1-.35.55l.35.15,36.08-84.58c14.15-33.21-1.14-71.07-33.31-82.31a55.89,55.89,0,0,0-18.46-3.16c-22,0-43.15,13.06-54,34.24Z"/><path class="cls-3" d="M298.54,140.37c-8.86,14.23-8,31.09,1.91,37.65s25.14.35,34-13.88,8-31.08-1.91-37.65S307.4,126.14,298.54,140.37Z"/><path class="cls-4" d="M325.08,133.32a13.22,13.22,0,0,1,3.45,22.62"/><path class="cls-3" d="M178.93,140.37c8.86,14.23,8,31.09-1.91,37.65s-25.14.35-34-13.88-8-31.08,1.91-37.65S170.07,126.14,178.93,140.37Z"/><path class="cls-4" d="M152.39,133.32a13.22,13.22,0,0,0-3.45,22.62"/><path class="cls-5" d="M282.7,299.85a42.55,42.55,0,1,1-85.08,1.44c0-.48,0-1,0-1.44l4.72-63.42,1.2-16.06L206,188.86h68.42l3.76,49.81,2.69,36.23Z"/><path class="cls-2" d="M280.82,274.9c-22.46,1.6-47.21-9.57-64.18-31.27a85.12,85.12,0,0,1-13.06-23.26L206,188.86h68.42l3.76,49.81Z"/><path class="cls-3" d="M313.67,179.5a108.73,108.73,0,0,1-11.15,20.93c-8.93,13.3-20.74,25.8-32.54,33.73-13,8.7-29.94,11.54-44.69,6.48-11.61-3.95-21.2-12.27-29.74-21-10.7-11-20.47-23.22-26-37.56-4.22-11.11-6.06-23.49-6.55-36.14-.23-6.63-.12-13.3.19-20,.53-11,1.57-21.81,2.53-31.85,2.18-23.76,16.59-46.33,37.14-58.45a75.6,75.6,0,0,1,111.6,46.61c3.84,15.22,2.84,31,2.88,46.45,0,1,0,1.88,0,2.84.07,4.64.3,9.27.38,13.95C318.16,157,317.93,168.58,313.67,179.5Z"/><path class="cls-2" d="M228.46,103.17c6.59.31,13.38-.63,19.14-3.81s10.33-8.82,11.11-15.3a34,34,0,0,0,49.64,12.47c9.86-6.81,15.53-20.09,11.25-31.24C314.87,53,300.73,47.24,287.75,44.42a166.52,166.52,0,0,0-76.86,1.7c-7.71,2-29.18,5.94-32.11,14.31-3,8.58,9.27,22.32,14.88,27.57C203.05,96.8,215.48,102.56,228.46,103.17Z"/><path class="cls-2" d="M260,112a41.78,41.78,0,0,1,10.83-4.41,42.3,42.3,0,0,1,12.15-1.4,28.6,28.6,0,0,1,12.38,3.11,19,19,0,0,1,8.67,8.79,37.39,37.39,0,0,0-10.68-2,45.93,45.93,0,0,0-9.74.9c-6.46,1.15-13,3.39-20.43,4.32A5,5,0,0,1,260,112Z"/><path class="cls-2" d="M225.43,121.23c-7.39-.93-14-3.17-20.43-4.32a45.78,45.78,0,0,0-9.73-.9,37.39,37.39,0,0,0-10.68,2,18.92,18.92,0,0,1,8.67-8.79,28.57,28.57,0,0,1,12.38-3.11,42.34,42.34,0,0,1,12.15,1.4A41.57,41.57,0,0,1,228.61,112a5,5,0,0,1,1.74,6.85A5.07,5.07,0,0,1,225.43,121.23Z"/><path class="cls-2" d="M225.3,145.64c-1.12-1.09-4.47-4.4-5.6-5.35a22.84,22.84,0,0,0-13.37-5A23.36,23.36,0,0,0,191,140.41a43.28,43.28,0,0,1-4.56,3.37.21.21,0,0,1-.3-.07.23.23,0,0,1,0-.26,44.53,44.53,0,0,1,4.18-3.84,23.13,23.13,0,0,1,25.78-2.81,26.29,26.29,0,0,1,2.46,1.52c.35.3,1.35,1.06,1.69,1.35s1.19,1.17,1.55,1.5l3.83,4.17a.22.22,0,0,1-.31.3Z"/><path class="cls-2" d="M212.58,140.18a6.6,6.6,0,1,0-5.57,7.48A6.6,6.6,0,0,0,212.58,140.18Z"/><path class="cls-6" d="M224.7,145.62a21.23,21.23,0,0,1-10.53,3.15"/><path class="cls-6" d="M225.05,137.61a23.44,23.44,0,0,0-16.25-8.21"/><path class="cls-2" d="M258.93,145.34c1.09-1.19,4.23-4.67,5.38-5.67l1.69-1.35a27.66,27.66,0,0,1,2.46-1.52,23,23,0,0,1,20.94-.34,33.64,33.64,0,0,1,9,7c.52,1.51-4.47-2.8-4.84-3a23.35,23.35,0,0,0-15.37-5.12,22.47,22.47,0,0,0-13.88,5.47c-.74.59-4.34,4.16-5.09,4.88-.18.2-.51-.1-.31-.3Z"/><path class="cls-2" d="M272,140.18a6.59,6.59,0,1,1,5.57,7.48A6.58,6.58,0,0,1,272,140.18Z"/><path class="cls-6" d="M259.84,145.62a21.23,21.23,0,0,0,10.53,3.15"/><path class="cls-6" d="M259.49,137.61a23.46,23.46,0,0,1,16.25-8.21"/><path class="cls-7" d="M237.76,194.73a6.4,6.4,0,0,0,4.37,1.76,6.32,6.32,0,0,0,4.36-1.77c1.81-1.74,5.08-.67,7.57-.31s5,.86,7.49.33a7,7,0,0,0,4.35-2.94"/><path class="cls-7" d="M237.76,194.72c-1.81-1.74-5.07-.67-7.56-.31s-5,.86-7.5.33a5.82,5.82,0,0,1-4.35-3.8"/><path class="cls-7" d="M230.59,201.83a35,35,0,0,0,20,.85"/><line class="cls-4" x1="241.71" y1="223.51" x2="241.71" y2="235.38"/><line class="cls-4" x1="242.25" y1="170.29" x2="242.25" y2="145.01"/><path class="cls-8" d="M233.78,175.23l4.26,2.93h0a7.13,7.13,0,0,0,8.53,0h0l4.27-2.93"/><path class="cls-2" d="M317.39,128.68a13.46,13.46,0,0,1-5.06-3.75,27.5,27.5,0,0,1-4.83-9.28c-5.14-14.72-5.37-32.08-2.64-47.45-17.44.27-34.31-10.58-42-26.25-20.12,12.84-43.35,18.17-67.15,17-.88,25.52-13.18,50.36-32.46,67,.53-11,1.57-21.81,2.53-31.85,2.18-23.76,16.59-46.33,37.14-58.45a75.6,75.6,0,0,1,111.6,46.61C318.35,97.45,317.35,113.2,317.39,128.68Z"/><polygon class="cls-2" points="377.98 548.54 104.67 548.54 106.09 508.49 107.08 479.59 108.35 444.1 112.41 329.5 113.03 312.45 121.84 309.26 173.08 290.75 182.97 287.19 187.88 285.39 200.68 280.79 204.55 279.37 278.52 279.37 280.06 279.94 294.43 285.12 299.3 286.88 309.18 290.44 361.92 309.49 370.05 312.45 370.62 329.54 372.81 394.08 374.45 443.41 375.64 479.09 375.64 479.28 376.72 511.52 377.98 548.54"/></svg>