<?xml version="1.0" encoding="utf-8"?>
<!-- Generator: Adobe Illustrator 26.2.1, SVG Export Plug-In . SVG Version: 6.00 Build 0)  -->
<svg version="1.1" id="Layer_1" xmlns="http://www.w3.org/2000/svg" xmlns:xlink="http://www.w3.org/1999/xlink" x="0px" y="0px"
	 viewBox="0 0 489.8 583.8" style="enable-background:new 0 0 489.8 583.8;" xml:space="preserve">
<style type="text/css">
	.st0{fill:#3E2217;}
	.st1{fill:#49281D;}
	.st2{fill:#DA1C5C;}
	.st3{fill:#FFFFFF;}
	.st4{fill:#BC1A51;}
	.st5{fill:#FEDCB5;}
	.st6{fill:#EDAB7D;}
	.st7{fill:#840033;}
	.st8{fill:#5B3824;}
</style>
<g>
	<path class="st0" d="M197.8,30.5c0,0-29.3-11.2-47.4,11.2c-18.1,22.3-34.9,50.2-41.8,117.2c0,0-1.4,23.7-27.9,54.4
		c-26.5,30.7-4.2,72.5-9.8,87.9c-5.6,15.3-30.7,40.5-32.1,62.8c-1.4,22.3,8.4,44.6,0,61.4c-8.4,16.7-53,48.8-12.6,83.7
		s385,11.2,385,11.2s72.5-23.7,57.2-64.2c-15.3-40.5-33.5-39.1-33.5-80.9c0-41.8-19.5-53-29.3-69.7c-9.8-16.7,15.3-43.2-1.4-94.9
		c-16.7-51.6-32.1-36.3-43.2-106c-11.2-69.7-55.8-93.5-96.3-99S203.3,13.7,197.8,30.5z"/>
	<path class="st1" d="M108.5,192.5c7-67,23.7-94.9,41.8-117.2c18.1-22.3,47.4-11.2,47.4-11.2c5.6-16.7,26.5-30.7,67-25.1
		s85.1,29.3,96.3,99c11.2,69.7,26.5,54.4,43.2,106c2.2,6.8,3.7,13.2,4.6,19.2c2.1-14,2.4-31.2-4.6-52.9
		c-16.7-51.6-32.1-36.3-43.2-106c-11.2-69.7-55.8-93.5-96.3-99s-61.4,8.4-67,25.1c0,0-29.3-11.2-47.4,11.2
		c-18.1,22.3-34.9,50.2-41.8,117.2c0,0-1.4,23.7-27.9,54.4c-15.5,17.9-14.3,39.6-11.8,57.6c1.8-8.3,5.3-16.4,11.8-23.9
		C107.1,216.2,108.5,192.5,108.5,192.5z"/>
	<path class="st2" d="M450,438.6c-5.8-14.3-16.6-25.9-30.5-32.6l-125.9-60.9h-50.2h-50.2L67.2,406c-13.9,6.7-24.7,18.4-30.5,32.6
		C25.5,466.5,8,517.9,1.3,580.9h242h242C478.7,517.9,461.2,466.5,450,438.6z"/>
	<path class="st3" d="M193.2,345.1L67.2,406c-13.9,6.7-24.7,18.4-30.5,32.6C25.5,466.5,8,517.9,1.3,580.9h5.2l1.5-0.3
		c0,0,11.7-71.1,24-110.9c12.3-39.7,15.8-37.4,26.9-49.7c11.1-12.3,130.9-64.9,130.9-64.9l12.5-10.1H193.2z"/>
	<path class="st4" d="M419.5,406l-125.9-60.9h-26.2l26.2,10.3c0,0,90.8,44,114,69.4c23.2,25.4,69.9,105.6,35.4,133.6
		c-6.4,5.2-59.9,22.2-59.9,22.2l102.3,0.3c-6.6-63-24.1-114.4-35.4-142.3C444.2,424.3,433.3,412.7,419.5,406z"/>
	<path class="st5" d="M285.8,307.8c-12.3,8.9-27.2,13.6-42.4,13.6c-15.2,0-30.1-4.7-42.4-13.6c-2.7-1.9-5.2-4-7.7-6.1v56.3
		l50.2,101.4l50.2-102v-55.7C291,303.9,288.5,305.9,285.8,307.8z"/>
	<path class="st3" d="M196.7,306.5l0.8,28.9c0.2,7.4,1.7,14.7,4.4,21.7c8.3,21.5,26.6,68.6,26.2,67.7c-0.5-1.1-35-79.7-35-79.7
		v-43.4L196.7,306.5z"/>
	<path class="st6" d="M293.5,301.7c-2.5,2.1-5.1,4.2-7.7,6.1c-12.3,8.9-27.2,13.6-42.4,13.6c-12.5,0-24.7-3.2-35.5-9.3
		c-0.8,1.5-1.3,2.4-1.3,2.4s24.5,20,52.2,13c27.7-7,28-9.7,29.6-3.3c0.9,3.7,0.9,10.5,0.7,15.6c-0.1,4.1-1,8.1-2.4,11.9l-26.3,69
		c0,0,1.8-2.1,4.7-5.5l28.5-58V301.7z"/>
	<path class="st5" d="M356.5,179.9c-0.1-5.5-3-10.3-7.2-13.1v0.2c-78.6,0-152.8-42-152.8-42c-18.2,34.1-47.6,42-47.6,42v-2.8l-2.2,0
		c-8.9-0.2-16.3,6.9-16.5,15.8L130,187c-0.2,11.1,8,20.5,18.9,21.8v2c0,21.4,6.1,42.4,17.6,60.4l0,0c9.1,14.3,20.8,26.7,34.4,36.5
		c12.3,8.9,27.2,13.6,42.4,13.6c15.2,0,30.1-4.7,42.4-13.6c13.6-9.8,25.3-22.2,34.4-36.5l0,0c11.5-18.1,17.6-39,17.6-60.4v-2
		c10.8-1.3,19.1-10.7,18.9-21.8L356.5,179.9z"/>
	<path class="st3" d="M169.4,266.1c-10.5-19.7-14.3-44.5-14.3-56.6c0-4.1-2.3-7.8-6-9.5c-9-4.3-10.9-12.4-10.5-19.3
		c0.4-8.4,10.3-13.6,10.3-13.6s-0.3-2.2-0.3-2.8l-1.9,0c-8.9-0.2-16.3,6.9-16.5,15.8L130,187c-0.2,11.1,8,20.5,18.9,21.8v1.2
		c0,20.8,5.4,41.3,16.2,59c9.3,15.3,21.5,28.5,35.8,38.8c4.4,3.2,9.1,5.8,14,7.8c3.5,0.6,6.9,1.1,9.9,1.7
		C204.2,309.3,180.9,287.5,169.4,266.1z"/>
	<path class="st6" d="M356.5,179.9c-0.1-5.5-3-10.3-7.2-13.1v0.2c-48.9,0-96.1-16.2-124.7-28.5c10.6,8.2,37.7,20.1,59.9,26.7
		c33.6,9.9,49.8,7.7,58,15.5c8.2,7.8-5.1,14.5-11.3,19.2c-6.2,4.7,0,21.8-10.3,53.1c-10.3,31.2-37.2,57.5-58.1,62.9
		c-3.9,1-4.2,2.3-2.2,3.7c9-2.2,17.6-6.1,25.2-11.6c13.6-9.8,25.3-22.2,34.4-36.5c11.5-18.1,17.6-39,17.6-60.4v-2
		c10.8-1.3,19.1-10.7,18.9-21.8L356.5,179.9z"/>
	<path class="st7" d="M190.4,345.1l50.2,114.4c-6.1,0-65.9-46.6-65.9-46.6l19.1-16.1L167,376L190.4,345.1z"/>
	<path class="st7" d="M296.3,345.1l-50.2,114.4c6.1,0,65.9-46.6,65.9-46.6l-19.1-16.1l26.8-20.8L296.3,345.1z"/>
	<g>
		<path class="st8" d="M489.3,573.9c-0.3-2.5-0.7-6.1-1.3-10.6c-1.2-9.1-3.3-22.1-6.5-37.6c-2.7-12.8-6.3-27.3-10.8-42.6
			c0.2-0.3,0.4-0.7,0.6-1c4.3-8.9,4.6-18.2,1.1-27.5c-6.3-16.6-12.9-26.2-18.8-34.6C445.1,407.7,439,399,439,375
			c0-33-12-48.3-21.7-60.5c-3-3.9-5.9-7.5-8.2-11.3c-3.2-5.5-1.5-13,0.7-23.5c3.6-16.4,8.5-38.9-1.8-70.5
			c-7.1-22-14.2-32.4-20.5-41.6c-8.7-12.8-16.3-23.9-22.6-63.8c-12-75-60.9-97.1-99.8-102.5C259.1,0.4,253.1,0,247.5,0
			c-25.6,0-44.7,9.4-52.2,25.4c-3.3-0.9-8.5-1.9-14.5-1.9c-13.8,0-25.5,5.4-33.7,15.5c-16.8,20.7-35.4,48.7-42.8,119.5
			c0,0.2-1.8,22.9-26.9,52c-18.9,21.8-14.7,48.7-11.6,68.3c1.3,8.6,2.6,16.8,1.1,20.9c-1.9,5.2-6.6,12.2-11.6,19.6
			C46,333,35.6,348.5,34.6,363.6c-0.6,9.1,0.6,18,1.8,26.6c1.6,12.4,3.2,24.1-1.3,33.1c-1.6,3.2-4.9,7.3-8.7,12
			c-12,14.9-30.8,38.2-14.7,63.4c0.3-0.4,0.6-0.8,0.9-1.2c-9.6,39.1-12.2,71.2-12.9,80.5c0,0.6,0.1,1.1,0.3,1.6
			c-0.2,0.2-0.3,0.5-0.3,0.8c0,1.7,3.6,3.1,8.1,3.1l461.7,0.1c2.2,0,4-0.7,4-1.5c0-0.8-1.6-1.5-3.8-1.6c-26-0.5-180.8-3.6-294.4-3.1
			c-96,0.4-148.4,0-167.4-0.1c-1.5,0-2.9,0.1-4.1,0.4c0.1-0.6,0.2-1.6,0.4-3.1c0.3-2.4,0.7-6,1.4-10.5c1.2-9,3.3-21.8,6.6-37
			C15.5,512,20,494.4,26,475.8c3-9.3,6.3-18.8,10-28.3c0.9-2.4,1.9-4.8,2.8-7.1c1-2.3,1.9-4.5,3.1-6.6c2.3-4.3,5.3-8.2,8.6-11.8
			c3.4-3.5,7.2-6.7,11.3-9.3c2.1-1.3,4.2-2.4,6.4-3.5c2.3-1.1,4.7-2.3,7-3.4c9.3-4.5,18.4-8.9,27.2-13.1
			c17.7-8.5,34.1-16.5,48.3-23.3c11-5.3,20.6-9.9,28.1-13.6c-4.8,6.3-9.5,12.6-14.3,18.9c-0.7,0.9-0.5,2.7,0.4,3.3
			c8.1,6.3,16.3,12.6,24.4,18.9c-5.6,4.7-11.1,9.4-16.7,14.1c-1,0.9-1.1,3,0,3.9c10.3,8,20.8,15.9,31.3,23.7
			c7.7,5.7,15.4,11.3,23.3,16.6c3.6,2.4,8.2,6.3,12.6,6.9c2.5,0.4,4.1-1.7,3.1-4c-16.5-37.7-33.1-75.4-49.6-113.1
			c0-0.6-0.3-1.1-0.7-1.5c-0.3-0.6-0.8-0.9-1.2-1.1c0-0.2,0-0.4,0-0.6c0-0.4,0.1-0.9,0.1-1.3c-14.1,7.1-47.7,23.7-106.5,51.5
			c-4.6,2.2-9.4,4.5-14.2,6.8c-2.4,1.2-4.9,2.4-7.3,3.5c-2.6,1.3-5.1,2.8-7.6,4.4c-3.5,2.4-6.9,5.2-9.9,8.2c1-8.1-0.2-16.8-1.4-25.8
			c-1.1-8.2-2.2-16.7-1.7-25c0.8-12.9,10.6-27.4,19.3-40.2c5.5-8.2,10.3-15.2,12.6-21.4c2.2-6.1,0.9-14.5-0.7-25
			c-3-19-6.6-42.6,9.7-61.6c27.1-31.4,28.8-55.8,28.9-56.7c7.1-68.4,24.9-95.2,40.9-115c6.7-8.2,15.9-12.4,27.3-12.4
			c8.6,0,15.4,2.5,15.4,2.5l4,1.5l1.4-4.1c4.9-14.7,22-23.5,45.8-23.5c5.2,0,10.8,0.4,16.6,1.2c36.1,5,81.5,25.6,92.7,95.6
			c6.7,41.7,15.1,54,24,67.1c6.2,9.2,12.7,18.6,19.4,39.5c9.5,29.4,4.9,50.7,1.6,66.2c-2.6,11.9-4.6,21.2,0.2,29.5
			c2.5,4.3,5.6,8.2,8.8,12.3c9.3,11.8,19.9,25.2,19.9,55.4c0,20.5,4.2,31.2,10.2,40.9c-3.7-3.8-7.8-7.2-12.2-10
			c-2.3-1.5-4.8-2.8-7.2-4c-2.3-1.1-4.7-2.3-7-3.4c-9.3-4.5-18.4-9-27.2-13.3c-17.6-8.6-34.1-16.6-48.2-23.5
			c-24.1-11.8-41.3-20.2-45.8-22.3c0.2,1.5,0.3,3,0.2,4.5c-0.2,0.3-0.3,0.6-0.3,0.9c-16.6,37.7-33.1,75.4-49.6,113.1
			c-1,2.3,0.6,4.4,3.1,4c4.4-0.7,9-4.5,12.6-6.9c7.9-5.3,15.6-10.9,23.3-16.6c10.5-7.8,20.9-15.7,31.3-23.7c1.1-0.9,1-3,0-3.9
			c-5.6-4.7-11.1-9.4-16.7-14.1c8.1-6.3,16.3-12.6,24.4-18.9c0.9-0.7,1.1-2.5,0.4-3.3c-4.9-6.4-9.8-12.9-14.7-19.3
			c18.4,8.8,47.9,23.1,90.4,44.2c4.6,2.3,9.3,4.6,14.1,7c2.4,1.2,4.8,2.4,7.2,3.5c2.3,1.1,4.5,2.4,6.6,3.8
			c8.5,5.7,15.7,13.8,20.2,23.2c0.6,1.2,1.1,2.3,1.6,3.6l1.6,3.8c1,2.6,2,5.1,3.1,7.7c2,5.1,3.9,10.3,5.7,15.4
			c3.6,10.2,6.9,20.3,9.8,30c11.6,38.8,16.5,71.3,17.9,80.6c0.2,1.5,1.3,2.6,2.4,2.5c1.1-0.1,1.9-1.5,1.7-3.1
			C489.7,577.6,489.6,576.3,489.3,573.9z M206.7,433.8c-9.3-6.9-18.6-13.9-27.7-21c5.6-4.7,11.1-9.4,16.7-14c1-0.9,1.1-3,0-3.9
			c-4.8-3.7-9.6-7.5-14.5-11.2c-3.1-2.4-6.2-4.8-9.3-7.2c-0.5-0.4-0.9-0.7-1.2-0.9c6.3-8.3,12.6-16.7,18.9-25c0,0,0.1,0,0.1,0
			c15.2,34.6,30.3,69.1,45.5,103.7c-2.6-1.6-5.1-3.6-7.1-5C220.9,444.2,213.8,439,206.7,433.8z M21.6,465.3
			c-2.4,7.4-4.5,14.8-6.4,22c-5.1-14.9,3.4-28.7,12.8-40.7c-0.4,1-0.7,2-1.1,2.9C25.1,454.8,23.3,460.1,21.6,465.3z M305.4,383.7
			c-4.8,3.7-9.6,7.5-14.5,11.2c-1.1,0.9-1,3,0,3.9c5.6,4.7,11.1,9.4,16.7,14c-9.2,7.1-18.4,14.1-27.7,21
			c-7.1,5.2-14.2,10.5-21.4,15.4c-2.1,1.4-4.5,3.4-7.1,5c15.2-34.6,30.4-69.2,45.5-103.8c6.3,8.4,12.7,16.7,19,25.1
			c-0.3,0.2-0.7,0.5-1.2,0.9C311.6,378.9,308.5,381.3,305.4,383.7z M457.7,444.8c-0.9-2.4-1.9-4.8-2.8-7.3c-0.2-0.5-0.4-1-0.6-1.5
			c3.4,5.7,6.9,12.5,10.3,21.4c1.5,4,2.1,8,1.7,11.8C463.6,461.2,460.8,453,457.7,444.8z"/>
		<path class="st8" d="M200.9,180.6c-5.3,0-9.6,4.3-9.6,9.6c0,5.3,4.3,9.6,9.6,9.6c5.3,0,9.6-4.3,9.6-9.6
			C210.5,184.9,206.2,180.6,200.9,180.6z"/>
		<path class="st8" d="M288.6,180.6c-5.3,0-9.6,4.3-9.6,9.6c0,5.3,4.3,9.6,9.6,9.6c5.3,0,9.6-4.3,9.6-9.6
			C298.2,184.9,293.9,180.6,288.6,180.6z"/>
		<path class="st8" d="M232.2,239.5c0.5,0.3,0.9,0.6,1.4,0.8c1,0.5,2,1,3,1.3c2,0.7,4.2,0.9,6,0.8c3.7-0.3,6.5-1.4,8.4-2.3
			c1.9-0.9,2.9-1.6,2.9-1.6c0.6-0.4,0.6-1.5-0.1-2.5c-0.7-0.9-1.6-1.4-2.2-1.1c-1.1,0.7-3.3,2.2-7,3.1c-1.8,0.4-4,0.6-6.4-0.1
			c-1.2-0.4-2.4-0.9-3.7-1.7c-0.3-0.2-0.6-0.4-0.9-0.6c-0.2-0.2-0.4-0.3-0.6-0.6c-0.4-0.4-0.6-0.9-0.7-1.5c-0.1-0.7-0.1-1.4,0.1-2
			c0.4-1,0.9-2,1.3-3.1c0.8-2.2,1.6-4.5,2.2-6.8c1.2-4.6,2.1-9.3,2.8-13.5c1.3-8.5,1.7-15.4,1.9-17.4c0-0.3-0.4-0.6-0.9-0.7
			c-0.6-0.1-1.1,0.1-1.1,0.5c0,0-0.6,4.3-1.8,10.7c-1.2,6.4-3,15-5.8,23.1l-1.1,3l-0.6,1.4l-0.3,0.7c-0.1,0.3-0.3,0.7-0.4,1
			c-1,2.9,0.1,6.1,2.2,7.9C231.2,239,231.7,239.2,232.2,239.5z"/>
		<ellipse class="st8" cx="200.9" cy="172.7" rx="16.5" ry="2.3"/>
		<ellipse class="st8" cx="288.3" cy="172.7" rx="16.5" ry="2.3"/>
		<path class="st8" d="M241.3,278.1c3.5,0,6.7,0,9.5,0.1c2.5-0.1,4.3-0.2,4.9-1.3c0.5-0.9-0.6-2.8-3.2-4.3
			c-2.6-1.6-6.7-2.7-11.2-2.7c-9,0-15.4,3.9-14.7,6.1C227.3,278.1,233.8,278,241.3,278.1z"/>
		<path class="st8" d="M148,162.6C148,162.5,148,162.5,148,162.6c-2,0.4-4.2,0.5-6.5-0.2c-0.1,0-0.2-0.1-0.3-0.1
			c-21.4,6.4-17.6,42.7,4.9,48.8c1.1,52.5,40.6,112.1,97.2,113.2c29.6,0.6,54-18.6,71.5-40.6c16.5-20.7,25.2-46.1,25.7-72.6
			c15-3.8,19.1-16.8,18.8-31.2c-0.6-6.6-3.6-11.7-8.2-14.8c-1.5-0.2-5.8-1-6-0.9c-75.5-1.4-146.7-41.1-147.4-41.5l-2.4-1.4
			c0,0,0,0-0.1,0l-1.3,2.4c-13.7,25.7-34.3,36.1-42.4,39.4v-1.9C150.5,161.8,149.3,162.3,148,162.6z M346.9,164.2
			c0.3,0.2,0.3,0.2,0.1,0.1C346.9,164.3,346.9,164.2,346.9,164.2z M197.5,128.7c13.5,7.1,80.5,40.6,150.6,41
			c3.1,2.1,5.1,5.5,5.6,10.2c0.3,12.4-2.4,23.6-16.6,26.2c-1.2,0.2-2.1,1.5-2.1,2.7c0,48.9-35.6,106.5-88.6,109.8
			c-28.3,1.8-51.4-15.9-68.6-36.5c-17.3-20.6-26.1-46.6-26.1-73.3c0-1.2-0.9-2.5-2.1-2.7c-10.8-2-17-10.1-16.8-21
			c0.2-9.6,3.5-17.1,13.3-18.1v3.5l3.5-0.9C150.8,169.3,178.9,161.4,197.5,128.7z"/>
	</g>
</g>
</svg>
