<svg id="Layer_1" data-name="Layer 1" xmlns="http://www.w3.org/2000/svg" viewBox="0 0 482.21 562.71"><defs><style>.cls-1{fill:#ffce33;}.cls-2{fill:#2e2e2e;}.cls-3,.cls-5,.cls-8{fill:#f5f5ff;}.cls-3,.cls-4,.cls-5,.cls-6,.cls-7{stroke:#2e2e2e;stroke-linecap:round;stroke-linejoin:round;}.cls-3,.cls-4{stroke-width:0.54px;}.cls-4,.cls-6,.cls-7{fill:none;}.cls-5{stroke-width:0.56px;}.cls-6{stroke-width:0.53px;}.cls-7{stroke-width:0.57px;}</style></defs><circle class="cls-1" cx="241.11" cy="217.8" r="217.8" transform="translate(-83.39 234.28) rotate(-45)"/><path class="cls-2" d="M276.66,234.88H206.11c-20.76,0-38.42-23.19-41.57-54.61l-6.46-64.55c-3.91-39,15.8-74.12,41.57-74.12h84c26,0,45.75,35.72,41.48,74.95l-7,64.55C314.76,212.13,297.22,234.88,276.66,234.88Z"/><path class="cls-3" d="M301.66,151.57c-8.89,14.28-8,31.19,1.92,37.77s25.21.35,34.1-13.92,8-31.18-1.92-37.77S310.54,137.3,301.66,151.57Z"/><path class="cls-4" d="M328.28,144.5a13.25,13.25,0,0,1,3.46,22.69"/><path class="cls-3" d="M181.68,151.57c8.89,14.28,8,31.19-1.92,37.77s-25.21.35-34.1-13.92-8-31.18,1.92-37.77S172.79,137.3,181.68,151.57Z"/><path class="cls-4" d="M155.06,144.5a13.25,13.25,0,0,0-3.46,22.69"/><path class="cls-5" d="M284.33,316.79A42.68,42.68,0,1,1,199,318.24c0-.48,0-1,0-1.45l4.73-63.61L205,237.07l2.37-31.6H276l3.78,50,2.69,36.34Z"/><path class="cls-2" d="M282.44,291.77c-22.53,1.61-47.35-9.59-64.38-31.36A85.38,85.38,0,0,1,205,237.07l2.37-31.6H276l3.78,50Z"/><path class="cls-3" d="M315.15,193.88a110.32,110.32,0,0,1-11.18,21c-9,13.36-20.82,25.9-32.66,33.86-13,8.7-30,11.54-44.81,6.49-11.65-4-21.26-12.3-29.86-21.13-10.71-11-20.49-23.3-26-37.64-4.27-11.16-6.09-23.58-6.58-36.29-.68-17.61,1.21-35.77,2.72-52,2.2-23.85,16.65-46.49,37.26-58.63A75.77,75.77,0,0,1,316,96.32c4.09,16.17,2.69,33,2.95,49.44.06,4.62.27,9.29.38,14C319.63,171.33,319.39,182.93,315.15,193.88Z"/><path class="cls-2" d="M319.63,160.46V161l-.43-.39a26.26,26.26,0,0,1-8.95-18.41L307.44,89c-2.81-1.11-5.5-2.27-8.23-3.54a130.59,130.59,0,0,1-11.72-6.34,94.93,94.93,0,0,1-20.34-16A108.82,108.82,0,0,1,242,66a104.11,104.11,0,0,1-28.8-3.8,91.06,91.06,0,0,1-19,15.64,118.69,118.69,0,0,1-13.88,7.65c-1.08.5-2.27,1-3.69,1.66l-2.81,55.13a26.2,26.2,0,0,1-9.49,18.84l-.43.34,0-.54c-.62-16.37,1-33.44,2.38-48.48l.35-3.49a76.89,76.89,0,0,1,17.76-42.06A76.05,76.05,0,0,1,204,50.05a77.46,77.46,0,0,1,67.9-4.62A77.47,77.47,0,0,1,316.28,97c3.15,12.45,3.08,25.45,3,38,0,3.77,0,7.69,0,11.49,0,2.66.12,5.39.23,8C319.51,156.5,319.59,158.46,319.63,160.46Z"/><path class="cls-2" d="M253.33,131.33a20.88,20.88,0,0,1,9.42-9.91,29.88,29.88,0,0,1,26.68-.87,21.15,21.15,0,0,1,10.1,9.19l-12.35-.34c-3.74-.07-7.3-.05-10.82,0s-7.06.31-10.78.63S258,130.8,253.33,131.33Z"/><path class="cls-2" d="M230,131.33c-4.68-.53-8.5-1-12.25-1.25s-7.25-.52-10.77-.63-7.08-.12-10.82,0l-12.35.34a21.08,21.08,0,0,1,10.09-9.19,29.9,29.9,0,0,1,26.69.87C224.59,123.67,228.19,126.92,230,131.33Z"/><path class="cls-2" d="M256,162.77s3-5.27,3-5.3c7.27-10.67,19.85-13.51,31.06-7.1a26,26,0,0,1,8.6,7.75.23.23,0,0,1-.06.33.22.22,0,0,1-.28,0c-1.46-1.28-2.77-2.6-4.22-3.82a28.59,28.59,0,0,0-4.63-3.18c-10.85-5.91-22.47-3.46-29.85,6.51.07-.15-3.23,5.11-3.23,5.08-.14.24-.56,0-.4-.25Z"/><path class="cls-2" d="M269.66,155.34a7.07,7.07,0,1,1,6.54,7.56A7.07,7.07,0,0,1,269.66,155.34Z"/><path class="cls-4" d="M291,161.8a17.71,17.71,0,0,0,7.15-3.43"/><path class="cls-4" d="M255.33,150.6a24.58,24.58,0,0,1,30-10.54"/><path class="cls-2" d="M226.93,163s-3.32-5.23-3.24-5.08c-7.38-10-19-12.42-29.84-6.51-3.38,1.78-6,4.44-8.85,7a.23.23,0,0,1-.33,0,.24.24,0,0,1,0-.29,26.14,26.14,0,0,1,8.61-7.75c11.22-6.42,23.82-3.56,31.08,7.14l3,5.26c.14.25-.24.5-.4.25Z"/><path class="cls-2" d="M213.68,155.34a7.07,7.07,0,1,0-6.54,7.56A7.07,7.07,0,0,0,213.68,155.34Z"/><path class="cls-4" d="M192.36,161.8a17.67,17.67,0,0,1-7.14-3.43"/><path class="cls-4" d="M228,150.6a24.59,24.59,0,0,0-30-10.54"/><path class="cls-6" d="M236.49,212.16a7.44,7.44,0,0,0,10.35,0c2.15-2.07,6-.8,9-.37s7.88,1.91,13.27-1.87"/><path class="cls-6" d="M236.49,212.15c-2.14-2.07-6-.8-9-.37s-7.75,2.18-12.33-1.33"/><path class="cls-6" d="M228,220.59a41.46,41.46,0,0,0,23.71,1"/><line class="cls-4" x1="241.45" y1="189.36" x2="241.45" y2="164"/><path class="cls-7" d="M233,194.32l4.28,2.93h0a7.14,7.14,0,0,0,8.56,0h0l4.28-2.93"/><path class="cls-2" d="M265.53,51.56s-8.19-8.62-18.86-2-16.22,17.4-23,27.93a262.83,262.83,0,0,1-32.55,40.82c-7.23,7.42-15.23,14.61-25.08,17.87s-21.95,1.65-28.57-6.34C145,103.56,152.71,75,170.89,54.55c21.84-24.5,58.54-37.07,90.49-27.65a16.88,16.88,0,0,1,6.16,2.9c3.88,3.24,2.8,8.2,1.52,12.43C268.8,43.07,265.27,51.28,265.53,51.56Z"/><path class="cls-2" d="M264.14,40c.73,23.85,13.11,46.76,27.66,63.53,7.55,8.72,16.49,15.58,23.66,24.76a49.7,49.7,0,0,0,5.41,5.8c3.29,3.08,8.08,1.36,9-3.39,3.13-16,1-29.49-6.89-48C312.42,58,286.28,46.53,264.14,40Z"/><path class="cls-2" d="M407.07,480.45c-32.76,14.78-62.66,19.34-66.8,10.18s19.07-28.57,51.83-43.35,62.67-19.34,66.8-10.18S439.83,465.67,407.07,480.45Z"/><path class="cls-3" d="M392.68,560.91l-15.34-37.25-12.27-29.85-10.35-25.18L332,413.37c-12-29.07-.21-61.28,25.62-70.13a41.1,41.1,0,0,1,13.7-2.2c.42,0,.84,0,1.27,0,20,.73,39.37,15.59,47.12,38.3l18.41,53.8,8.24,24.13L482,561.57"/><path class="cls-2" d="M458.19,436c-6.05-7.64-34.75-2.83-66.07,11.27-32.77,14.79-56,34.2-51.83,43.39a2.92,2.92,0,0,0,.35.54l-.35.15L304.1,406.5c-14.2-33.31,1.14-71.29,33.41-82.55A55.75,55.75,0,0,1,356,320.77c22.09,0,43.28,13.1,54.16,34.35Z"/><path class="cls-2" d="M75.94,481c32.76,14.78,62.67,19.34,66.8,10.18s-19.07-28.57-51.83-43.35-62.66-19.34-66.79-10.18S43.19,466.24,75.94,481Z"/><path class="cls-3" d="M.27,561.57l36.37-104,8.42-24.1,18.8-53.67c8.07-23.11,28.18-38,48.63-38h.27a41.65,41.65,0,0,1,13.41,2.31c25.76,9,37.34,41.33,25.15,70.32l-23.15,55.09v0l-10.53,25.06-11.23,26.72L89.54,561.57"/><path class="cls-2" d="M24.82,436.56c6.06-7.65,34.75-2.83,66.08,11.27,32.76,14.79,56,34.2,51.83,43.39a3.78,3.78,0,0,1-.35.54l.35.15,36.19-84.84c14.2-33.31-1.14-71.29-33.41-82.56A56,56,0,0,0,127,321.34c-22.09,0-43.29,13.1-54.16,34.35Z"/><polygon class="cls-2" points="378.18 562.71 104.03 562.71 105.45 522.53 106.45 493.54 107.72 457.94 111.8 342.99 112.41 325.88 121.25 322.69 172.66 304.13 176.92 302.59 182.57 300.55 187.5 298.74 200.34 291.86 279.96 291.86 294.37 298.47 299.25 300.24 305.48 302.47 309.17 303.82 362.07 322.92 370.23 325.88 370.8 343.03 372.99 407.77 374.65 457.25 375.84 493.04 375.84 493.24 376.91 525.57 378.18 562.71"/><path class="cls-8" d="M305.48,302.47a231.15,231.15,0,0,0-64.35,71.93,231.56,231.56,0,0,0-64.21-71.81l5.65-2,4.93-1.81,12.84-6.88H280l14.41,6.61,4.89,1.77Z"/><path class="cls-5" d="M282.44,291.77l11.93,6.7,4.89,1.77,6.22,2.23a231.15,231.15,0,0,0-64.35,71.93,231.56,231.56,0,0,0-64.21-71.81l5.65-2,4.93-1.81,13.56-7.15"/></svg>