<?xml version="1.0" encoding="utf-8"?>
<!-- Generator: Adobe Illustrator 26.2.1, SVG Export Plug-In . SVG Version: 6.00 Build 0)  -->
<svg version="1.1" id="Layer_1" xmlns="http://www.w3.org/2000/svg" xmlns:xlink="http://www.w3.org/1999/xlink" x="0px" y="0px"
	 viewBox="0 0 503.4 583.8" style="enable-background:new 0 0 503.4 583.8;" xml:space="preserve">
<style type="text/css">
	.st0{fill:#EBA53C;}
	.st1{fill:#FBB040;}
	.st2{fill:#54B9DD;}
	.st3{fill:#FFFFFF;}
	.st4{fill:#FEDCB5;}
	.st5{fill:#259BCD;}
	.st6{fill:#EDAB7D;}
	.st7{fill:#5B3824;}
</style>
<g>
	<path class="st0" d="M212.7,315.9c0,0-53.6,4.6-82.7-61.3c-29.1-65.9-24.5-232.9,93.5-242.1c0,0,30.6-16.9,84.3,0
		c53.6,16.9,87.3,95,75.1,185.4c-12.3,90.4-47.5,121.2-91.9,118L212.7,315.9z"/>
	<path class="st1" d="M223.5,61.6c0,0,30.6-16.9,84.3,0c41,12.9,70.4,61.7,76.4,124.3C392,100.7,359,28.6,307.7,12.5
		c-53.6-16.9-84.3,0-84.3,0c-90.4,7-114.2,106.7-107.3,182.5C122,131,151.8,67.2,223.5,61.6z"/>
	<path class="st2" d="M461,434.7c-5.9-14.7-17.1-26.6-31.3-33.5l-129.3-62.5h-51.5h-51.5L67.9,401.2C53.6,408,42.5,420,36.6,434.7
		C25,463.3,7,516.1,0.2,580.8h248.6h248.6C490.5,516.1,472.5,463.3,461,434.7z"/>
	<path class="st3" d="M4.2,578.3c0,0,33-134.4,47.1-152.6s129.5-68.3,129.5-68.3l10.9-16.1L67.9,401.2C53.6,408,42.5,420,36.6,434.7
		c-11.1,27.4-28,77.1-35.4,138.1C3.1,576.3,4.2,578.3,4.2,578.3z"/>
	<path class="st4" d="M293.2,299.5c-12.7,9.2-28,14-43.6,14c-15.6,0-30.9-4.8-43.6-14c-2.7-2-5.4-4.1-8-6.3v57.8l50.6,106.5
		l52.5-107.2v-57.2C298.6,295.4,295.9,297.6,293.2,299.5z"/>
	<path class="st5" d="M429.7,401.2l-129.3-62.5l-4.7,25l22.7-4.1c0,0,56.8,46.3,92.1,79.8C425,453,446.8,528.4,462,555
		c21.1,36.8,33.8,24.7,35.2,25.9h0.1c-6.8-64.7-24.8-117.5-36.4-146.2C455.1,420,443.9,408,429.7,401.2z"/>
	<path class="st3" d="M201.8,298.2l0.8,29.7c0.2,7.6,1.7,15.1,4.5,22.2c8.6,22.1,16.9,40,27,75.5c0.4,1.2-35.9-81.8-35.9-81.8v-50.6
		L201.8,298.2z"/>
	<path class="st6" d="M301.2,293.3c-2.6,2.2-5.2,4.3-8,6.3c-12.7,9.2-28,14-43.6,14c-12.8,0-25.3-3.3-36.4-9.5
		c-0.8,1.5-1.4,2.5-1.4,2.5s25.2,20.5,53.6,13.3c28.4-7.2,28.8-9.9,30.4-3.4c1,3.8,0.9,10.8,0.7,16c-0.2,4.2-1,8.3-2.5,12.3
		L267,415.6c0,0,1.8-2.1,4.9-5.6l29.3-59.6V293.3z"/>
	<path class="st3" d="M194.4,339.5L246,457c-6.2,0-67.7-47.8-67.7-47.8l19.6-16.5l-27.5-21.4L194.4,339.5z"/>
	<path class="st3" d="M303.2,339.5L251.6,457c6.2,0,67.7-47.8,67.7-47.8l-19.6-16.5l27.5-21.4L303.2,339.5z"/>
	<path class="st4" d="M365,169c-0.2-8.5-6.7-15.3-15-16.2l-1,13c-27.9-13.6-45.9-39.6-45.9-39.6c5.4,15.4,10.4,19.8,10.4,19.8
		c-32.6-9.6-46.8-29.3-46.8-29.3c2.1,9.6,9.5,17.3,9.5,17.3c-17.4-5.9-40.9-23.2-40.9-23.2c-45.2,55.2-87.1,49.8-87.1,49.8l-0.4-7.8
		c-8.4,0.7-15,7.6-15.2,16.2l-0.2,7.3c-0.2,11.4,8.3,21.1,19.4,22.4v2.1c0,22,6.3,43.5,18.1,62.1h0c9.4,14.7,21.4,27.4,35.3,37.5
		c12.7,9.2,28,14,43.6,14s30.9-4.8,43.6-14c14-10.1,26-22.8,35.3-37.5l0,0c11.8-18.6,18.1-40.1,18.1-62.1v-2.1
		c11.1-1.4,19.6-11,19.4-22.4L365,169z"/>
	<path class="st6" d="M365,169c-0.2-8.5-6.7-15.3-15-16.2l-1,13c-27.9-13.6-45.9-39.6-45.9-39.6c5.4,15.4,10.4,19.8,10.4,19.8
		c-32.6-9.6-46.8-29.3-46.8-29.3c2.1,9.6,9.5,17.3,9.5,17.3c-9.9-3.4-21.9-10.4-30.3-15.9l2.7,5.2c0,0,22,22.1,46.4,31.1
		c24.4,9,32.2,9,35,21.7c1.3,5.9,12.7,89.6-39.6,121.9c-4.8,2.9-8,6.1-9.8,9.3c4.1-1.9,8-4.2,11.7-6.9c14-10.1,26-22.8,35.3-37.5
		c11.8-18.6,18.1-40.1,18.1-62.1v-2.1c11.1-1.4,19.6-11,19.4-22.4L365,169z"/>
	<path class="st3" d="M222.2,306.2c-13.1-4.1-35.3-26.1-48.3-51.9c-9-17.9-11.9-40.8-12.8-53.3c-0.4-4.9-3.4-9.3-7.9-11.2
		c-5.6-2.4-10.7-6.7-12.4-15.2c-2.6-12.3,11.2-16.7,11.2-16.7s-0.5-2.2-1.3-5.2l-1.2,0c-9.2-0.2-16.8,7.1-17,16.2l-0.2,7.3
		c-0.2,11.4,8.3,21.1,19.4,22.4v1.2c0,21.3,5.5,42.4,16.6,60.6c9.6,15.7,22.1,29.2,36.8,39.9c5,3.6,10.4,6.5,16.1,8.8
		C223.8,308,224.5,306.9,222.2,306.2z"/>
	<g>
		<path class="st7" d="M502.9,573.6c-0.3-2.5-0.7-6.2-1.4-10.9c-1.3-9.4-3.4-22.7-6.7-38.6c-3.4-15.9-8-34.2-14.1-53.6
			c-3.1-9.7-6.5-19.6-10.3-29.5c-0.9-2.5-1.9-5-2.9-7.5c-1.1-2.6-2.2-5.2-3.6-7.7c-2.7-5-6.1-9.6-10-13.8
			c-3.9-4.2-8.3-7.8-13.2-10.9c-2.4-1.5-5-2.9-7.4-4.1c-2.4-1.2-4.8-2.3-7.2-3.5c-9.5-4.6-18.9-9.2-27.9-13.6
			c-18.1-8.8-35-17.1-49.5-24.1c-21.9-10.7-38.2-18.6-44.9-21.9c0-3.5,0-8.8,0-15.3c6-0.4,12.2-1.5,18.3-3.8
			c9.6-3.5,18.9-9.6,26.6-17.7c7.8-8.2,14.2-18.1,19.4-29c5-11,9.1-22.8,12.2-35.4c0.9-3.1,1.5-6.3,2.2-9.5c0.7-3.2,1.4-6.4,2-9.7
			c0.5-3.3,1.1-6.6,1.6-9.9c0.6-3.3,1.1-6.7,1.5-10.1c1.7-13.6,2.5-27.8,2-42.3c-1-28.9-6.6-59.7-21.1-88.4
			c-7.3-14.2-17-27.9-29.9-38.8c-6.5-5.4-13.8-10.1-21.7-13.5c-3.9-1.8-8.2-3.1-12.2-4.2c-2-0.6-4-1.2-6.1-1.7l-6.2-1.4
			c-11.9-2.5-24-3.8-36-3.2c-6,0.3-12,1-17.9,2.2c-2.9,0.6-5.9,1.4-8.8,2.3c-1.4,0.5-2.9,0.9-4.3,1.5c-0.7,0.3-1.4,0.6-2.2,0.9
			c-0.4,0.1-0.7,0.3-1.1,0.5L222,7.7c0,0,0,0,0,0c-3.4,0.4-6.7,0.8-10,1.2c-3.7,0.8-7.3,1.6-10.9,2.4c-3.5,1.2-7.1,2.2-10.5,3.5
			l-5.1,2.2c-1.7,0.7-3.4,1.4-5,2.4c-13,6.8-24.2,16.3-33.1,27.1c-8.9,10.8-15.6,22.9-20.7,35.1c-5.1,12.2-8.6,24.7-11,36.9
			c-4.8,24.5-5.6,48.3-4,70.1c1.7,21.9,5.6,42,12.2,59.6c7,17.4,16.1,31.8,26.5,42.4c10.3,10.6,21.5,17.2,31.2,20.9
			c4.9,1.9,9.3,3,13.3,3.8c0,0,0-0.1,0-0.1c0-0.2,0.1-0.5,0.1-0.7c0,9.3,0,17-0.1,22.1c0,0-0.1,0-0.1,0c0-0.2,0-0.4,0-0.6
			c0-0.3,0.1-0.7,0.1-1c-15.6,7.8-49.6,24.6-107.2,51.8c-4.8,2.3-9.6,4.6-14.6,7c-2.5,1.2-5,2.4-7.5,3.6c-2.7,1.3-5.3,2.8-7.8,4.5
			c-10,6.7-18.3,16.4-23.4,27.6c-0.6,1.4-1.2,2.8-1.8,4.2l-1.5,4.1c-1,2.7-2,5.4-3,8.1c-1.9,5.4-3.7,10.8-5.4,16.2
			c-3.4,10.8-6.4,21.4-8.9,31.6C3.4,534.6,0.7,568.4,0,578c-0.1,0.6,0.1,1.2,0.3,1.7c-0.2,0.3-0.3,0.5-0.3,0.8
			c0,1.8,3.7,3.2,8.4,3.2l474.2,0.1c2.3,0,4.1-0.7,4.1-1.6c0-0.8-1.7-1.5-3.9-1.6c-21.6-0.4-129.3-2.6-231.3-3.2l0.5-117.8
			c0.1,0,0.3,0,0.4,0c4.6-0.7,9.3-4.6,13-7.1c8.1-5.5,16.1-11.2,23.9-17.1c10.8-8,21.5-16.1,32.1-24.3c1.1-0.9,1.1-3.1,0-4
			c-5.7-4.8-11.4-9.6-17.2-14.4c8.4-6.5,16.7-13,25.1-19.4c0.9-0.7,1.1-2.5,0.4-3.4c-5.7-7.5-11.3-14.9-17-22.4
			c18.6,8.8,49.8,23.9,96.2,47c4.7,2.3,9.6,4.7,14.5,7.2c2.5,1.2,4.9,2.4,7.4,3.6c2.3,1.1,4.6,2.5,6.8,3.9
			c8.7,5.8,16.1,14.1,20.8,23.8c0.6,1.2,1.1,2.4,1.7,3.7l1.6,3.9c1.1,2.6,2.1,5.3,3.2,7.9c2,5.3,4,10.6,5.9,15.8
			c3.7,10.5,7.1,20.9,10.1,30.8c12,39.9,17,73.3,18.4,82.8c0.2,1.6,1.3,2.7,2.4,2.6c1.2-0.1,1.9-1.6,1.8-3.2
			C503.4,577.5,503.2,576.1,502.9,573.6z M251.9,311.4c-29,1.8-52.8-16.3-70.5-37.4c-17.7-21.2-26.8-47.8-26.8-75.3
			c0-1.2-0.9-2.6-2.1-2.8c-11.1-2-17.5-10.3-17.2-21.5c0.2-8.5,2.9-15.3,10.1-17.6l0,2.1c0,1.1,0,2.1,0.1,3.1l0,0.8
			c0,0.1,0,0.3,0,0.4l0.4,0l1.6,0.1c1,0.1,2.1,0.2,3.1,0.2l1.2,0c0.3,0,0.6,0,0.9,0l1.8-0.1c4.9-0.3,9.6-1.1,14.3-2.3
			c9.3-2.4,18.1-6.2,26.3-11.1c2.1-1.1,4-2.5,6-3.8l3-1.9l2.8-2.1c1.9-1.4,3.8-2.8,5.6-4.3l5.3-4.7l2.7-2.3l2.5-2.5l5-5
			c1.7-1.7,3.1-3.5,4.7-5.3l2.9-3.3l3,2.1l5.2,3.5c3.5,2.3,7.1,4.5,10.7,6.6c1.8,1.1,3.7,2.1,5.5,3.1c0.9,0.5,1.9,1,2.8,1.5l1.5,0.8
			c0.9,0.4,1.8,0.8,2.6,1.2c1.7,0.8,3.6,1.7,5.2,2.3l5,1.9l5.2,1.9c1.1,0.4,1.2,0.4,1.8,0.6l2.5,0.9c-2.9-3.2-5.8-6.2-8.1-8.7
			c1.8,1.3,3.7,2.6,5.6,3.8c3.7,2.4,7.6,4.5,11.6,6.5c2,0.9,4,1.9,6.1,2.6l4.8,1.8l5.7,1.9l0.9-1.4l0.5-0.7l0.2-0.4l0-0.1
			c0.1-0.3,0.3-0.8,0.8-1.8c3.4,3.4,7,6.7,10.8,9.9c4.7,3.8,9.7,7.4,15,10.5l1,0.6l0.5,0.3l0.2,0.1l0.5,0.2l3.8,2l3.8,2
			c0.6,0.3,1.3,0.8,1.8,0.9l0-2.2l0-12.3c5.3,1.6,9.2,5.6,9.8,12.4c0.3,12.8-2.5,24.2-17.1,26.9c-1.3,0.2-2.1,1.6-2.1,2.8
			C342.9,248.9,306.3,308.1,251.9,311.4z M183,308.3c-9-4.1-19.3-10.8-28.8-21.2c-9.5-10.3-17.9-24.4-24.1-41.1
			c-5.9-16.8-9.3-36.6-10.6-57.8c-1.2-21.3-0.1-44.3,4.8-67.8c2.5-11.7,5.9-23.6,10.9-35.1c4.9-11.5,11.3-22.7,19.5-32.6
			c8.2-9.9,18.4-18.4,30.2-24.5c1.4-0.9,3-1.5,4.5-2.1l4.6-2c3.1-1.2,6.4-2.1,9.6-3.1c3.3-0.7,6.6-1.4,10-2.2
			c3.8-0.5,7.5-0.9,11.3-1.4l1.6-0.8c0.3-0.1,0.5-0.3,0.8-0.4c0.6-0.2,1.2-0.5,1.8-0.7c1.2-0.5,2.5-0.9,3.7-1.3
			c2.5-0.8,5.1-1.4,7.8-2c5.3-1.1,10.8-1.7,16.3-2c11.1-0.5,22.3,0.7,33.5,3l5.8,1.3c1.9,0.5,3.8,1.1,5.8,1.6
			c3.9,1.1,7.5,2.2,10.9,3.7c7,3,13.4,7.1,19.3,12c11.6,9.8,20.7,22.3,27.6,35.6c13.7,26.8,19.4,56.3,20.6,84.2
			c0.6,14,0,27.7-1.5,40.9c-0.3,3.3-0.8,6.6-1.3,9.8c-0.5,3.3-1,6.5-1.5,9.7c-0.5,3.2-1.2,6.3-1.8,9.4c-0.7,3.1-1.1,6.2-2,9.2
			c-2.8,12.2-6.7,23.6-11.2,34.1c-4.7,10.4-10.5,19.8-17.5,27.4c-6.9,7.6-15.1,13.3-23.7,16.6c-5.3,2.1-10.7,3.3-16,3.9
			c0-2.1,0-4.2,0-6.4c0-2.8,0-5.7,0-8.8c0-0.9,0-1.8,0-2.8c6.7-5.8,12.8-12.4,18.3-19.2c16.9-21.2,25.9-47.4,26.4-74.6
			c15.4-3.9,19.6-17.2,19.3-32c-1-10.4-7.6-17.1-17-18.6c-0.1,0.1-0.2,0.2-0.3,0.3c-0.4-0.4-0.9-0.7-1.4-0.7c-1.8,0-3.2,2.6-3.1,5.9
			c0,1.2,0,2.5,0,4l0,0.6l0,0.1l0,0.1l0,0.2c0,0.1-0.4-0.2-0.7-0.3c-1.9-1.2-4.2-2.4-6.5-4c-4.7-3-10-7-15.6-12.3
			c-5.4-5-11.4-11.2-17-18.8c0-0.1-0.1-0.3-0.1-0.4l-0.1,0.1c-0.2-0.2-0.3-0.4-0.5-0.6l-11.7-16l6.6,18.6c0.1,0.2,0.2,0.5,0.3,0.8
			l-0.2,0.1c0.1,0.1,0.2,0.3,0.3,0.4c0.5,1.3,1.2,3.1,2,5.2c0.6,1.4,1.3,2.9,2.1,4.5c0.3,0.6,0.6,1.2,0.9,1.8c0,0.1,0.1,0.2,0.2,0.4
			c0.1,0.1-0.3-0.1-0.4-0.1c-0.1,0-0.2-0.1-0.3-0.1l-0.1,0c0,0,0,0-0.1,0l-0.5-0.2c-0.7-0.3-1.5-0.6-2.3-1c-3.2-1.4-7-3.2-10.7-5.4
			c-4.1-2.4-8.2-5.1-12-8.3c-3.8-3.1-7.6-6.7-10.4-10.3l-8.9-11.5l3.1,14c0.7,3.2,1.9,6.1,3.3,8.9c0.3,0.5,0.2,0.3,0.2,0.4l0.1,0.1
			c0.2,0.1,0,0.1-0.2,0.1c-0.1,0,0,0-0.1-0.1l-1.4-0.7c-0.9-0.5-1.8-0.9-2.7-1.4c-1.8-0.9-3.6-1.9-5.4-2.9c-3.6-2-7.1-4.2-10.5-6.3
			c-1.7-1.1-3.4-2.2-5.1-3.3l-2.5-1.7l-4.4-3.1c-2.7,3.2-5.4,6.3-8,9.4c-2,2.6-4.4,4.7-6.6,7.1c-1.1,1.1-2.2,2.3-3.3,3.4
			c-1.2,1.1-2.3,2.1-3.4,3.1c-2.3,2.1-4.5,4.2-6.9,6c-9.2,7.5-18.8,13.3-27.7,17.1c-9,3.9-17.3,5.8-24,6.5c-0.8,0.1-1.6,0.1-2.4,0.2
			c-0.8,0-1.5,0-2.1,0.1c-0.6,0-1.2,0-1.8,0c-0.1-0.4-0.1-1-0.1-1.5c-0.1-2.4-0.1-4.3-0.2-5.7c0-1.5-0.7-2.7-1.6-2.7
			c-0.2,0-0.4,0.1-0.6,0.2c-24.6,4.5-21.3,44.1,2.6,50.6c0.7,35,18.1,73,46,95.7c0,5.1,0,9.9,0,14.5c0,0.5,0,0.9,0,1.4
			C191.3,311.5,187.3,310.2,183,308.3z M240.5,451.6c-2.6-1.7-5.2-3.7-7.3-5.2c-7.5-5.1-14.8-10.4-22-15.8
			c-9.6-7.1-19.1-14.3-28.5-21.6c5.7-4.8,11.4-9.6,17.2-14.4c1.1-0.9,1.1-3.1,0-4c-5-3.8-9.9-7.7-14.9-11.5
			c-3.2-2.5-6.4-4.9-9.5-7.4c-0.5-0.4-0.9-0.7-1.2-0.9c6.5-8.6,13-17.2,19.5-25.8C209.4,380.5,224.9,416.1,240.5,451.6z
			 M180.4,577.4c-98.6,0.4-152.5,0-171.9-0.1c-1.5,0-2.9,0.1-4.2,0.4c0.1-0.6,0.2-1.6,0.4-3.2c0.3-2.5,0.7-6.1,1.4-10.7
			c1.3-9.2,3.4-22.4,6.8-38.1c3.4-15.6,8-33.7,14.1-52.8c3.1-9.5,6.5-19.3,10.2-29.1c0.9-2.5,1.9-4.9,2.9-7.3c1-2.3,2-4.6,3.2-6.8
			c2.4-4.4,5.4-8.5,8.9-12.1c3.5-3.6,7.4-6.9,11.6-9.5c2.1-1.4,4.3-2.5,6.6-3.6c2.4-1.2,4.8-2.3,7.2-3.5c9.5-4.6,18.9-9.1,28-13.5
			c18.1-8.8,35.1-16.9,49.6-23.9c10.7-5.2,20-9.7,27.6-13.3c-5,6.5-9.9,13.1-14.9,19.6c-0.7,0.9-0.5,2.7,0.4,3.4
			c8.4,6.5,16.7,13,25.1,19.4c-5.7,4.8-11.4,9.6-17.2,14.4c-1.1,0.9-1.1,3.1,0,4c10.6,8.2,21.3,16.3,32.1,24.3
			c7.9,5.8,15.8,11.6,23.9,17.1c3.7,2.5,8.4,6.4,13,7.1c0.2,0,0.3,0,0.5,0c0.2,5.4,0.4,19-0.1,43.2c-0.6,27.1,1.8,63.2,2.6,74.5
			C224.9,577.3,201.9,577.3,180.4,577.4z M249.1,455.5c-0.2,0.5-0.3,1-0.3,1.4c0,0,0,0,0,0c0,0-0.1,0-0.1,0c0-0.5-0.1-0.9-0.3-1.4
			c-16-36.4-32-72.9-48-109.3c0.4-0.6,0.7-1.4,0.7-2.3c-0.1-4.3-0.2-12.4-0.2-24.9c0-5.1,0-11,0-17.8c13.9,9.7,30,15.7,47.8,16.1
			c19.1,0.4,36-7.2,50.5-18.6l0.1,0.7l0,0.5l0,1.1c0,1.5,0.1,2.9,0.1,4.3c0.2,5.6,0.4,10.8,0.5,15.3c0.3,7.9,0.6,14,0.7,17.4
			c-0.4,0.4-0.6,0.9-0.6,1.4C283.1,378.1,266.1,416.8,249.1,455.5z M323.3,370.8c-0.3,0.2-0.7,0.5-1.2,0.9c-3.2,2.5-6.4,4.9-9.5,7.4
			c-5,3.8-9.9,7.7-14.9,11.5c-1.1,0.9-1.1,3.1,0,4c5.7,4.8,11.4,9.6,17.2,14.4c-9.4,7.3-18.9,14.5-28.5,21.6
			c-7.3,5.4-14.5,10.7-22,15.8c-2.1,1.4-4.7,3.5-7.3,5.2c15.6-35.5,31.2-71,46.8-106.6C310.3,353.6,316.8,362.2,323.3,370.8z"/>
		<path class="st7" d="M205.2,169.7c-5.5,0-9.9,4.4-9.9,9.9c0,5.5,4.4,9.9,9.9,9.9c5.5,0,9.9-4.4,9.9-9.9
			C215,174.1,210.6,169.7,205.2,169.7z"/>
		<path class="st7" d="M295.3,169.7c-5.5,0-9.9,4.4-9.9,9.9c0,5.5,4.4,9.9,9.9,9.9s9.9-4.4,9.9-9.9
			C305.1,174.1,300.7,169.7,295.3,169.7z"/>
		<path class="st7" d="M237.3,230.2c0.5,0.3,1,0.6,1.5,0.9c1,0.5,2,1,3.1,1.3c2.1,0.7,4.3,0.9,6.2,0.8c3.8-0.3,6.7-1.5,8.6-2.4
			c1.9-0.9,2.9-1.6,2.9-1.6c0.7-0.4,0.6-1.6-0.1-2.5c-0.7-1-1.7-1.4-2.2-1.1c-1.1,0.7-3.4,2.3-7.2,3.2c-1.9,0.4-4.1,0.6-6.6-0.1
			c-1.2-0.4-2.5-1-3.8-1.8c-0.3-0.2-0.6-0.4-0.9-0.6c-0.2-0.2-0.4-0.4-0.6-0.6c-0.4-0.4-0.6-1-0.8-1.5c-0.2-0.7-0.1-1.4,0.1-2
			c0.4-1,0.9-2.1,1.4-3.2c0.9-2.3,1.6-4.7,2.3-7c1.3-4.8,2.2-9.5,2.8-13.9c1.3-8.7,1.8-15.8,1.9-17.9c0-0.3-0.4-0.7-1-0.7
			c-0.6-0.1-1.1,0.1-1.1,0.5c0,0-0.6,4.4-1.9,11c-1.3,6.6-3.1,15.4-6,23.8l-1.2,3.1l-0.6,1.5l-0.3,0.7c-0.1,0.3-0.3,0.7-0.4,1
			c-1,2.9,0.1,6.2,2.3,8.1C236.3,229.6,236.8,229.9,237.3,230.2z"/>
		<path class="st7" d="M266.4,260.3c-4.1,1.8-10,4.5-16.3,4.6c-6.4,0.1-12.2-2.4-16.2-4.3c-4.1-2-6.5-3.5-7-3
			c-0.5,0.5,1.2,3.1,5.1,6.1c1.9,1.5,4.5,3.1,7.5,4.3c3.1,1.2,6.7,2.2,10.7,2.1c4-0.1,7.6-1.1,10.6-2.4c3-1.3,5.5-2.8,7.5-4.3
			c3.9-2.9,5.8-5.4,5.3-5.9C273.1,257,270.5,258.4,266.4,260.3z"/>
		<path class="st7" d="M217.1,152.7c-2.5-2.1-7.2-4-12.4-3.6c-5.2,0.4-9.3,2.5-11.8,4.4c-2.5,2-3.7,3.6-3.3,4.2
			c0.9,1.4,7.4-2.6,15.5-3.3c4-0.2,7.6,0.6,10.2,1.6c2.6,0.9,4.2,1.9,4.8,1.4C220.5,156.9,219.7,154.8,217.1,152.7z"/>
		<path class="st7" d="M310.5,157.6c0.4-0.6-0.8-2.2-3.3-4.2c-2.5-1.9-6.7-4-11.8-4.4c-5.2-0.3-9.8,1.5-12.4,3.6
			c-2.6,2.1-3.4,4.1-2.9,4.6c0.6,0.5,2.2-0.4,4.8-1.4c2.6-1,6.1-1.8,10.2-1.6C303.1,155,309.6,159.1,310.5,157.6z"/>
	</g>
</g>
</svg>
