<svg id="Layer_1" data-name="Layer 1" xmlns="http://www.w3.org/2000/svg" viewBox="0 0 479.35 558.72"><defs><style>.cls-1{fill:#ffce33;}.cls-2,.cls-4,.cls-9{fill:#f5f5ff;}.cls-10,.cls-11,.cls-2,.cls-3,.cls-4,.cls-6,.cls-7,.cls-8,.cls-9{stroke:#2e2e2e;stroke-linecap:round;stroke-linejoin:round;}.cls-2,.cls-3{stroke-width:0.54px;}.cls-10,.cls-11,.cls-3,.cls-6,.cls-7,.cls-8{fill:none;}.cls-4{stroke-width:0.56px;}.cls-5{fill:#2e2e2e;}.cls-6{stroke-width:0.51px;}.cls-7{stroke-width:0.62px;}.cls-8{stroke-width:0.53px;}.cls-10,.cls-9{stroke-width:0.5px;}.cls-11{stroke-width:0.56px;}</style></defs><circle class="cls-1" cx="239.68" cy="216.51" r="216.51" transform="translate(-82.89 232.89) rotate(-45)"/><path class="cls-2" d="M299.31,149.77c-8.84,14.19-8,31,1.91,37.54s25.06.35,33.9-13.84,8-31-1.91-37.54S308.14,135.58,299.31,149.77Z"/><path class="cls-3" d="M325.77,142.74a13.18,13.18,0,0,1,3.44,22.56"/><path class="cls-2" d="M180,149.77c8.84,14.19,8,31-1.9,37.54s-25.07.35-33.9-13.84-8-31,1.9-37.54S171.21,135.58,180,149.77Z"/><path class="cls-3" d="M153.58,142.74a13.18,13.18,0,0,0-3.44,22.56"/><path class="cls-4" d="M283.75,314a42.43,42.43,0,1,1-84.83,1.44c0-.48,0-1,0-1.44l4.71-63.24,1.2-16,2.35-31.42h68.23L279.2,253l2.68,36.13Z"/><path class="cls-5" d="M281.88,289.14c-22.4,1.59-47.07-9.55-64-31.18a84.76,84.76,0,0,1-13-23.2l2.35-31.42h68.23L279.2,253Z"/><path class="cls-2" d="M315,191.83a109.82,109.82,0,0,1-11.11,20.84c-8.9,13.28-20.69,25.75-32.46,33.66-12.91,8.65-29.83,11.48-44.55,6.46-11.58-3.95-21.14-12.24-29.68-21-10.65-10.93-20.38-23.16-25.84-37.42-4.24-11.1-6.05-23.44-6.54-36.07-.67-17.51,1.2-35.56,2.7-51.66,2.2-23.71,16.56-46.21,37-58.28A75.32,75.32,0,0,1,315.81,94.84c4.07,16.07,2.68,32.76,2.93,49.15.06,4.6.27,9.24.38,13.88C319.43,169.4,319.2,180.94,315,191.83Z"/><path class="cls-5" d="M260.69,132.24c1.47-4.5,4.81-8,8.6-10.51a29.73,29.73,0,0,1,26.39-2.84,21.08,21.08,0,0,1,10.69,8.37l-12.27.58c-3.71.21-7.23.49-10.72.84s-7,.83-10.64,1.42S265.3,131.37,260.69,132.24Z"/><path class="cls-5" d="M225.81,132.24c-4.61-.87-8.36-1.57-12.05-2.14s-7.16-1-10.64-1.42-7-.63-10.73-.84l-12.26-.58a21.09,21.09,0,0,1,10.68-8.37,29.75,29.75,0,0,1,26.4,2.84A20.78,20.78,0,0,1,225.81,132.24Z"/><path class="cls-5" d="M258.15,163.18s2.4-5.13,2.42-5.16c6.17-10.73,18.49-14.31,29.81-9.8a25.65,25.65,0,0,1,9.42,6.21.22.22,0,0,1,0,.32.23.23,0,0,1-.28,0c-1.6-1-3-2.11-4.63-3.06A28.12,28.12,0,0,0,290,149.3c-10.94-4.09-22.43-1-28.76,9.11.05-.15-2.65,5-2.65,5a.22.22,0,0,1-.4-.2Z"/><path class="cls-6" d="M292.59,158.61a18.08,18.08,0,0,0,6.69-3.88"/><path class="cls-5" d="M269.69,154a7.11,7.11,0,1,1,7.11,7.11A7.11,7.11,0,0,1,269.69,154Z"/><path class="cls-6" d="M256.17,152.15A24.13,24.13,0,0,1,267.93,141a26.66,26.66,0,0,1,16.74-1.58"/><path class="cls-5" d="M228,159.22s-2.72-5.11-2.65-5c-6.34-10.08-17.82-13.2-28.77-9.11-3.51,1.25-6.46,3.4-9.55,5.48a.23.23,0,0,1-.31-.07.24.24,0,0,1,0-.28,25.77,25.77,0,0,1,9.43-6.21c11.33-4.52,23.67-.92,29.82,9.83l2.41,5.13c.11.25-.27.46-.4.2Z"/><path class="cls-6" d="M193.91,154.45a18,18,0,0,1-6.7-3.88"/><path class="cls-5" d="M216.81,149.84A7.11,7.11,0,1,0,209.7,157,7.11,7.11,0,0,0,216.81,149.84Z"/><path class="cls-6" d="M230.32,148a24,24,0,0,0-11.76-11.19,26.64,26.64,0,0,0-16.74-1.58"/><path class="cls-7" d="M232.18,186.26c-3.79.46-6-3.64-4.17-7"/><path class="cls-7" d="M254.32,186.64c3.79.46,5.95-3.64,4.17-7"/><path class="cls-7" d="M231.84,185.71a17.69,17.69,0,0,0,22.69.37"/><path class="cls-8" d="M238.1,210a7.4,7.4,0,0,0,10.29,0c2.14-2.06,6-.8,8.92-.37s5.94,1,8.84.39"/><path class="cls-8" d="M238.1,210c-2.13-2.06-6-.8-8.91-.37s-5.94,1-8.84.39"/><path class="cls-8" d="M229.65,218.37a41.16,41.16,0,0,0,23.57,1"/><path class="cls-5" d="M243.23,195.8c1.73-3.09,5.19-5,8.64-5.77a26.34,26.34,0,0,1,10.15-.14c6.51,1.24,11.18,3.47,14.65,4.71l4.09,1.51a11.43,11.43,0,0,0,4,.85c3.68.24,9.1-1.35,16-1.89-.67,6.79-3.08,12.66-9.1,17.29a21.44,21.44,0,0,1-11.36,4.1A26.32,26.32,0,0,1,269,214.63a40.45,40.45,0,0,1-13.78-9.37c-1.66-1.63-3.21-3.23-5-4.86A21.6,21.6,0,0,0,243.23,195.8Z"/><path class="cls-5" d="M243.27,195.8a21.77,21.77,0,0,0-7,4.6c-1.75,1.63-3.29,3.23-5,4.86a40.55,40.55,0,0,1-13.78,9.37,26.36,26.36,0,0,1-11.34,1.83,21.44,21.44,0,0,1-11.35-4.1c-6-4.63-8.43-10.5-9.1-17.29,6.88.54,12.29,2.13,16,1.89a11.48,11.48,0,0,0,4-.85l4.09-1.51c3.46-1.24,8.13-3.47,14.65-4.71a26.34,26.34,0,0,1,10.15.14C238.07,190.84,241.54,192.71,243.27,195.8Z"/><path class="cls-5" d="M404.65,476.69c-32.56,14.7-62.29,19.23-66.4,10.12s19-28.4,51.52-43.09,62.3-19.23,66.4-10.12S437.22,462,404.65,476.69Z"/><path class="cls-2" d="M390.35,556.68l-15.25-37L362.9,490l-10.29-25L330,410c-11.91-28.9-.21-60.92,25.46-69.71a41,41,0,0,1,13.62-2.19c.42,0,.84,0,1.26,0,19.91.72,39.14,15.5,46.85,38.07l18.3,53.48,8.19,24,35.4,103.64"/><path class="cls-5" d="M455.47,432.5c-6-7.6-34.54-2.82-65.68,11.2-32.57,14.7-55.67,34-51.52,43.13a3.47,3.47,0,0,0,.34.54l-.34.15-36-84.34c-14.11-33.11,1.14-70.86,33.22-82.06a55.55,55.55,0,0,1,18.4-3.16c22,0,43,13,53.84,34.15Z"/><path class="cls-5" d="M75.5,476.69c32.56,14.7,62.29,19.23,66.4,10.12s-19-28.4-51.52-43.09S28.08,424.49,24,433.6,42.93,462,75.5,476.69Z"/><path class="cls-2" d="M.27,556.76,36.42,453.42l8.37-24,18.69-53.35c8-23,28-37.76,48.34-37.76h.27a41.54,41.54,0,0,1,13.34,2.3c25.6,9,37.11,41.08,25,69.9l-23,54.76v0l-10.47,24.92-11.16,26.56L89,556.76"/><path class="cls-5" d="M24.68,432.5c6-7.6,34.54-2.82,65.68,11.2,32.57,14.7,55.67,34,51.52,43.13a3.47,3.47,0,0,1-.34.54l.34.15,36-84.34c14.11-33.11-1.14-70.86-33.22-82.06a55.55,55.55,0,0,0-18.4-3.16c-22,0-43,13-53.84,34.15Z"/><polygon class="cls-9" points="375.94 558.47 103.42 558.47 104.83 518.53 105.82 489.72 107.08 454.33 111.14 340.06 111.75 323.06 120.54 319.88 171.63 301.43 181.49 297.87 186.38 296.07 199.15 289.21 203.01 289.21 276.77 289.21 278.3 289.21 292.63 295.81 297.48 297.56 307.34 301.12 359.93 320.11 368.03 323.06 368.6 340.1 370.78 404.46 372.42 453.64 373.61 489.22 373.61 489.41 374.68 521.55 375.94 558.47"/><path class="cls-9" d="M317,455.25h0A29.28,29.28,0,0,1,287.77,426V375.63h58.54V426A29.27,29.27,0,0,1,317,455.25Z"/><line class="cls-10" x1="287.71" y1="389.46" x2="346.37" y2="389.46"/><path class="cls-9" d="M282.54,288.13l8.17,6.85,4.66,1.67a56.37,56.37,0,0,1-111.78.3l4.73-1.72,13.26-8"/><path class="cls-11" d="M302,299.69A63.06,63.06,0,0,1,177,300"/><line class="cls-10" x1="147.96" y1="389.22" x2="157.28" y2="378.21"/><line class="cls-10" x1="142.88" y1="355.34" x2="148.81" y2="361.27"/><line class="cls-10" x1="162.36" y1="349.41" x2="170.83" y2="342.63"/><line class="cls-10" x1="147.96" y1="328.24" x2="157.28" y2="335.01"/><line class="cls-10" x1="120.01" y1="373.13" x2="127.63" y2="367.2"/><line class="cls-10" x1="124.25" y1="338.4" x2="132.72" y2="348.56"/><line class="cls-10" x1="126.79" y1="424.79" x2="140.34" y2="415.48"/><line class="cls-10" x1="127.63" y1="397.69" x2="134.41" y2="404.47"/><line class="cls-10" x1="169.98" y1="403.62" x2="178.45" y2="396.84"/><line class="cls-10" x1="184.38" y1="364.66" x2="192.85" y2="377.36"/><line class="cls-10" x1="208.1" y1="398.54" x2="215.72" y2="391.76"/><line class="cls-10" x1="173.37" y1="430.72" x2="181.84" y2="440.89"/><line class="cls-10" x1="138.64" y1="452.75" x2="147.96" y2="443.43"/><line class="cls-10" x1="157.28" y1="476.46" x2="164.05" y2="471.38"/><line class="cls-10" x1="122.55" y1="484.08" x2="131.02" y2="492.56"/><line class="cls-10" x1="120.86" y1="458.67" x2="127.63" y2="452.75"/><line class="cls-10" x1="151.35" y1="492.56" x2="161.51" y2="501.87"/><line class="cls-10" x1="124.25" y1="523.05" x2="135.26" y2="517.12"/><line class="cls-10" x1="154.74" y1="526.44" x2="164.05" y2="534.91"/><line class="cls-10" x1="136.1" y1="546.76" x2="142.88" y2="540.83"/><line class="cls-10" x1="196.24" y1="538.29" x2="203.86" y2="545.07"/><line class="cls-10" x1="188.62" y1="513.73" x2="197.94" y2="502.72"/><line class="cls-10" x1="186.08" y1="473.92" x2="193.7" y2="480.7"/><line class="cls-10" x1="210.64" y1="457.83" x2="219.11" y2="449.36"/><line class="cls-10" x1="215.72" y1="422.25" x2="221.65" y2="426.49"/><line class="cls-10" x1="241.13" y1="405.31" x2="252.14" y2="396.84"/><line class="cls-10" x1="232.66" y1="376.51" x2="241.13" y2="384.98"/><line class="cls-10" x1="207.25" y1="363.81" x2="213.18" y2="369.74"/><line class="cls-10" x1="258.07" y1="371.43" x2="264.85" y2="364.66"/><line class="cls-10" x1="289.41" y1="350.26" x2="296.19" y2="357.03"/><line class="cls-10" x1="315.67" y1="351.1" x2="324.99" y2="340.94"/><line class="cls-10" x1="310.59" y1="323.15" x2="317.36" y2="331.62"/><line class="cls-10" x1="343.62" y1="348.56" x2="352.94" y2="343.48"/><line class="cls-10" x1="340.23" y1="327.39" x2="345.31" y2="334.16"/><line class="cls-10" x1="264.85" y1="420.56" x2="273.32" y2="413.78"/><line class="cls-10" x1="272.47" y1="395.15" x2="278.4" y2="400.23"/><line class="cls-10" x1="243.67" y1="448.51" x2="248.76" y2="444.28"/><line class="cls-10" x1="228.43" y1="479" x2="236.05" y2="473.07"/><line class="cls-10" x1="275.86" y1="462.06" x2="281.79" y2="469.69"/><line class="cls-10" x1="255.53" y1="488.32" x2="264.85" y2="484.08"/><line class="cls-10" x1="229.27" y1="503.57" x2="238.59" y2="509.5"/><line class="cls-10" x1="247.06" y1="534.91" x2="255.53" y2="525.59"/><line class="cls-10" x1="218.26" y1="523.05" x2="225.04" y2="528.98"/><line class="cls-10" x1="225.89" y1="543.38" x2="232.66" y2="537.45"/><line class="cls-10" x1="269.08" y1="517.12" x2="276.71" y2="511.19"/><line class="cls-10" x1="295.34" y1="497.64" x2="302.12" y2="504.41"/><line class="cls-10" x1="309.74" y1="484.93" x2="317.36" y2="479.85"/><line class="cls-10" x1="299.58" y1="466.3" x2="304.66" y2="470.53"/><line class="cls-10" x1="286.87" y1="528.98" x2="294.49" y2="523.89"/><line class="cls-10" x1="312.28" y1="539.99" x2="319.9" y2="533.21"/><line class="cls-10" x1="333.46" y1="511.19" x2="340.23" y2="505.26"/><line class="cls-10" x1="319.06" y1="495.1" x2="324.99" y2="500.18"/><line class="cls-10" x1="346.16" y1="484.08" x2="355.48" y2="475.61"/><line class="cls-10" x1="337.69" y1="462.06" x2="344.47" y2="468.84"/><line class="cls-10" x1="354.63" y1="453.59" x2="360.56" y2="447.66"/><line class="cls-10" x1="358.02" y1="412.09" x2="362.26" y2="418.87"/><line class="cls-10" x1="353.78" y1="390.91" x2="360.56" y2="384.14"/><line class="cls-10" x1="352.94" y1="362.96" x2="357.17" y2="369.74"/><line class="cls-10" x1="332.61" y1="359.57" x2="335.15" y2="363.81"/><line class="cls-10" x1="345.31" y1="538.29" x2="352.09" y2="532.36"/><line class="cls-10" x1="349.55" y1="514.58" x2="354.63" y2="519.66"/><line class="cls-10" x1="361.41" y1="501.02" x2="366.49" y2="507.8"/><line class="cls-10" x1="271.63" y1="551" x2="281.79" y2="545.07"/><line class="cls-10" x1="268.24" y1="532.36" x2="275.01" y2="535.75"/><line class="cls-10" x1="358.87" y1="544.22" x2="365.64" y2="550.15"/></svg>