<svg id="Layer_1" data-name="Layer 1" xmlns="http://www.w3.org/2000/svg" viewBox="0 0 483.01 540.47"><defs><style>.cls-1{fill:#ffce33;}.cls-2{fill:#2e2e2e;}.cls-3,.cls-5{fill:#f5f5ff;}.cls-3,.cls-4,.cls-5,.cls-6,.cls-7{stroke:#2e2e2e;stroke-linecap:round;stroke-linejoin:round;}.cls-3,.cls-4{stroke-width:0.5px;}.cls-4,.cls-6,.cls-7,.cls-8,.cls-9{fill:none;}.cls-5{stroke-width:0.56px;}.cls-6{stroke-width:0.53px;}.cls-7{stroke-width:0.46px;}.cls-8,.cls-9{stroke:#f5f5ff;stroke-miterlimit:10;}.cls-8{stroke-width:1.07px;}.cls-9{stroke-width:0.99px;}</style></defs><circle class="cls-1" cx="241.51" cy="211.03" r="211.03" transform="translate(-78.49 232.58) rotate(-45)"/><path class="cls-2" d="M305.27,242.89c-18.71,11.7-42.85,9.63-64.25,4.24s-42.53-13.76-64.59-13.41-46.13,12.64-51,34.16c-4.16,18.34,6.89,37.07,21.17,49.31s31.78,20.08,46.93,31.22c19.76,14.51,39.57,35.88,63.74,31.79,14-2.37,24.9-13,34.85-23.14l40.67-41.38c12.65-12.88,26.18-27.87,25.67-45.91a33.64,33.64,0,0,0-57-23.19"/><path class="cls-3" d="M295.9,140.86c-8.06,12.94-7.28,28.27,1.74,34.24s22.86.32,30.92-12.62,7.28-28.27-1.74-34.24S304,127.92,295.9,140.86Z"/><path class="cls-4" d="M320,134.45A12,12,0,0,1,323.17,155"/><path class="cls-3" d="M187.12,140.86c8,12.94,7.28,28.27-1.74,34.24s-22.87.32-30.92-12.62-7.28-28.27,1.74-34.24S179.06,127.92,187.12,140.86Z"/><path class="cls-4" d="M163,134.45A12,12,0,0,0,159.84,155"/><path class="cls-5" d="M282.84,297.1a41.36,41.36,0,1,1-82.69,1.4c0-.47,0-.94,0-1.4l4.59-61.64L206,219.85l2.29-30.62h66.51l3.65,48.41L281,272.85Z"/><path class="cls-2" d="M281,272.85c-21.83,1.56-45.88-9.3-62.38-30.39A82.86,82.86,0,0,1,206,219.85l2.29-30.62h66.51l3.65,48.41Z"/><path class="cls-3" d="M314.45,161.78a65.58,65.58,0,0,1-20.29,47.44L274.39,227A31.63,31.63,0,0,1,251,237.24H232.63a31.85,31.85,0,0,1-23.21-10.07l-20.18-17.92a65.54,65.54,0,0,1-20.67-47.79l.31-5.47,1.81-31.37,1.36-23.25c0-38.66,31.1-70,69.44-70a69,69,0,0,1,49.11,20.5A69.92,69.92,0,0,1,311,101.37l1.53,26.46,1.5,26.1Z"/><path class="cls-2" d="M312.49,127.83h-2.16A113.76,113.76,0,0,1,291.44,77.6c-1.36-11.19-17.26-15-28.48-13.74a29.26,29.26,0,0,1-23.11,12.9c-9.17.28-18.16-5.86-23.67-13.21C205,62.33,189,66.09,187.67,77.28a113.65,113.65,0,0,1-17,47.34l1.36-23.25c0-38.66,31.1-70,69.44-70a69,69,0,0,1,49.11,20.5A69.92,69.92,0,0,1,311,101.37Z"/><path class="cls-2" d="M256.78,114.49a39.67,39.67,0,0,1,10.53-4.27,40.62,40.62,0,0,1,11.8-1.38,27.93,27.93,0,0,1,12,3,18.42,18.42,0,0,1,8.42,8.54,36.6,36.6,0,0,0-10.38-2,43.91,43.91,0,0,0-9.46.88c-3.14.57-6.31,1.39-9.6,2.15a81.69,81.69,0,0,1-10.26,2h-.05a4.87,4.87,0,0,1-3-9Z"/><path class="cls-2" d="M223.14,123.49a81.69,81.69,0,0,1-10.26-2c-3.29-.76-6.46-1.58-9.59-2.15a44.06,44.06,0,0,0-9.47-.88,36.54,36.54,0,0,0-10.37,2,18.33,18.33,0,0,1,8.42-8.54,27.93,27.93,0,0,1,12-3,40.65,40.65,0,0,1,11.81,1.38,39.74,39.74,0,0,1,10.52,4.27,4.86,4.86,0,0,1-3,9Z"/><path class="cls-2" d="M258.82,144.62l3.41-4.32a26.47,26.47,0,0,1,1.91-2.05l1-.95,1.12-.85.56-.43.6-.36,1.2-.74a24.57,24.57,0,0,1,2.56-1.17,22.17,22.17,0,0,1,5.45-1.4,22.43,22.43,0,0,1,11.08,1.47,24,24,0,0,1,4.91,2.72A41.67,41.67,0,0,1,297,140a.22.22,0,0,1,0,.31.23.23,0,0,1-.27,0,41.47,41.47,0,0,1-4.66-2.93,22.12,22.12,0,0,0-4.74-2.49,22.42,22.42,0,0,0-10.51-1.38,21.89,21.89,0,0,0-10,3.71l-1.1.77-1,.88a22.94,22.94,0,0,0-1.92,1.9l-3.65,4.12a.21.21,0,0,1-.3,0A.22.22,0,0,1,258.82,144.62Z"/><path class="cls-2" d="M271.09,138.69a6.41,6.41,0,1,1,5.93,6.85A6.41,6.41,0,0,1,271.09,138.69Z"/><path class="cls-4" d="M259.73,144.83a20.64,20.64,0,0,0,10.43,2.3"/><path class="cls-4" d="M258.82,137.09A22.76,22.76,0,0,1,274,128"/><path class="cls-2" d="M223.86,144.9l-3.65-4.12a22.83,22.83,0,0,0-1.91-1.9l-1-.88-1.1-.77a21.85,21.85,0,0,0-9.95-3.71A22.75,22.75,0,0,0,191,137.39a41.47,41.47,0,0,1-4.66,2.93.22.22,0,0,1-.3-.09.22.22,0,0,1,0-.26,41.67,41.67,0,0,1,4.32-3.43,23.82,23.82,0,0,1,4.92-2.72,22.08,22.08,0,0,1,16.52-.07,23.66,23.66,0,0,1,2.56,1.17l1.2.74.6.36.56.43,1.12.85,1,.95a24.65,24.65,0,0,1,1.91,2.05l3.41,4.32a.21.21,0,0,1,0,.3A.22.22,0,0,1,223.86,144.9Z"/><path class="cls-2" d="M211.92,138.69a6.41,6.41,0,1,0-5.93,6.85A6.4,6.4,0,0,0,211.92,138.69Z"/><path class="cls-4" d="M223.29,144.83a20.7,20.7,0,0,1-10.44,2.3"/><path class="cls-4" d="M224.19,137.09A22.76,22.76,0,0,0,209,128"/><path class="cls-6" d="M236.49,193.35a7.24,7.24,0,0,0,10,0c2.08-2,5.83-.78,8.69-.37s5.79,1,8.62.38"/><path class="cls-6" d="M236.49,193.35c-2.08-2-5.83-.78-8.69-.37s-5.79,1-8.62.38"/><path class="cls-6" d="M228.25,201.52a40.17,40.17,0,0,0,23,1"/><path class="cls-7" d="M230.81,173.54l5.35,2.25h0a13.79,13.79,0,0,0,10.7,0h0l5.35-2.25"/><path class="cls-2" d="M389.82,538.76l-16-38.89L361,468.71l-10.81-26.29-23.74-57.69c-12.5-30.36-.21-64,26.75-73.22a43.21,43.21,0,0,1,14.3-2.31c.44,0,.89,0,1.33.05,20.9.76,41.1,16.28,49.2,40l19.21,56.18,8.61,25.19L483,539.44"/><path class="cls-2" d="M93.2,538.76l16-38.89L122,468.71l10.81-26.29,23.74-57.69c12.5-30.36.22-64-26.74-73.22a43.26,43.26,0,0,0-14.31-2.31c-.44,0-.88,0-1.33.05-20.9.76-41.1,16.28-49.19,40L45.78,405.41,37.17,430.6,0,539.44"/><polygon class="cls-2" points="374.32 540.47 108.69 540.47 110.07 501.54 111.03 473.46 112.26 438.96 116.21 327.58 116.81 311 125.38 307.91 175.18 289.92 184.79 286.46 189.56 284.71 202 278.01 205.76 278.01 277.66 278.01 279.15 278.01 293.12 284.44 297.85 286.16 307.46 289.62 358.72 308.14 366.61 311 367.17 327.62 369.3 390.35 370.9 438.29 372.05 472.97 372.05 473.16 373.1 504.49 374.32 540.47"/><path class="cls-8" d="M213.18,321.56c-9.68,14.82-9,34.24-4.44,51.35s12.4,33.25,16.2,50.54,2.83,37-8.62,50.5"/><path class="cls-9" d="M270,321.41c9.68,12.58,9,29.07,4.44,43.6s-12.4,28.24-16.2,42.92-2.83,31.41,8.61,42.87"/></svg>