<?xml version="1.0" encoding="utf-8"?>
<!-- Generator: Adobe Illustrator 26.2.1, SVG Export Plug-In . SVG Version: 6.00 Build 0)  -->
<svg version="1.1" id="Layer_1" xmlns="http://www.w3.org/2000/svg" xmlns:xlink="http://www.w3.org/1999/xlink" x="0px" y="0px"
	 viewBox="0 0 516.7 583.8" style="enable-background:new 0 0 516.7 583.8;" xml:space="preserve">
<style type="text/css">
	.st0{fill:#A7A9AC;}
	.st1{fill:#939393;}
	.st2{fill:#FFFFFF;}
	.st3{fill:#FEDCB5;}
	.st4{fill:#EDAB7D;}
	.st5{fill:#EBA53C;}
	.st6{fill:#FBB040;}
	.st7{fill:#5B3824;}
</style>
<g>
	<g>
		<path class="st0" d="M470.7,431.7c-6-15-17.4-27.2-32-34.2l-131.9-63.8h-52.6h-52.6L69.8,397.5c-14.5,7-25.9,19.2-32,34.2
			C26,460.9,7.7,514.8,0.7,580.8h253.6h253.6C500.9,514.8,482.5,460.9,470.7,431.7z"/>
		<path class="st1" d="M441.7,397.5l-94-45.4l0,0l-32.5,29.7c0,0,26.9-14.4,34.3-15.6c7.4-1.2,64.5,41.3,77.9,50.2
			c13.4,9,31.9,136.5,31.5,142c-0.5,5.5-60.9,22.4-92.8,22.4h144.7c-6.9-66-25.3-119.9-37.1-149.1
			C467.6,416.7,456.2,404.5,441.7,397.5z"/>
		<path class="st2" d="M38.3,574.5c-6.3-0.1-11.1-0.4-14.6-0.8c-5.6-0.6-9.5-5.8-8.5-11.3c2.6-15.3,8.5-48.2,17.7-86.3
			c12.8-52.6,33.5-66.4,39.4-70.4c5.9-3.9,82.2-41.8,90.5-42.8c8.4-1,41.9,23.7,41.9,23.7l-38-34.7l0,0l-94,45.4
			c-14.5,7-25.9,19.2-32,34.2c-11.8,29.2-30.1,83.1-37.1,149.1h163C168.6,580.8,60.4,575,38.3,574.5z"/>
		<polygon class="st2" points="257.2,381.1 228.7,408.7 166.6,352.1 204.6,333.7 		"/>
		<polygon class="st2" points="257.2,381.1 285.7,408.7 347.7,352.1 309.8,333.7 		"/>
		<path class="st3" d="M301.6,294.7c-12.9,9.4-28.5,14.3-44.5,14.3s-31.6-4.9-44.5-14.3c-2.8-2-5.5-4.2-8.1-6.4v45.4l52.6,47.4
			l52.6-47.4v-45.4C307.1,290.5,304.4,292.7,301.6,294.7z"/>
		<path class="st4" d="M301.6,294.7c-12.9,9.4-28.5,14.3-44.5,14.3s-31.6-4.9-44.5-14.3c0,0,8.8,20.1,34.8,23.4
			c26,3.2,43.5-10.4,48.1-9.1c4.5,1.3,3.2,18.3,0,24.7c-3.2,6.4-33.3,33.7-38.4,34.4c-5.1,0.6-32.5-16.3-32.5-16.3l32.5,29.3
			l52.6-47.4v-45.4C307.1,290.5,304.4,292.7,301.6,294.7z"/>
		<path class="st2" d="M212.7,294.7c0,0-2.3,27.9,0,35.1c2.3,7.1,12,22.1,12,22.1l-20.1-18.1v-45.4L212.7,294.7z"/>
	</g>
	<path class="st5" d="M259.8,3V2.8c-1.2,0-2.4,0.1-3.6,0.1c-1.2,0-2.3-0.1-3.6-0.1V3c-101.9,4-128,93.3-128,148.8
		c0,56.8,42.2,86.3,42.2,86.3h85.8h7.1h86.7c0,0,41.3-29.6,41.3-86.3C387.8,96.4,361.7,7,259.8,3z"/>
	<path class="st6" d="M246.3,42.5v-0.2c1.2,0,2.4,0.1,3.6,0.1c1.2,0,2.3-0.1,3.6-0.1v0.2c100.6,3.9,127.3,91.1,128,146.7
		c3.9-10.7,6.4-23.2,6.4-37.4C387.8,96.4,361.7,7,259.8,3V2.8c-1.2,0-2.4,0.1-3.6,0.1c-1.2,0-2.3-0.1-3.6-0.1V3
		c-95.7,3.8-124.5,82.8-127.7,138.3C137.9,93.8,171.8,45.4,246.3,42.5z"/>
	<path class="st3" d="M372.8,158.7c-0.2-8.3-6.3-15.1-14.2-16.3l-0.3,11.8l-20.4-26c-17.5-8.9-63.8-24.1-63.8-24.1
		c2.9,15.1,19.7,24.1,19.7,24.1c-31.9-3.2-53.3-24.1-53.3-24.1c-0.4,15.1,5.6,24.1,5.6,24.1c-32.6-6.2-59.1-30.1-59.1-30.1
		c-11.5,14.9-32.3,56.1-32.3,56.1l-0.7-12l-1,0c-9.4-0.2-17.1,7.2-17.3,16.6l-0.2,7.4c-0.3,11.7,8.4,21.5,19.8,22.9v2.1
		c0,22.4,6.4,44.4,18.4,63.3h0c9.5,15,21.8,28,36,38.3c12.9,9.4,28.5,14.3,44.5,14.3s31.6-4.9,44.5-14.3
		c14.2-10.3,26.5-23.3,36-38.3l0,0c12-18.9,18.4-40.9,18.4-63.3V189c11.3-1.4,20-11.2,19.8-22.9L372.8,158.7z"/>
	<path class="st4" d="M372.8,158.7c-0.2-8.3-6.3-15.1-14.2-16.3l-0.3,11.8l-20.4-26c-17.5-8.9-63.8-24.1-63.8-24.1
		c2.9,15.1,19.7,24.1,19.7,24.1c-7.1-0.7-13.6-2.3-19.6-4.4c0.9,2.1,1.2,3.2,0.6,3c0,0,18.3,7.6,36.9,6.8c0,0-6-6.8-7.9-10.6
		c0,0,26.6,7.3,36.3,25.5s5.9,42,5.1,54.3c-0.8,12.3-19.5,86.1-70.5,99.3c-7.4,1.9-10.5,3.3-10.3,4.3c12.3-1.7,24.1-6.2,34.2-13.6
		c14.2-10.3,26.5-23.3,36-38.3l0,0c12-18.9,18.4-40.9,18.4-63.3V189c11.3-1.4,20-11.2,19.8-22.9L372.8,158.7z"/>
	<path class="st2" d="M234.4,303.1c-42.6-23.8-61.6-60.7-65.9-82.1c-2.2-11.2-2.7-21.3-2.6-28.3c0.1-5.5-3.5-10.2-8.6-12.1
		c-4.8-1.7-9.8-5-11-11.2c-2.4-12.5,5-23.4,5-23.4s-0.5-1.2-1.3-3.1c-6.8,2.1-11.8,8.3-12,15.8l-0.2,7.4
		c-0.3,11.7,8.4,21.5,19.8,22.9v1.2c0,21.8,5.6,43.2,16.9,61.8c9.7,16,22.5,29.8,37.5,40.7c7.4,5.3,15.7,9.2,24.4,11.6
		C235.8,303.9,235.1,303.5,234.4,303.1z"/>
	<g>
		<path class="st7" d="M516.4,573.4c-0.3-2.6-0.7-6.3-1.4-11.1c-1.3-9.6-3.4-23.2-6.9-39.4c-3.4-16.2-8.1-34.9-14.4-54.6
			c-3.1-9.9-6.6-20-10.5-30.1c-0.9-2.5-2-5.1-3-7.6c-1.1-2.6-2.3-5.3-3.7-7.8c-2.8-5.1-6.2-9.8-10.2-14.1c-4-4.2-8.5-8-13.4-11.1
			c-2.4-1.6-5.1-3-7.6-4.2c-2.4-1.2-4.9-2.4-7.3-3.6c-9.7-4.7-19.2-9.4-28.5-13.9c-18.5-9-35.7-17.4-50.5-24.6
			c-22.9-11.2-39.8-19.4-46.3-22.6c0-2.2-0.2-4.6-0.2-7.3c0-11,0-22,0-33.1c0-0.3,0-0.6-0.1-0.9c7-6,13.3-12.9,19-20
			c7-8.7,12.6-18.3,16.9-28.4c2.2-1,4.2-2.3,6.1-4c26-23.9,37.6-58.6,35.7-93.4c-4-71.5-49.7-136.9-125.1-141.1
			C214.7-4,167.1,21.9,142.7,65.7c-23,41.2-29.5,97.9-6.9,140.2c7,13.1,17.4,25.9,29.5,34.6c-1.1-1.9-1.8-4-2-6.3
			c8,21.2,21.2,40.7,38.3,54.7c0,10.8,0,21.6,0,32.5c0,3.4-0.3,6.4-0.1,9c-16.2,8.1-50.7,25.1-108.8,52.6c-4.9,2.3-9.8,4.7-14.9,7.1
			c-2.5,1.2-5.1,2.5-7.7,3.7c-2.7,1.3-5.4,2.9-7.9,4.6c-10.2,6.9-18.7,16.8-23.9,28.1c-0.7,1.4-1.3,2.9-1.8,4.3l-1.6,4.1
			c-1,2.8-2,5.5-3,8.3c-2,5.5-3.8,11.1-5.5,16.6c-3.5,11-6.5,21.8-9.1,32.2C6.9,533.6,4.2,568,3.4,577.9c-0.1,0.6,0.1,1.2,0.3,1.7
			c-0.2,0.3-0.3,0.5-0.3,0.8c0,1.8,3.8,3.3,8.5,3.3l483.7,0.1c2.3,0,4.2-0.7,4.2-1.6c0-0.9-1.7-1.6-4-1.6
			c-20.9-0.4-121-2.4-220.2-3.1c0-29.6,0-59.1,0-88.7c0-19.3,0-38.7,0-58c0-5.2,0-10.4,0-15.6c0-3.1,1.8-5.8,3.7-8.4
			c1.4,1.3,2.8,2.7,4.1,4c1.2,1.2,3,1.1,4.2,0c20.3-18.5,40.5-37,60.8-55.5c18.2,8.8,42,20.5,72,35.4c4.8,2.4,9.8,4.8,14.8,7.3
			c2.5,1.2,5,2.5,7.6,3.7c2.4,1.2,4.7,2.5,6.9,4c8.9,5.9,16.4,14.4,21.2,24.3c0.6,1.2,1.1,2.5,1.7,3.8l1.7,4
			c1.1,2.7,2.1,5.4,3.2,8.1c2.1,5.4,4.1,10.8,6,16.1c3.8,10.7,7.2,21.3,10.3,31.5c12.2,40.7,17.3,74.7,18.7,84.5
			c0.2,1.6,1.3,2.7,2.5,2.6c1.2-0.1,2-1.6,1.8-3.3C516.9,577.3,516.7,576,516.4,573.4z M228.6,404.7c-18.6-17-37.2-33.9-55.7-50.9
			c14.6-7.1,25.9-12.5,32.3-15.6c0.2,0.1,0.3,0.3,0.5,0.4l0,0c15.7,14.2,31.5,28.4,47.2,42.6C244.8,389,236.7,396.8,228.6,404.7z
			 M207.5,294.3c28.7,20.8,65.2,24,95.6,3c1.2-0.9,2.4-1.9,3.7-2.9c0,8.4,0,16.8,0,25.2c0,4.3,0,8.6,0,12.8c-1.1,1-2.2,2-3.3,3
			c-15.4,13.9-30.9,27.8-46.3,41.8c-16.5-14.9-33.1-29.8-49.6-44.8c0-4.3,0-8.6,0-12.8C207.5,311.1,207.5,302.7,207.5,294.3z
			 M155.3,223.6c-36.1-39.3-33-98.3-13-144.5c20.9-48.2,70.2-77.8,122.9-73c64.9,3.6,105,53.4,116.8,114.1
			c5.9,30.5,3.1,61.4-13.1,88.4c-4.6,7.7-10.4,14.6-16.8,20.9c4-12.2,6.2-25.1,6.5-38.2c15.7-3.9,20-17.6,19.7-32.7
			c-1.1-11.5-8.8-18.5-19.6-19.4v-0.4c-0.1,0.1-0.1,0.1-0.2,0.2c0,0.1,0,0.2,0,0.3c-1.4,0-2.9,0.9-2.9,2.7c0,1.2,0,2.5,0,3.7
			c-7.4-10-14.2-19.5-26.1-24.5c-17.8-7.6-36.2-13.8-54.6-19.9c-2.1-0.7-4,1.5-3.5,3.5c2,7.1,5.8,13.3,11,18.3
			c-14.7-3.7-29-10.6-39.9-21c-1.7-1.6-4.8-0.5-4.8,2c0.1,6.6,0.8,13.6,3.2,19.8c-19-5.1-37.2-14.8-51.9-27.9
			c-1.5-1.3-3.3-0.9-4.4,0.6c-10.5,14.2-19,30-27.1,45.8c0-0.1,0-0.2,0-0.3c0-3.4-4.8-3.6-5.5-0.7c-0.2-0.5-0.4-1.1-0.5-1.6
			c-24.4,5.2-20.9,45,3.3,51.6c0.3,13,2.8,26.3,7.2,39.2C160.2,228.8,158.1,226.6,155.3,223.6z M187.9,265.8
			c-18.1-21.6-27.3-48.8-27.3-76.8c0-1.2-0.9-2.6-2.2-2.8c-11.4-2.1-17.8-10.5-17.6-22c0.2-9,3.1-16.2,11-18.3c0,2.8,0,5.5,0,8.3
			c0,2.7,3.9,4,5.2,1.4c9.2-18.1,18.6-36.8,30.5-53.4c16.5,13.9,36.8,24.2,57.8,28.7c2.3,0.5,4.6-1.9,3.2-4.1
			c-3.1-4.9-4.4-10.5-4.9-16.2c14.3,11.4,32.2,18.1,50.1,20.4c2.9,0.4,3.7-4,1.4-5.2c-7.2-4-13-9.8-16.4-17.1
			c15.3,5.1,30.5,10.5,45.5,16.6c9.2,3.7,12.5,6.2,18.4,13.7c4.5,5.8,9,11.5,13.6,17.3c1.6,2,4.8,0.3,4.8-2c0-2.8,0-5.6,0-8.4
			c6,1.4,10.4,5.6,11.1,12.9c0.3,13-2.5,24.7-17.4,27.5c-1.3,0.2-2.2,1.6-2.2,2.8c0,51.2-37.3,111.6-92.8,115
			C230.2,305.8,206,287.4,187.9,265.8z M187.4,577.3c-100.6,0.4-155.5,0-175.4-0.2c-1.6,0-3,0.1-4.3,0.4c0.1-0.6,0.2-1.7,0.4-3.2
			c0.3-2.5,0.7-6.2,1.4-11c1.3-9.4,3.5-22.9,6.9-38.8c3.5-15.9,8.2-34.4,14.4-53.8c3.1-9.7,6.6-19.7,10.4-29.6c0.9-2.5,2-5,3-7.5
			c1-2.4,2-4.7,3.3-6.9c2.4-4.5,5.5-8.6,9-12.4c3.5-3.7,7.5-7,11.9-9.7c2.2-1.4,4.4-2.5,6.8-3.7c2.4-1.2,4.9-2.4,7.3-3.5
			c9.7-4.7,19.3-9.3,28.5-13.8c18.5-8.9,35.8-17.3,50.6-24.4c1.9-0.9,3.7-1.8,5.4-2.6c19.8,18.1,39.6,36.2,59.4,54.3
			c1.2,1.1,3,1.2,4.2,0c1.2-1.2,2.5-2.4,3.7-3.6c2.1,2.8,4.2,5.6,4.2,8.2c0,4.9,0,9.9,0,14.8c0,19.1,0,38.2,0,57.3
			c0,29.9,0,59.8,0,89.7C221,577.2,203.8,577.2,187.4,577.3z M261.5,381.2c15.7-14.2,31.5-28.4,47.2-42.6l0,0c0.5-0.5,1-0.9,1.5-1.4
			c10.8,5.2,21.5,10.4,32.3,15.6c-18.9,17.3-37.9,34.6-56.8,51.8C277.7,396.8,269.6,389,261.5,381.2z"/>
		<path class="st7" d="M266.9,257.3c3.1-1.3,5.6-2.9,7.6-4.4c4-3,5.9-5.5,5.4-6c-0.5-0.6-3.1,0.8-7.3,2.7
			c-4.2,1.9-10.2,4.5-16.6,4.7c-6.5,0.1-12.5-2.4-16.6-4.4c-4.1-2-6.7-3.6-7.2-3c-0.5,0.5,1.2,3.2,5.2,6.3c2,1.5,4.6,3.1,7.7,4.4
			c3.1,1.3,6.9,2.2,11,2.1C260.2,259.7,263.8,258.6,266.9,257.3z"/>
		<ellipse class="st7" cx="210.4" cy="150.8" rx="17.3" ry="2.4"/>
		<ellipse class="st7" cx="303.9" cy="150.8" rx="17.3" ry="2.4"/>
		<circle class="st7" cx="212" cy="169.5" r="10.1"/>
		<circle class="st7" cx="303.9" cy="169.5" r="10.1"/>
		<path class="st7" d="M244.8,221.2c0.5,0.3,1,0.6,1.5,0.9c1,0.5,2.1,1,3.1,1.4c2.1,0.7,4.4,1,6.3,0.8c3.9-0.3,6.9-1.5,8.8-2.4
			c2-0.9,3-1.6,3-1.6c0.7-0.4,0.6-1.6-0.1-2.6c-0.7-1-1.7-1.5-2.3-1.1c-1.1,0.7-3.4,2.3-7.3,3.3c-1.9,0.4-4.2,0.6-6.7-0.1
			c-1.2-0.4-2.5-1-3.8-1.8c-0.3-0.2-0.6-0.4-1-0.7c-0.3-0.2-0.4-0.4-0.6-0.6c-0.4-0.4-0.6-1-0.8-1.6c-0.2-0.7-0.1-1.4,0.1-2.1
			c0.5-1.1,0.9-2.1,1.4-3.2c0.9-2.3,1.7-4.8,2.3-7.2c1.3-4.8,2.2-9.7,2.9-14.2c1.4-8.9,1.8-16.1,2-18.2c0-0.3-0.4-0.7-1-0.7
			c-0.6-0.1-1.1,0.1-1.2,0.5c0,0-0.6,4.5-1.9,11.3c-1.3,6.7-3.1,15.7-6.1,24.2l-1.2,3.1l-0.7,1.5l-0.3,0.7c-0.1,0.3-0.3,0.7-0.4,1
			c-1,3,0.1,6.4,2.3,8.3C243.8,220.5,244.3,220.8,244.8,221.2z"/>
	</g>
</g>
</svg>
