<?xml version="1.0" encoding="utf-8"?>
<!-- Generator: Adobe Illustrator 26.2.1, SVG Export Plug-In . SVG Version: 6.00 Build 0)  -->
<svg version="1.1" id="Layer_1" xmlns="http://www.w3.org/2000/svg" xmlns:xlink="http://www.w3.org/1999/xlink" x="0px" y="0px"
	 viewBox="0 0 503.1 583.8" style="enable-background:new 0 0 503.1 583.8;" xml:space="preserve">
<style type="text/css">
	.st0{fill:#3E2217;}
	.st1{fill:#49281D;}
	.st2{fill:#FFF685;}
	.st3{fill:#FFFFFF;}
	.st4{fill:#FEDCB5;}
	.st5{fill:#EBE27A;}
	.st6{fill:#EDAB7D;}
	.st7{fill:#FFF78D;}
	.st8{fill:#FBB040;}
	.st9{fill:#231F20;}
	.st10{fill:#5B3824;}
</style>
<g>
	<path class="st0" d="M390,198.2c-8.9-118.7-56.1-194-141.6-194c-85.5,0-132.7,75.3-141.6,194c-8.9,118.7,17.9,191.4,17.9,191.4
		h123.8h123.8C372.2,389.6,399,316.9,390,198.2z"/>
	<path class="st1" d="M248.4,31.9c85.5,0,132.7,86.6,141.6,205.3c0.7,9.8,1.2,19.3,1.5,28.4c0.7-20.4,0.3-42.9-1.5-67.4
		c-8.9-118.7-56.1-194-141.6-194c-85.5,0-132.7,75.3-141.6,194c-1.8,24.5-2.1,47-1.5,67.4c0.3-9.2,0.8-18.6,1.5-28.4
		C115.7,118.5,162.9,31.9,248.4,31.9z"/>
	<path class="st2" d="M460.7,434.7c-5.9-14.7-17.1-26.6-31.3-33.5l-129.3-62.5h-51.5H197L67.7,401.2c-14.3,6.9-25.4,18.8-31.3,33.5
		C24.8,463.4,6.8,516.1,0,580.8h248.5h248.5C490.3,516.1,472.3,463.4,460.7,434.7z"/>
	<path class="st3" d="M4,578.3c0,0,33-134.4,47.1-152.6c14.1-18.2,129.5-68.2,129.5-68.2l10.9-16.1L67.7,401.2
		c-14.3,6.9-25.4,18.8-31.3,33.5c-11.1,27.4-28,77.1-35.4,138.1C2.9,576.3,4,578.3,4,578.3z"/>
	<path class="st4" d="M293,299.6c-12.7,9.2-28,14-43.6,14c-15.6,0-30.9-4.8-43.6-14c-2.7-2-5.4-4.1-8-6.3v57.8l50.6,106.5
		l52.5-107.1v-57.2C298.3,295.5,295.7,297.6,293,299.6z"/>
	<path class="st5" d="M429.4,401.2l-129.3-62.5h-5.4l0.7,25l22.7-4.1c0,0,80.2,33.8,90.6,81.4c36.8,170,85.9,137.9,88.3,140h0.1
		c-6.8-64.7-24.8-117.5-36.4-146.1C454.8,420,443.6,408.1,429.4,401.2z"/>
	<path class="st3" d="M201.5,298.2l0.8,29.7c0.2,7.6,1.7,15.1,4.5,22.2c8.6,22.1,16.9,40,26.9,75.5c0.4,1.2-35.9-81.8-35.9-81.8
		v-50.6L201.5,298.2z"/>
	<path class="st6" d="M300.9,293.3c-2.6,2.2-5.2,4.3-7.9,6.3c-12.7,9.2-28,14-43.6,14c-12.8,0-25.3-3.3-36.4-9.5
		c-0.8,1.5-1.4,2.5-1.4,2.5s25.2,20.5,53.6,13.3c28.4-7.2,28.8-9.9,30.4-3.4c1,3.8,0.9,10.8,0.7,16c-0.2,4.2-1,8.3-2.5,12.3
		l-27.1,70.8c0,0,1.8-2.1,4.9-5.6l29.3-59.6V293.3z"/>
	<path class="st7" d="M194.2,339.6L245.7,457c-6.2,0-67.7-47.8-67.7-47.8l19.6-16.5l-27.5-21.3L194.2,339.6z"/>
	<path class="st7" d="M302.9,339.6L251.4,457c6.2,0,67.7-47.8,67.7-47.8l-19.6-16.5l27.5-21.3L302.9,339.6z"/>
	<path class="st4" d="M364.8,169c-0.2-9.2-7.8-16.4-17-16.2l-2.3,0v-5V144c-23.3-5-46.9-8.1-70.6-9.4l-1.5-21.6l-2.4,21.4
		c-17.5-0.8-35-0.7-52.5,0.4l-3.7-21.3l-4.2,21.9c-19.8,1.6-39.5,4.5-59,8.7v3.8v5l-2.3,0c-9.2-0.2-16.8,7.1-17,16.2l-0.2,7.3
		c-0.2,11.4,8.3,21.1,19.4,22.4v2.1c0,22,6.3,43.5,18.1,62.1l0,0c9.4,14.7,21.4,27.4,35.3,37.5c12.7,9.2,28,14,43.6,14
		c15.6,0,30.9-4.8,43.6-14c14-10.1,26-22.8,35.3-37.5l0,0c11.8-18.6,18.1-40.1,18.1-62.1v-2.1c11.1-1.4,19.6-11,19.4-22.4L364.8,169
		z"/>
	<path class="st4" d="M364.8,169c-0.2-9.2-7.8-16.4-17-16.2l-2.3,0v-5V144c-23.3-5-46.9-8.1-70.6-9.4l-1.5-21.6l-2.4,21.4
		c-17.5-0.8-35-0.7-52.5,0.4l-3.7-21.3l-4.2,21.9c-19.8,1.6-39.5,4.5-59,8.7v3.8v5l-2.3,0c-9.2-0.2-16.8,7.1-17,16.2l-0.2,7.3
		c-0.2,11.4,8.3,21.1,19.4,22.4v2.1c0,22,6.3,43.5,18.1,62.1l0,0c9.4,14.7,21.4,27.4,35.3,37.5c12.7,9.2,28,14,43.6,14
		c15.6,0,30.9-4.8,43.6-14c14-10.1,26-22.8,35.3-37.5l0,0c11.8-18.6,18.1-40.1,18.1-62.1v-2.1c11.1-1.4,19.6-11,19.4-22.4L364.8,169
		z"/>
	<path class="st3" d="M219.9,305.4c-9.6-3.6-42.1-28.7-52.6-58.4c-6.4-18-6.8-34.6-6.1-44.9c0.3-5-3-9.3-7.8-10.7
		c-3.6-1.1-8.1-3.7-12.8-9.2c-11.7-13.8,7.4-26.2,7.4-26.2s-0.5-1.1-1.4-3c-7.9,1.1-14,7.8-14.2,16.1l-0.2,7.3
		c-0.2,11.4,8.3,21.1,19.4,22.4v2.1c0,22,6.3,43.5,18.1,62.1v0c9.4,14.7,21.4,27.4,35.3,37.5c4.3,3.1,8.8,5.6,13.6,7.7
		C220.6,306.8,221.2,305.9,219.9,305.4z"/>
	<path class="st6" d="M364.8,169c-0.2-9.2-7.8-16.4-17-16.2l-2.3,0v-5V144c-23.3-5-46.9-8.1-70.6-9.4l-1.5-21.6l-2.4,21.4
		c-6.4-0.3-12.7-0.4-19.1-0.5c6,0.6,67.8,6.7,77.9,15.3c10.6,9,7.5,42.3,5.9,57c-1.6,14.8-19,98.7-84,105.3
		c-5.6,0.6-8.9,1.4-10.5,2.6c2.4,0.2,4.9,0.4,7.3,0.4c15.6,0,30.9-4.8,43.6-14c14-10.1,26-22.8,35.3-37.5l0,0
		c11.8-18.6,18.1-40.1,18.1-62.1v-2.1c11.1-1.4,19.6-11,19.4-22.4L364.8,169z"/>
	<path class="st0" d="M348.8,155c-3.5-0.5-10-1.2-21.1-1.4c-18.8-0.3-30.4,0.3-46.1,4.4c-15.7,4.1-19.8,9.3-31.7,9.3
		c-11.9,0-15.9-5.2-31.7-9.3c-15.7-4.1-27.3-4.6-46.1-4.4c-11,0.2-17.6,0.8-21.1,1.4c-1.9,0.3-3.3,2-3.2,4l1.2,15.5
		c0.1,0.8,0.4,1.6,0.9,2.2c1.6,1.8,5.2,5.9,8.7,10.1c4.6,5.7,15.2,18.3,25.8,20.9c10.6,2.6,28.3,7.2,42.3-5.7
		c13.9-12.9,10.7-23.4,23.1-23.4c12.4,0,9.2,10.6,23.1,23.4c13.9,12.9,31.7,8.2,42.3,5.7c10.6-2.6,21.1-15.2,25.8-20.9
		c3.5-4.2,7.1-8.3,8.7-10.1c0.5-0.6,0.9-1.4,0.9-2.2l1.2-15.5C352.1,157,350.7,155.3,348.8,155z M229,193.8
		c-3.7,5.2-10.6,12.6-24.5,13.4c-14,0.8-25.6-5.7-33-12.7c-7.3-6.9-11.9-19.7-11.5-27.2c0.4-7.4,10.8-7.6,10.8-7.6
		s10.2-1.8,24.8-0.9s35.3,5.7,38.6,12.3C237.6,177.9,232.7,188.6,229,193.8z M328.4,194.5c-7.3,6.9-19,13.5-33,12.7
		c-14-0.8-20.8-8.1-24.5-13.4c-3.7-5.2-8.7-15.9-5.2-22.7c3.3-6.5,23.9-11.4,38.6-12.3c14.7-0.9,24.8,0.9,24.8,0.9
		s10.4,0.2,10.8,7.6C340.3,174.8,335.8,187.6,328.4,194.5z"/>
	<polygon class="st8" points="373.5,467.4 338.4,467.4 338.4,528.6 373.5,543.9 408.6,528.6 408.6,467.4 	"/>
	<g>
		<path class="st9" d="M407.8,467.4c0.6,0,1.1,0.9,1.1,2.1c0.1,3.4,0.2,10.9,0.5,21.1c0.2,10.5,0.4,24,0.7,39
			c-11.3,5.1-23.7,10.7-36.6,16.5c-12.4-5.3-25-10.7-37.3-16c0-9.2,0-18.2,0.1-26.8c0.1-16.2,0.2-30.2,0.2-37.9c16.7,0,29.5,0,39,0
			c9-0.1,15-0.1,18.7-0.1c1.2,0,2.4,0.2,3.2,0.6c0.4,0.2,0.7,0.4,1,0.7c0.1,0.1,0.2,0.3,0.3,0.4l0,0l0,0l0,0l0,0.7l0,0l0,0
			c0,0,0,0,0-0.1l0-0.1c0-0.1,0-0.2,0-0.2c0-0.1,0-0.2,0-0.2l0-0.1c0,0,0,0,0-0.1l0,0l0,0l0,0l0,0.9l0,0l0,0
			c-0.1,0.1-0.1,0.3-0.3,0.4c-0.2,0.3-0.6,0.5-1,0.7c-0.8,0.4-1.9,0.6-3.1,0.6l-53.5-0.1l-0.1,57.7l33,14.5l33.1-14.4l0.1-57.8
			C406.7,468.3,407.2,467.4,407.8,467.4z"/>
	</g>
	<g>
		<path class="st10" d="M502.7,573.6c-0.3-2.5-0.7-6.2-1.4-10.9c-1.2-9.4-3.4-22.7-6.7-38.6c-3.4-15.9-8-34.2-14.1-53.6
			c-3.1-9.7-6.5-19.6-10.3-29.5c-0.9-2.5-1.9-5-2.9-7.5c-1.1-2.6-2.2-5.2-3.6-7.7c-2.7-5-6.1-9.6-10-13.8
			c-3.9-4.1-8.3-7.8-13.2-10.9c-2.4-1.5-5-2.9-7.4-4.1c-2.4-1.2-4.8-2.3-7.2-3.5c-9.5-4.6-18.9-9.2-27.9-13.6
			c-5.6-2.7-11-5.4-16.3-8c7.4-29.2,18.9-90.7,12.6-174.2C384.7,70.3,332.9,0,248.4,0c-84.5,0-136.3,70.3-145.9,197.9
			c-6.4,84.9,5.6,147,13,175.7c-8.7,4.1-18,8.6-28.1,13.3c-4.8,2.3-9.6,4.6-14.6,7c-2.5,1.2-5,2.4-7.5,3.6c-2.7,1.3-5.3,2.8-7.8,4.5
			c-10,6.7-18.3,16.4-23.4,27.6c-0.6,1.4-1.2,2.8-1.8,4.2l-1.5,4.1c-1,2.7-2,5.4-3,8.1c-1.9,5.4-3.7,10.8-5.4,16.2
			c-3.4,10.8-6.4,21.4-8.9,31.6C3.2,534.6,0.5,568.4-0.2,578c-0.1,0.6,0.1,1.2,0.3,1.7c-0.2,0.3-0.3,0.5-0.3,0.8
			c0,1.8,3.7,3.2,8.3,3.2l474.2,0.1c2.3,0,4.1-0.7,4.1-1.6c0-0.8-1.7-1.5-3.9-1.6c-21.6-0.4-129.2-2.6-231.3-3.2l0.5-117.7
			c0.1,0,0.3,0,0.4,0c4.6-0.7,9.3-4.6,13-7.1c8.1-5.5,16.1-11.2,23.9-17.1c10.8-8,21.5-16.1,32.1-24.3c1.1-0.9,1.1-3.1,0-4
			c-5.7-4.8-11.4-9.6-17.2-14.4c8.4-6.5,16.7-13,25.1-19.4c0.9-0.7,1.1-2.5,0.4-3.4c-5.7-7.5-11.3-14.9-17-22.4
			c18.6,8.8,49.9,23.9,96.2,47c4.7,2.3,9.6,4.7,14.5,7.2c2.5,1.2,4.9,2.4,7.4,3.6c2.3,1.1,4.6,2.5,6.8,3.9
			c8.7,5.8,16.1,14.1,20.8,23.8c0.6,1.2,1.1,2.4,1.7,3.7l1.6,3.9c1.1,2.6,2.1,5.3,3.2,7.9c2,5.3,4,10.6,5.9,15.8
			c3.7,10.5,7.1,20.9,10.1,30.8c12,39.9,17,73.2,18.4,82.8c0.2,1.6,1.3,2.7,2.4,2.6c1.2-0.1,1.9-1.6,1.8-3.2
			C503.1,577.5,503,576.1,502.7,573.6z M180.2,577.4c-98.6,0.4-152.4,0-171.9-0.1c-1.5,0-2.9,0.1-4.2,0.4c0.1-0.6,0.2-1.6,0.4-3.2
			c0.3-2.5,0.7-6.1,1.4-10.7c1.3-9.2,3.4-22.4,6.8-38c3.4-15.6,8-33.7,14.1-52.8c3.1-9.5,6.5-19.3,10.2-29.1
			c0.9-2.5,1.9-4.9,2.9-7.3c1-2.3,2-4.6,3.2-6.8c2.4-4.4,5.4-8.5,8.9-12.1c3.5-3.6,7.4-6.9,11.6-9.5c2.1-1.4,4.3-2.5,6.6-3.6
			c2.4-1.2,4.8-2.3,7.2-3.5c9.5-4.6,18.9-9.1,28-13.5c18.1-8.8,35.1-16.9,49.6-23.9c10.7-5.2,20-9.7,27.6-13.3
			c-5,6.5-9.9,13.1-14.9,19.6c-0.7,0.9-0.5,2.7,0.4,3.4c8.4,6.5,16.7,13,25.1,19.4c-5.7,4.8-11.4,9.6-17.2,14.4
			c-1.1,0.9-1.1,3.1,0,4c10.6,8.2,21.3,16.3,32.1,24.3c7.9,5.8,15.8,11.6,23.9,17.1c3.7,2.5,8.4,6.4,13,7.1c0.2,0,0.3,0,0.5,0
			c0.2,5.4,0.4,19-0.1,43.2c-0.6,27.1,1.8,63.2,2.6,74.5C224.6,577.3,201.7,577.3,180.2,577.4z M151.5,155.7c1.6,0,2.9-1.3,2.9-2.9
			V147c18.5-3.9,37.4-6.6,56.4-8.2c1.6-0.1,2.9-1.3,3.2-2.8l0.6-3l0.4,2.4c0.3,1.8,1.9,3,3.7,2.9c17-1.1,34.5-1.2,52.1-0.4
			c0.7,0,1.4-0.2,2-0.5c0.5,0.4,1.2,0.7,2,0.7c23,1.3,45.8,4.3,67.9,8.9v5.8c0,1.6,1.3,2.9,2.9,2.9c8.6-0.2,15.4,4,16.3,13.3
			c0.3,12.8-2.5,24.2-17.1,26.9c-1.3,0.2-2.1,1.6-2.1,2.8c0,50.2-36.6,109.4-91,112.7c-29,1.8-52.8-16.3-70.5-37.4
			c-17.7-21.2-26.8-47.8-26.8-75.3c0-1.2-0.9-2.6-2.1-2.8c-11.1-2-17.5-10.3-17.2-21.5C135.3,163.7,139.4,155.5,151.5,155.7z
			 M248.5,317.3c19.1,0.4,36-7.2,50.5-18.6l0.1,0.7l0,0.5l0,1.1c0,1.5,0.1,2.9,0.1,4.3c0.2,5.6,0.4,10.8,0.5,15.3
			c0.3,7.9,0.6,14,0.7,17.4c-0.4,0.4-0.6,0.9-0.6,1.4c-17,38.7-34,77.4-51,116.2c-0.2,0.5-0.3,1-0.3,1.4c0,0,0,0,0,0
			c0,0-0.1,0-0.1,0c0-0.5-0.1-0.9-0.3-1.4c-16-36.4-32-72.9-48-109.3c0.4-0.6,0.7-1.4,0.7-2.3c-0.1-4.3-0.2-12.4-0.2-24.9
			c0-5.1,0-11,0-17.8C214.6,310.9,230.7,317,248.5,317.3z M199.7,394.7c1.1-0.9,1.1-3.1,0-4c-5-3.8-9.9-7.7-14.9-11.5
			c-3.2-2.5-6.4-4.9-9.5-7.4c-0.5-0.4-0.9-0.7-1.2-0.9c6.5-8.6,13-17.2,19.5-25.8c15.6,35.5,31.2,71,46.8,106.5
			c-2.6-1.7-5.2-3.7-7.3-5.2c-7.5-5.1-14.8-10.4-22-15.8c-9.6-7.1-19.1-14.3-28.5-21.6C188.2,404.3,193.9,399.5,199.7,394.7z
			 M312.3,379.1c-5,3.8-9.9,7.7-14.9,11.5c-1.1,0.9-1.1,3.1,0,4c5.7,4.8,11.4,9.6,17.2,14.4c-9.4,7.3-18.9,14.5-28.5,21.6
			c-7.3,5.4-14.5,10.7-22,15.8c-2.1,1.4-4.7,3.5-7.3,5.2c15.6-35.5,31.2-71,46.8-106.5c6.5,8.6,13,17.2,19.5,25.8
			c-0.3,0.2-0.7,0.5-1.2,0.9C318.6,374.2,315.5,376.7,312.3,379.1z M304.1,334.2c0.1,1,0,1.9-0.2,2.9c-0.1,0-0.2-0.1-0.2-0.1
			c0-4.5,0-15.7,0.1-30.6c0-2.8,0-5.7,0-8.8c0-0.7,0-1.5,0-2.2c-0.3,0.1-0.7,0.2-1.1,0.4c7.1-6.1,13.6-13,19.3-20.2
			c16.9-21.2,25.9-47.4,26.4-74.6c15.4-3.9,19.6-17.2,19.3-32c-1.1-11.2-8.6-18.1-19.2-19v-6c0-2.5-1.9-4.7-4.4-5
			c-12.4-1.7-47.8-6.7-65.8-7.8l-1.3-18.5c-0.1-1.8-1.6-3.2-3.5-3.3h-0.1c-1.8,0-3.3,1.3-3.5,3.1l-2.1,18.1
			c-15.6-0.6-31.2-0.5-46.4,0.4l-3.2-18.2c-0.3-1.7-1.7-2.9-3.4-2.9c-1.8-0.1-3.2,1.2-3.5,2.9l-3.7,19.2
			c-14.7,1.3-44.2,7.1-54.9,9.3c-2.4,0.5-4,2.6-4,5v3.7c-27.4,2.2-24.7,44.3,0.1,51c0.7,35,18.1,73,46,95.7c0,5.1,0,9.9,0,14.5
			c0,9.9,0,18.1-0.1,23.8c-12,6-35,17.4-71.4,34.8c-7.2-28.5-18.5-88.9-12.3-171.3c9.2-122.5,58-190,137.4-190
			c79.4,0,128.2,67.5,137.4,190c6.1,80.9-4.7,140.6-11.9,169.7c-9-4.4-17.6-8.6-25.4-12.4C327.1,345.4,311,337.6,304.1,334.2z"/>
		<path class="st10" d="M204.9,169.7c-5.5,0-9.9,4.4-9.9,9.9c0,5.5,4.4,9.9,9.9,9.9c5.5,0,9.9-4.4,9.9-9.9
			C214.8,174.2,210.4,169.7,204.9,169.7z"/>
		<path class="st10" d="M295,169.7c-5.5,0-9.9,4.4-9.9,9.9c0,5.5,4.4,9.9,9.9,9.9c5.5,0,9.9-4.4,9.9-9.9
			C304.9,174.2,300.5,169.7,295,169.7z"/>
		<path class="st10" d="M239.3,240.3c0.5,0.3,1,0.6,1.5,0.9c1,0.5,2,1,3.1,1.3c2.1,0.7,4.3,0.9,6.2,0.8c3.8-0.3,6.7-1.5,8.6-2.4
			c1.9-0.9,2.9-1.6,2.9-1.6c0.7-0.4,0.6-1.6-0.1-2.5c-0.7-1-1.7-1.4-2.2-1.1c-1.1,0.7-3.4,2.3-7.2,3.2c-1.9,0.4-4.1,0.6-6.6-0.1
			c-1.2-0.4-2.5-1-3.8-1.8c-0.3-0.2-0.6-0.4-0.9-0.6c-0.2-0.2-0.4-0.4-0.6-0.6c-0.4-0.4-0.6-1-0.8-1.5c-0.2-0.7-0.1-1.4,0.1-2
			c0.4-1,0.9-2.1,1.4-3.2c0.9-2.3,1.6-4.7,2.3-7c1.3-4.7,2.2-9.5,2.8-13.9c1.3-8.7,1.8-15.8,1.9-17.9c0-0.3-0.4-0.7-1-0.7
			c-0.6-0.1-1.1,0.1-1.1,0.5c0,0-0.6,4.4-1.9,11c-1.3,6.6-3.1,15.4-6,23.8l-1.2,3.1l-0.6,1.5l-0.3,0.7c-0.1,0.3-0.3,0.7-0.4,1
			c-1,2.9,0.1,6.2,2.2,8.1C238.4,239.7,238.8,240,239.3,240.3z"/>
		<path class="st10" d="M231.6,263.8c1.9,1.5,4.5,3.1,7.5,4.3c3.1,1.2,6.7,2.2,10.7,2.1c4-0.1,7.6-1.1,10.6-2.4
			c3-1.3,5.5-2.8,7.5-4.3c3.9-2.9,5.8-5.4,5.3-5.9c-0.5-0.6-3.1,0.8-7.2,2.7c-4.1,1.8-10,4.5-16.3,4.6c-6.4,0.1-12.2-2.4-16.2-4.3
			c-4.1-2-6.5-3.5-7-3C226.1,258.1,227.7,260.8,231.6,263.8z"/>
		<path class="st10" d="M204.8,154.4c4-0.2,7.6,0.6,10.2,1.6c2.6,0.9,4.2,1.9,4.8,1.4c0.5-0.4-0.3-2.5-2.9-4.6
			c-2.5-2.1-7.2-4-12.4-3.6c-5.2,0.4-9.3,2.5-11.8,4.4c-2.5,2-3.7,3.6-3.3,4.2C190.3,159.1,196.7,155.1,204.8,154.4z"/>
		<path class="st10" d="M284.6,156c2.6-1,6.1-1.8,10.2-1.6c8.1,0.6,14.6,4.7,15.5,3.3c0.4-0.6-0.8-2.2-3.3-4.2
			c-2.5-1.9-6.7-4-11.8-4.4c-5.2-0.3-9.8,1.5-12.4,3.6c-2.6,2.1-3.4,4.1-2.9,4.6C280.4,157.9,282,157,284.6,156z"/>
	</g>
</g>
</svg>
