<?xml version="1.0" encoding="utf-8"?>
<!-- Generator: Adobe Illustrator 26.2.1, SVG Export Plug-In . SVG Version: 6.00 Build 0)  -->
<svg version="1.1" id="Layer_1" xmlns="http://www.w3.org/2000/svg" xmlns:xlink="http://www.w3.org/1999/xlink" x="0px" y="0px"
	 viewBox="0 0 513.8 583.8" style="enable-background:new 0 0 513.8 583.8;" xml:space="preserve">
<style type="text/css">
	.st0{fill:#73C977;}
	.st1{fill:#D7DF23;}
	.st2{fill:#69B86D;}
	.st3{fill:#FFFFFF;}
	.st4{fill:#FEDCB5;}
	.st5{fill:#EDAB7D;}
	.st6{fill:#414042;}
	.st7{fill:#333333;}
	.st8{fill:#303030;}
	.st9{fill:#5B3824;}
</style>
<g>
	<path class="st0" d="M468.9,432.1c-6-14.9-17.4-27.1-31.9-34.1l-131.6-63.6h-52.4h-52.4L69.1,398c-14.5,7-25.8,19.2-31.9,34.1
		C25.4,461.3,7.1,515,0.2,580.8h252.9h252.9C499,515,480.7,461.3,468.9,432.1z"/>
	<polygon class="st1" points="251,379.6 220.6,412.2 163.3,352.5 200.6,334.4 	"/>
	<path class="st2" d="M437.1,398l-110.8-53.6l1.9,18.2c0,0,69.4,43.3,98.5,72.6c12.4,12.5,14.4,88.7,27.3,117.1
		c17.3,38.1,52.1,28.4,52.1,28.4c-6.9-65.8-25.2-119.5-37-148.7C462.9,417.2,451.6,405,437.1,398z"/>
	<polygon class="st1" points="255.1,379.6 285.5,412.2 342.9,352.5 305.5,334.4 	"/>
	<path class="st3" d="M57.8,420.6c11.4-16.7,108-60.4,110.1-58.2l-1.2-11.6L69.1,398c-14.5,7-25.8,19.2-31.9,34.1
		C25.4,461.3,7.1,515,0.2,580.8H8c0.2-1.2,0.4-2.4,0.6-3.7C21.2,500.3,46.3,437.4,57.8,420.6z"/>
	<path class="st4" d="M297.4,295.5c-12.9,9.3-28.4,14.3-44.3,14.3c-15.9,0-31.5-4.9-44.3-14.3c-2.8-2-5.5-4.2-8.1-6.4v45.3
		l52.4,47.3l52.4-47.3v-45.3C302.9,291.3,300.2,293.5,297.4,295.5z"/>
	<path class="st5" d="M297.4,295.5c-12.9,9.3-28.4,14.3-44.3,14.3c-15.9,0-31.5-4.9-44.3-14.3c0,0,8.8,20.1,34.7,23.3
		c25.9,3.2,43.4-10.4,47.9-9.1c4.5,1.3,3.2,18.2,0,24.7s-33.2,33.6-38.3,34.3c-5.1,0.6-32.4-16.2-32.4-16.2l32.4,29.2l52.4-47.3
		v-45.3C302.9,291.3,300.2,293.5,297.4,295.5z"/>
	<path class="st3" d="M208.7,295.5c0,0-2.3,27.9,0,35c2.3,7.1,11.9,22,11.9,22l-20-18.1v-45.3L208.7,295.5z"/>
	<path class="st4" d="M371.3,161.8c-0.2-9.3-7.9-16.7-17.2-16.5l-2.3,0v-5.1V89.4h-98.7h-98.7v50.8v5.1l-2.3,0
		c-9.3-0.2-17,7.2-17.2,16.5l-0.2,7.4c-0.2,11.6,8.4,21.4,19.7,22.8v2.1c0,22.4,6.4,44.3,18.4,63.2l0,0c9.5,15,21.7,27.9,35.9,38.2
		c12.9,9.3,28.4,14.3,44.3,14.3c15.9,0,31.5-4.9,44.3-14.3c14.2-10.3,26.4-23.2,35.9-38.2v0c12-18.9,18.4-40.8,18.4-63.2V192
		c11.3-1.4,20-11.2,19.7-22.8L371.3,161.8z"/>
	<path class="st5" d="M351.7,194.2V192c11.3-1.4,20-11.2,19.7-22.8l-0.2-7.4c-0.2-9.3-7.9-16.7-17.2-16.5l-2.3,0v-5.1V89.4h-98.7
		h-45.3c-2.4,11.4-5.1,24.3-5.1,24.3s61.3,11.1,90.4,0c29.1-11.1,35.9-6,41.1,22.5c4.8,26.7,21,105-23.8,148.7
		c8.8-8.1,16.6-17.4,23.1-27.6C345.4,238.4,351.7,216.5,351.7,194.2z"/>
	<path class="st3" d="M231,305.9c-42.5-23.8-61.5-60.6-65.7-81.9c-2.2-11.2-2.7-21.2-2.6-28.2c0.1-5.5-3.5-10.2-8.6-12.1
		c-4.8-1.7-9.8-5-11-11.2c-2.4-12.5,5-23.3,5-23.3s-0.5-1.2-1.3-3.1c-6.8,2.1-11.8,8.3-11.9,15.8l-0.2,7.4
		c-0.2,11.6,8.4,21.4,19.7,22.8v1.2c0,21.7,5.6,43.1,16.9,61.7c9.7,16,22.5,29.7,37.4,40.6c7.4,5.3,15.6,9.2,24.3,11.5
		C232.4,306.6,231.8,306.3,231,305.9z"/>
	<path class="st6" d="M158.9,36.8c0,0,16.6-34.4,93.4-32.3c58.4,1.6,87.2,21.9,97.6,31.6c5,4.6,14,2.9,20.6,0.8c1.4-0.4,2.9,0,3.9,1
		l0,0c1.1,1.1,1.4,2.9,0.7,4.3c-21.2,43.3-67.2,58.3-67.2,58.3C256.2,121,183,112.2,183,112.2c-20.6,16.5-29,50.4-29,50.4
		s-9.7-2-20.1-40.7C123.5,83.1,133.9,48,158.9,36.8z"/>
	<path class="st7" d="M158.9,65.5c0,0,16.6-34.4,93.4-32.3c58.4,1.6,87.2,21.9,97.6,31.6c2,1.8,4.6,2.6,7.5,2.8
		c6.6-7.1,12.8-15.6,17.7-25.5c0.7-1.4,0.4-3.1-0.7-4.3c-1-1-2.5-1.4-3.9-1c-6.6,2.1-15.7,3.8-20.6-0.8
		c-10.5-9.6-39.3-29.9-97.6-31.6c-76.8-2.2-93.4,32.3-93.4,32.3c-21.9,9.8-32.7,37.9-28,70.8C134,87.8,143.8,72.3,158.9,65.5z"/>
	<path class="st8" d="M360.1,64.7L360.1,64.7c8.7,7.7,14,31.4,10.6,58.4c-3.4,27-21.2,39.4-21.2,39.4c-2.7-34.6-14.7-59.8-21.4-71.6
		C337.9,85.2,349.7,76.7,360.1,64.7z"/>
	<g>
		<path class="st9" d="M511.6,573.4c-0.3-2.6-0.7-6.3-1.4-11.1c-1.3-9.5-3.4-23.1-6.8-39.3c-3.4-16.1-8.1-34.8-14.4-54.5
			c-3.1-9.8-6.6-19.9-10.4-30c-0.9-2.5-2-5.1-3-7.6c-1.1-2.6-2.3-5.3-3.7-7.8c-2.8-5.1-6.2-9.8-10.2-14.1c-4-4.2-8.5-8-13.4-11.1
			c-2.4-1.6-5-2.9-7.5-4.2c-2.4-1.2-4.9-2.4-7.3-3.5c-9.7-4.7-19.2-9.4-28.4-13.8c-18.4-9-35.6-17.4-50.3-24.5
			c-22.8-11.1-39.7-19.4-46.2-22.5c0-2.2-0.2-4.6-0.2-7.3c0-10.5,0-21,0-31.5c7.2-6.1,13.7-13.1,19.5-20.4
			c17.2-21.6,26.3-48.2,26.8-75.8c15.7-3.9,19.9-17.5,19.6-32.6c-0.6-6.1-3.1-10.9-6.9-14.2c4.1-7.7,6.7-16.2,7.5-24.5
			c1.7-15.9,1.4-31.7-3.4-47c-0.8-2.7-2.7-7.8-5.3-11.4c6.4-7.4,12.1-15.9,13.2-23.7c0.8-5.5-5-9.8-10.2-8.3c-14,4-19.7-3.3-30.2-10
			C315.1,7.3,285.6,2,257.5,0.4c-30.1-1.8-84.7,1.3-101.8,33.3c-26.8,14-33.5,47.8-28.9,75.6c2.2,13.1,5.7,26.8,11.5,39.1
			c-12.5,12.4-6.7,40.6,13.3,46.1c0.7,35.3,18.1,73.6,46,96.8c0,10.3,0,20.6,0,31c0,3.4-0.3,6.3-0.1,9
			c-16.1,8.1-50.6,25.1-108.5,52.4c-4.9,2.3-9.8,4.7-14.9,7.1c-2.5,1.2-5.1,2.5-7.6,3.7c-2.7,1.3-5.3,2.9-7.9,4.6
			c-10.2,6.8-18.6,16.7-23.8,28c-0.7,1.4-1.3,2.9-1.8,4.3l-1.6,4.1c-1,2.8-2,5.5-3,8.3c-1.9,5.5-3.8,11-5.5,16.5
			c-3.5,11-6.5,21.8-9.1,32.1C3.5,533.7,0.7,568.1,0,577.9c-0.1,0.6,0.1,1.2,0.3,1.7c-0.2,0.3-0.3,0.5-0.3,0.8
			c0,1.8,3.8,3.3,8.5,3.3l482.4,0.1c2.3,0,4.2-0.7,4.2-1.6c0-0.9-1.7-1.6-4-1.6c-27.2-0.6-188.9-3.8-307.6-3.3
			c-100.3,0.4-155.1,0-174.9-0.2c-1.5,0-3,0.1-4.2,0.4c0.1-0.6,0.2-1.7,0.4-3.2c0.3-2.5,0.7-6.2,1.4-10.9c1.3-9.4,3.5-22.8,6.9-38.7
			c3.4-15.9,8.1-34.3,14.4-53.7c3.1-9.7,6.6-19.6,10.4-29.6c0.9-2.5,2-5,2.9-7.5c1-2.4,2-4.7,3.3-6.9c2.4-4.5,5.5-8.6,9-12.3
			c3.5-3.7,7.5-7,11.8-9.7c2.2-1.4,4.3-2.5,6.7-3.7c2.4-1.2,4.9-2.4,7.3-3.5c9.7-4.7,19.2-9.3,28.4-13.7
			c18.4-8.9,35.7-17.2,50.4-24.3c1.7-0.8,3.4-1.7,5.1-2.5c18.4,19.1,36.8,38.3,55.2,57.4c1.3,1.4,3.8,1.4,5.1,0
			c9.5-10.2,19-20.4,28.4-30.5c0.9,0.5,1.9,0.5,2.9,0c9.5,10.2,19,20.4,28.4,30.5c1.3,1.4,3.8,1.4,5.1,0
			c18.8-19.6,37.6-39.1,56.4-58.7c18.2,8.8,41.8,20.4,71.6,35.2c4.8,2.4,9.8,4.8,14.8,7.3c2.5,1.2,5,2.5,7.6,3.7
			c2.4,1.2,4.7,2.5,6.9,4c8.9,5.9,16.4,14.4,21.1,24.2c0.6,1.2,1.1,2.5,1.7,3.8l1.7,4c1.1,2.7,2.1,5.4,3.2,8.1
			c2.1,5.4,4.1,10.7,6,16.1c3.8,10.7,7.2,21.2,10.3,31.4c12.2,40.6,17.3,74.5,18.7,84.2c0.2,1.6,1.3,2.7,2.5,2.6
			c1.2-0.1,2-1.6,1.8-3.3C512.1,577.4,511.9,576,511.6,573.4z M366.1,89.9c2.3,11.9,1.6,24.8-0.3,36.7c-1.5,9.3-6.2,19.7-13,27.2
			c-2.9-21.4-8.9-42.1-19-61.3c7.2-4.5,13.9-9.7,20.2-15.3c2.1-1.9,4.5-4.1,6.9-6.5C362.5,75.1,365.7,87.8,366.1,89.9z M160.2,41.1
			c0.7-0.1,1.3-0.5,1.8-1.1c0.7-0.6,1.1-1.2,1.3-2c3.8-6.8,11.3-11.8,17.7-15.6c25.4-14.9,58.2-15,86.5-12.7
			c25.5,2,51.6,9.2,72.7,24c6.8,4.8,10.6,9.1,19.5,9.6c5,0.3,12.5-4.2,7.6,4.2c-3.3,5.7-7.4,10.9-11.8,15.8
			c-8.8,9.4-18.5,17.2-29.6,23.9c-0.2,0.1-0.4,0.3-0.6,0.4c-31.6,17.9-70.7,22.1-106.5,22.1c-9.9,0-19.8-0.5-29.6-1.3
			c-5.9-0.5-7.3-1.1-12.1,3.1c-12.5,10.8-20.8,28.1-25.7,44.3c-7.5-8.1-12.6-32.1-14.5-39.8C130.4,89.9,133.9,54.9,160.2,41.1z
			 M184.7,268.6c-18-21.5-27.2-48.6-27.2-76.6c0-1.2-0.9-2.6-2.2-2.8c-11.3-2.1-17.8-10.5-17.5-21.9c0.1-5.2,1.1-9.8,3.5-13.2
			c0.8,1.3,1.5,2.7,2.3,4c2.1,3.3,5.3,7.6,9.3,8.6c2.2,0.6,4.7-0.7,5.3-3c3.2-12.6,15.2-48.1,29.5-46.7c25.1,2.3,50.8,2.2,75.8-1.2
			c21.3-2.9,42.2-8.2,61.4-18.1c0.5-0.2,0.9-0.5,1.4-0.8c10.7,20.4,16.7,42.8,18.9,65.7c0.3,2.9,3.6,5.8,6.5,3.7
			c5-3.6,9.3-8.3,12.8-13.6c2.2,2.2,3.7,5.2,4,9.1c0.3,13-2.5,24.7-17.4,27.4c-1.3,0.2-2.2,1.6-2.2,2.8c0,33.8-16.3,71.6-43.3,94.3
			c-0.8,0-1.5,0.2-2.2,0.7c-2.4,2.1-4.9,4-7.5,5.9c-27.1,18.8-59.4,17.1-85.6-0.3C200.8,286,192.2,277.6,184.7,268.6z M253.2,312.7
			c13.8,0.3,26.5-3.6,38-10c1.3-0.7,2.5-1.5,3.8-2.2c0.2-0.1,0.4-0.3,0.6-0.4c1.1-0.7,2.2-1.3,3.2-2.1c0.3-0.2,0.5-0.4,0.8-0.7
			c1-0.7,1.9-1.4,2.8-2.1c0,8.3,0,16.7,0,25c0,4,0,7.9,0,11.9c-16.5,14.8-33,29.6-49.5,44.4c-16.5-14.8-33-29.6-49.5-44.4
			c0-4,0-7.9,0-11.9c0-8.2,0-16.4,0-24.6C217.9,305.9,234.7,312.3,253.2,312.7z M169.8,354c13.7-6.6,24.4-11.8,30.8-14.9
			c0.8,0.8,1.7,1.5,2.5,2.3c14.3,12.8,28.5,25.6,42.8,38.4c-8.4,9-16.8,18.1-25.3,27.1C203.7,389.3,186.7,371.7,169.8,354z
			 M260.3,379.8c13.8-12.4,27.6-24.8,41.4-37.2c1.5-1.3,2.9-2.6,4.4-4c2.2,1,4.3,2.1,6.5,3.1c8.1,3.9,16.1,7.8,24.2,11.7
			c-17.1,17.8-34.2,35.6-51.3,53.4C277.1,397.9,268.7,388.9,260.3,379.8z"/>
		<circle class="st9" cx="208.7" cy="172.6" r="10"/>
		<circle class="st9" cx="300.3" cy="172.6" r="10"/>
		<path class="st9" d="M241.4,224.1c0.5,0.3,1,0.6,1.5,0.9c1,0.5,2.1,1,3.1,1.4c2.1,0.7,4.3,0.9,6.3,0.8c3.9-0.3,6.8-1.5,8.8-2.4
			c2-0.9,3-1.6,3-1.6c0.7-0.4,0.6-1.6-0.1-2.6c-0.7-1-1.7-1.5-2.3-1.1c-1.1,0.7-3.4,2.3-7.3,3.2c-1.9,0.4-4.2,0.6-6.7-0.1
			c-1.2-0.4-2.5-1-3.8-1.8c-0.3-0.2-0.6-0.4-1-0.7c-0.2-0.2-0.4-0.4-0.6-0.6c-0.4-0.4-0.6-1-0.8-1.5c-0.2-0.7-0.1-1.4,0.1-2.1
			c0.5-1.1,0.9-2.1,1.4-3.2c0.9-2.3,1.7-4.7,2.3-7.2c1.3-4.8,2.2-9.7,2.9-14.1c1.4-8.9,1.8-16.1,1.9-18.2c0-0.3-0.4-0.7-1-0.7
			c-0.6-0.1-1.1,0.1-1.2,0.5c0,0-0.6,4.5-1.9,11.2c-1.3,6.7-3.1,15.7-6.1,24.2l-1.2,3.1l-0.7,1.5l-0.3,0.7c-0.1,0.3-0.3,0.7-0.4,1
			c-1,3,0.1,6.3,2.3,8.3C240.4,223.5,240.9,223.8,241.4,224.1z"/>
		<path class="st9" d="M232.8,256.8l42.4,0.4c0.4,0,0.7-1,0.7-2.2c0-1.3-0.3-2.3-0.8-2.2c-1.7,0.1-6.6,0.3-15.4-0.1
			c-10.4-0.5-24.6,1.6-27,2c-0.2,0-0.3,0.5-0.3,1.1C232.4,256.3,232.6,256.8,232.8,256.8z"/>
		<path class="st9" d="M219.3,150.3c2.6,1,4.3,1.9,4.9,1.4c0.6-0.5-0.3-2.6-2.9-4.7c-2.6-2.2-7.3-4.1-12.6-3.7
			c-5.2,0.4-9.5,2.5-12.1,4.5c-2.6,2-3.8,3.6-3.4,4.2c0.9,1.4,7.5-2.7,15.7-3.3C213,148.4,216.7,149.2,219.3,150.3z"/>
		<path class="st9" d="M289.8,150.3c2.6-1,6.2-1.9,10.3-1.6c8.2,0.7,14.8,4.8,15.7,3.3c0.4-0.6-0.8-2.2-3.4-4.2
			c-2.6-1.9-6.8-4.1-12.1-4.5c-5.3-0.4-10,1.5-12.6,3.7c-2.7,2.1-3.5,4.2-2.9,4.7C285.5,152.1,287.1,151.2,289.8,150.3z"/>
	</g>
</g>
</svg>
